<svg width="32" height="32" viewBox="0 0 32 32" fill="none" xmlns="http://www.w3.org/2000/svg">
<path d="M21 20L23.5 27L26 20" stroke="black" stroke-width="2" stroke-linecap="round" stroke-linejoin="round"/>
<path d="M11 21C10.609 20.3986 10 20 9 20C7.067 20 6 21.567 6 23.5C6 25.433 7.067 27 9 27C10 27 10.7037 26.4812 11 26" stroke="black" stroke-width="2" stroke-linecap="round"/>
<path d="M18.01 20.45C17.0115 19.7553 14 19.6248 14 21.8374C14 24.288 18.5 22.6248 18.5 25.2074C18.5 27.1484 15.4962 27.766 14 26.5" stroke="black" stroke-width="2" stroke-linecap="round" stroke-linejoin="round"/>
<path d="M16 3V13M16 3L13 6.13609M16 3L19 6.13609" stroke="black" stroke-width="2" stroke-linecap="round" stroke-linejoin="round"/>
<path d="M7 15V12C7 10.8954 7.89543 10 9 10H11M25 15V12C25 10.8954 24.1046 10 23 10H21" stroke="black" stroke-width="2" stroke-linecap="round" stroke-linejoin="round"/>
</svg>
