<?xml version="1.0" standalone="no"?>
<!DOCTYPE svg PUBLIC "-//W3C//DTD SVG 20010904//EN"
 "http://www.w3.org/TR/2001/REC-SVG-20010904/DTD/svg10.dtd">
<svg version="1.0" xmlns="http://www.w3.org/2000/svg"
 width="1920.000000pt" height="1920.000000pt" viewBox="0 0 1920.000000 1920.000000"
 preserveAspectRatio="xMidYMid meet">

<g transform="translate(0.000000,1920.000000) scale(0.100000,-0.100000)"
fill="#000000" stroke="none">
<path d="M9570 17740 l-7325 -5 -99 -28 c-210 -59 -401 -188 -531 -357 -85
-111 -114 -180 -140 -327 -13 -76 -15 -943 -15 -7462 -1 -5145 2 -7399 10
-7451 33 -233 117 -392 279 -527 80 -66 269 -162 396 -199 75 -22 120 -28 265
-35 273 -12 14488 -11 14609 1 110 12 217 43 314 91 84 42 215 129 267 175 79
72 174 231 227 381 l28 78 0 7465 0 7465 -28 85 c-80 238 -194 387 -375 491
-147 84 -360 154 -492 161 -36 1 -3361 1 -7390 -2z m7422 -674 c104 -34 160
-99 193 -224 14 -57 16 -674 16 -7296 -1 -5357 -4 -7247 -12 -7286 -33 -154
-88 -212 -234 -245 -59 -14 -847 -16 -7295 -16 -6441 0 -7236 2 -7295 16 -158
36 -218 103 -246 273 -5 35 -9 2923 -9 7292 0 6162 2 7242 14 7282 29 96 114
181 211 211 45 13 836 15 7325 13 7094 -1 7276 -1 7332 -20z"/>
<path d="M5565 13868 c-3 -13 -30 -174 -60 -358 -30 -184 -58 -347 -61 -362
l-6 -28 1410 0 1409 0 61 373 c35 204 62 378 62 385 0 9 -288 12 -1405 12
l-1405 0 -5 -22z"/>
<path d="M8915 13868 c-3 -13 -136 -741 -295 -1618 -160 -877 -293 -1607 -296
-1622 l-6 -28 431 0 c401 0 430 1 435 18 2 9 105 510 227 1112 122 602 225
1098 229 1103 3 4 357 6 786 5 l781 -3 -43 -220 c-24 -121 -203 -1046 -399
-2055 -196 -1009 -430 -2215 -520 -2680 -90 -465 -198 -1020 -239 -1235 -42
-214 -78 -400 -81 -412 l-5 -23 -447 -2 -447 -3 -97 -505 c-53 -278 -96 -506
-94 -508 4 -5 3027 17 3032 21 2 2 39 215 83 473 44 258 82 479 85 492 l5 22
-495 0 c-272 0 -495 3 -495 6 0 4 27 146 60 318 32 171 316 1652 630 3291 313
1639 572 2990 575 3003 l5 22 800 0 c440 0 800 -3 800 -6 0 -5 -293 -1503
-405 -2073 -14 -69 -25 -128 -25 -133 0 -4 200 -8 445 -8 l445 0 5 23 c4 20
247 1344 494 2697 50 272 94 507 97 523 l6 27 -3031 0 -3031 0 -5 -22z"/>
<path d="M5080 11234 c0 -8 -128 -709 -135 -741 l-5 -23 1395 0 1395 0 5 23
c6 30 115 725 115 737 0 7 -496 10 -1385 10 -762 0 -1385 -3 -1385 -6z"/>
<path d="M4595 8578 c-7 -20 -135 -723 -135 -742 0 -15 191 -16 2590 -16 1425
0 2590 3 2590 8 0 7 104 663 115 730 l6 32 -2581 0 c-2055 0 -2582 -3 -2585
-12z"/>
<path d="M4095 5948 c-4 -12 -125 -741 -125 -753 0 -3 964 -5 2143 -5 l2143 0
62 373 c34 204 62 378 62 385 0 9 -435 12 -2140 12 -1704 0 -2141 -3 -2145
-12z"/>
</g>
</svg>
