<svg width="32" height="32" viewBox="0 0 32 32" fill="none" xmlns="http://www.w3.org/2000/svg">
<path d="M27 8C27 10.7614 22.0751 13 16 13C9.92487 13 5 10.7614 5 8C5 5.23858 9.92487 3 16 3C22.0751 3 27 5.23858 27 8Z" fill="#64A939"/>
<path d="M27 8C27 10.7614 22.0751 13 16 13C9.92487 13 5 10.7614 5 8M27 8C27 5.23858 22.0751 3 16 3C9.92487 3 5 5.23858 5 8M27 8L23 26C22.5 27.5 19.866 29 16 29C12.134 29 9.5 27.5 9 26L5 8" stroke="#64A939" stroke-width="2" stroke-linecap="round"/>
<path d="M16 18C24.5 23.5 27.8093 22.2627 28.5 19.5C29 17.5 27.8333 14.5 26 14" stroke="#64A939" stroke-width="2" stroke-linecap="round" stroke-linejoin="round"/>
</svg>
