<svg width="120" height="120" viewBox="0 0 120 120" fill="none" xmlns="http://www.w3.org/2000/svg">
<path opacity="0.4" fill-rule="evenodd" clip-rule="evenodd" d="M75.136 59.9998L93.145 40.7848C97.129 36.5408 96.918 29.8708 92.674 25.8868C92.658 25.8728 92.644 25.8578 92.628 25.8438C88.342 21.8598 81.624 22.0898 77.623 26.3578L52.855 52.7878C49.049 56.8438 49.049 63.1578 52.855 67.2128L77.623 93.6418C81.623 97.9088 88.343 98.1418 92.628 94.1568C96.896 90.1978 97.147 83.5288 93.188 79.2618C93.173 79.2468 93.159 79.2308 93.145 79.2158L75.136 59.9998Z" fill="#23E6A8"/>
<path fill-rule="evenodd" clip-rule="evenodd" d="M43.8646 59.9998L25.8546 40.7848C21.8716 36.5408 22.0826 29.8708 26.3266 25.8868C26.3416 25.8728 26.3566 25.8578 26.3726 25.8438C30.6586 21.8598 37.3766 22.0898 41.3776 26.3578L66.1446 52.7878C69.9506 56.8438 69.9506 63.1578 66.1446 67.2128L41.3776 93.6418C37.3776 97.9088 30.6576 98.1418 26.3726 94.1568C22.1046 90.1978 21.8536 83.5288 25.8126 79.2618C25.8266 79.2468 25.8416 79.2308 25.8546 79.2158L43.8646 59.9998Z" fill="#23E6A8"/>
</svg>
