<svg xmlns="http://www.w3.org/2000/svg" class="icon icon-tabler icon-tabler-chart-dots-3" width="24" height="24" viewBox="0 0 24 24" stroke-width="2" stroke="currentColor" fill="none" stroke-linecap="round" stroke-linejoin="round">
   <path stroke="none" d="M0 0h24v24H0z" fill="none"></path>
   <path d="M5 7m-2 0a2 2 0 1 0 4 0a2 2 0 1 0 -4 0"></path>
   <path d="M16 15m-2 0a2 2 0 1 0 4 0a2 2 0 1 0 -4 0"></path>
   <path d="M18 6m-3 0a3 3 0 1 0 6 0a3 3 0 1 0 -6 0"></path>
   <path d="M6 18m-3 0a3 3 0 1 0 6 0a3 3 0 1 0 -6 0"></path>
   <path d="M9 17l5 -1.5"></path>
   <path d="M6.5 8.5l7.81 5.37"></path>
   <path d="M7 7l8 -1"></path>
</svg>