<svg xmlns="http://www.w3.org/2000/svg" class="icon icon-tabler icon-tabler-subtask" width="24" height="24" viewBox="0 0 24 24" stroke-width="2" stroke="currentColor" fill="none" stroke-linecap="round" stroke-linejoin="round">
   <path stroke="none" d="M0 0h24v24H0z" fill="none"></path>
   <path d="M6 9l6 0"></path>
   <path d="M4 5l4 0"></path>
   <path d="M6 5v11a1 1 0 0 0 1 1h5"></path>
   <path d="M12 7m0 1a1 1 0 0 1 1 -1h6a1 1 0 0 1 1 1v2a1 1 0 0 1 -1 1h-6a1 1 0 0 1 -1 -1z"></path>
   <path d="M12 15m0 1a1 1 0 0 1 1 -1h6a1 1 0 0 1 1 1v2a1 1 0 0 1 -1 1h-6a1 1 0 0 1 -1 -1z"></path>
</svg>