<svg width="32" height="32" viewBox="0 0 32 32" fill="none" xmlns="http://www.w3.org/2000/svg">
<path d="M26.2316 14.8554L28.5225 8.56113C28.7384 7.96814 28.3575 7.3267 27.7337 7.23136L26.6916 7.07209C22.9068 6.4936 19.274 5.17137 16.0028 3.1817L15.1022 2.63389C14.5631 2.30596 13.8593 2.55172 13.6434 3.14471L11.3522 9.4397C9.99832 13.1595 11.9753 18.0917 16.0841 19.5872C20.1929 21.0827 24.8777 18.5752 26.2316 14.8554Z" fill="#2FAD33" stroke="#2FAD33" stroke-width="2"/>
<path d="M5.35221 23.8554C6.70612 27.5752 11.3909 30.0827 15.4997 28.5872C18.0301 27.6662 19.752 25.4418 20.3853 22.9999C17.2365 23.7915 10.339 23.3874 7.9392 15.4374C6.93756 15.7029 5.9205 15.9149 4.89222 16.0721L3.85018 16.2314C3.22638 16.3267 2.84519 16.9674 3.06102 17.5604L5.35221 23.8554Z" fill="#D65348" stroke="#D65348" stroke-width="2" stroke-linejoin="round"/>
<path d="M20.7853 11.0873C21.0844 10.2655 21.993 9.84184 22.8148 10.1409C23.6366 10.44 24.0603 11.3487 23.7612 12.1704" stroke="white" stroke-width="1.5" stroke-linecap="round"/>
<path d="M14.7706 9.10196C15.0697 8.28019 15.9784 7.85649 16.8001 8.15559C17.6219 8.45468 18.0456 9.36332 17.7465 10.1851" stroke="white" stroke-width="1.5" stroke-linecap="round"/>
<path d="M6.782 22.3006C6.4829 21.4788 6.9066 20.5702 7.72837 20.2711C8.55014 19.972 9.45878 20.3957 9.75787 21.2174" stroke="white" stroke-width="1.5" stroke-linecap="round"/>
<path d="M20.2905 15.2194C20.2905 15.2194 19.2758 15.6926 17.7878 15.151C16.2999 14.6094 15.8267 13.5947 15.8267 13.5947" stroke="white" stroke-width="1.5" stroke-linecap="round" stroke-linejoin="round"/>
<path d="M10.8916 26.278C10.8916 26.278 11.1814 25.1964 12.5527 24.4047C13.924 23.613 15.0055 23.9028 15.0055 23.9028" stroke="white" stroke-width="1.5" stroke-linecap="round" stroke-linejoin="round"/>
</svg>
