<svg xmlns="http://www.w3.org/2000/svg" width="600" height="600" fill="none">
  <rect width="600" height="600" fill="#34D28B" rx="33"/>
  <path fill="#fff" fill-rule="evenodd" d="M456.472 259.345c0 29.698-3.165 55.523-9.47 77.423-6.33 21.9-15.142 40.104-26.46 54.586-11.319 14.482-25.068 25.242-41.223 32.306-16.155 7.064-34.082 10.583-53.757 10.583-14.393.11-28.734-1.764-42.615-5.57-13.167-3.722-25.169-10.963-35.931-21.723l-1.671.557 1.114 45.117v61.827H159V93.3588l60.72-3.899 16.712 29.5212c12.046-10.868 26.03-19.3709 41.223-25.0652 16.024-6.0179 33.019-9.0388 50.135-8.912 20.789 0 39.172 3.0635 55.15 9.1905 15.952 6.1267 29.423 15.9507 40.387 29.5207 10.964 13.546 19.219 31.471 24.789 53.751 5.571 22.28 8.356 49.573 8.356 81.879Zm-89.687-.557c0-19.318-1.215-35.268-3.621-47.902-2.405-12.634-6.128-22.559-11.141-29.8-4.695-6.996-11.538-12.274-19.497-15.039-9.079-2.953-18.587-4.365-28.132-4.177-11.643-.219-23.178 2.259-33.703 7.241-9.85 4.81-17.927 11.52-24.232 20.052v144.82c5.191 8.178 12.433 15.039 21.726 20.609 9.292 5.57 20.788 8.355 34.538 8.355 8.902.122 17.759-1.291 26.182-4.178 7.799-2.785 14.483-7.975 20.054-15.596 5.571-7.595 9.926-18.203 13.091-31.749 3.165-13.545 4.735-31.09 4.735-52.636Z" clip-rule="evenodd"/>
</svg>
