<svg width="32" height="32" viewBox="0 0 32 32" fill="none" xmlns="http://www.w3.org/2000/svg">
<path d="M10.5 20.5C10.5 20.5 10 20 9 20C7.067 20 6 21.567 6 23.5C6 25.433 7.067 27 9 27C10 27 10.7037 26.4812 11 26V24H10" stroke="#110000" stroke-width="2" stroke-linecap="round" stroke-linejoin="round"/>
<path d="M18.5 20H14V27H18.5M14 23.5H17.5" stroke="black" stroke-width="1.8" stroke-linecap="round" stroke-linejoin="round"/>
<path d="M23.5 27V20M21 20H26" stroke="black" stroke-width="2" stroke-linecap="round" stroke-linejoin="round"/>
<path d="M19 10C19 6.68629 16.2577 4 12.875 4H11.125C7.74226 4 5 6.68629 5 10C5 11.7572 5.77114 13.338 7 14.4353" stroke="black" stroke-width="2" stroke-linecap="round"/>
<path d="M13 9C13 12.3137 15.7423 15 19.125 15H20.875C24.2577 15 27 12.3137 27 9C27 5.68629 24.2577 3 20.875 3" stroke="black" stroke-width="2" stroke-linecap="round"/>
</svg>
