<svg width="32" height="32" viewBox="0 0 32 32" fill="none" xmlns="http://www.w3.org/2000/svg">
<path d="M6.06235 8.8749L5.76394 9.47173C5.59153 9.81655 5.52303 10.2023 5.56092 10.5859C5.7365 12.3639 5.9998 15.8004 5.9998 19C5.9998 22.3834 8.35516 25.1484 9.74546 26.2991C9.91107 26.4361 10.1024 26.5359 10.3093 26.5943C11.5512 26.9447 14.4841 27.5 18.4998 27.5C22.8998 27.5 24.6665 25.5 24.9998 24.5L25.8568 22.3576C25.9513 22.1214 25.9998 21.8693 25.9998 21.6148V17L26.4998 11V7.97214C26.4998 7.66165 26.4275 7.35542 26.2887 7.07771L26.0333 6.5671C25.7064 5.91311 25.0379 5.5 24.3067 5.5C23.5174 5.5 22.8076 5.98058 22.5144 6.71347L22.1428 7.64238C22.0483 7.87862 21.9998 8.13073 21.9998 8.38516V10.6716C21.9998 11.202 21.7891 11.7107 21.414 12.0858L21.2598 12.24C20.794 12.7058 20.1051 12.8684 19.4802 12.6601C19.1664 12.5556 18.8294 12.5426 18.5085 12.6228L17.3359 12.916C17.1135 12.9716 16.9023 13.065 16.7116 13.1922L16.3137 13.4574C15.8002 13.7998 15.1573 13.8858 14.5718 13.6907L14.3077 13.6026C14.1038 13.5347 13.8902 13.5 13.6752 13.5H12.1832C12.0617 13.5 11.9411 13.5196 11.8258 13.558C11.1434 13.7855 10.4249 13.3258 10.3454 12.6108L10.0392 9.85452C10.0131 9.62002 9.94579 9.39199 9.84028 9.18096L9.68296 8.86632C9.27962 8.05963 8.38626 7.62271 7.50187 7.79959L7.45897 7.80817C6.85378 7.9292 6.33836 8.32288 6.06235 8.8749Z" fill="#FDC31F"/>
<path d="M11 17.5V15.5C11 14.1193 12.1193 13 13.5 13V13C14.8807 13 16 14.1193 16 15.5V17" stroke="#FFC826" stroke-width="2" stroke-linecap="round" stroke-linejoin="round"/>
<path d="M16 17V14.5C16 13.1193 17.1193 12 18.5 12V12C19.8807 12 21 13.1193 21 14.5V17" stroke="#FFC826" stroke-width="2" stroke-linecap="round" stroke-linejoin="round"/>
<path d="M21.2846 16.9789L21.8249 7.49597C21.9035 6.11749 23.0847 5.06369 24.4631 5.14225V5.14225C25.8416 5.22081 26.8954 6.40196 26.8168 7.78043L25.992 22.2553" stroke="#FFC826" stroke-width="2" stroke-linecap="round" stroke-linejoin="round"/>
<path d="M19.0001 21.5H15.2501C14.0075 21.5 13.0001 20.4927 13.0001 19.25C13.0001 18.0074 14.0075 17 15.2501 17H20.9376C23.7336 17 26.0001 19.2666 26.0001 22.0625C26.0001 24.8091 23.8099 27.0548 21.0641 27.1234L14.2001 27.295C9.72719 27.4068 6.0369 23.8299 6.00038 19.3644C6.00002 19.32 6.00048 19.2757 6.00104 19.2313C6.00317 19.0608 6.00772 18.5791 6.00011 18C5.95702 14.7192 5.37544 10.857 5.25735 10.1039C5.24344 10.0152 5.23107 9.92835 5.22731 9.83864C5.17209 8.52062 6.15626 7.37454 7.48458 7.24431C8.86069 7.10939 10.0856 8.11557 10.2205 9.49167L11.0039 17.5778C11.0888 18.454 11.6715 19.2026 12.5 19.5V19.5" stroke="#FFC826" stroke-width="2" stroke-linecap="round" stroke-linejoin="round"/>
<path d="M11 17.5001V15.5001C11 14.1193 12.1193 13.0001 13.5 13.0001C14.8807 13.0001 16 14.1193 16 15.5001V17.0001V14.5001C16 13.1193 17.1193 12.0001 18.5 12.0001C19.8807 12.0001 21 13.1193 21 14.5001V17.0001M21.2846 16.979L21.8249 7.49603C21.9035 6.11754 23.0847 5.06374 24.4631 5.14231C25.8416 5.22087 26.8954 6.40202 26.8168 7.78049L25.992 22.2553M19.0001 21.5001H15.2501C14.0075 21.5001 13.0001 20.4927 13.0001 19.2501M13.0001 19.2501C13.0001 18.0074 14.0075 17.0001 15.2501 17.0001H20.9376C23.7336 17.0001 26.0001 19.2666 26.0001 22.0626C26.0001 24.8092 23.8099 27.0548 21.0641 27.1235L14.2001 27.2951C9.72719 27.4069 6.0369 23.8299 6.00038 19.3644C6.00002 19.3201 6.00048 19.2757 6.00104 19.2314C6.00317 19.0609 6.00772 18.5791 6.00011 18.0001C5.95702 14.7192 5.37544 10.8571 5.25735 10.104C5.24344 10.0153 5.23107 9.9284 5.22731 9.83869C5.17209 8.52067 6.15626 7.3746 7.48458 7.24436C8.86069 7.10944 10.0856 8.11562 10.2205 9.49173L11.0039 17.5778C11.0706 18.2656 11.4439 18.8747 12.0021 19.2488C12.2987 19.4476 12.6807 19.4097 13.0001 19.2501V19.2501Z" stroke="#ECA601" stroke-width="2" stroke-linecap="round" stroke-linejoin="round"/>
</svg>
