<svg xmlns="http://www.w3.org/2000/svg" width="32" height="32" viewBox="0 0 32 32">
    <path d="M15.233 2.605c0 1.682-.017 2.663-.042 2.655a43.604 43.604 0 0 1-1.13-.764l-1.086-.75V.59h-1.533l-.009 1.026-.013 1.03-.545-.398c-.511-.37-.55-.39-.605-.32-.03.045-.213.27-.409.504l-.43.513c-.069.082-.06.095.298.357.204.148.699.501 1.095.776.4.279.924.648 1.167.816.656.46 1.44 1.002 2.113 1.461.328.222.716.488.865.591l.264.185v1.038c0 .693-.012 1.038-.042 1.038-.026 0-.145-.07-.269-.16-.123-.086-.634-.435-1.137-.772l-1.427-.956c-.61-.41-.797-.537-1.939-1.284a82.297 82.297 0 0 1-1.35-.903l-.482-.328v-2.9H7.053v3.454l.405.386.405.385V7.3c0 .644-.013 1.17-.03 1.165-.021 0-.418-.262-.886-.587l-.852-.582-.013-1.875-.009-1.876H4.54v3.16H2.324V8.14h2.267l.494.32c.716.46 1.632 1.063 2.054 1.35.2.131.443.3.54.365l.18.12.004.849c0 .471-.013.853-.026.853s-.123-.074-.243-.168c-.123-.09-.443-.328-.711-.53-.268-.2-.712-.529-.98-.734-.268-.205-.541-.41-.6-.455l-.116-.082-.213.279c-.115.151-.32.39-.451.529a2.478 2.478 0 0 0-.239.27c0 .013.396.333.882.715.481.377 1.09.857 1.35 1.058 1.781 1.4 1.935 1.51 3.818 2.77l2.514 1.686c.856.579 1.738 1.17 1.96 1.318l.404.266.013 1.047c.004.574-.004 1.116-.021 1.202l-.035.152-.83-.591c-3.728-2.655-4.218-3.037-6.2-4.85-.417-.386-1-.92-1.29-1.182-.29-.267-.835-.747-1.214-1.063a363.968 363.968 0 0 1-2.484-2.1l-.222-.193-.162.197c-.09.106-.323.352-.515.545l-.358.353.213.16c.115.086.486.39.822.673.337.283.98.817 1.436 1.19l.827.677-2.608.012-2.607.009.008.664c0 .365.013.686.026.718.017.045.554.054 2.99.054h2.97l.294.14c.239.11.908.512 1.67.996.06.037-.818.05-3.936.05l-4.018.004v1.436l1.687.008 1.692.012-.712.608c-.388.332-.707.61-.707.62 0 .003.234.233.52.504l.52.496.553-.48c.307-.266.903-.771 1.321-1.124l.763-.644h2.049c1.806.004 2.04.008 1.964.061-.094.066-.307.234-1.06.821-.278.222-.563.414-.64.435-.077.025-.84.037-1.772.029l-1.64-.009-.013.706-.009.706h.873c.482 0 .874.012.87.029 0 .02-.2.197-.448.402-.243.2-.439.381-.434.394.008.016.238.254.515.525l.503.496.515-.435c.605-.508 2.254-1.83 3.038-2.437.307-.234.643-.496.754-.583.111-.086.218-.155.239-.155.047 0 .588.402 3.063 2.269l.311.234v6.803l-.541.307c-.303.169-.754.423-1.014.563-.256.139-.64.352-.852.471-.209.12-.652.357-.98.526-.328.172-.69.36-.81.426l-.212.115 3.08.013c1.695.004 4.456.004 6.135 0l3.055-.013-.363-.18c-1.133-.562-3.83-2.02-4.013-2.17-.072-.058-.077-.276-.077-3.46v-3.393l.205-.16a142.67 142.67 0 0 1 2.641-1.978c.286-.21.55-.373.58-.361.03.012.379.279.775.59.396.313.92.723 1.168.916a70.87 70.87 0 0 1 2.049 1.67l.498.418.512-.52c.28-.284.507-.53.498-.542-.009-.013-.209-.177-.443-.37s-.426-.36-.426-.381c-.004-.017.379-.03.848-.03h.852v-1.394h-3.443l-.507-.382c-.911-.685-1.201-.91-1.201-.944-.004-.016.912-.028 2.028-.028h2.028l.26.213c.29.242 1.52 1.293 2.04 1.744l.341.295.503-.5c.277-.275.503-.509.503-.521 0-.013-.307-.28-.678-.595s-.677-.587-.677-.608c-.004-.016.746-.028 1.657-.028h1.662v-1.436l-4.035-.009-4.039-.012.597-.324c.328-.18.724-.406.877-.5.622-.382.243-.345 3.618-.345h2.982v-1.436H29.39l-2.59-.005.131-.11c.073-.062.503-.415.955-.788.456-.374 1.133-.932 1.504-1.243l.677-.57-.358-.354c-.191-.197-.43-.443-.524-.55l-.17-.196-.43.381c-.58.513-2.148 1.888-2.463 2.158-.332.284-1.785 1.584-2.377 2.126a40.26 40.26 0 0 1-2.48 2.1c-.775.6-4.426 3.246-4.473 3.246-.013 0-.026-.541-.026-1.206v-1.202l.46-.308a636.238 636.238 0 0 1 3.332-2.22c2.901-1.924 3.178-2.125 6.122-4.468l1.031-.825-.31-.353a8.16 8.16 0 0 1-.452-.55c-.077-.106-.15-.192-.162-.192-.009 0-.128.09-.26.196-.682.559-2.318 1.814-2.365 1.814-.013 0-.025-.386-.025-.857v-.862l.426-.3c.23-.164.562-.394.732-.504.17-.115.597-.398.95-.628.35-.234.742-.493.87-.575l.23-.151 1.154-.02 1.155-.021V6.724l-1.095-.012-1.1-.008v-3.16h-1.533v3.734l-.264.185-.886.607-.618.427-.013-1.194-.008-1.19.404-.394.405-.39V1.903h-1.534v2.913l-.456.296a516.71 516.71 0 0 1-1.973 1.325c-.434.287-1.064.714-1.405.944a202.549 202.549 0 0 1-2.778 1.859c-.021.008-.034-.472-.034-1.067v-1.08l.665-.45c.366-.25.894-.608 1.171-.8.277-.194.673-.464.878-.604.903-.615 2.803-1.961 2.995-2.117l.136-.115-.153-.172a15.126 15.126 0 0 1-.464-.57c-.167-.222-.316-.399-.328-.399-.013-.004-.252.173-.533.386s-.524.386-.541.39c-.021 0-.034-.464-.034-1.026V.59h-1.534l-.008 1.588-.013 1.584-1.087.75c-.596.415-1.099.756-1.116.756-.021 0-.034-1.202-.034-2.667V-.066h-1.534v2.67zm-4.92 5.162c.421.283.988.66 1.256.845.443.304 1.457.985 2.437 1.641.205.136.554.365.776.513.221.144.413.304.426.349.038.14.03 2.031-.013 2.031-.021 0-.34-.201-.711-.443a489.996 489.996 0 0 0-4.107-2.68c-.784-.504-.92-.607-.942-.714-.038-.164-.043-1.489-.013-1.834.021-.184.047-.266.077-.25.025.012.392.259.814.542zm12.282.545-.012 1.075-.426.288-1.044.693c-.341.226-.763.505-.938.624-1.41.94-3.331 2.195-3.365 2.195-.026 0-.043-.402-.043-1.059l.004-1.054.18-.127c.097-.07.553-.378 1.009-.681.456-.304 1.129-.755 1.491-.998.89-.599 2.663-1.78 2.876-1.916a.734.734 0 0 1 .226-.11c.042-.005.05.225.042 1.07zm-9.769 5.113c2.173 1.432 2.33 1.543 2.369 1.641.043.103.055 2.02.013 2.02-.013 0-.439-.28-.946-.62-.507-.345-1.09-.735-1.3-.874-.204-.14-.52-.35-.698-.468a87.535 87.535 0 0 0-1.5-.98c-.647-.42-1.218-.801-1.27-.846-.093-.078-.097-.115-.097-.681 0-.329.012-.78.03-.997l.025-.398 1.112.722c.613.398 1.632 1.067 2.262 1.481zm9.778-1.165v1l-.605.411c-.58.386-1.261.833-2.015 1.326-.188.123-.35.233-.362.246-.013.012-.23.16-.49.328a183.046 183.046 0 0 0-2.067 1.37l-.243.16c-.042.025-.055-.192-.055-1.034v-1.062l1.248-.809c.682-.447 1.751-1.14 2.373-1.55 1.38-.903 2.143-1.387 2.182-1.387.021 0 .034.45.034 1z"/>
</svg>
