<svg xmlns="http://www.w3.org/2000/svg" fill="none" viewBox="0 0 102.06 101.48557692307692" style="max-height: 500px" width="102.06" height="101.48557692307692">
<path fill="black" d="M123.495 60.7193V60.3727H130.528V60.7193C130.528 66.0827 133.591 70.1893 142.925 70.1893H143.621C150.795 70.1893 154.695 67.126 154.695 62.5293V62.1827C154.695 57.866 152.188 55.986 147.801 54.9393L136.658 52.2227C129.901 50.5527 125.308 46.8593 125.308 39.5493V38.8527C125.308 30.776 131.715 25.4127 142.718 25.4127H143.415C154.208 25.4127 160.408 31.2627 160.408 39.2693V39.616H153.515V39.2693C153.515 35.1593 150.241 31.1927 143.418 31.1927H142.721C135.758 31.1927 132.068 34.396 132.068 38.9227V39.2693C132.068 42.9593 134.228 45.1193 139.031 46.3027L150.245 49.0193C157.068 50.6893 161.458 54.1727 161.458 61.6227V62.3193C161.458 70.676 154.981 75.9693 143.561 75.9693H142.865C128.728 75.9693 123.505 69.7027 123.505 60.7193H123.495Z"/>
<path fill="black" d="M166.875 25.9693H173.421V33.2127H166.875V25.9693ZM166.875 39.896H173.421V75.4126H166.875V39.896Z"/>
<path fill="black" d="M179.681 39.8993H185.948V45.6093C189.081 40.9427 191.798 39.4827 196.811 39.4827H197.508C204.821 39.4827 208.998 43.3127 208.998 52.296V75.416H202.451V53.1993C202.451 47.0727 200.155 44.6327 195.695 44.6327H194.998C189.428 44.6327 186.225 48.8793 186.225 55.0093V75.4127H179.678V39.896L179.681 39.8993Z"/>
<path fill="black" d="M214.285 78.0627H220.831V78.4094C220.831 81.6827 223.895 83.146 229.675 83.146H229.955C235.248 83.146 238.591 81.5427 238.591 76.7394V68.6627C235.875 72.7727 233.368 74.3027 228.355 74.3027H227.658C218.885 74.3027 213.591 67.546 213.591 57.2427V56.546C213.591 46.2394 218.885 39.486 227.588 39.486H228.285C233.508 39.486 236.085 40.9494 238.801 45.546V39.906H245.068V76.746C245.068 84.8227 239.288 88.026 229.678 88.026H229.398C217.838 88.026 214.285 83.7094 214.285 78.416V78.0627ZM229.398 69.216H230.095C236.015 69.216 239.008 65.316 239.008 57.2394V56.5427C239.008 48.466 236.015 44.566 230.095 44.566H229.398C223.688 44.566 220.485 48.536 220.485 56.5427V57.2394C220.485 65.246 223.688 69.216 229.398 69.216Z"/>
<path fill="black" d="M251.328 25.9693H257.875V75.4126H251.328V25.9693Z"/>
<path fill="black" d="M263.298 58.0027V57.306C263.298 45.886 268.938 39.4793 279.105 39.4793H279.801C289.411 39.4793 294.635 45.0493 294.635 56.6793C294.635 57.7927 294.565 58.6293 294.495 59.186H269.981C270.191 67.056 273.395 70.956 279.105 70.956H279.801C285.998 70.956 287.321 66.986 287.321 64.966V64.6193H293.938V64.966C293.938 69.3526 290.945 75.8293 280.011 75.8293H279.315C268.798 75.8293 263.298 69.4227 263.298 58.0027ZM287.951 54.3127V54.1726C287.951 47.2093 284.888 44.2827 279.735 44.2827H279.038C274.095 44.2827 270.541 47.486 270.055 54.3093H287.951V54.3127Z"/>
<path fill="black" d="M299.228 60.7193V60.3727H306.261V60.7193C306.261 66.0827 309.325 70.1893 318.658 70.1893H319.355C326.528 70.1893 330.428 67.126 330.428 62.5293V62.1827C330.428 57.866 327.921 55.986 323.535 54.9393L312.391 52.2227C305.635 50.5527 301.041 46.8593 301.041 39.5493V38.8527C301.041 30.776 307.448 25.4127 318.451 25.4127H319.148C329.941 25.4127 336.141 31.2627 336.141 39.2693V39.616H329.248V39.2693C329.248 35.1593 325.975 31.1927 319.151 31.1927H318.455C311.491 31.1927 307.798 34.396 307.798 38.9227V39.2693C307.798 42.9593 309.958 45.1193 314.761 46.3027L325.975 49.0193C332.798 50.6893 337.188 54.1727 337.188 61.6227V62.3193C337.188 70.676 330.711 75.9693 319.291 75.9693H318.595C304.458 75.9693 299.235 69.7027 299.235 60.7193H299.228Z"/>
<path fill="black" d="M346.928 68.2393V45.2593H340.521V39.896H345.605C346.648 39.896 347.208 39.2693 347.208 38.2226V30.6326H353.475V39.896H362.318V45.2593H353.475V67.056C353.475 69.3526 354.381 70.0493 356.468 70.0493H362.318V75.4126H354.171C349.018 75.4126 346.928 73.046 346.928 68.2393Z"/>
<path fill="black" d="M365.655 58.0027V57.306C365.655 45.886 371.085 39.4793 381.671 39.4793H382.368C392.955 39.4793 398.385 45.886 398.385 57.306V58.0027C398.385 69.4227 392.951 75.8293 382.368 75.8293H381.671C371.085 75.8293 365.655 69.4227 365.655 58.0027ZM381.671 70.746H382.368C388.218 70.746 391.491 66.916 391.491 58.0027V57.306C391.491 48.3927 388.218 44.5627 382.368 44.5627H381.671C375.821 44.5627 372.548 48.3927 372.548 57.306V58.0027C372.548 66.916 375.821 70.746 381.671 70.746Z"/>
<path fill="black" d="M403.811 39.8993H410.078V46.446C412.935 41.5027 414.258 39.8993 418.575 39.8993H423.031V45.956H417.321C413.145 45.956 410.358 49.4393 410.358 54.7293V75.4127H403.811V39.896V39.8993Z"/>
<path fill="black" d="M424.621 58.0027V57.306C424.621 45.886 430.261 39.4793 440.428 39.4793H441.124C450.734 39.4793 455.958 45.0493 455.958 56.6793C455.958 57.7927 455.888 58.6293 455.818 59.186H431.305C431.514 67.056 434.718 70.956 440.428 70.956H441.124C447.321 70.956 448.644 66.986 448.644 64.966V64.6193H455.261V64.966C455.261 69.3526 452.268 75.8293 441.335 75.8293H440.638C430.121 75.8293 424.621 69.4227 424.621 58.0027ZM449.274 54.3127V54.1726C449.274 47.2093 446.211 44.2827 441.058 44.2827H440.361C435.418 44.2827 431.864 47.486 431.378 54.3093H449.274V54.3127Z"/>
<path fill="black" d="M85.1941 46.2498C84.9875 46.9697 84.7575 47.6831 84.5075 48.3831C84.2441 49.1198 83.9608 49.8431 83.6508 50.5564L73.2808 50.3397C73.2808 50.5497 73.2808 50.7564 73.2741 50.9664L101.461 51.5564C101.497 49.8931 101.454 48.2331 101.324 46.5864L85.1908 46.2498H85.1941Z"/>
<path fill="black" d="M63.4342 1.67975L63.1508 2.38308C64.7142 2.96975 66.2275 3.66641 67.6841 4.45641L57.6542 29.3197C58.2642 29.5064 58.8742 29.7231 59.4775 29.9664C59.5075 29.9797 59.5375 29.9897 59.5642 30.0031L70.1075 3.86308C70.0775 3.84975 70.0475 3.83975 70.0208 3.82641C67.8475 2.94975 65.6475 2.23642 63.4342 1.67975Z"/>
<path fill="black" d="M73.5174 8.40974C74.7741 9.45307 75.9608 10.5797 77.0674 11.7831L62.7574 31.6164C63.2574 31.9231 63.7441 32.2464 64.2108 32.5864L80.7074 9.72641C78.9374 8.44641 77.0674 7.26974 75.1041 6.21307L73.5174 8.41307V8.40974Z"/>
<path fill="black" d="M81.0907 17.0564C81.9441 18.4164 82.7074 19.8364 83.3774 21.3098L67.1174 35.1198C67.4574 35.4731 67.7841 35.8364 68.1007 36.2131L89.5874 17.9631C88.2574 16.3898 86.8274 14.8931 85.3007 13.4831L81.0941 17.0564H81.0907Z"/>
<path fill="black" d="M93.3641 23.0564L85.4074 27.0231C85.8074 28.5464 86.1108 30.1097 86.3108 31.7064L70.4508 39.6131C70.6441 39.9597 70.8308 40.3097 71.0041 40.6631L96.2274 28.0897C95.3708 26.3597 94.4141 24.6797 93.3608 23.0564H93.3641Z"/>
<path fill="black" d="M86.5874 37.0664C86.5541 38.6464 86.4174 40.2064 86.1841 41.7331L72.5508 44.7931C72.6274 45.0864 72.7008 45.3798 72.7641 45.6764L100.267 39.5031C99.8741 37.7498 99.3907 36.0198 98.8141 34.3198L86.5874 37.0631V37.0664Z"/>
<path fill="black" d="M100.717 59.0898L81.9207 54.0364C81.2141 55.2798 80.4374 56.4831 79.5941 57.6298L72.6207 55.7564C72.5807 55.9131 72.5407 56.0664 72.4974 56.2231L99.7174 63.5398C100.121 62.0598 100.451 60.5764 100.714 59.0864L100.717 59.0898Z"/>
<path fill="black" d="M77.4707 60.2598C76.6107 61.2298 75.6974 62.1531 74.7374 63.0231L70.6841 60.7864C70.6207 60.9064 70.5541 61.0264 70.4874 61.1464L95.1674 74.7631C95.8307 73.5598 96.4507 72.3231 97.024 71.0498L77.4674 60.2598H77.4707Z"/>
<path fill="black" d="M72.3841 64.9897C71.4574 65.6997 70.4941 66.3631 69.5007 66.9831L67.5841 65.2131C67.5141 65.2931 67.4407 65.3697 67.3674 65.4497L88.0741 84.5797C88.9207 83.6697 89.7341 82.7231 90.5141 81.7431L72.3841 64.9931V64.9897Z"/>
<path fill="black" d="M81.5474 90.4764L66.9874 68.4097C66.4108 68.7064 65.8274 68.9864 65.2341 69.253C65.2341 69.253 64.1641 69.713 63.9208 69.813L78.8241 92.3964C79.7541 91.7864 80.6607 91.1464 81.5507 90.4764H81.5474Z"/>
<path fill="black" d="M61.4474 70.6997C61.2007 70.7764 59.6374 71.2297 59.1741 71.3431C59.1741 71.3431 58.7374 71.4497 58.6174 71.4764L67.9674 97.7731C68.8874 97.4464 69.7974 97.0964 70.6974 96.7164L61.4474 70.6964V70.6997Z"/>
<path fill="black" d="M55.8275 71.9764C55.0075 72.1531 54.1775 72.2798 53.3375 72.3631L56.1508 100.413C56.9875 100.33 57.8208 100.226 58.6475 100.103L55.8275 71.9798V71.9764Z"/>
<path fill="black" d="M50.1241 72.4364C49.4241 72.3997 48.7241 72.3331 48.0241 72.2297L44.0408 100.14C44.7374 100.24 45.4374 100.326 46.1341 100.4L50.1241 72.4397V72.4364Z"/>
<path fill="black" d="M17.2675 54.5764C17.4741 53.8564 17.7041 53.1431 17.9541 52.4431C18.2175 51.7064 18.5008 50.9831 18.8108 50.2698L29.1808 50.4864C29.1808 50.2764 29.1808 50.0698 29.1875 49.8598L1.00081 49.2698C0.96414 50.9331 1.00747 52.5931 1.13747 54.2398L17.2708 54.5764H17.2675Z"/>
<path fill="black" d="M39.0307 99.1464L39.3141 98.4431C37.7507 97.8564 36.2374 97.1597 34.7807 96.3697L44.8107 71.5064C44.2007 71.3197 43.5907 71.103 42.9874 70.8597C42.9574 70.8464 42.9274 70.8364 42.9007 70.823L32.3574 96.963C32.3874 96.9764 32.4174 96.9864 32.4441 96.9997C34.6174 97.8764 36.8174 98.5897 39.0307 99.1464Z"/>
<path fill="black" d="M28.9441 92.4164C27.6875 91.3731 26.5008 90.2464 25.3941 89.0431L39.7041 69.2097C39.2041 68.9031 38.7175 68.5797 38.2508 68.2397L21.7541 91.0997C23.5241 92.3797 25.3941 93.5564 27.3575 94.6131L28.9441 92.4131V92.4164Z"/>
<path fill="black" d="M21.3708 83.7698C20.5175 82.4098 19.7541 80.9898 19.0841 79.5164L35.3441 65.7064C35.0041 65.3531 34.6775 64.9898 34.3608 64.6131L12.8741 82.8631C14.2041 84.4364 15.6341 85.9331 17.1608 87.3431L21.3675 83.7698H21.3708Z"/>
<path fill="black" d="M9.10079 77.7697L17.0575 73.8031C16.6575 72.2797 16.3541 70.7164 16.1541 69.1197L32.0141 61.2131C31.8208 60.8664 31.6341 60.5164 31.4608 60.1631L6.23413 72.7364C7.0908 74.4664 8.04746 76.1464 9.10079 77.7697Z"/>
<path fill="black" d="M15.8741 63.7598C15.9074 62.1798 16.0441 60.6198 16.2774 59.0931L29.9107 56.0331C29.8341 55.7398 29.7607 55.4464 29.6974 55.1498L2.19409 61.3198C2.58742 63.0731 3.07076 64.8031 3.64742 66.5031L15.8774 63.7598H15.8741Z"/>
<path fill="black" d="M1.74414 41.7364L20.5408 46.7897C21.2475 45.5464 22.0241 44.3431 22.8675 43.1964L29.8408 45.0697C29.8808 44.9131 29.9208 44.7597 29.9641 44.6031L2.74081 37.2831C2.33747 38.7631 2.00747 40.2464 1.74414 41.7364Z"/>
<path fill="black" d="M24.9908 40.5664C25.8508 39.5964 26.7642 38.6731 27.7242 37.8031L31.7775 40.0397C31.8408 39.9197 31.9075 39.7997 31.9742 39.6797L7.29416 26.0597C6.63083 27.2631 6.01083 28.4998 5.4375 29.7731L24.9942 40.5631L24.9908 40.5664Z"/>
<path fill="black" d="M30.0808 35.8364C31.0075 35.1264 31.9708 34.4631 32.9641 33.8431L34.8808 35.6131C34.9508 35.5331 35.0241 35.4564 35.0975 35.3764L14.3908 16.2464C13.5441 17.1564 12.7308 18.1031 11.9508 19.0831L30.0808 35.8331V35.8364Z"/>
<path fill="black" d="M20.9175 10.3497L35.4775 32.4164C36.0541 32.1197 36.6375 31.8397 37.2308 31.5731C37.2308 31.5731 38.3008 31.1131 38.5441 31.0131L23.6441 8.42975C22.7141 9.03975 21.8075 9.67975 20.9175 10.3497Z"/>
<path fill="black" d="M41.0141 30.1264C41.2608 30.0498 42.8241 29.5964 43.2875 29.4831C43.2875 29.4831 43.7241 29.3764 43.8441 29.3498L34.4941 3.0531C33.5741 3.37977 32.6642 3.72977 31.7642 4.10977L41.0141 30.1298V30.1264Z"/>
<path fill="black" d="M46.6342 28.8497C47.4542 28.6731 48.2842 28.5464 49.1242 28.4631L46.3142 0.413086C45.4775 0.496419 44.6442 0.599753 43.8175 0.723086L46.6375 28.8464L46.6342 28.8497Z"/>
<path fill="black" d="M52.3408 28.3897C53.0408 28.4264 53.7408 28.4931 54.4408 28.5964L58.4208 0.686392C57.7242 0.586392 57.0242 0.499725 56.3275 0.426392L52.3375 28.3864L52.3408 28.3897Z"/>
<path fill="black" d="M469.061 75.4345V66.2445H465.903V65.0082H473.768V66.2445H470.61V75.4345H469.061Z"/>
<path fill="black" d="M474.987 75.4345V65.0082H477.132L480.022 73.3791L482.792 65.0082H485.012V75.4345H483.448V67.1828L480.677 75.4345H479.292L476.551 67.1828V75.4345H474.987Z"/>
</svg>