<svg width="32" height="32" viewBox="0 0 32 32" fill="none" xmlns="http://www.w3.org/2000/svg">
<circle cx="14" cy="28" r="1.5" fill="black"/>
<path d="M16 16L17 11M17 11L14 12.5M17 11L19 13.5" stroke="black" stroke-width="2" stroke-linecap="round" stroke-linejoin="round"/>
<path d="M20 24.4749L21.95 27.6568M21.95 27.6568L23.0106 24.4749M21.95 27.6568L18.768 27.3033" stroke="black" stroke-width="2" stroke-linecap="round" stroke-linejoin="round"/>
<path d="M22.475 12L25.657 10.1213M25.657 10.1213L22.475 9.06066M25.657 10.1213L25.3034 13.3033" stroke="black" stroke-width="2" stroke-linecap="round" stroke-linejoin="round"/>
<path d="M12 10L9.72528 7.63619M9.72528 7.63619L9.22713 10.9531M9.72528 7.63619L12.9207 7.43775" stroke="black" stroke-width="2" stroke-linecap="round" stroke-linejoin="round"/>
<path d="M9 23L6.42645 24.9676M6.42645 24.9676L6.64287 21.6205M6.42645 24.9676L9.50713 25.839" stroke="black" stroke-width="2" stroke-linecap="round" stroke-linejoin="round"/>
<path d="M23.5 19L27 20M27 20L25.5 17M27 20L24.5 22" stroke="black" stroke-width="2" stroke-linecap="round" stroke-linejoin="round"/>
<path d="M8.5 16.5L5 16M5 16L6.5 19M5 16L7.5 14" stroke="black" stroke-width="2" stroke-linecap="round" stroke-linejoin="round"/>
<path d="M17.5 8L18.5 3M18.5 3L15.5 4.5M18.5 3L20.5 5.5" stroke="black" stroke-width="2" stroke-linecap="round" stroke-linejoin="round"/>
<path d="M14.5 24L15.5 19M15.5 19L12.5 20.5M15.5 19L17.5 21.5" stroke="black" stroke-width="2" stroke-linecap="round" stroke-linejoin="round"/>
</svg>
