<svg width="32" height="32" viewBox="0 0 32 32" fill="none" xmlns="http://www.w3.org/2000/svg">
<path d="M24 13.2044C23.0012 13.3219 21.9869 13.2745 21 13.0618C19.7752 12.7978 18.5927 12.2794 17.5344 11.506L15.8458 10.2721C14.0933 8.99141 11.9531 8.63334 10 9.10241C9.30052 9.27041 8.62505 9.54449 8 9.92028M24 18.7958C23.0012 18.6783 21.9869 18.7258 21 18.9385C19.7752 19.2024 18.5927 19.7208 17.5344 20.4942L15.8458 21.7282C14.0933 23.0088 11.9531 23.3669 10 22.8978C9.30052 22.7298 8.62505 22.4557 8 22.08" stroke="#E91212" stroke-width="4" stroke-linecap="round" stroke-linejoin="round"/>
<path d="M3 21.0001L3.58441 20.5618C6.8019 18.1487 11.2184 18.1213 14.4656 20.4942L16.1542 21.7282C19.3633 24.0733 23.8728 23.3248 26.1521 20.0686C27.862 17.6258 27.862 14.3745 26.1521 11.9317C23.8728 8.67548 19.3633 7.92693 16.1542 10.2721L14.4656 11.506C11.2184 13.879 6.8019 13.8515 3.58441 11.4384L3 11.0001" stroke="#1363BB" stroke-width="4" stroke-linecap="round" stroke-linejoin="round"/>
<path d="M29 21L28.4156 20.5617C27.0917 19.5688 25.5649 18.9798 24 18.7957C23.0012 18.6782 21.9869 18.7257 21 18.9383M29 11L28.4156 11.4383C27.0917 12.4312 25.5649 13.0202 24 13.2043C23.0012 13.3218 21.9869 13.2743 21 13.0617M10 9.10229C9.30052 9.27029 8.62505 9.54437 8 9.92017C7.17438 10.4165 6.43672 11.0904 5.84789 11.9316C4.13794 14.3743 4.13794 17.6257 5.84789 20.0684C6.43672 20.9096 7.17438 21.5835 8 22.0798C8.62505 22.4556 9.30052 22.7297 10 22.8977" stroke="#E91212" stroke-width="4" stroke-linecap="round" stroke-linejoin="round"/>
</svg>
