<svg xmlns="http://www.w3.org/2000/svg" data-name="Layer 1" width="620.87643" height="425.50091" viewBox="0 0 620.87643 425.50091" xmlns:xlink="http://www.w3.org/1999/xlink"><path d="M774.835,609.82742c25.95488-19.769,38.35157-52.98886,30.5907-84.67858q-.28924-1.1811-.6106-2.35681c-5.14512-18.81065-17.87431-36.68854-36.42655-42.69907-15.57756-5.0467-32.58093-1.16586-48.83211-3.17276-31.90194-3.93968-56.63486-29.75207-74.03759-56.77793-17.40277-27.02593-30.7774-57.27755-53.90189-79.60489-38.117-36.80284-100.29531-44.72652-147.55488-20.77063-47.25954,23.956-77.36336,77.10424-76.07951,130.07313,1.2839,52.96892,32.72918,103.61088,78.39554,130.47969,16.776,9.87049,36.179,16.863,55.4889,14.41614,16.755-2.12308,31.97892-11.12589,48.655-13.79867,26.21873-4.20225,52.27041,7.65209,74.94762,21.466,22.67716,13.8139,44.58173,30.18754,70.35126,36.59165C720.84306,645.21307,751.843,627.33966,774.835,609.82742Z" transform="translate(-289.56179 -237.24954)" fill="#f2f2f2"/><path d="M569.46756,373.27275h-258.57a20.36369,20.36369,0,0,0-20.34,20.34v128.69a20.36368,20.36368,0,0,0,20.34,20.34h258.57a20.35727,20.35727,0,0,0,20.34-20.34v-128.69A20.35729,20.35729,0,0,0,569.46756,373.27275Z" transform="translate(-289.56179 -237.24954)" fill="#fff"/><path d="M569.46852,543.64532H310.90212A21.36451,21.36451,0,0,1,289.56179,522.305V393.61114a21.36451,21.36451,0,0,1,21.34033-21.34033h258.5664a21.36452,21.36452,0,0,1,21.34034,21.34033V522.305A21.36452,21.36452,0,0,1,569.46852,543.64532ZM310.90212,374.27081a19.36253,19.36253,0,0,0-19.34033,19.34033V522.305a19.36253,19.36253,0,0,0,19.34033,19.34033h258.5664A19.36254,19.36254,0,0,0,588.80886,522.305V393.61114a19.36254,19.36254,0,0,0-19.34034-19.34033Z" transform="translate(-289.56179 -237.24954)" fill="#2f2e41"/><path d="M584.36253,571.2219H336.574a8.07568,8.07568,0,1,1,0-16.15137H584.36253a8.07568,8.07568,0,0,1,0,16.15137Z" transform="translate(-289.56179 -237.24954)" fill="#673ab7"/><path d="M813.114,466.4061H705.06175a8.50951,8.50951,0,0,1-8.5-8.5V404.12631a8.50951,8.50951,0,0,1,8.5-8.5H813.114a8.50951,8.50951,0,0,1,8.5,8.5V457.9061A8.50951,8.50951,0,0,1,813.114,466.4061Z" transform="translate(-289.56179 -237.24954)" fill="#fff"/><path d="M813.114,467.40606H705.06179a9.5108,9.5108,0,0,1-9.5-9.5V404.12628a9.5108,9.5108,0,0,1,9.5-9.5H813.114a9.5108,9.5108,0,0,1,9.5,9.5v53.77978A9.51081,9.51081,0,0,1,813.114,467.40606ZM705.06179,396.62628a7.50819,7.50819,0,0,0-7.5,7.5v53.77978a7.5082,7.5082,0,0,0,7.5,7.5H813.114a7.5082,7.5082,0,0,0,7.5-7.5V404.12628a7.5082,7.5082,0,0,0-7.5-7.5Z" transform="translate(-289.56179 -237.24954)" fill="#2f2e41"/><path d="M773.42989,271.73374h-454.293a1.807,1.807,0,0,1,0-3.61319h454.293a1.807,1.807,0,0,1,0,3.61319Z" transform="translate(-289.56179 -237.24954)" fill="#cacaca"/><ellipse cx="60.49941" cy="10.82345" rx="10.58751" ry="10.82345" fill="#3f3d56"/><ellipse cx="97.07443" cy="10.82345" rx="10.58751" ry="10.82345" fill="#3f3d56"/><ellipse cx="133.64945" cy="10.82345" rx="10.58751" ry="10.82345" fill="#3f3d56"/><path d="M751.40863,239.93225h-25.981a1.96761,1.96761,0,0,0,0,3.93445h25.981a1.96761,1.96761,0,0,0,0-3.93445Z" transform="translate(-289.56179 -237.24954)" fill="#3f3d56"/><path d="M751.40863,247.31662h-25.981a1.96761,1.96761,0,0,0,0,3.93445h25.981a1.96761,1.96761,0,0,0,0-3.93445Z" transform="translate(-289.56179 -237.24954)" fill="#3f3d56"/><path d="M751.40863,254.69129h-25.981a1.96761,1.96761,0,0,0,0,3.93445h25.981a1.96761,1.96761,0,0,0,0-3.93445Z" transform="translate(-289.56179 -237.24954)" fill="#3f3d56"/><circle cx="531.3001" cy="227.78558" r="12.37235" fill="#3f3d56"/><path d="M819.93558,469.97983c-.02638,0-.05276-.00086-.07913-.00215a1.618,1.618,0,0,1-1.19937-.62316l-2.06763-2.65821a1.61859,1.61859,0,0,1,.2837-2.27178l.07441-.0579a1.61843,1.61843,0,0,1,2.27221.28392,1.18065,1.18065,0,0,0,1.788.08707l4.1981-4.43206a1.621,1.621,0,0,1,2.28872-.06219l.06884.06562a1.61842,1.61842,0,0,1,.06175,2.28851l-6.51491,6.87668A1.61694,1.61694,0,0,1,819.93558,469.97983Z" transform="translate(-289.56179 -237.24954)" fill="#fff"/><path d="M482.26132,521.98877a42.83052,42.83052,0,0,1-4.43,19.04c-.33.68-.68,1.34-1.05,2h-75.17c-.37-.66-.72-1.32-1.05-2a43.07126,43.07126,0,1,1,81.7-19.04Z" transform="translate(-289.56179 -237.24954)" fill="#2f2e41"/><circle cx="150.7258" cy="273.83154" r="14.71922" fill="#fff"/><circle cx="150.7258" cy="273.83154" r="4.90642" fill="#3f3d56"/><path d="M397.42045,481.93283c-3.47748-15.57379,7.63867-31.31043,24.82861-35.1488s33.94423,5.67511,37.4217,21.2489-7.91492,21.31769-25.10486,25.156S400.898,497.50668,397.42045,481.93283Z" transform="translate(-289.56179 -237.24954)" fill="#673ab7"/><ellipse cx="481.86685" cy="545.87131" rx="6.59448" ry="21.00616" transform="translate(-535.18697 339.05996) rotate(-50.95946)" fill="#2f2e41"/><ellipse cx="392.86685" cy="508.87131" rx="6.59448" ry="21.00616" transform="translate(-539.39062 256.23881) rotate(-50.95946)" fill="#2f2e41"/><ellipse cx="807.47311" cy="407.61601" rx="21.00616" ry="6.59448" transform="translate(-365.84099 -22.36516) rotate(-14.48222)" fill="#2f2e41"/><ellipse cx="719.47314" cy="411.61606" rx="21.00616" ry="6.59448" transform="translate(-226.28569 680.79993) rotate(-67.4341)" fill="#2f2e41"/><circle cx="475.79752" cy="164.43254" r="42.01233" fill="#2f2e41"/><path d="M759.23733,457.5503l-12.76312.05932c-9.34253-9.197-7.96015-16.57959-.10627-22.86724l12.76307-.05933C753.24673,441.928,751.67831,449.44822,759.23733,457.5503Z" transform="translate(-289.56179 -237.24954)" fill="#2f2e41"/><ellipse cx="750.20791" cy="459.9854" rx="10.63605" ry="3.98853" transform="translate(-419.14428 203.57028) rotate(-30.26634)" fill="#2f2e41"/><path d="M782.23733,457.5503l-12.76312.05932c-9.34253-9.197-7.96015-16.57959-.10627-22.86724l12.76307-.05933C776.24673,441.928,774.67831,449.44822,782.23733,457.5503Z" transform="translate(-289.56179 -237.24954)" fill="#2f2e41"/><ellipse cx="773.20792" cy="459.9854" rx="10.63605" ry="3.98853" transform="translate(-416.00919 215.16275) rotate(-30.26634)" fill="#2f2e41"/><circle cx="474.68448" cy="153.80158" r="14.35864" fill="#fff"/><circle cx="474.76596" cy="160.70867" r="4.78621" fill="#3f3d56"/><path d="M805.93063,362.4228c3.32165-15.20789-7.59339-30.50849-24.37952-34.17481s-33.08661,5.68993-36.40826,20.89783,7.81762,20.75931,24.6037,24.42569S802.609,377.63071,805.93063,362.4228Z" transform="translate(-289.56179 -237.24954)" fill="#673ab7"/><path d="M773.84939,419.99a9.57243,9.57243,0,0,1-19.14435.13842l-.00018-.03064-.00012-.0188c-.0246-5.28665,4.256-6.40152,9.54266-6.426S773.82485,414.70334,773.84939,419.99Z" transform="translate(-289.56179 -237.24954)" fill="#fff"/><path d="M902.36253,405.722H829.574a8.07569,8.07569,0,1,1,0-16.15137h72.78857a8.07569,8.07569,0,0,1,0,16.15137Z" transform="translate(-289.56179 -237.24954)" fill="#673ab7"/><path d="M770.42312,627.07088a34.67943,34.67943,0,1,1-34.67943-34.67943h0a34.53207,34.53207,0,0,1,34.67943,34.384Q770.42378,626.92317,770.42312,627.07088Z" transform="translate(-289.56179 -237.24954)" fill="#fff"/><path d="M735.74376,662.75046a35.67945,35.67945,0,1,1,0-71.35889c.05176,0,.10449-.00049.15625-.00049a35.53226,35.53226,0,0,1,35.523,35.38086v.29883A35.72,35.72,0,0,1,735.74376,662.75046Zm.1499-69.35938c-.04931,0-.09619.00049-.1455.00049a33.67945,33.67945,0,1,0,33.6748,33.6792v-.29A33.57226,33.57226,0,0,0,735.89366,593.39108Z" transform="translate(-289.56179 -237.24954)" fill="#2f2e41"/><path d="M759.86035,651.91v.07224a34.64757,34.64757,0,0,1-46.875,1.24265c-.02893-.43347-.04339-.88141-.04339-1.31493a23.45919,23.45919,0,0,1,46.91834-.06509V651.91Z" transform="translate(-289.56179 -237.24954)" fill="#2f2e41"/><circle cx="447.43041" cy="408.71336" r="8.01934" fill="#fff"/><circle cx="447.43041" cy="408.71336" r="2.6731" fill="#3f3d56"/><path d="M713.63733,630.08232c-1.89459-8.48492,4.16172-17.05855,13.52716-19.14977s18.49348,3.09191,20.38807,11.57683-4.31218,11.61431-13.67762,13.70553S715.53192,638.56728,713.63733,630.08232Z" transform="translate(-289.56179 -237.24954)" fill="#673ab7"/></svg>