<svg height="36" viewBox="0 0 310 92" width="121" xmlns="http://www.w3.org/2000/svg">
  <g fill="none" fill-rule="evenodd" transform="translate(0 6)">
    <path d="m124.333333 27c-1.056916-2.0433707-2.466116-3.6639507-4.227642-4.8617886-1.761526-1.197838-3.910556-1.796748-6.447154-1.796748-1.197838 0-2.413273.14092-3.646342.4227642-1.233068.2818443-2.342813.7222193-3.329268 1.3211383-.986455.5989189-1.77913 1.3563639-2.378049 2.2723577-.598919.9159937-.898374 2.0433537-.898374 3.3821138 0 2.3252149.81029 4.0162549 2.430894 5.0731707 1.620605 1.0569159 4.051475 1.9728959 7.292683 2.7479675l7.081301 1.6910569c3.452592.7750716 6.323837 2.3428066 8.613821 4.7032521 2.289985 2.3604454 3.43496 5.3021504 3.43496 8.8252032 0 2.6775202-.546065 4.9850852-1.638212 6.9227642-1.092146 1.9376791-2.536576 3.5230291-4.333333 4.7560976s-3.857712 2.1314335-6.182927 2.6951219c-2.325215.5636885-4.685625.8455285-7.081301.8455285-3.804897 0-7.345512-.722215-10.621951-2.1666667-3.2764391-1.4444516-6.0772241-3.9281666-8.402439-7.4512195l6.02439-4.1219512c1.409221 2.2547538 3.188336 4.0514838 5.337399 5.3902439 2.149062 1.3387601 4.703237 2.0081301 7.662601 2.0081301 1.409221 0 2.818421-.158535 4.227643-.4756098 1.409221-.3170747 2.659886-.8102947 3.752032-1.4796748 1.092146-.66938 1.972896-1.532515 2.642276-2.5894309.669381-1.0569158 1.004066-2.2899658 1.004066-3.699187 0-2.4661369-.91598-4.2452519-2.747968-5.3373983-1.831987-1.0921464-4.051477-1.9552814-6.658537-2.5894309l-6.764227-1.5853659c-.845533-.2113831-1.990508-.5636831-3.43496-1.0569105-1.444451-.4932274-2.853651-1.2330574-4.227642-2.2195122-1.3739904-.9864548-2.5541954-2.2723498-3.5406502-3.8577236s-1.4796748-3.5406388-1.4796748-5.8658537c0-2.536598.510835-4.756088 1.5325203-6.6585366 1.0216853-1.9024485 2.3956553-3.4525685 4.1219517-4.6504065 1.726295-1.1978379 3.68156-2.0962029 5.865853-2.6951219s4.439013-.898374 6.764228-.898374c3.452592 0 6.658522.66937 9.617886 2.0081301s5.249314 3.6287101 6.869919 6.8699187zm57.525294 13c0-2.7479812-.440375-5.3197712-1.321138-7.7154472-.880764-2.3956759-2.131429-4.4742459-3.752033-6.2357723s-3.575869-3.1531114-5.865853-4.1747968c-2.289985-1.0216853-4.87939-1.5325203-7.768293-1.5325203s-5.478308.510835-7.768293 1.5325203c-2.289984 1.0216854-4.227634 2.4132704-5.813008 4.1747968s-2.818424 3.8400964-3.699187 6.2357723c-.880763 2.395676-1.321138 4.967466-1.321138 7.7154472s.440375 5.3197712 1.321138 7.7154472c.880763 2.3956759 2.113813 4.4742459 3.699187 6.2357723s3.523024 3.1531114 5.813008 4.1747968c2.289985 1.0216853 4.87939 1.5325203 7.768293 1.5325203s5.478308-.510835 7.768293-1.5325203c2.289984-1.0216854 4.245249-2.4132704 5.865853-4.1747968s2.871269-3.8400964 3.752033-6.2357723c.880763-2.395676 1.321138-4.967466 1.321138-7.7154472zm7.609756 0c0 3.734436-.651755 7.186976-1.955285 10.3577236-1.303529 3.1707475-3.117874 5.9186875-5.443089 8.2439024s-5.09077 4.1395599-8.296748 5.4430894c-3.205978 1.3035296-6.746593 1.9552846-10.621951 1.9552846-3.804897 0-7.310282-.651755-10.51626-1.9552846-3.205978-1.3035295-5.971533-3.1178745-8.296748-5.4430894s-4.13956-5.0731549-5.44309-8.2439024c-1.303529-3.1707476-1.955284-6.6232876-1.955284-10.3577236s.651755-7.186976 1.955284-10.3577236c1.30353-3.1707475 3.117875-5.9186875 5.44309-8.2439024s5.09077-4.1395599 8.296748-5.4430894c3.205978-1.3035296 6.711363-1.9552846 10.51626-1.9552846 3.875358 0 7.415973.651755 10.621951 1.9552846 3.205978 1.3035295 5.971533 3.1178745 8.296748 5.4430894s4.13956 5.0731549 5.443089 8.2439024c1.30353 3.1707476 1.955285 6.6232876 1.955285 10.3577236zm12.36879-24.7317073c.140922 1.3387601.228997 2.6598851.264227 3.9634146.035231 1.3035296.052846 2.6246546.052846 3.9634147h.211382c.775071-1.3387601 1.761511-2.5718101 2.959349-3.699187 1.197838-1.127377 2.536578-2.096202 4.016261-2.9065041 1.479682-.8103022 3.047417-1.4444422 4.703252-1.902439 1.655834-.4579969 3.294029-.6869919 4.914634-.6869919 6.341495 0 11.027085 1.673425 14.05691 5.0203252 3.029826 3.3469002 4.544716 8.1205652 4.544716 14.3211382v31.3902439h-6.97561v-27.3739837c0-5.4959625-.95121-9.7059475-2.853659-12.6300813-1.902448-2.9241339-5.425448-4.3861789-10.569105-4.3861789-.352305 0-1.338745.14092-2.95935.4227642-1.620604.2818443-3.329259 1.0569043-5.126016 2.3252033s-3.399722 3.170719-4.808943 5.7073171c-1.409221 2.536598-2.113821 6.059598-2.113821 10.5691057v25.3658536h-6.97561v-38.5772358c0-1.33876-.052845-3.0298-.158537-5.0731707-.105691-2.0433706-.228996-3.9810206-.369918-5.8130081zm50.391147 49.4634146h-6.97561v-49.4634146h6.97561zm25.923667-26.4227642-17.967479-23.0406504h9.512195l13.739837 18.4959349 13.105691-18.4959349h8.666667l-17.227642 23.0406504 20.715447 26.4227642h-9.512195l-16.593496-21.6666666-15.95935 21.6666666h-8.878049z"
          fill="rgb(35,123,179)"/>
    <g stroke="rgb(35,123,179)" stroke-linecap="square" stroke-width="12">
      <path d="m27 0v80"/>
      <path d="m48 20v40"/>
      <path d="m6 20v40"/>
    </g>
  </g>
</svg>
