<svg xmlns="http://www.w3.org/2000/svg" viewBox="0 0 94 40">
  <path fill="#EB6161" d="M6.12 39.92c3.38 0 6.12-2.74 6.12-6.12s-2.74-6.12-6.12-6.12S0 30.42 0 33.8s2.74 6.12 6.12 6.12z"/>
  <path fill="#009191" fill-rule="evenodd" d="M25.4 14.52c.8 0 1.44.64 1.44 1.44l-.08 11.72c0 6.68-5.36 12.12-12.04 12.24h-.2v-12.2h.04L14.6 16c0-.8.64-1.44 1.44-1.44h9.36v-.04zm18.8 0c.8 0 1.44.64 1.44 1.44v16.4c0 .8-.64 1.44-1.44 1.44h-9.36c-.8 0-1.44-.64-1.44-1.44v-16.4c0-.8.64-1.44 1.44-1.44h9.36zm14.72-.04h.2c6 .08 10.88 4.92 11.04 10.92v6.92c0 .8-.64 1.44-1.44 1.44H53.6c-.8 0-1.44-.64-1.44-1.44v-16.4c0-.8.64-1.44 1.44-1.44h5.32zM83.68 33.6c-5.04-.32-9.08-4.52-9.08-9.64 0-5.32 4.32-9.64 9.64-9.64 5.12 0 9.32 4 9.64 9.08v8.76c0 .8-.64 1.44-1.44 1.44h-8.76z" clip-rule="evenodd"/>
  <path fill="#FBCB67" d="M39.499 12.24c3.38 0 6.12-2.74 6.12-6.12S42.879 0 39.499 0s-6.12 2.74-6.12 6.12 2.74 6.12 6.12 6.12z"/>
</svg>
