<svg width="32" height="32" viewBox="0 0 32 32" fill="none" xmlns="http://www.w3.org/2000/svg">
<path d="M27 9.58333C27 12.1146 22.0751 14.1667 16 14.1667C9.92487 14.1667 5 12.1146 5 9.58333M27 9.58333C27 7.05203 22.0751 5 16 5C9.92487 5 5 7.05203 5 9.58333M27 9.58333V16M5 9.58333V22.4167C5 24.948 9.92487 27 16 27M16 20.5833C9.92487 20.5833 5 18.5313 5 16" stroke="black" stroke-width="2" stroke-linecap="round"/>
<path d="M29.4922 27.1352L28.4848 26.1277C29.3652 24.2618 29.0194 21.9483 27.4564 20.3853C25.8935 18.8224 23.58 18.4766 21.714 19.357L24.5013 22.1443C25.1622 22.8051 25.1702 23.8685 24.5194 24.5194C23.8685 25.1702 22.8052 25.1622 22.1443 24.5013L19.357 21.714C18.4766 23.58 18.8224 25.8935 20.3854 27.4564C21.9483 29.0194 24.2618 29.3652 26.1278 28.4848L27.1352 29.4922" stroke="black" stroke-width="2" stroke-linecap="round" stroke-linejoin="round"/>
</svg>
