<?xml version="1.0" encoding="UTF-8"?>
<svg version="1.1" xmlns="http://www.w3.org/2000/svg" width="512" height="512">
<path d="M0 0 C1.69690979 -0.00934319 1.69690979 -0.00934319 3.42810059 -0.01887512 C4.65001099 -0.00966537 5.87192139 -0.00045563 7.13085938 0.0090332 C8.38467407 0.0085347 9.63848877 0.00803619 10.93029785 0.00752258 C13.58356317 0.00986511 16.23603299 0.01803042 18.88916016 0.03613281 C22.28891005 0.05882019 25.68821557 0.0593637 29.08802032 0.05261517 C32.33150015 0.04846916 35.57490112 0.06044813 38.81835938 0.0715332 C40.04026978 0.0706218 41.26218018 0.06971039 42.52111816 0.06877136 C43.65239136 0.07830338 44.78366455 0.08783539 45.94921875 0.09765625 C46.94610718 0.10226364 47.94299561 0.10687103 48.97009277 0.11161804 C51.47460938 0.37231445 51.47460938 0.37231445 54.47460938 2.37231445 C54.78710938 5.87231445 54.78710938 5.87231445 54.47460938 9.37231445 C53.81460938 10.03231445 53.15460938 10.69231445 52.47460938 11.37231445 C35.97460938 11.37231445 19.47460938 11.37231445 2.47460938 11.37231445 C2.47460938 60.21231445 2.47460938 109.05231445 2.47460938 159.37231445 C18.31460938 159.37231445 34.15460938 159.37231445 50.47460938 159.37231445 C54.47460938 162.37231445 54.47460938 162.37231445 54.97460938 165.37231445 C54.47460938 168.37231445 54.47460938 168.37231445 50.47460938 171.37231445 C34.63460937 171.37231445 18.79460937 171.37231445 2.47460938 171.37231445 C2.47460938 220.21231445 2.47460938 269.05231445 2.47460938 319.37231445 C18.97460938 319.37231445 35.47460938 319.37231445 52.47460938 319.37231445 C54.47460938 321.37231445 54.47460938 321.37231445 54.78710938 324.87231445 C54.68398437 326.02731445 54.58085937 327.18231445 54.47460938 328.37231445 C51.09126611 330.62787663 49.91488007 330.62864427 45.94921875 330.64697266 C44.81794556 330.65650467 43.68667236 330.66603668 42.52111816 330.67585754 C40.68825256 330.67449043 40.68825256 330.67449043 38.81835938 330.6730957 C37.56454468 330.67738083 36.31072998 330.68166595 35.0189209 330.68608093 C32.36582453 330.69182852 29.7131167 330.69325454 27.06005859 330.68798828 C23.66022722 330.68218913 20.26093983 330.69913639 16.86119843 330.72233295 C13.61775593 330.74060383 10.37434409 330.73688528 7.13085938 330.7355957 C5.90894897 330.74480545 4.68703857 330.7540152 3.42810059 330.76350403 C2.29682739 330.75727524 1.1655542 330.75104645 0 330.74462891 C-0.99688843 330.74525833 -1.99377686 330.74588776 -3.02087402 330.74653625 C-5.52539062 330.37231445 -5.52539062 330.37231445 -7.15937519 329.24162102 C-9.14977212 326.51788748 -8.89423078 324.4409778 -8.88615417 321.08918762 C-8.89027817 319.7724556 -8.89440216 318.45572357 -8.89865112 317.09909058 C-8.88803358 315.63653361 -8.87712915 314.1739787 -8.8659668 312.71142578 C-8.86512074 311.17405718 -8.86559525 309.63668736 -8.86729431 308.09931946 C-8.86815654 303.92183861 -8.85049416 299.74461515 -8.82957244 295.56719422 C-8.8108434 291.20298705 -8.80905818 286.83877424 -8.80549622 282.47453308 C-8.79616464 274.20848919 -8.77153583 265.94256405 -8.74144775 257.6765725 C-8.70793833 248.26678335 -8.69142644 238.85698859 -8.67636144 229.44715464 C-8.64498722 210.0888072 -8.59220514 190.73057037 -8.52539062 171.37231445 C-9.69930107 171.37564537 -9.69930107 171.37564537 -10.89692688 171.37904358 C-18.26878031 171.39907261 -25.64062056 171.41430194 -33.01249409 171.42412663 C-36.80253064 171.42934736 -40.59254473 171.43643035 -44.38256836 171.44775391 C-48.03947864 171.4586115 -51.69636731 171.4645974 -55.35329247 171.4671917 C-56.74915088 171.46904075 -58.1450081 171.47265144 -59.54085732 171.47804451 C-61.49443027 171.4852929 -63.44802493 171.48572284 -65.40161133 171.48583984 C-66.51413773 171.48806046 -67.62666412 171.49028107 -68.77290344 171.49256897 C-71.52539062 171.37231445 -71.52539062 171.37231445 -74.52539062 170.37231445 C-75.96705359 167.28303667 -76.82774427 165.38932217 -75.83789062 162.05981445 C-74.52539062 160.37231445 -74.52539062 160.37231445 -71.52539062 159.37231445 C-69.48572582 159.28320272 -67.44321776 159.254714 -65.40161133 159.25878906 C-64.14053055 159.25886459 -62.87944977 159.25894012 -61.58015442 159.25901794 C-60.2038265 159.26412457 -58.82749899 159.26934056 -57.45117188 159.2746582 C-56.04298452 159.27652359 -54.63479651 159.27794693 -53.22660828 159.27894592 C-49.52271733 159.28276157 -45.81886567 159.29258374 -42.11499023 159.3036499 C-38.33447806 159.31388448 -34.55395954 159.31844793 -30.7734375 159.32348633 C-23.35740397 159.33420686 -15.94140281 159.35127186 -8.52539062 159.37231445 C-8.528156 158.57109759 -8.53092138 157.76988073 -8.53377056 156.94438457 C-8.59997024 137.46565444 -8.64964186 117.98694671 -8.68082714 98.50812817 C-8.69630824 89.08838554 -8.71742144 79.66871792 -8.75170898 70.24902344 C-8.78157337 62.04058878 -8.80095658 53.83220842 -8.80765611 45.62372094 C-8.81157341 41.27576846 -8.82080525 36.92797136 -8.8425808 32.58006859 C-8.86289926 28.49007523 -8.86923389 24.40030171 -8.86471367 20.31026268 C-8.86554096 18.8069947 -8.87153429 17.30371958 -8.88300705 15.80049515 C-8.89787682 13.75219756 -8.89256956 11.70378279 -8.88615417 9.65544128 C-8.88891955 8.50780902 -8.89168493 7.36017675 -8.89453411 6.17776775 C-8.52539062 3.37231445 -8.52539062 3.37231445 -7.15937519 1.50300789 C-4.76292712 -0.15529914 -2.89409807 -0.0018273 0 0 Z " fill="#000000" transform="translate(121.525390625,90.627685546875)"/>
<path d="M0 0 C3.38749476 3.95207722 3.57470764 7.98155011 4 13 C6.75706416 13.86382428 6.75706416 13.86382428 10 14 C12.77287937 12.21531661 12.77287937 12.21531661 15 10 C18.66657324 8.16671338 22.17891606 8.77262152 26 10 C31.97642881 14.13752764 39.73419425 20.5992288 41.46875 28 C41.68705448 30.88161915 41.54706032 33.23704297 39.83203125 35.62890625 C39.37183594 36.12261719 38.91164063 36.61632812 38.4375 37.125 C35.60083215 39.80247601 35.60083215 39.80247601 36.1875 43.375 C36.5896875 44.674375 36.5896875 44.674375 37 46 C37.66386719 46.08636719 38.32773437 46.17273438 39.01171875 46.26171875 C44.85889686 47.19214563 48.2139497 48.1147738 52 53 C53.80248065 56.6049613 53.2703256 60.77998348 53.3125 64.75 C53.34150391 65.64460938 53.37050781 66.53921875 53.40039062 67.4609375 C53.45655895 73.31972551 52.84134164 76.51245136 49 81 C45.51999724 83.61000207 41.21205301 83.5787947 37 84 C36.04632548 86.70590396 36.04632548 86.70590396 36 90 C37.25313827 91.47806053 38.51069167 92.95394832 39.828125 94.375 C41.53616425 96.74348109 41.74615984 99.06302426 41.5390625 101.9296875 C40.45643219 106.08761552 37.88709228 108.91687059 35 112 C34.31164062 112.74121094 33.62328125 113.48242188 32.9140625 114.24609375 C28.64193526 118.45076635 25.19716516 121.12818123 19.0703125 121.3203125 C15.74717166 120.80616618 13.59129352 119.04892976 11 117 C7.89029928 115.8449683 7.26714381 115.91095206 4 117 C3.87044922 118.12148438 3.87044922 118.12148438 3.73828125 119.265625 C2.58428069 127.35421608 2.58428069 127.35421608 -0.375 130.625 C-5.06045557 133.07928625 -9.09342188 133.16114482 -14.375 133.1875 C-15.66148437 133.20167969 -16.94796875 133.21585938 -18.2734375 133.23046875 C-23.03384761 132.93606184 -26.58249665 132.14932704 -30.3125 129.125 C-33.57655415 125.01470959 -33.09870116 121.1324602 -33 116 C-35.74961511 115.05392193 -35.74961511 115.05392193 -39 115 C-39.763125 115.78375 -40.52625 116.5675 -41.3125 117.375 C-44.53998922 120.52743133 -46.41348403 120.96263079 -50.8125 121.1796875 C-54.41698077 120.88360515 -56.45172105 119.37007762 -59 117 C-60.24716797 115.90365234 -60.24716797 115.90365234 -61.51953125 114.78515625 C-70.6401504 106.31694191 -70.6401504 106.31694191 -71 99 C-69.85511757 95.38458181 -68.65674913 92.79748108 -66.25 89.875 C-64.70171974 87.98936577 -64.70171974 87.98936577 -65.3125 85.25 C-65.539375 84.5075 -65.76625 83.765 -66 83 C-67.8253125 83.0928125 -67.8253125 83.0928125 -69.6875 83.1875 C-73.61462154 83.18056162 -75.86586973 82.50730421 -79 80 C-83.09148016 75.42504907 -82.51531527 70.99840439 -82.5 65.125 C-82.54253906 63.65353516 -82.54253906 63.65353516 -82.5859375 62.15234375 C-82.59835399 57.5520341 -82.5971533 54.06539548 -79.65625 50.3671875 C-76.33269266 47.4053114 -74.11426851 46.8669792 -69.8125 46.9375 C-68.554375 46.958125 -67.29625 46.97875 -66 47 C-65.04632548 44.29409604 -65.04632548 44.29409604 -65 41 C-66.61594832 38.95880212 -68.2856382 36.95927063 -70 35 C-71.49835827 30.59857259 -70.88896997 28.00979587 -69.00732422 23.81665039 C-67.3458522 20.82028266 -65.02280113 18.52264525 -62.5625 16.1875 C-62.08490234 15.71119141 -61.60730469 15.23488281 -61.11523438 14.74414062 C-57.95115117 11.65818293 -55.36324913 9.16757585 -50.8515625 8.84765625 C-46.63653405 9.25436952 -43.9112256 9.6848964 -40.75 12.625 C-38.24090317 15.35327024 -38.24090317 15.35327024 -35.125 14.8125 C-34.42375 14.544375 -33.7225 14.27625 -33 14 C-33.04125 12.948125 -33.0825 11.89625 -33.125 10.8125 C-32.95873368 5.74137718 -32.33234151 3.26221827 -28.625 -0.25 C-21.22984001 -5.18010666 -7.37146317 -4.85846436 0 0 Z M-21 9 C-21.0825 10.876875 -21.165 12.75375 -21.25 14.6875 C-21.76171875 18 -21.76171875 18 -23 21 C-26.76417237 23.54838186 -30.66249096 24.74154745 -35 26 C-35.495 26.495 -35.495 26.495 -36 27 C-39.42534997 27.47014607 -41.92644106 27.80050156 -44.796875 25.66015625 C-46.26727286 24.17225365 -47.64135943 22.5906036 -49 21 C-52.21043882 22.38188453 -54.04936365 23.92421903 -56.25 26.625 C-56.77078125 27.25664062 -57.2915625 27.88828125 -57.828125 28.5390625 C-58.21484375 29.02117187 -58.6015625 29.50328125 -59 30 C-58.57847656 30.45890625 -58.15695313 30.9178125 -57.72265625 31.390625 C-57.17480469 32.00421875 -56.62695312 32.6178125 -56.0625 33.25 C-55.51722656 33.85328125 -54.97195312 34.4565625 -54.41015625 35.078125 C-52.79784286 37.27551611 -52.156678 38.27000447 -52 41 C-52.86309985 43.6607482 -53.77914854 46.12807804 -54.875 48.6875 C-55.15730469 49.37650391 -55.43960938 50.06550781 -55.73046875 50.77539062 C-57.82633929 55.82633929 -57.82633929 55.82633929 -59 57 C-62.99102718 57.4638066 -66.99210968 57.70468177 -71 58 C-71 62.62 -71 67.24 -71 72 C-67.04 72.33 -63.08 72.66 -59 73 C-58.01407845 75.05927956 -57.03652506 77.12256688 -56.0625 79.1875 C-55.51722656 80.33605469 -54.97195312 81.48460937 -54.41015625 82.66796875 C-53.19060091 85.54963275 -52.27311199 87.89402053 -52 91 C-53.75 94.0625 -53.75 94.0625 -56 97 C-56.99 98.32 -57.98 99.64 -59 101 C-56.36 103.64 -53.72 106.28 -51 109 C-47.06734219 107.35891512 -47.06734219 107.35891512 -45.1875 104.875 C-43 103 -43 103 -39.8125 102.5 C-35.01409853 103.12929855 -31.28362346 104.83047536 -27 107 C-26.27683594 107.2475 -25.55367188 107.495 -24.80859375 107.75 C-23 109 -23 109 -22.171875 111.8203125 C-21.78125 114.88020833 -21.390625 117.94010417 -21 121 C-16.71 121 -12.42 121 -8 121 C-7.67 116.71 -7.34 112.42 -7 108 C-5.4325 107.54625 -3.865 107.0925 -2.25 106.625 C1.04217171 105.67200292 3.94662236 104.53962686 7 103 C10.34787976 102.39129459 12.2542013 102.53690478 15.1640625 104.34375 C17.15579854 105.83579254 19.08278533 107.41333958 21 109 C23.64 106.36 26.28 103.72 29 101 C27.34766627 97.07068392 27.34766627 97.07068392 24.875 95.125 C23 93 23 93 22.69921875 90.29296875 C23.05536262 86.39388715 24.23041693 83.7020828 25.9375 80.1875 C26.75541016 78.47626953 26.75541016 78.47626953 27.58984375 76.73046875 C29 74 29 74 30 73 C33.99102718 72.5361934 37.99210968 72.29531823 42 72 C42 67.38 42 62.76 42 58 C40.081875 57.938125 38.16375 57.87625 36.1875 57.8125 C32.91796875 57.70703125 32.91796875 57.70703125 30 57 C28.25 54.7265625 28.25 54.7265625 27 52 C26.61457031 51.25878906 26.22914063 50.51757812 25.83203125 49.75390625 C21.99740709 41.51166811 21.99740709 41.51166811 23 37 C24.83211345 34.69662037 26.76645833 32.95434897 29 31 C27.61811547 27.78956118 26.07578097 25.95063635 23.375 23.75 C22.42753906 22.96882813 22.42753906 22.96882813 21.4609375 22.171875 C20.97882813 21.78515625 20.49671875 21.3984375 20 21 C19.34644531 21.6496875 19.34644531 21.6496875 18.6796875 22.3125 C18.08414063 22.869375 17.48859375 23.42625 16.875 24 C16.00488281 24.8353125 16.00488281 24.8353125 15.1171875 25.6875 C12.19888586 27.49663164 10.39256494 27.37040411 7 27 C3.859375 25.90625 3.859375 25.90625 0.75 24.5 C-2.99192444 22.65190189 -2.99192444 22.65190189 -7 22 C-7.33 17.71 -7.66 13.42 -8 9 C-12.29 9 -16.58 9 -21 9 Z " fill="#000000" transform="translate(287,191)"/>
<path d="M0 0 C0.90298828 -0.020625 1.80597656 -0.04125 2.73632812 -0.0625 C8.878236 -0.09860232 12.333453 0.69119924 17 4.875 C18.83916953 8.55333905 18.42044152 12.21234695 18.1875 16.25 C21.40076257 17.1991946 21.40076257 17.1991946 25.1875 17.25 C26.65893384 16.00248001 28.12856262 14.75012705 29.53125 13.42578125 C32.23839233 11.50396559 34.64022327 11.44429201 37.890625 11.640625 C42.3594038 12.82621938 45.12330882 15.93719291 48.1875 19.25 C49.18716797 20.32701172 49.18716797 20.32701172 50.20703125 21.42578125 C56.0624013 27.94897355 56.0624013 27.94897355 56.5 32.5 C56.13368124 36.89582512 54.75902478 38.7433753 52.1875 42.25 C50.99967629 45.35661586 51.33010484 47.0953094 52.1875 50.25 C52.76757812 50.19199219 53.34765625 50.13398437 53.9453125 50.07421875 C58.25659032 49.82521756 61.24089239 49.75477575 64.6875 52.5625 C68.96727938 57.16326283 68.4016195 61.61979225 68.4375 67.5625 C68.4684375 68.82610352 68.4684375 68.82610352 68.5 70.11523438 C68.53206873 75.24222251 68.11051561 78.84498816 65.1875 83.25 C61.87379 85.45914 60.8428979 85.47481553 57 85.375 C56.09894531 85.35695313 55.19789063 85.33890625 54.26953125 85.3203125 C53.58246094 85.29710938 52.89539063 85.27390625 52.1875 85.25 C51.32736273 88.51276567 51.32736273 88.51276567 51.1875 92.25 C52.95190022 95.08132801 52.95190022 95.08132801 55.1875 97.25 C56.71964888 100.31429776 56.41688548 102.8665642 56.1875 106.25 C54.0762163 110.53611774 51.01065666 113.69887353 47.625 117 C46.8834668 117.74056641 46.8834668 117.74056641 46.12695312 118.49609375 C41.80625516 122.76417158 39.44741435 123.63060689 33.4921875 123.62109375 C30.85323664 123.19617793 29.9491262 122.52823529 28.0625 120.6875 C25.32177926 117.80149904 25.32177926 117.80149904 21.3125 118.4375 C19.765625 118.8396875 19.765625 118.8396875 18.1875 119.25 C18.24550781 119.83007812 18.30351562 120.41015625 18.36328125 121.0078125 C18.61457555 125.35879376 18.68205454 128.29980246 15.8125 131.75 C11.1340885 136.20563 7.07118746 135.46679873 0.875 135.5 C-0.55102539 135.5309375 -0.55102539 135.5309375 -2.00585938 135.5625 C-10.8637126 135.61201979 -10.8637126 135.61201979 -14.8125 132.25 C-17.72190049 127.83573719 -18.12628312 124.47971874 -17.8125 119.25 C-20.51840396 118.29632548 -20.51840396 118.29632548 -23.8125 118.25 C-25.23736377 119.51294743 -26.66076718 120.77783415 -28.0625 122.06640625 C-31.01072194 124.06040457 -33.65754643 124.168678 -37.15234375 124 C-42.56947253 122.47270378 -46.08293333 118.27052577 -49.8125 114.25 C-50.37453125 113.693125 -50.9365625 113.13625 -51.515625 112.5625 C-54.84078948 109.04623411 -55.8125 106.04960086 -55.8125 101.25 C-54.56057893 98.05760128 -53.25952305 95.7586814 -51 93.1875 C-50.608125 92.548125 -50.21625 91.90875 -49.8125 91.25 C-50.52207237 88.51601865 -50.52207237 88.51601865 -51.8125 86.25 C-52.40417969 86.22421875 -52.99585938 86.1984375 -53.60546875 86.171875 C-58.86231899 85.79454807 -61.98998357 85.19197007 -65.8125 81.25 C-67.79933397 77.27633205 -67.08506128 72.30679562 -67.125 67.9375 C-67.15400391 66.89142578 -67.18300781 65.84535156 -67.21289062 64.76757812 C-67.27694683 57.02663172 -67.27694683 57.02663172 -64.91796875 53.08203125 C-61.68133123 50.26573626 -59.89720013 50.13352949 -55.6875 50.1875 C-54.77742187 50.19652344 -53.86734375 50.20554688 -52.9296875 50.21484375 C-52.23101562 50.22644531 -51.53234375 50.23804688 -50.8125 50.25 C-49.8633054 47.03673743 -49.8633054 47.03673743 -49.8125 43.25 C-51.4079349 41.19272868 -53.07776288 39.19125344 -54.8125 37.25 C-56.01764837 33.63455488 -56.11335325 31.99951245 -54.69140625 28.45703125 C-52.47733245 24.67791567 -49.8873137 21.95458132 -46.75 18.9375 C-46.20794922 18.40060547 -45.66589844 17.86371094 -45.10742188 17.31054688 C-40.91688175 13.20288517 -38.8853372 11.90974801 -32.91015625 11.953125 C-29.59065957 12.42292341 -27.42304223 14.24656061 -24.8125 16.25 C-21.8125 17.58333333 -21.8125 17.58333333 -18.8125 16.25 C-18.72613281 15.58613281 -18.63976562 14.92226563 -18.55078125 14.23828125 C-17.62035437 8.39110314 -16.6977262 5.0360503 -11.8125 1.25 C-8.19771286 -0.55739357 -3.98017454 0.02243932 0 0 Z M-5.8125 11.25 C-5.895 13.291875 -5.9775 15.33375 -6.0625 17.4375 C-6.98440392 23.62165839 -6.98440392 23.62165839 -10.37109375 26.19140625 C-13.49502293 27.49791845 -16.52621301 28.44321232 -19.8125 29.25 C-21.070625 29.641875 -22.32875 30.03375 -23.625 30.4375 C-28.33446152 30.16047285 -30.65228285 27.56390552 -33.8125 24.25 C-37.02293882 25.63188453 -38.86186365 27.17421903 -41.0625 29.875 C-41.58328125 30.50664063 -42.1040625 31.13828125 -42.640625 31.7890625 C-43.02734375 32.27117188 -43.4140625 32.75328125 -43.8125 33.25 C-43.27238281 33.72308594 -42.73226562 34.19617188 -42.17578125 34.68359375 C-40.03115237 36.77920254 -38.32893678 38.65780038 -36.8125 41.25 C-36.9611002 44.62619663 -38.37317165 47.23402222 -39.8125 50.25 C-40.35238468 51.91059317 -40.87397671 53.57727145 -41.375 55.25 C-42.06640625 57.5 -42.06640625 57.5 -42.8125 59.25 C-46.69751735 61.19250868 -51.55544555 60.90349557 -55.8125 61.25 C-55.8125 65.54 -55.8125 69.83 -55.8125 74.25 C-54.245 74.3325 -52.6775 74.415 -51.0625 74.5 C-47.83488657 74.66987439 -46.25225007 74.91339131 -43.6640625 76.89453125 C-41.46118911 79.69692082 -40.23439166 82.3685317 -38.9375 85.6875 C-38.26074219 87.35619141 -38.26074219 87.35619141 -37.5703125 89.05859375 C-36.69780183 92.73303302 -36.98272508 94.0093143 -38.8125 97.25 C-40.34882455 99.39619884 -42.05985536 101.26674422 -43.8125 103.25 C-40.8425 106.22 -37.8725 109.19 -34.8125 112.25 C-33.760625 111.280625 -32.70875 110.31125 -31.625 109.3125 C-28.76657112 106.67826162 -26.74452235 105.44830084 -22.8125 105.25 C-20.27237218 106.05964793 -18.03018175 106.90422232 -15.625 108 C-14.99658203 108.26554687 -14.36816406 108.53109375 -13.72070312 108.8046875 C-10.35505149 110.287734 -8.89975694 111.1191146 -6.8125 114.25 C-6.25729669 117.57598207 -6.07485817 120.88307009 -5.8125 124.25 C-1.5225 124.25 2.7675 124.25 7.1875 124.25 C7.290625 122.496875 7.39375 120.74375 7.5 118.9375 C7.80320997 113.78293051 7.80320997 113.78293051 9.4296875 111.52734375 C12.97191735 108.95332339 17.0904544 107.69715111 21.1875 106.25 C22.734375 105.6621875 22.734375 105.6621875 24.3125 105.0625 C29.12399217 105.37629297 31.92337984 108.92788786 35.1875 112.25 C36.31949353 111.3419838 37.44282363 110.42316174 38.5625 109.5 C39.18898438 108.98953125 39.81546875 108.4790625 40.4609375 107.953125 C42.27062318 106.16800519 43.18867455 104.57050356 44.1875 102.25 C43.74277344 101.82589844 43.29804688 101.40179688 42.83984375 100.96484375 C38.24343607 96.20091324 38.24343607 96.20091324 38 92.0625 C39.68768257 86.64415068 41.62093555 81.31916467 44.1875 76.25 C48.07251735 74.30749132 52.93044555 74.59650443 57.1875 74.25 C57.1875 69.96 57.1875 65.67 57.1875 61.25 C53.2275 60.92 49.2675 60.59 45.1875 60.25 C44.589375 58.88875 43.99125 57.5275 43.375 56.125 C42.14883644 53.34104145 40.88176645 50.68220912 39.4375 48 C37.39384921 43.50396825 37.39384921 43.50396825 38.1875 40.25 C40.33286342 37.69904549 42.69396733 35.4572853 45.1875 33.25 C44.27627273 32.14134015 43.35823341 31.03827781 42.4375 29.9375 C41.92703125 29.32261719 41.4165625 28.70773438 40.890625 28.07421875 C39.13211466 26.19067671 37.28830364 24.73426344 35.1875 23.25 C34.42566406 24.02537109 34.42566406 24.02537109 33.6484375 24.81640625 C32.96007812 25.47511719 32.27171875 26.13382813 31.5625 26.8125 C30.88960938 27.47378906 30.21671875 28.13507812 29.5234375 28.81640625 C27.1875 30.25 27.1875 30.25 24.30859375 30.12109375 C21.03589358 29.20768682 17.99808724 28.08791035 14.875 26.75 C13.82699219 26.3065625 12.77898437 25.863125 11.69921875 25.40625 C9.1875 24.25 9.1875 24.25 8.1875 23.25 C7.7236934 19.25897282 7.48281823 15.25789032 7.1875 11.25 C2.8975 11.25 -1.3925 11.25 -5.8125 11.25 Z " fill="#000000" transform="translate(271.8125,28.75)"/>
<path d="M0 0 C0.92876953 -0.02835937 1.85753906 -0.05671875 2.81445312 -0.0859375 C7.33736839 -0.09881413 10.56146967 -0.0147967 14.16015625 2.90625 C17.28040547 6.27510445 17.68864659 7.66973842 17.625 12.125 C17.61597656 12.94226563 17.60695313 13.75953125 17.59765625 14.6015625 C17.58605469 15.22804688 17.57445312 15.85453125 17.5625 16.5 C20.77576257 17.4491946 20.77576257 17.4491946 24.5625 17.5 C26.03393384 16.25248001 27.50356262 15.00012705 28.90625 13.67578125 C31.61294028 11.7542865 34.01568807 11.69586675 37.265625 11.88671875 C41.71524426 13.07479736 44.45714381 16.25606808 47.5625 19.5 C48.22894531 20.13292969 48.89539063 20.76585937 49.58203125 21.41796875 C53.49802524 25.15850069 55.34432178 27.18731084 55.875 32.8125 C55.50627512 37.16345363 54.10941937 39.02692813 51.5625 42.5 C50.37467629 45.60661586 50.70510484 47.3453094 51.5625 50.5 C52.22636719 50.44199219 52.89023437 50.38398438 53.57421875 50.32421875 C60.83818367 49.95306726 60.83818367 49.95306726 64.625 52.8125 C68.13519843 57.68148492 67.77789071 62.11255263 67.8125 67.875 C67.8434375 69.15117187 67.8434375 69.15117187 67.875 70.453125 C67.91217554 76.41979929 66.99973053 79.78155056 62.9375 84.3125 C59.25916095 86.15166953 55.60015305 85.73294152 51.5625 85.5 C50.70236273 88.76276567 50.70236273 88.76276567 50.5625 92.5 C52.32690022 95.33132801 52.32690022 95.33132801 54.5625 97.5 C56.1172669 100.60953379 55.84894437 103.06266761 55.5625 106.5 C52.46660071 112.83252128 45.84644107 120.35802947 39.5625 123.5 C35.87588152 124.01612659 32.06123519 124.52820205 28.8828125 122.34765625 C28.40585937 121.88230469 27.92890625 121.41695313 27.4375 120.9375 C24.69677926 118.05149904 24.69677926 118.05149904 20.6875 118.6875 C19.140625 119.0896875 19.140625 119.0896875 17.5625 119.5 C17.62050781 120.08007812 17.67851562 120.66015625 17.73828125 121.2578125 C17.98728244 125.56909032 18.05772425 128.55339239 15.25 132 C10.56229133 136.36065923 5.81773208 135.74744211 -0.25 135.8125 C-1.14009766 135.84150391 -2.03019531 135.87050781 -2.94726562 135.90039062 C-8.77641278 135.95656476 -11.99414131 135.36132129 -16.4375 131.5 C-18.57800705 127.72863044 -18.93501518 123.77112093 -19.4375 119.5 C-21.68625747 118.63149826 -21.68625747 118.63149826 -24.4375 118.5 C-27.15213073 120.30495512 -27.15213073 120.30495512 -29.4375 122.5 C-32.74484014 124.15367007 -35.89025044 124.25699682 -39.4375 123.5 C-42.49594634 121.54421932 -44.90922665 119.0888308 -47.4375 116.5 C-48.09363281 115.89027344 -48.74976563 115.28054688 -49.42578125 114.65234375 C-55.53561147 108.89670659 -55.53561147 108.89670659 -56.4375 104.5 C-56.34684074 100.23901489 -55.69202475 98.78482532 -52.8125 95.5625 C-50.01003755 92.63421513 -50.01003755 92.63421513 -50.625 88.625 C-50.893125 87.59375 -51.16125 86.5625 -51.4375 85.5 C-52.10136719 85.54640625 -52.76523438 85.5928125 -53.44921875 85.640625 C-60.72223679 85.93791625 -60.72223679 85.93791625 -64.5 83.625 C-68.62979924 79.09554277 -67.69644859 74.04602374 -67.75 68.1875 C-67.77900391 67.14142578 -67.80800781 66.09535156 -67.83789062 65.01757812 C-67.90194683 57.27663172 -67.90194683 57.27663172 -65.54296875 53.33203125 C-62.57945012 50.75338517 -60.64796645 50.32104664 -56.8125 49.9375 C-55.99523437 49.85371094 -55.17796875 49.76992188 -54.3359375 49.68359375 C-53.70945313 49.62300781 -53.08296875 49.56242187 -52.4375 49.5 C-50.96591069 46.84084905 -50.96591069 46.84084905 -50.4375 43.5 C-52.5265215 40.684589 -52.5265215 40.684589 -54.17578125 38.99609375 C-56.22660342 36.5643139 -56.4375 34.63245671 -56.4375 31.5 C-54.39122191 23.31488763 -47.2775812 17.06005414 -40.4375 12.5 C-36.46163084 11.84990091 -32.14293146 11.3905325 -28.66015625 13.65625 C-28.17417969 14.1203125 -27.68820313 14.584375 -27.1875 15.0625 C-24.62742379 17.90765905 -24.62742379 17.90765905 -21.0625 17.3125 C-20.19625 17.044375 -19.33 16.77625 -18.4375 16.5 C-18.499375 15.46875 -18.56125 14.4375 -18.625 13.375 C-18.42075892 9.15401773 -17.74982984 7.00836251 -15.4375 3.5 C-10.77939608 -0.39721842 -5.77867749 -0.01597423 0 0 Z M-6.4375 11.5 C-6.52 13.0675 -6.6025 14.635 -6.6875 16.25 C-6.85855992 19.50013851 -7.09583464 21.06117107 -9.11328125 23.65234375 C-11.75594198 25.75314799 -14.26081738 27.01263311 -17.375 28.3125 C-18.39464844 28.75207031 -19.41429687 29.19164062 -20.46484375 29.64453125 C-23.72197021 30.58186462 -25.26378039 30.61395457 -28.4375 29.5 C-31.00568668 27.70674005 -33.12455293 25.63153946 -35.4375 23.5 C-38.4075 26.47 -41.3775 29.44 -44.4375 32.5 C-43.468125 33.5725 -42.49875 34.645 -41.5 35.75 C-39.22462625 38.26743479 -37.6476292 40.0538812 -37.4375 43.5 C-38.25306544 46.14771596 -39.12543895 48.58189969 -40.1875 51.125 C-40.58582031 52.1459375 -40.58582031 52.1459375 -40.9921875 53.1875 C-42.43431758 56.72981951 -43.1829205 58.33028033 -46.4375 60.5 C-49.76348207 61.05520331 -53.07057009 61.23764183 -56.4375 61.5 C-56.4375 65.79 -56.4375 70.08 -56.4375 74.5 C-54.66375 74.644375 -52.89 74.78875 -51.0625 74.9375 C-45.6875 75.375 -45.6875 75.375 -43.4375 76.5 C-42.22220459 79.24250683 -41.14579752 81.9364123 -40.125 84.75 C-39.82271484 85.51441406 -39.52042969 86.27882813 -39.20898438 87.06640625 C-37.13455129 92.77232908 -37.13455129 92.77232908 -38.6328125 96.37109375 C-39.22835937 97.07363281 -39.82390625 97.77617187 -40.4375 98.5 C-41.159375 99.428125 -41.88125 100.35625 -42.625 101.3125 C-43.5221875 102.3953125 -43.5221875 102.3953125 -44.4375 103.5 C-41.7975 106.14 -39.1575 108.78 -36.4375 111.5 C-32.50445297 109.77494622 -32.50445297 109.77494622 -30.125 107.3125 C-27.4375 105.5 -27.4375 105.5 -24.375 105.4375 C-23.05211649 105.75066048 -21.7407675 106.11323896 -20.4375 106.5 C-19.43203125 106.74363281 -18.4265625 106.98726563 -17.390625 107.23828125 C-13.91237177 108.31587406 -11.34578806 109.29325319 -8.4375 111.5 C-6.729059 116.03203803 -6.63653792 119.57381148 -6.4375 124.5 C-2.1475 124.5 2.1425 124.5 6.5625 124.5 C6.8925 120.54 7.2225 116.58 7.5625 112.5 C9.76916085 111.53040659 11.97595083 110.56110527 14.18359375 109.59375 C16.73841157 108.46041543 16.73841157 108.46041543 19.75 106.6875 C23.35344197 105.16604672 24.86576145 105.21745805 28.5625 106.5 C31.09297498 108.35056958 33.26879018 110.34391276 35.5625 112.5 C38.5325 109.53 41.5025 106.56 44.5625 103.5 C43.593125 102.365625 42.62375 101.23125 41.625 100.0625 C41.07972656 99.42441406 40.53445313 98.78632813 39.97265625 98.12890625 C39.19454305 97.23008851 38.40313472 96.34063472 37.5625 95.5 C37.84033853 89.24863303 40.06035763 80.00214237 44.5625 75.5 C48.55352718 75.0361934 52.55460968 74.79531823 56.5625 74.5 C56.5625 70.21 56.5625 65.92 56.5625 61.5 C54.809375 61.396875 53.05625 61.29375 51.25 61.1875 C46.11038136 60.88516949 46.11038136 60.88516949 43.87890625 59.31640625 C40.13747299 54.15389448 37.63911434 47.91335162 37.4375 41.5625 C38.78788859 37.88644218 40.59591099 36.0101907 43.5625 33.5 C42.18061547 30.28956118 40.63828097 28.45063635 37.9375 26.25 C36.99003906 25.46882813 36.99003906 25.46882813 36.0234375 24.671875 C35.54132813 24.28515625 35.05921875 23.8984375 34.5625 23.5 C33.80066406 24.27537109 33.80066406 24.27537109 33.0234375 25.06640625 C32.33507812 25.72511719 31.64671875 26.38382812 30.9375 27.0625 C30.26460938 27.72378906 29.59171875 28.38507813 28.8984375 29.06640625 C26.5625 30.5 26.5625 30.5 23.68359375 30.3671875 C20.42199255 29.46096038 17.37150806 28.37252268 14.25 27.0625 C12.67798828 26.41474609 12.67798828 26.41474609 11.07421875 25.75390625 C8.5625 24.5 8.5625 24.5 7.5625 22.5 C7.11750069 18.84111679 6.86159776 15.17462966 6.5625 11.5 C2.2725 11.5 -2.0175 11.5 -6.4375 11.5 Z " fill="#000000" transform="translate(272.4375,347.5)"/>
<path d="M0 0 C3.12708093 2.54766001 5.92920917 5.3711483 8.75 8.25 C9.51699219 9.00152344 10.28398437 9.75304687 11.07421875 10.52734375 C18.59391454 18.09990207 18.59391454 18.09990207 19 23 C16.35118052 28.41471386 11.85065924 32.51602254 7.625 36.75 C6.97789062 37.42160156 6.33078125 38.09320313 5.6640625 38.78515625 C2.03643196 42.4347281 -0.7763971 44.99046035 -6 46 C-8.3125 45.5 -8.3125 45.5 -10 44 C-11.1875 41.375 -11.1875 41.375 -11 38 C-8.95661033 35.03518794 -6.56267269 32.52056305 -4 30 C-3.505 29.505 -3.505 29.505 -3 29 C-3.91819519 28.99413376 -4.83639038 28.98826752 -5.78240967 28.98222351 C-14.43442895 28.9243262 -23.08618926 28.85226652 -31.737957 28.76428509 C-36.18596333 28.71955241 -40.63387746 28.68030277 -45.08203125 28.65356445 C-49.37455281 28.62756023 -53.66672008 28.58717854 -57.95902252 28.53681374 C-59.59683069 28.52012546 -61.23470017 28.50862339 -62.87258148 28.50238609 C-65.16640892 28.49276607 -67.45932601 28.46473362 -69.75292969 28.43237305 C-71.05864929 28.42126999 -72.3643689 28.41016693 -73.70965576 28.39872742 C-77.16688709 27.97977645 -78.61905282 27.5049021 -81 25 C-81.5 22 -81.5 22 -81 19 C-78.61905282 16.4950979 -77.16688709 16.02022355 -73.70965576 15.60127258 C-72.40393616 15.59016953 -71.09821655 15.57906647 -69.75292969 15.56762695 C-69.03058136 15.5574353 -68.30823303 15.54724365 -67.56399536 15.53674316 C-65.18320963 15.50661803 -62.80282627 15.49734827 -60.421875 15.48828125 C-58.76848005 15.47143415 -57.11509792 15.45328386 -55.46173096 15.43388367 C-51.11511232 15.38638068 -46.7685456 15.35657336 -42.42175293 15.33044434 C-37.98418931 15.30064026 -33.54680459 15.25410942 -29.109375 15.20898438 C-20.40633789 15.12294787 -11.70328449 15.05560426 -3 15 C-3.49298584 14.53239258 -3.98597168 14.06478516 -4.49389648 13.58300781 C-5.13399658 12.96264648 -5.77409668 12.34228516 -6.43359375 11.703125 C-7.07095459 11.09114258 -7.70831543 10.47916016 -8.36499023 9.84863281 C-10.61193986 7.30810683 -11.07641774 5.36238035 -11 2 C-7.68686525 -2.96970212 -5.02854819 -2.36224822 0 0 Z " fill="#000000" transform="translate(448,234)"/>
<path d="M0 0 C4.06148974 0.47170907 5.26825945 1.71638283 8.11254883 4.60449219 C8.99104492 5.48878906 9.86954102 6.37308594 10.7746582 7.28417969 C12.12333984 8.68796875 12.12333984 8.68796875 13.49926758 10.12011719 C14.41772461 11.04050781 15.33618164 11.96089844 16.2824707 12.90917969 C24.10705857 20.88991233 24.10705857 20.88991233 24.18676758 24.37011719 C21.54458636 29.8412138 17.15460319 33.84460177 12.93676758 38.12011719 C11.82881836 39.28994141 11.82881836 39.28994141 10.69848633 40.48339844 C4.5132051 46.75594995 4.5132051 46.75594995 0.13989258 47.38574219 C-1.3219043 47.37800781 -1.3219043 47.37800781 -2.81323242 47.37011719 C-4.37573242 45.68261719 -4.37573242 45.68261719 -5.81323242 43.37011719 C-5.52290163 38.95708922 -3.91794197 37.02373406 -0.75073242 34.05761719 C-0.01725586 33.36023438 0.7162207 32.66285156 1.47192383 31.94433594 C2.03782227 31.42484375 2.6037207 30.90535156 3.18676758 30.37011719 C2.24129562 30.36425095 1.29582367 30.3583847 0.32170105 30.3523407 C-8.58079939 30.29517159 -17.48305418 30.22244074 -26.38530445 30.13440228 C-30.96225544 30.0896408 -35.53911622 30.05039759 -40.11621094 30.02368164 C-44.53191661 29.99770606 -48.94727623 29.95734492 -53.36276817 29.90693092 C-55.04885243 29.89022319 -56.73499659 29.87873329 -58.42115211 29.87250328 C-60.7798366 29.86290434 -63.13762792 29.83489734 -65.49609375 29.80249023 C-66.5458992 29.80464287 -66.5458992 29.80464287 -67.61691284 29.80683899 C-70.44317525 29.75177978 -72.3913152 29.64877422 -74.78227234 28.06965637 C-76.56040401 25.13840375 -75.57933414 22.55238584 -74.81323242 19.37011719 C-71.85949172 17.89324684 -68.85014983 18.1913076 -65.60961914 18.16479492 C-64.86805573 18.15489532 -64.12649231 18.14499573 -63.36245728 18.13479614 C-60.90597754 18.10315356 -58.44947846 18.07841287 -55.99291992 18.05371094 C-54.29183442 18.03314379 -52.59075406 18.01214738 -50.88967896 17.99073792 C-46.40822506 17.93549254 -41.92672486 17.88609416 -37.44519043 17.83789062 C-32.87381866 17.78769358 -28.30251429 17.73199815 -23.73120117 17.67675781 C-14.75860248 17.5691461 -5.78594531 17.46770782 3.18676758 17.37011719 C2.62086914 16.850625 2.0549707 16.33113281 1.47192383 15.79589844 C0.37170898 14.74982422 0.37170898 14.74982422 -0.75073242 13.68261719 C-1.48163086 12.998125 -2.2125293 12.31363281 -2.96557617 11.60839844 C-5.03316662 9.10368527 -5.57016022 7.58289759 -5.81323242 4.37011719 C-4.33168837 1.14558013 -3.54636816 0.4665707 0 0 Z " fill="#000000" transform="translate(442.813232421875,391.6298828125)"/>
<path d="M0 0 C5.43691386 -0.15470893 7.85064593 1.3968586 11.8046875 5.11328125 C13.51044096 6.83095379 15.20015878 8.56467258 16.875 10.3125 C17.74125 11.18068359 18.6075 12.04886719 19.5 12.94335938 C26.89288691 20.49267884 26.89288691 20.49267884 27 24 C24.26845005 29.69527322 19.57221196 33.87170859 15.1875 38.3125 C14.39279297 39.14845703 13.59808594 39.98441406 12.77929688 40.84570312 C11.61043945 42.0300293 11.61043945 42.0300293 10.41796875 43.23828125 C9.36258911 44.321698 9.36258911 44.321698 8.28588867 45.42700195 C5.33390581 47.45836215 3.51262957 47.42050272 0 47 C-1.9375 45.3125 -1.9375 45.3125 -3 43 C-2.66591164 38.58422348 -1.11726719 36.66537721 2.0625 33.6875 C2.79597656 32.99011719 3.52945313 32.29273438 4.28515625 31.57421875 C4.85105469 31.05472656 5.41695313 30.53523438 6 30 C5.05452805 29.99413376 4.10905609 29.98826752 3.13493347 29.98222351 C-5.76756696 29.9250544 -14.66982176 29.85232355 -23.57207203 29.76428509 C-28.14902302 29.71952361 -32.7258838 29.6802804 -37.30297852 29.65356445 C-41.71868419 29.62758887 -46.13404381 29.58722773 -50.54953575 29.53681374 C-52.23562001 29.520106 -53.92176417 29.5086161 -55.60791969 29.50238609 C-57.96660418 29.49278715 -60.3243955 29.46478016 -62.68286133 29.43237305 C-63.73266678 29.43452568 -63.73266678 29.43452568 -64.80368042 29.4367218 C-67.66364468 29.38100603 -69.56305995 29.30971137 -71.93388367 27.62922668 C-73.47230197 25.27823357 -73.4122769 23.74851264 -73 21 C-71.93388367 19.37077332 -71.93388367 19.37077332 -70 18 C-67.48127497 17.69061019 -65.20383219 17.56245768 -62.68286133 17.56762695 C-61.94115189 17.5574353 -61.19944244 17.54724365 -60.43525696 17.53674316 C-57.98410549 17.50655337 -55.53334441 17.49733837 -53.08203125 17.48828125 C-51.38236689 17.47143895 -49.68271503 17.45328932 -47.983078 17.43388367 C-43.50985619 17.38632858 -39.036685 17.35655498 -34.56329346 17.33044434 C-29.99847411 17.30066651 -25.43382932 17.25412669 -20.86914062 17.20898438 C-11.91285162 17.12288867 -2.95652676 17.05557135 6 17 C5.43410156 16.48050781 4.86820312 15.96101563 4.28515625 15.42578125 C3.18494141 14.37970703 3.18494141 14.37970703 2.0625 13.3125 C1.33160156 12.62800781 0.60070312 11.94351563 -0.15234375 11.23828125 C-2.22057537 8.73279136 -2.78814769 7.2201551 -3 4 C-1.5625 1.6875 -1.5625 1.6875 0 0 Z " fill="#000000" transform="translate(440,73)"/>
<path d="M0 0 C5.28127244 4.56286405 8.48755704 9.25786909 9.24609375 16.27734375 C9.60712459 23.37761688 8.16781863 29.32693435 3.45703125 34.7890625 C-1.48627492 39.38169935 -6.76524739 41.6471179 -13.4375 42.375 C-20.15380707 41.66802031 -26.13336523 39.86663477 -31 35 C-35.00343444 29.5508809 -36.1641542 25.90493402 -36.25 19.1875 C-36.28867188 17.38345703 -36.28867188 17.38345703 -36.328125 15.54296875 C-35.78892618 9.7209053 -33.04174273 5.15097902 -29 1 C-19.37264452 -4.91536481 -10.0307665 -5.75483078 0 0 Z M-24 13 C-25.61429923 16.22859847 -25.59570657 19.50993653 -25 23 C-23.26397895 26.02508145 -21.16419863 28.41790069 -18 30 C-13.49271349 30.54016597 -10.05005877 30.60322525 -6.0625 28.3125 C-2.8061221 24.66140963 -1.94937418 22.41752283 -2.125 17.5 C-3.07919094 13.68323625 -4.28165635 11.8007177 -7 9 C-13.63435084 5.68282458 -19.2544462 8.01716851 -24 13 Z " fill="#000000" transform="translate(286,237)"/>
<path d="M0 0 C5.25050475 3.6561734 8.76668237 8.11043808 10.7109375 14.19140625 C11.83699448 21.15627722 10.76938271 26.81046742 7.34375 32.95703125 C4.07729887 37.42691175 -0.05672557 40.44729394 -5.2890625 42.19140625 C-12.95160611 42.83082507 -20.01371516 43.09446807 -26.2890625 38.19140625 C-30.55382589 34.07929658 -33.98661791 30.04704588 -34.625 24.01953125 C-34.71592057 15.69120664 -34.45781207 9.69325203 -28.67578125 3.44921875 C-20.76715615 -3.88072647 -9.46856123 -5.54587158 0 0 Z M-22.7265625 14.00390625 C-23.95872849 18.79566289 -23.86572029 22.09987543 -21.5390625 26.50390625 C-19.36043579 29.10615482 -18.35276237 29.9984116 -15.2890625 31.19140625 C-12.13636572 31.46212082 -9.31611433 31.10869468 -6.2890625 30.19140625 C-2.85710641 27.18844467 -1.5465364 25.03955556 -0.2265625 20.69140625 C-0.30574366 16.25726127 -1.41243239 14.52224112 -4.2890625 11.19140625 C-6.80038285 9.25962136 -8.55841183 8.3259998 -11.6640625 7.75390625 C-16.07554644 8.48915357 -19.92508576 10.47160949 -22.7265625 14.00390625 Z " fill="#000000" transform="translate(284.2890625,76.80859375)"/>
<path d="M0 0 C5.10938308 3.03538403 8.02439317 7.84327001 10.9375 12.875 C12.62436041 19.95981374 12.14585986 27.09295257 8.5625 33.5 C4.74936085 38.03454385 0.21853433 41.61465522 -5.4375 43.5 C-14.01055237 44.20987058 -20.28497191 43.1282198 -27.1875 37.75 C-32.75600683 32.59443862 -33.63001571 27.95000718 -33.9375 20.5625 C-33.7656726 13.20516314 -32.02308225 9.15128664 -26.9453125 3.98046875 C-19.71960224 -2.51518271 -8.94503713 -3.90266099 0 0 Z M-20.4375 13.5 C-23.02394464 16.9094043 -22.80253115 20.3386449 -22.4375 24.5 C-21.02349386 27.95645946 -19.77977609 29.26662994 -16.6875 31.375 C-12.6995465 32.75544544 -10.49597606 32.60685711 -6.4375 31.5 C-3.09956709 29.34888768 -0.54840165 27.38815577 0.5625 23.5 C0.48331609 19.22406891 -0.25007419 16.81628106 -2.4375 13.125 C-5.85558676 10.13417409 -7.7775181 9.47637829 -12.21875 9.26171875 C-15.79267431 9.64553809 -17.81394628 11.13240274 -20.4375 13.5 Z " fill="#000000" transform="translate(283.4375,394.5)"/>
</svg>
