<svg width="32" height="32" viewBox="0 0 32 32" fill="none" xmlns="http://www.w3.org/2000/svg">
<path d="M25 18V25C25 26.1046 24.1046 27 23 27H9C7.89543 27 7 26.1046 7 25V7C7 5.89543 7.89543 5 9 5H18L19 6" stroke="black" stroke-width="2" stroke-linecap="round" stroke-linejoin="round"/>
<path d="M12 19.3284V22H14.6716C15.202 22 15.7107 21.7893 16.0858 21.4142L24.5858 12.9142C25.3668 12.1332 25.3668 10.8668 24.5858 10.0858L23.9142 9.41421C23.1332 8.63316 21.8668 8.63317 21.0858 9.41421L12.5858 17.9142C12.2107 18.2893 12 18.798 12 19.3284Z" stroke="black" stroke-width="2" stroke-linecap="round" stroke-linejoin="round"/>
</svg>
