<svg
      height="32"
      width="32"
      viewBox="0 0 354 472"
      fill="none"
      xmlns="http://www.w3.org/2000/svg"
    >
      <g clipPath="url(#clip0_39_134)">
        <path
          d="M0.421875 412.975C78.5269 491.079 205.16 491.079 283.265 412.975C361.369 334.87 361.369 208.237 283.265 130.132L247.909 165.487C306.488 224.066 306.488 319.041 247.909 377.619C189.331 436.198 94.3559 436.198 35.7769 377.619L0.421875 412.975Z"
          fill="#10B981"
        />
        <path
          d="M71.1328 342.264C110.185 381.316 173.501 381.316 212.554 342.264C251.606 303.212 251.606 239.895 212.554 200.843L177.199 236.198C196.725 255.724 196.725 287.382 177.199 306.909C157.672 326.435 126.014 326.435 106.488 306.909L71.1328 342.264Z"
          fill="#10B981"
        />
        <path
          d="M353.974 59.421C275.869 -18.6835 149.236 -18.6835 71.1315 59.421C-6.97352 137.526 -6.97352 264.159 71.1315 342.264L106.486 306.909C47.9085 248.33 47.9085 153.355 106.486 94.777C165.065 36.198 260.04 36.198 318.618 94.777L353.974 59.421Z"
          fill="#34D399"
        />
        <path
          d="M283.264 130.132C244.212 91.08 180.894 91.08 141.842 130.132C102.789 169.185 102.789 232.501 141.842 271.553L177.197 236.198C157.671 216.672 157.671 185.014 177.197 165.487C196.723 145.961 228.381 145.961 247.908 165.487L283.264 130.132Z"
          fill="#34D399"
        />
      </g>
      <defs>
        <clipPath id="clip0_39_134">
          <rect width="354" height="472" fill="white" />
        </clipPath>
      </defs>
    </svg>