<svg xmlns="http://www.w3.org/2000/svg" viewBox="-6 -5 172 178" fill="none">
  <path d="M121.079 52.9158L77.5002 24.3368C73.1671 21.4951 73.4379 15.04 77.9937 12.5735L99.6985 0.822258C101.904 -0.371657 104.584 -0.258565 106.681 1.11692L156.459 33.761C158.392 35.0289 159.555 37.1909 159.551 39.5077L159.444 99.16C159.44 101.674 158.063 103.983 155.858 105.177L134.153 116.928C129.597 119.394 124.069 116.079 124.078 110.887L124.172 58.6625C124.176 56.3457 123.013 54.1837 121.079 52.9158Z" fill="#047BFF"/>
  <path d="M64.0127 91.828L63.8881 161.127C63.8787 166.319 69.4075 169.635 73.9633 167.168L104.625 150.568C106.83 149.374 108.206 147.064 108.211 144.551L108.349 67.8238C108.353 65.507 107.19 63.345 105.256 62.0772L41.2304 20.089C39.133 18.7136 36.4531 18.6005 34.2479 19.7944L3.5862 36.3949C-0.969559 38.8615 -1.24034 45.3166 3.09275 48.1582L60.92 86.0813C62.8534 87.3491 64.0168 89.5111 64.0127 91.828Z" fill="#047BFF"/>
  <path d="M24.4509 108.439C24.4472 110.466 25.4753 112.358 27.183 113.468L48.4633 127.29C49.3718 127.88 49.9185 128.886 49.9166 129.964L49.8771 151.477C49.8725 154.009 47.0436 155.526 44.911 154.14L2.8026 126.788C1.09473 125.679 0.0667493 123.787 0.0704284 121.76L0.161047 68.9713C0.165658 66.44 2.99458 64.923 5.12715 66.3082L23.0427 77.9452C23.9512 78.5353 24.4979 79.5416 24.496 80.6199L24.4509 108.439Z" fill="#047BFF"/>
</svg>
