<svg width="32" height="32" viewBox="0 0 32 32" fill="none" xmlns="http://www.w3.org/2000/svg">
<path d="M16 3V13M16 3L13 6.13609M16 3L19 6.13609" stroke="black" stroke-width="2" stroke-linecap="round" stroke-linejoin="round"/>
<path d="M7 15V12C7 10.8954 7.89543 10 9 10H11M25 15V12C25 10.8954 24.1046 10 23 10H21" stroke="black" stroke-width="2" stroke-linecap="round" stroke-linejoin="round"/>
<path d="M12.5644 20.4399C11.6769 19.7608 9 19.6332 9 21.7961C9 24.1915 13 22.5657 13 25.0902C13 26.9875 10.33 27.5912 9 26.3537" stroke="black" stroke-width="2" stroke-linecap="round" stroke-linejoin="round"/>
<path d="M24 27V20L28 27V20" stroke="black" stroke-width="2" stroke-linecap="round" stroke-linejoin="round"/>
<path d="M16 23.5C16 20.7 17.6667 20 18.5 20C19.3333 20 21 20.7 21 23.5C21 26.3 19.3333 27 18.5 27C17.6667 27 16 26.3 16 23.5Z" stroke="black" stroke-width="2" stroke-linecap="round" stroke-linejoin="round"/>
<path d="M6 20V25C6 26.1046 5.10457 27 4 27V27C2.89543 27 2 26.1046 2 25V25" stroke="black" stroke-width="2" stroke-linecap="round" stroke-linejoin="round"/>
</svg>
