<svg width="284" height="284" viewBox="0 0 284 284" fill="none" xmlns="http://www.w3.org/2000/svg">
<path d="M284 217.202H0V217.344H284V217.202Z" fill="#EBEBEB"/>
<path d="M255.544 226.344H236.73V226.486H255.544V226.344Z" fill="#EBEBEB"/>
<path d="M171.219 226.416H166.281V226.558H171.219V226.416Z" fill="#EBEBEB"/>
<path d="M236.162 221.07H201.261V221.212H236.162V221.07Z" fill="#EBEBEB"/>
<path d="M127.883 224.423H120.674V224.565H127.883V224.423Z" fill="#EBEBEB"/>
<path d="M115.616 224.423H94.6953V224.565H115.616V224.423Z" fill="#EBEBEB"/>
<path d="M44.2411 222.024H29.7969V222.166H44.2411V222.024Z" fill="#EBEBEB"/>
<path d="M90.1859 222.024H47.6489V222.166H90.1859V222.024Z" fill="#EBEBEB"/>
<path d="M134.624 191.87H24.9438C23.1563 191.87 21.7017 190.416 21.7017 188.628V34.4548C21.7017 32.6673 23.1563 31.2126 24.9438 31.2126H134.624C136.411 31.2126 137.866 32.6673 137.866 34.4548V188.628C137.866 190.416 136.411 191.87 134.624 191.87ZM24.9438 31.3552C23.2341 31.3552 21.8437 32.7457 21.8437 34.4554V188.629C21.8437 190.338 23.2341 191.729 24.9438 191.729H134.624C136.333 191.729 137.724 190.338 137.724 188.629V34.4548C137.724 32.7457 136.333 31.3546 134.624 31.3546L24.9438 31.3552Z" fill="#EBEBEB"/>
<path d="M257.48 191.87H147.8C146.013 191.87 144.559 190.416 144.559 188.628V34.4548C144.559 32.6673 146.013 31.2126 147.8 31.2126H257.48C259.268 31.2126 260.722 32.6673 260.722 34.4548V188.628C260.723 190.416 259.268 191.87 257.48 191.87ZM147.8 31.3552C146.091 31.3552 144.701 32.7457 144.701 34.4554V188.629C144.701 190.338 146.091 191.729 147.8 191.729H257.48C259.19 191.729 260.58 190.338 260.58 188.629V34.4548C260.58 32.7457 259.19 31.3546 257.48 31.3546L147.8 31.3552Z" fill="#EBEBEB"/>
<path d="M190.532 172.409C189.252 170.467 190.162 167.134 192.426 165.643C198.547 161.611 206.498 158.581 208.02 160.892C209.541 163.203 203.569 169.393 197.448 173.424C195.184 174.915 191.811 174.352 190.532 172.409Z" fill="#E0E0E0"/>
<path d="M181.356 161.196C172.234 161.196 163.112 166.91 163.112 173.087C163.112 189.79 170.504 208.914 181.356 208.914C192.208 208.914 199.601 189.79 199.601 173.087C199.601 166.909 190.479 161.196 181.356 161.196Z" fill="#E6E6E6"/>
<path d="M181.355 161.194C178.965 161.194 176.576 161.587 174.349 162.279C176.815 163.047 180.175 163.55 183.534 163.55C185.838 163.55 188.141 163.315 190.157 162.917C187.45 161.832 184.403 161.194 181.355 161.194Z" fill="#E0E0E0"/>
<path d="M173.046 169.776C172.937 167.453 170.324 165.246 167.617 165.373C160.295 165.714 152 167.988 152.128 170.752C152.257 173.515 160.729 175.007 168.05 174.666C170.758 174.54 173.154 172.099 173.046 169.776Z" fill="#E6E6E6"/>
<path d="M181.34 138.23C170.953 139.318 161.119 145.683 161.444 148.786C162.324 157.178 171.497 163.499 183.853 162.204C196.21 160.908 203.872 152.823 202.992 144.43C202.668 141.327 191.727 137.141 181.34 138.23Z" fill="#E6E6E6"/>
<path d="M181.542 140.158C172.826 141.072 164.574 146.412 164.847 149.017C165.586 156.058 173.283 161.363 183.652 160.275C194.02 159.188 200.45 152.404 199.712 145.361C199.439 142.757 190.258 139.244 181.542 140.158Z" fill="#F0F0F0"/>
<path d="M178.413 150.655C178.769 154.053 176.997 157.023 174.453 157.29C171.91 157.557 169.559 155.018 169.203 151.621C168.847 148.223 170.62 145.252 173.163 144.986C175.706 144.719 178.057 147.257 178.413 150.655Z" fill="#E6E6E6"/>
<path d="M177.604 150.74C177.825 152.854 176.722 154.702 175.14 154.868C173.557 155.034 172.095 153.455 171.873 151.341C171.652 149.227 172.755 147.378 174.337 147.212C175.919 147.047 177.382 148.626 177.604 150.74Z" fill="#F5F5F5"/>
<path d="M195.99 148.812C196.346 152.21 194.573 155.181 192.03 155.447C189.486 155.714 187.136 153.176 186.78 149.778C186.424 146.38 188.196 143.41 190.74 143.143C193.283 142.876 195.634 145.415 195.99 148.812Z" fill="#E6E6E6"/>
<path d="M187.59 149.693C187.811 151.807 189.274 153.386 190.856 153.22C192.439 153.054 193.542 151.206 193.32 149.092C193.099 146.978 191.636 145.399 190.054 145.565C188.471 145.731 187.368 147.579 187.59 149.693Z" fill="#F5F5F5"/>
<path d="M228.457 172.323C227.804 170.432 225.054 169.305 222.851 170.066C216.892 172.125 210.657 175.955 211.434 178.205C212.211 180.454 219.563 179.629 225.522 177.57C227.725 176.809 229.11 174.214 228.457 172.323Z" fill="#F5F5F5"/>
<path d="M232.227 167.87C240.073 167.87 247.92 172.785 247.92 178.098C247.92 192.465 241.561 208.914 232.227 208.914C222.892 208.914 216.534 192.465 216.534 178.098C216.534 172.784 224.381 167.87 232.227 167.87Z" fill="#F5F5F5"/>
<path d="M232.228 167.868C234.283 167.868 236.339 168.207 238.254 168.802C236.132 169.462 233.243 169.896 230.353 169.896C228.372 169.896 226.391 169.693 224.657 169.351C226.986 168.418 229.607 167.868 232.228 167.868Z" fill="#F5F5F5"/>
<path d="M237.075 173.172C237.824 171.317 240.573 170.269 242.734 171.142C248.58 173.502 254.667 177.707 253.776 179.914C252.885 182.121 245.585 180.922 239.739 178.562C237.577 177.689 236.326 175.027 237.075 173.172Z" fill="#F5F5F5"/>
<path d="M230.692 148.317C239.646 147.599 248.965 151.429 249.179 154.105C249.759 161.339 243.001 168.131 232.348 168.985C221.696 169.838 213.941 164.21 213.361 156.976C213.147 154.301 221.737 149.035 230.692 148.317Z" fill="#F5F5F5"/>
<path d="M53.2714 175.062C53.8757 173.313 56.4192 172.269 58.4583 172.974C63.9714 174.879 69.74 178.423 69.0209 180.504C68.3018 182.585 61.5 181.822 55.987 179.917C53.9484 179.212 52.667 176.811 53.2714 175.062Z" fill="#F5F5F5"/>
<path d="M49.7842 170.942C42.5252 170.942 35.2661 175.489 35.2661 180.405C35.2661 193.696 41.1489 208.914 49.7842 208.914C58.4195 208.914 64.3023 193.696 64.3023 180.405C64.3023 175.489 57.0432 170.942 49.7842 170.942Z" fill="#F5F5F5"/>
<path d="M49.7835 170.941C47.8818 170.941 45.9802 171.254 44.208 171.804C46.171 172.415 48.844 172.816 51.5176 172.816C53.3505 172.816 55.1835 172.629 56.7875 172.312C54.6331 171.448 52.2083 170.941 49.7835 170.941Z" fill="#F5F5F5"/>
<path d="M45.2991 175.847C44.6062 174.131 42.0632 173.161 40.0633 173.969C34.6548 176.153 29.0237 180.043 29.8478 182.085C30.672 184.127 37.4261 183.018 42.8346 180.834C44.8345 180.026 45.9915 177.563 45.2991 175.847Z" fill="#F5F5F5"/>
<path d="M51.2046 152.853C42.9209 152.189 34.2992 155.733 34.1004 158.208C33.5636 164.901 39.8167 171.184 49.6715 171.974C59.5269 172.764 66.7007 167.557 67.2369 160.864C67.4357 158.389 59.4888 153.517 51.2046 152.853Z" fill="#F5F5F5"/>
<path d="M67.0675 61.4234C69.1236 60.409 70.3658 59.7257 70.3658 59.7257L70.7169 56.8124L68.2682 55.1953C68.2682 55.1953 66.9436 55.7008 64.8398 56.6125C60.0424 58.6931 51.2055 62.8849 44.8961 67.9764C44.2049 68.5331 43.5386 69.1073 42.9155 69.6861C43.7601 69.5856 44.6286 69.4487 45.5005 69.2817C53.4656 67.764 62.378 63.7363 67.0675 61.4234Z" fill="#E0E0E0"/>
<path d="M71.6746 57.7717L78.1475 68.8227C78.1475 68.8227 67.6105 86.7358 55.4814 91.5746C63.6658 82.9432 70.6459 68.4405 70.6459 68.4405L65.7321 60.5237L71.6746 57.7717Z" fill="#E6E6E6"/>
<path d="M71.1007 57.0151L68.3556 44.5055C68.3556 44.5055 48.4603 38.4995 36.2676 43.1764C48.1359 43.9625 63.105 49.8771 63.105 49.8771L64.8681 59.0264L71.1007 57.0151Z" fill="#E6E6E6"/>
<path d="M64.3701 60.1664C62.8944 57.2054 64.11 53.5753 67.0709 52.1002L77.095 47.1052C78.5656 46.3725 80.3678 46.9763 81.1005 48.4462L83.8014 53.8672C84.5341 55.3378 83.9303 57.1401 82.4603 57.8728L72.4363 62.8678C69.4753 64.3429 65.8458 63.1273 64.3701 60.1664Z" fill="#F5F5F5"/>
<path d="M74.5055 55.8191L73.8927 54.5894C72.7436 52.2833 73.6905 49.4558 75.9965 48.3067L81.6743 45.4775C82.8194 44.9067 84.2235 45.377 84.7943 46.5221L87.511 51.9743C88.0819 53.1194 87.6116 54.5235 86.4665 55.0937L80.7888 57.923C78.4821 59.072 75.6546 58.1252 74.5055 55.8191Z" fill="#EBEBEB"/>
<path d="M77.7553 46.6668C80.3817 41.6963 86.5979 39.7781 91.569 42.4045L108.397 51.2966C110.865 52.6007 111.817 55.6872 110.513 58.1558L105.704 67.2557C104.4 69.7242 101.314 70.6762 98.8451 69.3721L82.0175 60.48C77.0464 57.8536 75.1283 51.6374 77.7553 46.6668Z" fill="#E6E6E6"/>
<path d="M121.349 71.0949C125.515 64.0425 123.175 54.9482 116.122 50.7823C109.07 46.6164 99.9756 48.9564 95.8097 56.0088C91.6438 63.0612 93.9837 72.1555 101.036 76.3214C108.089 80.4873 117.183 78.1473 121.349 71.0949Z" fill="#F5F5F5"/>
<path d="M120.148 71.6554C116.518 77.1309 110.156 79.3024 105.936 76.5061C101.717 73.7093 101.24 67.0035 104.869 61.528C108.499 56.0525 114.861 53.881 119.081 56.6773C123.3 59.4735 123.777 66.1799 120.148 71.6554Z" fill="#EBEBEB"/>
<path d="M107.772 68.8773C111.387 67.7635 115.981 64.2266 117.876 61.2508C118.5 60.2704 119.909 59.9734 120.748 60.7771C125.052 64.9019 126.753 69.8571 132.135 75.8938C138.347 82.8609 152.893 90.6255 156.026 98.2168C148.814 103.175 134.771 107.316 132.695 115.481C119.904 107.258 109.605 83.1177 106.531 71.5043C106.234 70.3831 106.665 69.2187 107.772 68.8773Z" fill="#E6E6E6"/>
<path d="M117.829 217.202H149.841C153.15 217.202 154.32 212.812 151.445 211.174C142.656 206.166 130.537 199.856 125.268 199.856C115.009 199.857 117.829 217.202 117.829 217.202Z" fill="#E6E6E6"/>
<path d="M114.545 215.362C129.583 212.881 132.272 203.16 132.272 203.16L115.077 203.869L114.545 215.362Z" fill="#E0E0E0"/>
<path d="M118.852 207.899C133.909 207.899 146.114 195.694 146.114 180.637C146.114 165.581 133.909 153.375 118.852 153.375C103.796 153.375 91.5898 165.581 91.5898 180.637C91.5898 195.694 103.796 207.899 118.852 207.899Z" fill="#F5F5F5"/>
<path d="M138.072 197.874C145.529 189.001 145.482 176.689 137.967 170.373C130.452 164.057 118.315 166.129 110.858 175.001C103.401 183.873 103.448 196.185 110.963 202.501C118.478 208.818 130.615 206.746 138.072 197.874Z" fill="#EBEBEB"/>
<path d="M119.892 217.202H87.88C84.5709 217.202 83.4014 212.812 86.276 211.174C95.0652 206.166 107.184 199.856 112.453 199.856C122.712 199.857 119.892 217.202 119.892 217.202Z" fill="#E6E6E6"/>
<path d="M160.076 128.748C169.115 122.119 171.067 109.418 164.438 100.379C157.809 91.3408 145.107 89.388 136.069 96.0174C127.031 102.647 125.078 115.348 131.707 124.386C138.337 133.425 151.038 135.378 160.076 128.748Z" fill="#F5F5F5"/>
<path d="M156.226 129.916C164.282 125.923 168.318 117.654 165.242 111.447C162.165 105.241 153.141 103.446 145.085 107.438C137.03 111.431 132.993 119.699 136.07 125.906C139.146 132.113 148.171 133.908 156.226 129.916Z" fill="#EBEBEB"/>
<path d="M119.598 170.72C118.852 162.212 110.912 156.628 107.402 155.891C108.076 144.219 124.178 125.443 129.812 121.22C131.781 124.476 143.191 122.611 146.714 118.579C150.238 114.547 161.636 119.245 158.788 125.968C155.94 132.691 133.469 138.331 133.469 158.312C137.989 161.991 139.747 165.61 139.26 171.104C138.801 175.123 127.132 178.077 119.598 170.72Z" fill="#E6E6E6"/>
<path d="M144.84 242.855C205.662 242.855 254.969 239.975 254.969 236.423C254.969 232.871 205.662 229.992 144.84 229.992C84.0174 229.992 34.7109 232.871 34.7109 236.423C34.7109 239.975 84.0174 242.855 144.84 242.855Z" fill="#F5F5F5"/>
<path d="M94.2896 170.737C97.2506 169.839 101.158 172.26 102.204 175.711C105.032 185.044 105.892 196.33 102.369 197.398C98.8461 198.465 93.2081 188.507 90.3801 179.176C89.3344 175.724 91.3281 171.634 94.2896 170.737Z" fill="#263238"/>
<path d="M78.346 162.535C66.2101 162.535 54.0742 170.137 54.0742 178.355C54.0742 200.576 63.9091 226.019 78.346 226.019C92.7834 226.019 102.618 200.576 102.618 178.355C102.618 170.137 90.4819 162.535 78.346 162.535Z" fill="#1A40D7"/>
<path opacity="0.1" d="M78.3449 162.533C75.1652 162.533 71.9861 163.057 69.0234 163.977C72.3053 164.998 76.7744 165.669 81.2434 165.669C84.3077 165.669 87.3721 165.356 90.0542 164.826C86.4531 163.382 82.3993 162.533 78.3449 162.533Z" fill="black"/>
<path d="M59.4088 172.683L54.0713 178.357C54.0713 184.61 54.8489 191.121 56.2859 197.243C59.5281 193.889 62.902 187.391 63.4882 181.039C64.1073 174.264 62.3874 173.52 59.4088 172.683Z" fill="#263238"/>
<path d="M64.1657 170.57C61.4552 169.078 57.1355 170.508 55.3969 173.667C50.695 182.21 47.5079 193.2 50.7325 194.975C53.957 196.75 61.5375 188.178 66.24 179.636C67.9786 176.476 66.8767 172.062 64.1657 170.57Z" fill="#1A40D7"/>
<path d="M82.0277 218.335C71.1415 218.335 63.5547 199.384 63.5547 182.375C63.5547 176.127 72.5325 170.22 82.0277 170.22C91.5236 170.22 100.501 176.127 100.501 182.375C100.501 199.383 92.9146 218.335 82.0277 218.335ZM82.0277 170.879C73.0374 170.879 64.2136 176.574 64.2136 182.375C64.2136 199.071 71.5294 217.675 82.0277 217.675C92.5261 217.675 99.8425 199.071 99.8425 182.375C99.8425 176.574 91.0186 170.879 82.0277 170.879Z" fill="white"/>
<path d="M82.3489 218.08L81.707 217.93C86.0625 199.329 84.8986 173.885 81.7951 170.782L82.2608 170.316C85.8676 173.923 86.543 200.169 82.3489 218.08Z" fill="white"/>
<path d="M72.783 207.724C73.0267 208.095 73.059 208.505 72.8557 208.639C72.6524 208.772 72.2888 208.58 72.0452 208.208C71.8015 207.837 71.7691 207.427 71.9725 207.293C72.1764 207.159 72.5393 207.352 72.783 207.724Z" fill="white"/>
<path d="M74.0707 209.686C74.3143 210.057 74.3467 210.467 74.1428 210.601C73.9389 210.734 73.5759 210.542 73.3323 210.17C73.0886 209.799 73.0562 209.389 73.2596 209.255C73.4635 209.121 73.827 209.314 74.0707 209.686Z" fill="white"/>
<path d="M74.8005 207.803C75.0441 208.175 75.0765 208.585 74.8732 208.718C74.6693 208.853 74.3063 208.659 74.0626 208.288C73.819 207.916 73.7866 207.506 73.9905 207.373C74.1933 207.239 74.5562 207.432 74.8005 207.803Z" fill="white"/>
<path d="M76.0877 209.766C76.3313 210.137 76.3637 210.547 76.1598 210.681C75.9559 210.814 75.5929 210.622 75.3493 210.25C75.1056 209.879 75.0732 209.469 75.2771 209.335C75.481 209.201 75.844 209.394 76.0877 209.766Z" fill="white"/>
<path d="M75.3577 211.648C75.6014 212.019 75.6338 212.429 75.4304 212.563C75.2265 212.696 74.8635 212.504 74.6199 212.132C74.3762 211.761 74.3438 211.351 74.5472 211.217C74.7511 211.083 75.114 211.276 75.3577 211.648Z" fill="white"/>
<path d="M107.816 105.39C109.392 103.185 110.306 101.779 110.306 101.779L109.045 98.548L105.591 98.2305C105.591 98.2305 104.493 99.4965 102.81 101.621C98.9725 106.468 92.1048 115.77 88.3725 124.599C87.963 125.565 87.5892 126.535 87.2632 127.486C88.0868 126.91 88.9155 126.282 89.7306 125.621C97.1822 119.592 104.221 110.419 107.816 105.39Z" fill="black"/>
<path d="M110.257 103.191L116.796 116.847C116.796 116.847 102.621 136.914 87.855 141.422C98.3454 132.059 107.996 115.66 107.996 115.66L102.985 105.85L110.257 103.191Z" fill="#263238"/>
<path d="M84.2115 125.527C70.7749 121.991 55.5417 125.278 54.4852 129.293C51.6276 140.148 60.0635 152.333 76.0482 156.54C92.0328 160.748 105.375 154.296 108.232 143.44C109.289 139.426 97.6481 129.064 84.2115 125.527Z" fill="#1A40D7"/>
<path opacity="0.1" d="M83.5549 128.022C72.2801 125.054 59.4973 127.813 58.6106 131.181C56.2125 140.29 63.2915 150.515 76.7048 154.046C90.1181 157.576 101.313 152.163 103.712 143.053C104.598 139.685 94.8303 130.99 83.5549 128.022Z" fill="black"/>
<path d="M74.718 139.609C73.561 144.005 69.9559 146.866 66.666 145.999C63.3762 145.133 61.6466 140.868 62.8036 136.473C63.9607 132.078 67.5658 129.217 70.8556 130.083C74.146 130.949 75.875 135.214 74.718 139.609Z" fill="#263238"/>
<path d="M58.2446 139.452C57.509 139.452 56.7888 138.923 56.2021 137.948C55.6142 136.97 55.2183 135.642 55.0865 134.207C54.9547 132.772 55.1024 131.394 55.5029 130.326C55.9277 129.192 56.5934 128.528 57.3778 128.456C58.1617 128.385 58.9375 128.917 59.5612 129.953C60.1491 130.931 60.545 132.259 60.6768 133.695C60.8085 135.129 60.6609 136.508 60.2604 137.576C59.8356 138.71 59.1699 139.374 58.3855 139.445C58.3383 139.45 58.2912 139.452 58.2446 139.452ZM57.5136 128.998C57.4846 128.998 57.4562 128.999 57.4278 129.002C56.8729 129.053 56.3583 129.606 56.0163 130.518C55.6443 131.51 55.508 132.802 55.6324 134.157C55.7567 135.512 56.126 136.757 56.6718 137.666C57.1739 138.501 57.7817 138.945 58.3355 138.899C58.891 138.848 59.405 138.295 59.747 137.383C60.1184 136.392 60.2553 135.099 60.1309 133.745C60.0065 132.39 59.6373 131.144 59.0915 130.236C58.6149 129.444 58.0447 128.998 57.5136 128.998Z" fill="white"/>
<path d="M100.809 150.643C100.442 150.643 100.114 150.548 99.8382 150.357C98.5449 149.46 98.9124 146.766 100.675 144.223C101.496 143.039 102.495 142.078 103.488 141.516C104.541 140.92 105.479 140.838 106.127 141.288C106.774 141.737 107.026 142.643 106.838 143.839C106.66 144.965 106.111 146.238 105.289 147.422C104.469 148.606 103.469 149.567 102.477 150.129C101.871 150.471 101.305 150.643 100.809 150.643ZM105.154 141.553C104.754 141.553 104.274 141.702 103.757 141.994C102.835 142.515 101.901 143.418 101.125 144.536C99.5906 146.748 99.1441 149.208 100.15 149.906C100.609 150.224 101.358 150.131 102.206 149.651C103.129 149.13 104.063 148.227 104.838 147.109C105.613 145.991 106.131 144.8 106.296 143.753C106.447 142.791 106.272 142.056 105.814 141.738C105.635 141.614 105.41 141.553 105.154 141.553Z" fill="white"/>
<path d="M73.6707 139.334C72.951 142.069 70.708 143.849 68.6604 143.31C66.6133 142.771 65.5375 140.117 66.2572 137.382C66.9768 134.647 69.2199 132.867 71.2669 133.406C73.3151 133.945 74.3909 136.599 73.6707 139.334Z" fill="white"/>
<path d="M97.4563 145.595C96.2993 149.99 92.6942 152.851 89.4043 151.985C86.1145 151.119 84.3849 146.854 85.5419 142.458C86.6989 138.063 90.304 135.202 93.5939 136.068C96.8838 136.935 98.6133 141.2 97.4563 145.595Z" fill="#263238"/>
<path d="M94.0116 144.687C94.7316 141.952 93.6558 139.298 91.6086 138.759C89.5614 138.22 87.3181 140 86.5981 142.735C85.8781 145.47 86.954 148.124 89.0012 148.663C91.0484 149.202 93.2916 147.422 94.0116 144.687Z" fill="white"/>
<path d="M103.919 98.197L88.9699 95.7949C88.9699 95.7949 73.7413 115.075 73.6016 130.513C79.6093 117.799 92.6023 103.898 92.6023 103.898L103.43 105.924L103.919 98.197Z" fill="#263238"/>
<path d="M102.31 107.062C99.7395 104.114 100.048 99.5988 102.996 97.0286L112.976 88.3274C114.439 87.0511 116.681 87.2044 117.958 88.6682L122.663 94.0647C123.94 95.5285 123.786 97.7704 122.323 99.0467L112.343 107.748C109.395 110.319 104.88 110.01 102.31 107.062Z" fill="#1A40D7"/>
<path opacity="0.1" d="M112.609 99.0678L111.541 97.8432C109.539 95.5474 109.78 92.0303 112.076 90.0287L117.728 85.1001C118.868 84.1061 120.614 84.2254 121.609 85.3654L126.342 90.7932C127.336 91.9332 127.216 93.6792 126.076 94.6738L120.424 99.6023C118.128 101.605 114.611 101.364 112.609 99.0678Z" fill="black"/>
<path d="M113.138 94.5918C110.295 88.5841 112.885 81.3427 118.893 78.4998L139.231 68.8768C142.215 67.4653 145.811 68.7512 147.222 71.7344L152.426 82.7331C153.838 85.7163 152.552 89.3123 149.569 90.7237L129.23 100.347C123.221 103.189 115.98 100.6 113.138 94.5918Z" fill="#263238"/>
<path opacity="0.1" d="M126.332 99.6708C121.684 99.6708 117.221 97.0483 115.104 92.5753C115.03 92.4186 115.097 92.2317 115.254 92.1573C115.413 92.0829 115.599 92.1505 115.673 92.3073C118.449 98.173 125.481 100.686 131.346 97.9128L151.685 88.2898C151.843 88.2159 152.029 88.283 152.104 88.4397C152.178 88.5965 152.111 88.7834 151.954 88.8578L131.615 98.4808C129.908 99.2885 128.106 99.6708 126.332 99.6708Z" fill="white"/>
<path d="M167.255 79.305C169.541 69.8958 163.767 60.4148 154.357 58.1286C144.948 55.8424 135.467 61.6167 133.181 71.0259C130.895 80.4351 136.669 89.9161 146.078 92.2023C155.488 94.4885 164.969 88.7142 167.255 79.305Z" fill="#1A40D7"/>
<path opacity="0.1" d="M166.869 76.4451C167.271 68.689 162.751 62.1506 156.775 61.8412C150.799 61.5318 145.629 67.5686 145.227 75.3247C144.825 83.0808 149.345 89.6192 155.321 89.9286C161.297 90.238 166.468 84.2012 166.869 76.4451Z" fill="black"/>
<path d="M144.984 89.9735C143.947 89.9735 142.855 89.7412 141.748 89.2754C139.423 88.2956 137.316 86.3991 135.815 83.9339C132.703 78.8248 133.192 72.8278 136.904 70.5661C140.617 68.306 146.169 70.6223 149.281 75.732C152.394 80.8412 151.904 86.8381 148.192 89.0999C147.236 89.6815 146.146 89.9735 144.984 89.9735ZM140.11 70.0901C139.038 70.0901 138.015 70.3508 137.11 70.9029C133.583 73.0511 133.153 78.8049 136.152 83.7283C137.61 86.1236 139.652 87.9645 141.901 88.9113C144.127 89.8485 146.289 89.7963 147.987 88.7619C151.514 86.6138 151.944 80.8599 148.945 75.9365C146.716 72.2774 143.211 70.0901 140.11 70.0901Z" fill="white"/>
<path d="M137.701 72.0734C137.65 72.0734 137.605 72.0507 137.565 72.0166C137.531 71.982 137.508 71.9314 137.508 71.8803C137.508 71.8292 137.531 71.7781 137.565 71.744C137.616 71.6872 137.707 71.6702 137.781 71.6986C137.804 71.7105 137.826 71.7213 137.843 71.744C137.878 71.7786 137.9 71.8292 137.9 71.8803C137.9 71.9314 137.878 71.9825 137.843 72.0166C137.826 72.0331 137.804 72.0507 137.781 72.0558C137.753 72.0677 137.73 72.0734 137.701 72.0734Z" fill="white"/>
<path d="M147.034 75.6689C146.972 75.5837 146.989 75.4588 147.08 75.3963C147.165 75.3344 147.284 75.3514 147.352 75.436C147.415 75.5269 147.398 75.6462 147.307 75.7087C147.273 75.7371 147.233 75.7479 147.193 75.7479C147.131 75.7479 147.074 75.72 147.034 75.6689ZM146.273 74.726C146.199 74.6465 146.205 74.5221 146.285 74.4534C146.364 74.3796 146.489 74.3853 146.563 74.4648C146.631 74.55 146.625 74.6692 146.546 74.7431C146.506 74.7772 146.461 74.7885 146.415 74.7885C146.364 74.7885 146.307 74.7715 146.273 74.726ZM145.421 73.8627C145.342 73.7826 145.336 73.6639 145.41 73.5844C145.478 73.5049 145.603 73.4992 145.683 73.5724C145.762 73.6469 145.768 73.7661 145.694 73.8508C145.654 73.8905 145.603 73.9132 145.552 73.9132C145.506 73.9138 145.455 73.8968 145.421 73.8627ZM144.483 73.0845C144.398 73.022 144.381 72.9028 144.444 72.8176C144.506 72.7267 144.631 72.7096 144.716 72.7721C144.802 72.8397 144.819 72.9596 144.756 73.0442C144.716 73.0953 144.66 73.1237 144.603 73.1237C144.563 73.1237 144.518 73.1129 144.483 73.0845ZM143.473 72.4257C143.382 72.3745 143.348 72.2552 143.399 72.1587C143.45 72.0678 143.575 72.0332 143.666 72.0849C143.757 72.1417 143.791 72.2609 143.74 72.3518C143.706 72.4137 143.638 72.454 143.57 72.454C143.535 72.454 143.501 72.4427 143.473 72.4257ZM142.388 71.9031C142.285 71.8633 142.234 71.7492 142.28 71.6475C142.314 71.5509 142.427 71.4998 142.53 71.5401C142.632 71.5793 142.677 71.6935 142.637 71.7952C142.609 71.869 142.535 71.9207 142.456 71.9207C142.433 71.9201 142.411 71.9139 142.388 71.9031ZM138.645 71.4487C138.617 71.3408 138.679 71.2329 138.787 71.2101C138.889 71.1812 138.997 71.2442 139.026 71.3459C139.054 71.4487 138.992 71.556 138.884 71.5844C138.867 71.5907 138.85 71.5907 138.832 71.5907C138.747 71.5907 138.668 71.5333 138.645 71.4487ZM141.24 71.556C141.132 71.5333 141.064 71.4311 141.087 71.3232C141.11 71.2209 141.212 71.1528 141.32 71.1755C141.422 71.1982 141.49 71.3004 141.467 71.4027C141.45 71.4992 141.365 71.5612 141.274 71.5612C141.263 71.5617 141.252 71.5617 141.24 71.556ZM139.861 71.2385C139.861 71.1306 139.946 71.0454 140.054 71.0454C140.162 71.0454 140.252 71.13 140.252 71.2385C140.252 71.3459 140.162 71.4317 140.054 71.4317C139.946 71.4317 139.861 71.3459 139.861 71.2385Z" fill="white"/>
<path d="M147.886 76.7766C147.835 76.7766 147.784 76.7595 147.744 76.7192C147.727 76.7027 147.716 76.68 147.705 76.6573C147.693 76.6346 147.688 76.6118 147.688 76.5834C147.688 76.5607 147.693 76.5317 147.705 76.5096C147.716 76.4869 147.727 76.4642 147.744 76.4471C147.767 76.4301 147.784 76.4125 147.807 76.4017C147.881 76.3733 147.966 76.3903 148.023 76.4471C148.04 76.4642 148.057 76.4869 148.062 76.5096C148.074 76.5317 148.079 76.5607 148.079 76.5834C148.079 76.6118 148.074 76.6346 148.062 76.6573C148.057 76.68 148.04 76.7027 148.023 76.7192C147.989 76.7595 147.937 76.7766 147.886 76.7766Z" fill="white"/>
<path d="M156.638 84.5349C157.396 80.1284 156.125 73.3924 154 69.8038C153.301 68.6218 153.793 67.1053 155.037 66.5225C161.062 63.6978 170.894 63.1611 180.341 64.639C191.243 66.3447 210.204 74.5932 215.757 82.5571C208.697 90.1206 193.543 98.4838 193.229 108.439C185.564 96.1545 173.298 88.6001 158.743 87.2494C157.379 87.1227 156.406 85.8856 156.638 84.5349Z" fill="#263238"/>
<path d="M214.532 88.7898C214.319 88.7898 214.112 88.6819 213.994 88.4859C208.995 80.2085 190.357 70.8439 180.231 68.5702C170.624 66.4135 161.042 66.4856 155.224 68.7599C154.9 68.886 154.536 68.7258 154.41 68.4032C154.283 68.08 154.443 67.7147 154.766 67.5881C160.804 65.2269 170.667 65.1332 180.506 67.3427C190.725 69.6374 209.724 78.981 215.07 87.835C215.25 88.1321 215.154 88.5189 214.857 88.6984C214.755 88.7609 214.643 88.7898 214.532 88.7898Z" fill="black"/>
<path opacity="0.1" d="M208.07 125.351C207.923 125.351 207.792 125.247 207.762 125.098C205.96 115.966 192.571 100.974 182.687 94.6493C174.343 89.3106 165.242 86.0639 158.941 86.2423C158.762 86.2519 158.623 86.1094 158.619 85.9356C158.615 85.7618 158.752 85.6175 158.925 85.6135C165.359 85.4653 174.583 88.7171 183.026 94.1204C191.804 99.7368 206.392 114.909 208.38 124.976C208.414 125.147 208.302 125.312 208.132 125.346C208.111 125.35 208.09 125.351 208.07 125.351Z" fill="white"/>
<path d="M193.13 236.423H230.974C234.886 236.423 236.269 231.233 232.871 229.297C222.48 223.376 208.153 215.917 201.924 215.917C189.795 215.917 193.13 236.423 193.13 236.423Z" fill="#263238"/>
<path d="M189.248 234.248C207.026 231.314 210.204 219.823 210.204 219.823L189.876 220.661L189.248 234.248Z" fill="black"/>
<path d="M194.339 225.425C212.139 225.425 226.568 210.995 226.568 193.196C226.568 175.396 212.139 160.966 194.339 160.966C176.539 160.966 162.109 175.396 162.109 193.196C162.109 210.995 176.539 225.425 194.339 225.425Z" fill="#1A40D7"/>
<path opacity="0.1" d="M217.061 213.575C225.877 203.087 225.822 188.531 216.938 181.064C208.054 173.597 193.705 176.046 184.889 186.535C176.074 197.023 176.129 211.579 185.013 219.046C193.897 226.513 208.246 224.064 217.061 213.575Z" fill="black"/>
<path d="M174.325 213.091C168.292 213.091 163.383 204.166 163.383 193.196C163.383 182.225 168.292 173.299 174.325 173.299C180.357 173.299 185.266 182.225 185.266 193.196C185.266 204.166 180.358 213.091 174.325 213.091ZM174.325 173.928C168.638 173.928 164.013 182.571 164.013 193.196C164.013 203.819 168.639 212.463 174.325 212.463C180.011 212.463 184.637 203.819 184.637 193.196C184.637 182.571 180.011 173.928 174.325 173.928Z" fill="white"/>
<path d="M174.326 176.387C174.281 176.387 174.241 176.38 174.207 176.364C174.167 176.347 174.133 176.324 174.105 176.296C174.076 176.267 174.053 176.233 174.036 176.193C174.019 176.154 174.014 176.113 174.014 176.074C174.014 176.035 174.019 175.994 174.036 175.954C174.053 175.92 174.076 175.887 174.105 175.858C174.133 175.824 174.166 175.801 174.207 175.79C174.281 175.756 174.366 175.756 174.445 175.79C174.48 175.802 174.514 175.824 174.542 175.858C174.577 175.887 174.599 175.92 174.61 175.954C174.627 175.994 174.638 176.035 174.638 176.074C174.638 176.113 174.627 176.154 174.61 176.193C174.599 176.233 174.576 176.267 174.542 176.296C174.514 176.324 174.48 176.347 174.445 176.364C174.406 176.38 174.366 176.387 174.326 176.387Z" fill="white"/>
<path d="M182.597 191.313C182.586 191.143 182.722 190.995 182.892 190.99C183.063 190.978 183.21 191.109 183.222 191.28C183.222 191.28 183.222 191.28 183.216 191.28C183.227 191.45 183.097 191.598 182.926 191.609C182.92 191.609 182.914 191.609 182.909 191.609C182.745 191.609 182.608 191.478 182.597 191.313ZM182.444 189.451C182.421 189.28 182.546 189.127 182.716 189.104C182.887 189.087 183.039 189.212 183.057 189.383C183.074 189.553 182.955 189.706 182.784 189.723C182.773 189.729 182.762 189.729 182.75 189.729C182.591 189.728 182.461 189.609 182.444 189.451ZM182.171 187.598C182.142 187.434 182.256 187.269 182.426 187.241C182.597 187.212 182.755 187.321 182.784 187.49C182.813 187.661 182.704 187.826 182.534 187.854C182.517 187.854 182.5 187.86 182.483 187.86C182.336 187.86 182.199 187.752 182.171 187.598ZM181.79 185.77C181.751 185.605 181.852 185.441 182.017 185.395C182.182 185.356 182.352 185.458 182.392 185.622C182.432 185.787 182.329 185.957 182.165 186.003C182.142 186.009 182.114 186.009 182.091 186.009C181.949 186.008 181.824 185.912 181.79 185.77ZM181.274 183.981C181.222 183.816 181.313 183.639 181.477 183.589C181.636 183.532 181.813 183.623 181.869 183.788C181.92 183.952 181.835 184.123 181.67 184.18C181.636 184.191 181.602 184.191 181.573 184.191C181.438 184.19 181.319 184.111 181.274 183.981ZM180.62 182.237C180.552 182.078 180.625 181.896 180.784 181.828C180.944 181.76 181.125 181.834 181.193 181.993C181.262 182.151 181.188 182.334 181.029 182.402C180.99 182.419 180.949 182.425 180.904 182.425C180.785 182.425 180.671 182.356 180.62 182.237ZM179.802 180.573C179.722 180.425 179.773 180.231 179.922 180.147C180.069 180.067 180.262 180.118 180.341 180.266C180.427 180.414 180.376 180.607 180.228 180.692C180.177 180.721 180.126 180.731 180.074 180.731C179.967 180.732 179.859 180.675 179.802 180.573ZM178.791 179.033C178.683 178.897 178.711 178.704 178.848 178.596C178.979 178.493 179.178 178.516 179.28 178.652C179.388 178.789 179.36 178.982 179.223 179.09C179.166 179.136 179.104 179.153 179.036 179.153C178.944 179.153 178.853 179.113 178.791 179.033ZM177.542 177.71C177.411 177.597 177.394 177.403 177.508 177.267C177.621 177.136 177.814 177.125 177.95 177.232C178.076 177.346 178.092 177.545 177.979 177.675C177.922 177.744 177.831 177.783 177.746 177.783C177.672 177.784 177.604 177.755 177.542 177.71ZM176.036 176.75C175.878 176.682 175.804 176.5 175.871 176.341C175.939 176.182 176.121 176.108 176.281 176.177C176.439 176.245 176.514 176.426 176.446 176.585C176.394 176.705 176.281 176.773 176.155 176.773C176.116 176.773 176.076 176.767 176.036 176.75Z" fill="white"/>
<path d="M182.96 193.506C182.921 193.506 182.881 193.495 182.841 193.483C182.801 193.466 182.767 193.444 182.739 193.415C182.71 193.387 182.687 193.353 182.676 193.313C182.659 193.278 182.648 193.239 182.648 193.194C182.648 193.154 182.659 193.114 182.676 193.074C182.688 193.04 182.71 193.006 182.739 192.978C182.773 192.949 182.801 192.927 182.841 192.91C182.915 192.875 183.006 192.875 183.08 192.91C183.119 192.927 183.153 192.949 183.182 192.978C183.21 193.006 183.233 193.04 183.25 193.074C183.262 193.114 183.273 193.154 183.273 193.194C183.273 193.233 183.261 193.273 183.25 193.313C183.233 193.353 183.21 193.387 183.182 193.415C183.125 193.472 183.046 193.506 182.96 193.506Z" fill="white"/>
<path d="M195.568 236.423H157.723C153.811 236.423 152.428 231.233 155.826 229.297C166.217 223.376 180.543 215.917 186.773 215.917C198.902 215.917 195.568 236.423 195.568 236.423Z" fill="#263238"/>
<path d="M233.914 91.4002C233.248 89.7479 232.407 88.1598 231.414 86.6796L231.937 86.3291C232.953 87.8457 233.815 89.4724 234.498 91.165L233.914 91.4002Z" fill="#1A40D7"/>
<path d="M229.483 84.1536C226.333 80.5229 222.231 77.8658 217.621 76.468L217.803 75.8665C222.527 77.2978 226.73 80.0214 229.957 83.7418L229.483 84.1536Z" fill="#1A40D7"/>
<path d="M232.378 110.126C237.448 97.8826 231.633 83.8469 219.389 78.7766C207.145 73.7063 193.11 79.5215 188.039 91.7652C182.969 104.009 188.784 118.045 201.028 123.115C213.272 128.185 227.307 122.37 232.378 110.126Z" fill="#1A40D7"/>
<path opacity="0.1" d="M224.066 119.096C232.346 112.432 234.895 101.858 229.76 95.4777C224.625 89.098 213.751 89.3285 205.471 95.9927C197.191 102.657 194.642 113.231 199.777 119.611C204.912 125.991 215.786 125.76 224.066 119.096Z" fill="black"/>
<path d="M196.483 111.928C195.687 111.928 194.9 111.813 194.134 111.581C191.359 110.741 189.208 108.462 188.076 105.166C186.955 101.901 186.969 98.0214 188.115 94.2408C190.489 86.4058 197.052 81.4341 202.748 83.1602C208.442 84.8864 211.141 92.6651 208.767 100.501C207.621 104.281 205.478 107.516 202.733 109.609C200.727 111.138 198.572 111.928 196.483 111.928ZM200.414 83.3562C195.597 83.3562 190.618 87.8434 188.632 94.397C187.518 98.0702 187.503 101.833 188.587 104.991C189.661 108.118 191.686 110.275 194.29 111.064C196.895 111.854 199.777 111.185 202.406 109.179C205.061 107.155 207.137 104.017 208.25 100.344C210.539 92.7935 208.001 85.3163 202.592 83.6765C201.877 83.4595 201.147 83.3562 200.414 83.3562Z" fill="white"/>
<path d="M202.14 85.4386C202.067 85.4386 201.998 85.4102 201.947 85.3585C201.902 85.3136 201.874 85.2454 201.874 85.1716C201.874 85.137 201.879 85.1034 201.891 85.0688C201.908 85.0404 201.925 85.0069 201.947 84.9842C201.97 84.9614 202.005 84.9387 202.038 84.9268C202.135 84.8876 202.254 84.9098 202.328 84.9842C202.351 85.0069 202.373 85.041 202.385 85.0688C202.397 85.1034 202.402 85.137 202.402 85.1716C202.402 85.2454 202.379 85.3136 202.328 85.3585C202.3 85.3875 202.271 85.4039 202.243 85.421C202.209 85.4329 202.175 85.4386 202.14 85.4386Z" fill="white"/>
<path d="M206.986 98.468C206.844 98.4396 206.747 98.2976 206.781 98.15C206.81 98.008 206.952 97.9171 207.094 97.9455C207.242 97.9739 207.333 98.1159 207.304 98.2641C207.275 98.3891 207.162 98.4743 207.037 98.4743C207.02 98.4743 207.003 98.4743 206.986 98.468ZM207.282 96.8044C207.133 96.7873 207.026 96.6567 207.043 96.509C207.059 96.367 207.196 96.2585 207.338 96.2761C207.486 96.2926 207.594 96.4238 207.577 96.5715C207.56 96.7078 207.446 96.81 207.31 96.81C207.298 96.8095 207.287 96.8095 207.282 96.8044ZM207.417 95.1231C207.264 95.1231 207.15 94.9981 207.15 94.8561V94.8499C207.15 94.7022 207.275 94.5886 207.423 94.5886C207.571 94.5886 207.69 94.7141 207.684 94.8612C207.685 95.0038 207.566 95.1231 207.417 95.1231ZM207.088 93.1976V93.1913C207.076 93.0493 207.185 92.9187 207.327 92.9016C207.475 92.8903 207.605 92.9982 207.617 93.1459C207.633 93.2941 207.526 93.4242 207.378 93.4361C207.372 93.4361 207.361 93.4361 207.355 93.4361C207.219 93.4361 207.1 93.3333 207.088 93.1976ZM206.838 91.5617C206.804 91.4135 206.901 91.2715 207.043 91.2431C207.191 91.209 207.327 91.2999 207.361 91.4476C207.395 91.5896 207.299 91.7316 207.157 91.7656C207.14 91.7656 207.117 91.7713 207.1 91.7713C206.975 91.7713 206.867 91.6867 206.838 91.5617ZM206.384 89.977C206.333 89.835 206.401 89.6811 206.537 89.6305C206.679 89.5794 206.833 89.6532 206.884 89.7896C206.935 89.9253 206.861 90.0792 206.725 90.1304C206.696 90.1417 206.662 90.1474 206.634 90.1474C206.52 90.1474 206.423 90.0849 206.384 89.977ZM205.691 88.4888C205.617 88.3582 205.656 88.1935 205.787 88.1196C205.918 88.0458 206.077 88.0912 206.151 88.2219C206.225 88.3474 206.18 88.5121 206.055 88.586C206.015 88.6087 205.969 88.6195 205.924 88.6195C205.827 88.6195 205.736 88.5735 205.691 88.4888ZM204.737 87.1654C204.635 87.0569 204.646 86.8871 204.754 86.7905C204.868 86.6883 205.032 86.6996 205.134 86.8076C205.231 86.9149 205.219 87.0853 205.112 87.1881C205.061 87.2336 204.998 87.2563 204.935 87.2563C204.861 87.2563 204.787 87.2222 204.737 87.1654ZM203.515 86.1089C203.39 86.0294 203.357 85.8647 203.436 85.7403C203.515 85.6148 203.686 85.5813 203.805 85.6659C203.805 85.6659 203.805 85.6659 203.81 85.6659C203.93 85.746 203.964 85.9107 203.884 86.0351C203.833 86.1089 203.748 86.1544 203.657 86.1544C203.612 86.1544 203.561 86.1368 203.515 86.1089Z" fill="white"/>
<path d="M206.622 100.116C206.549 100.116 206.486 100.093 206.435 100.042C206.407 100.013 206.39 99.9845 206.373 99.951C206.361 99.9226 206.355 99.8885 206.355 99.8487C206.355 99.8147 206.362 99.7806 206.373 99.7459C206.39 99.7175 206.407 99.684 206.435 99.6613C206.458 99.6386 206.486 99.6159 206.52 99.6039C206.617 99.5647 206.736 99.5875 206.81 99.6613C206.861 99.7124 206.889 99.7806 206.889 99.8487C206.889 99.9226 206.861 99.9907 206.81 100.042C206.787 100.065 206.759 100.087 206.725 100.099C206.691 100.11 206.656 100.116 206.622 100.116Z" fill="white"/>
<path d="M195.22 181.472C194.339 171.413 184.951 164.811 180.802 163.941C181.599 150.142 185.941 122.113 191.366 115.8C194.471 119.057 207.165 113.992 210.204 108.439C213.243 102.885 227.598 105.4 226.026 113.887C224.455 122.375 213.402 137.478 211.619 166.803C216.962 171.151 219.041 175.43 218.465 181.926C217.923 186.676 204.127 190.169 195.22 181.472Z" fill="#263238"/>
<path opacity="0.1" d="M192.968 170.732C192.862 170.732 192.759 170.678 192.7 170.582C192.609 170.433 192.655 170.24 192.804 170.149C198.919 166.405 208.133 166.284 210.27 166.458C210.443 166.472 210.571 166.624 210.558 166.797C210.544 166.97 210.385 167.094 210.219 167.085C208.127 166.913 199.102 167.031 193.132 170.686C193.081 170.717 193.024 170.732 192.968 170.732Z" fill="white"/>
<path d="M212.988 186.855C212.947 186.855 212.904 186.85 212.861 186.842C212.521 186.772 212.302 186.44 212.372 186.099C213.763 179.32 211.006 171.761 205.512 167.29C205.355 167.162 205.269 166.967 205.282 166.764C206.305 149.939 210.769 138.375 214.708 128.173C217.674 120.49 220.235 113.856 220.82 106.397C220.848 106.051 221.144 105.789 221.496 105.819C221.842 105.847 222.101 106.15 222.074 106.495C221.475 114.136 218.883 120.85 215.882 128.625C212 138.677 207.605 150.063 206.557 166.522C212.237 171.305 215.065 179.23 213.604 186.352C213.542 186.649 213.28 186.855 212.988 186.855Z" fill="black"/>
<path d="M106.869 108.475C105.587 108.475 103.979 107.5 102.795 105.87C101.206 103.683 100.973 101.134 102.276 100.187C102.92 99.7192 103.827 99.705 104.829 100.146C105.804 100.576 106.759 101.389 107.52 102.436C109.109 104.623 109.342 107.172 108.039 108.119C107.707 108.361 107.307 108.475 106.869 108.475ZM103.459 100.143C103.077 100.143 102.739 100.243 102.462 100.444C101.3 101.288 101.565 103.639 103.052 105.684C104.538 107.729 106.691 108.706 107.853 107.863C109.014 107.02 108.75 104.669 107.264 102.623C106.535 101.62 105.625 100.844 104.702 100.437C104.257 100.241 103.837 100.143 103.459 100.143Z" fill="white"/>
</svg>
