<svg width="402" height="273" viewBox="0 0 402 273" fill="none" xmlns="http://www.w3.org/2000/svg">
<g clip-path="url(#clip0_121_1712)">
<path d="M110.129 272.863C170.952 272.863 220.258 269.983 220.258 266.431C220.258 262.879 170.952 260 110.129 260C49.3064 260 0 262.879 0 266.431C0 269.983 49.3064 272.863 110.129 272.863Z" fill="#F5F5F5"/>
<path d="M132.709 162.541C132.235 162.766 131.719 162.888 131.195 162.897L82.5237 164.235C80.498 164.279 78.5377 163.516 77.0741 162.112C75.6106 160.709 74.7636 158.781 74.7196 156.753C74.6755 154.724 75.438 152.762 76.8393 151.296C78.2406 149.83 80.1659 148.982 82.1916 148.938L130.863 147.601C131.848 147.58 132.802 147.952 133.514 148.635C134.227 149.318 134.639 150.256 134.662 151.243L134.832 159.093C134.847 159.811 134.655 160.519 134.278 161.13C133.902 161.742 133.357 162.231 132.709 162.541Z" fill="#1A40D7"/>
<path d="M70.2591 265.258H62.4173C61.4313 265.257 60.486 264.865 59.7888 264.166C59.0915 263.468 58.6993 262.522 58.6982 261.534V196.089C58.6993 195.101 59.0915 194.155 59.7888 193.456C60.486 192.758 61.4313 192.366 62.4173 192.365H70.2591C71.2451 192.366 72.1905 192.758 72.8877 193.456C73.5849 194.155 73.9771 195.101 73.9782 196.089V261.534C73.9771 262.522 73.5849 263.468 72.8877 264.166C72.1905 264.865 71.2451 265.257 70.2591 265.258Z" fill="#1A40D7"/>
<path d="M91.082 265.258H83.2401C82.2541 265.257 81.3087 264.865 80.6115 264.166C79.9143 263.468 79.5221 262.522 79.521 261.534V196.089C79.5221 195.101 79.9143 194.155 80.6115 193.456C81.3087 192.758 82.2541 192.366 83.2401 192.365H91.082C92.068 192.366 93.0133 192.758 93.7106 193.456C94.4078 194.155 94.8 195.101 94.8011 196.089V261.534C94.8 262.522 94.4078 263.468 93.7106 264.166C93.0133 264.865 92.068 265.257 91.082 265.258Z" fill="#1A40D7"/>
<path d="M77.5153 124.331C92.4802 124.331 104.612 112.183 104.612 97.198C104.612 82.213 92.4802 70.0652 77.5153 70.0652C62.5504 70.0652 50.4189 82.213 50.4189 97.198C50.4189 112.183 62.5504 124.331 77.5153 124.331Z" fill="#1A40D7"/>
<path d="M101.898 96.8505C100.816 100.967 97.4437 103.647 94.3664 102.836C91.2891 102.024 89.6713 98.0295 90.7536 93.9127C91.8358 89.796 95.208 87.1162 98.2853 87.9275C101.363 88.7389 102.98 92.7338 101.898 96.8505Z" fill="#262C38"/>
<path d="M80.6459 96.8505C79.5637 100.967 76.1915 103.647 73.1142 102.836C70.0369 102.024 68.4191 98.0295 69.5014 93.9127C70.5836 89.796 73.9558 87.1162 77.0331 87.9275C80.1104 88.7389 81.7282 92.7338 80.6459 96.8505Z" fill="#262C38"/>
<path d="M98.6762 96C99.3497 93.4383 98.3433 90.9525 96.4284 90.4477C94.5135 89.9429 92.4152 91.6103 91.7417 94.172C91.0682 96.7336 92.0746 99.2195 93.9895 99.7243C95.9044 100.229 98.0027 98.5617 98.6762 96Z" fill="white"/>
<path d="M77.4242 96C78.0977 93.4383 77.0913 90.9525 75.1764 90.4477C73.2615 89.9429 71.1632 91.6103 70.4897 94.172C69.8162 96.7336 70.8226 99.2195 72.7375 99.7243C74.6524 100.229 76.7508 98.5617 77.4242 96Z" fill="white"/>
<path d="M86.7127 215.572H67.2196C63.1687 215.587 59.1858 214.53 55.6738 212.509C52.1619 210.487 49.2456 207.573 47.2201 204.06C45.1947 200.547 44.132 196.56 44.1397 192.504C44.1473 188.448 45.225 184.466 47.2637 180.96L74.5244 133.68C74.8275 133.154 75.2634 132.718 75.7884 132.414C76.3134 132.111 76.9089 131.951 77.5151 131.951C78.1213 131.951 78.7169 132.111 79.2419 132.414C79.7668 132.718 80.2028 133.154 80.5059 133.68L107.218 180.008C109.296 183.613 110.39 187.701 110.39 191.863C110.39 196.024 109.296 200.113 107.217 203.717C105.139 207.321 102.15 210.314 98.5511 212.395C94.9518 214.476 90.8688 215.572 86.7127 215.572Z" fill="#2E3641"/>
<path d="M71.1418 209.503C70.9166 209.029 70.7951 208.512 70.7854 207.987L69.4496 159.25C69.4055 157.222 70.168 155.259 71.5693 153.793C72.9706 152.328 74.8959 151.48 76.9216 151.435C78.9474 151.391 80.9076 152.155 82.3712 153.558C83.8347 154.961 84.6817 156.889 84.7257 158.918L86.0613 207.654C86.0817 208.641 85.7103 209.596 85.0284 210.309C84.3465 211.023 83.41 211.436 82.4242 211.458L74.5845 211.629C73.8672 211.644 73.1608 211.451 72.5502 211.074C71.9395 210.697 71.4505 210.152 71.1418 209.503Z" fill="#1A40D7"/>
<path d="M75.0011 77.1412C78.2932 81.4523 83.5194 84.3443 89.043 83.6595C94.303 83.0075 98.6425 79.3363 99.7312 74.0803C100.206 71.5954 100.078 69.0324 99.3573 66.6075C98.6364 64.1825 97.3439 61.9666 95.5888 60.1465C91.8657 56.2254 86.5374 54.1161 81.2633 53.3928C71.2725 52.0227 61.0116 55.5467 53.4576 62.1191C49.664 65.3866 46.636 69.4509 44.5889 74.0231C42.6168 78.5614 41.6777 83.4822 41.8394 88.4288C42.1296 98.2046 46.4059 107.962 53.7844 114.445C54.7008 115.248 55.66 116 56.6578 116.698C57.4993 117.29 58.2966 115.906 57.4622 115.32C49.9061 110.012 45.0863 101.376 43.7635 92.3007C43.0707 87.7283 43.3796 83.0597 44.6689 78.6188C45.9582 74.1779 48.1969 70.071 51.2298 66.5832C57.3313 59.6361 49.7341 66.9878 59 66.5832C68.3238 66.1761 96.5188 58.4772 98.2636 68.8701C99.0456 73.5283 97.3067 78.4247 93.0438 80.7568C88.4797 83.2537 82.8831 82.2262 78.9608 79.0015C78.0004 78.215 77.1336 77.3205 76.3774 76.3356C75.7626 75.5306 74.3776 76.3247 75.0011 77.1412Z" fill="#2E3641"/>
<path d="M349.19 6.29707L119.294 39.552L135.053 148.788L364.948 115.534L349.19 6.29707Z" fill="#F1F1F1"/>
<path d="M343.967 16.6152L127.219 47.9683L140.367 139.108L357.115 107.755L343.967 16.6152Z" fill="white"/>
<path d="M348.181 -4.53213e-05L118.286 33.2549L119.697 43.0347L349.592 9.77977L348.181 -4.53213e-05Z" fill="#E5E5E5"/>
<path d="M126.373 39.7872C127.383 39.7872 128.202 38.9672 128.202 37.9557C128.202 36.9442 127.383 36.1243 126.373 36.1243C125.363 36.1243 124.544 36.9442 124.544 37.9557C124.544 38.9672 125.363 39.7872 126.373 39.7872Z" fill="white"/>
<path d="M133.244 38.7933C134.254 38.7933 135.073 37.9733 135.073 36.9618C135.073 35.9503 134.254 35.1304 133.244 35.1304C132.234 35.1304 131.415 35.9503 131.415 36.9618C131.415 37.9733 132.234 38.7933 133.244 38.7933Z" fill="white"/>
<path d="M140.115 37.7994C141.125 37.7994 141.944 36.9794 141.944 35.9679C141.944 34.9564 141.125 34.1365 140.115 34.1365C139.105 34.1365 138.286 34.9564 138.286 35.9679C138.286 36.9794 139.105 37.7994 140.115 37.7994Z" fill="white"/>
<path d="M402 53.2991H169.718V163.669H402V53.2991Z" fill="#E6E6E6"/>
<path d="M395.358 62.7637H176.36V154.849H395.358V62.7637Z" fill="white"/>
<path d="M401.901 46.9224H169.619V56.8037H401.901V46.9224Z" fill="#CBCBCB"/>
<path d="M176.952 54.5643C177.962 54.5643 178.781 53.7443 178.781 52.7328C178.781 51.7213 177.962 50.9014 176.952 50.9014C175.942 50.9014 175.123 51.7213 175.123 52.7328C175.123 53.7443 175.942 54.5643 176.952 54.5643Z" fill="white"/>
<path d="M183.895 54.5643C184.905 54.5643 185.724 53.7443 185.724 52.7328C185.724 51.7213 184.905 50.9014 183.895 50.9014C182.885 50.9014 182.066 51.7213 182.066 52.7328C182.066 53.7443 182.885 54.5643 183.895 54.5643Z" fill="white"/>
<path d="M190.837 54.5643C191.847 54.5643 192.666 53.7443 192.666 52.7328C192.666 51.7213 191.847 50.9014 190.837 50.9014C189.827 50.9014 189.008 51.7213 189.008 52.7328C189.008 53.7443 189.827 54.5643 190.837 54.5643Z" fill="white"/>
<path d="M333.397 76.7639H302.553V79.0853H333.397V76.7639Z" fill="#E6E6E6"/>
<path d="M350.182 83.5786H302.553V85.9H350.182V83.5786Z" fill="#E6E6E6"/>
<path d="M341.865 90.0688H303.049V92.3902H341.865V90.0688Z" fill="#E6E6E6"/>
<path d="M325.214 97.1899H302.553V99.5113H325.214V97.1899Z" fill="#E6E6E6"/>
<path d="M336.754 104.146H302.553V106.467H336.754V104.146Z" fill="#E6E6E6"/>
<path d="M292.272 76.0337H288.496V79.8155H292.272V76.0337Z" fill="#E6E6E6"/>
<path d="M292.272 82.8484H288.496V86.6302H292.272V82.8484Z" fill="#E6E6E6"/>
<path d="M292.272 89.3386H288.496V93.1204H292.272V89.3386Z" fill="#E6E6E6"/>
<path d="M292.272 96.4597H288.496V100.242H292.272V96.4597Z" fill="#E6E6E6"/>
<path d="M292.272 103.416H288.496V107.198H292.272V103.416Z" fill="#E6E6E6"/>
<path d="M333.397 111.145H302.553V113.467H333.397V111.145Z" fill="#E6E6E6"/>
<path d="M350.182 117.96H302.553V120.281H350.182V117.96Z" fill="#E6E6E6"/>
<path d="M341.865 124.45H303.049V126.772H341.865V124.45Z" fill="#E6E6E6"/>
<path d="M325.214 131.571H302.553V133.893H325.214V131.571Z" fill="#E6E6E6"/>
<path d="M336.754 138.527H302.553V140.849H336.754V138.527Z" fill="#E6E6E6"/>
<path d="M292.272 110.415H288.496V114.197H292.272V110.415Z" fill="#E6E6E6"/>
<path d="M292.272 117.23H288.496V121.012H292.272V117.23Z" fill="#E6E6E6"/>
<path d="M292.272 123.72H288.496V127.502H292.272V123.72Z" fill="#E6E6E6"/>
<path d="M292.272 130.841H288.496V134.623H292.272V130.841Z" fill="#E6E6E6"/>
<path d="M292.272 137.797H288.496V141.579H292.272V137.797Z" fill="#E6E6E6"/>
<path d="M235.825 129.354H204.982V131.675H235.825V129.354Z" fill="#E6E6E6"/>
<path d="M239.671 135.386H200.855V137.707H239.671V135.386Z" fill="#E6E6E6"/>
<path d="M240.45 100.071C240.448 103.56 239.544 106.989 237.823 110.023C236.103 113.057 233.627 115.593 230.636 117.382C227.645 119.171 224.241 120.153 220.758 120.232C217.274 120.311 213.83 119.483 210.762 117.831L210.758 117.827C207.623 116.136 204.992 113.643 203.133 110.603C201.274 107.562 200.253 104.083 200.175 100.518C200.096 96.9538 200.962 93.4323 202.685 90.3125C204.408 87.1926 206.927 84.5858 209.983 82.7579C213.04 80.9299 216.526 79.946 220.086 79.9065C223.647 79.867 227.154 80.7733 230.25 82.5329C233.347 84.2926 235.922 86.8428 237.714 89.9237C239.505 93.0046 240.449 96.506 240.45 100.071Z" fill="#E6E6E6"/>
<path d="M220.414 99.0922C223.437 99.0922 225.888 96.6378 225.888 93.6102C225.888 90.5826 223.437 88.1282 220.414 88.1282C217.39 88.1282 214.939 90.5826 214.939 93.6102C214.939 96.6378 217.39 99.0922 220.414 99.0922Z" fill="white"/>
<path d="M229.762 110.419C223.641 112.57 216.968 112.545 210.864 110.346L210.86 110.343L214.939 102.281H225.888L229.762 110.419Z" fill="white"/>
<path d="M159.8 150.127C150.258 150.127 142.494 141.87 142.494 131.719C142.494 121.569 150.258 113.311 159.8 113.311C169.342 113.311 177.105 121.569 177.105 131.719C177.105 141.87 169.342 150.127 159.8 150.127ZM159.8 117.962C152.819 117.962 147.139 124.134 147.139 131.719C147.139 139.305 152.819 145.476 159.8 145.476C166.781 145.476 172.46 139.305 172.46 131.719C172.46 124.134 166.781 117.962 159.8 117.962Z" fill="#1A40D7"/>
<path d="M176.187 182.207H143.412C140.522 182.204 137.751 181.053 135.707 179.007C133.664 176.96 132.514 174.186 132.511 171.291V139.099C132.513 137.118 133.3 135.218 134.699 133.817C136.098 132.416 137.995 131.628 139.974 131.625H179.626C181.604 131.628 183.501 132.416 184.901 133.817C186.3 135.218 187.087 137.118 187.089 139.099V171.291C187.086 174.186 185.936 176.96 183.892 179.007C181.849 181.053 179.078 182.204 176.187 182.207Z" fill="#3D4456"/>
<path d="M166.187 149.94C166.188 148.803 165.886 147.686 165.312 146.705C164.739 145.724 163.915 144.913 162.925 144.357C161.935 143.801 160.814 143.519 159.679 143.54C158.544 143.562 157.435 143.886 156.467 144.479C155.498 145.073 154.705 145.914 154.169 146.916C153.633 147.918 153.374 149.046 153.418 150.182C153.462 151.318 153.807 152.421 154.419 153.379C155.03 154.337 155.886 155.115 156.897 155.631V165.637H162.703V155.631C163.751 155.096 164.631 154.282 165.246 153.277C165.861 152.273 166.186 151.118 166.187 149.94Z" fill="white"/>
</g>
<defs>
<clipPath id="clip0_121_1712">
<rect width="402" height="273" fill="white"/>
</clipPath>
</defs>
</svg>
