<svg class="mr-1.5" xmlns="http://www.w3.org/2000/svg" xmlns:xlink="http://www.w3.org/1999/xlink" aria-hidden="true" focusable="false" role="img" width="1em" height="1em" preserveAspectRatio="xMidYMid meet" viewBox="0 0 32 32"><rect width="32" height="32" rx="4" fill="#1683a5"></rect><path d="M6.71,14A5,5,0,0,1,8.82,9.29l2.64-2.2c1.67-1.37,2.52-1.41,4.6-1.41H21.7c1.19,0,2.45.27,2.45,1.79s-1.4,1.78-2.45,1.78H15.44a3.31,3.31,0,0,0-2,.89L11.24,12c-.55.44-1,.81-1,1.52v4.41c0,.7.41,1.07,1,1.52l2.16,1.82a3.34,3.34,0,0,0,2,.89H21.7c1.05,0,2.45.23,2.45,1.78s-1.26,1.78-2.45,1.78H16.06c-2.08,0-2.94,0-4.6-1.4L8.82,22.09A5.05,5.05,0,0,1,6.71,17.4Z" fill="#fff"></path></svg>