<?xml version="1.0" encoding="utf-8"?>
<!-- Generator: Adobe Illustrator 29.5.1, SVG Export Plug-In . SVG Version: 9.03 Build 0)  -->
<svg version="1.0" id="Layer_1" xmlns="http://www.w3.org/2000/svg" xmlns:xlink="http://www.w3.org/1999/xlink" x="0px" y="0px"
	 viewBox="0 0 289 122" style="enable-background:new 0 0 289 122;" xml:space="preserve">
<style type="text/css">
	.st0{fill:#BE983F;}
	.st1{fill:#EFEFEF;}
</style>
<g>
	<g>
		<path class="st0" d="M6.9,40.7h17.4c2.4,0,4.6,0.5,6.4,1.5c1.9,1,3.3,2.5,4.4,4.3c1.1,1.9,1.6,4.1,1.6,6.7c0,2.6-0.4,4.7-1.3,6.3
			c-0.9,1.6-1.9,2.8-3.2,3.6s-2.4,1.3-3.4,1.5l9.8,16.5h-12l-8.5-15.7h-0.5v15.7H6.9V40.7z M17.6,58.3h2.9c1.3,0,2.5-0.3,3.6-1
			c1.1-0.6,1.6-1.9,1.6-3.7c0-1.8-0.5-3-1.6-3.6c-1.1-0.6-2.3-1-3.6-1h-3V58.3z"/>
		<path class="st0" d="M44.3,40.7h26.6V50H55v6.4h15.9v9H55V72h15.9v9.3H44.3V40.7z"/>
		<path class="st0" d="M99.5,71.4c1.6,0,3.1-0.2,4.6-0.7c1.4-0.5,2.5-1,3.3-1.5l4.5,9.1c-1,0.8-2.6,1.6-5,2.5s-5.1,1.3-8.3,1.3
			c-3,0-5.8-0.5-8.4-1.6c-2.6-1-5-2.5-7-4.4s-3.6-4.1-4.8-6.6c-1.1-2.5-1.7-5.3-1.7-8.3c0-3,0.6-5.8,1.7-8.4
			c1.1-2.6,2.7-4.8,4.8-6.7c2-1.9,4.4-3.4,7-4.4c2.7-1.1,5.5-1.6,8.5-1.6c3.2,0,6,0.4,8.3,1.3c2.3,0.8,4,1.7,5,2.5l-4.5,9.1
			c-0.8-0.5-1.9-1-3.3-1.5c-1.4-0.5-3-0.7-4.6-0.7c-2,0-3.7,0.3-5.1,0.9c-1.4,0.6-2.6,1.4-3.5,2.4c-0.9,1-1.6,2.1-2,3.3
			c-0.4,1.2-0.6,2.5-0.6,3.7c0,1.3,0.2,2.6,0.6,3.8c0.4,1.2,1.1,2.4,2,3.4c0.9,1,2.1,1.8,3.5,2.4C95.8,71.1,97.5,71.4,99.5,71.4z"/>
		<path class="st0" d="M117.2,40.7h26.6V50h-15.9v6.4h15.9v9h-15.9V72h15.9v9.3h-26.6V40.7z"/>
		<path class="st0" d="M150.2,40.7h16c2.6,0,5,0.5,7.1,1.4c2.1,0.9,3.8,2.4,5,4.2c1.2,1.9,1.9,4.2,1.9,7c0,2.8-0.6,5.1-1.9,7.1
			c-1.2,2-2.9,3.5-5,4.5c-2.1,1-4.5,1.6-7.1,1.6h-5.3v14.7h-10.7V40.7z M160.9,58.2h2.3c1.1,0,2-0.2,2.8-0.5c0.8-0.3,1.5-0.8,2-1.5
			s0.7-1.5,0.7-2.6c0-1.1-0.2-2-0.7-2.7s-1.2-1.2-2-1.5c-0.8-0.3-1.8-0.5-2.8-0.5h-2.3V58.2z"/>
		<path class="st1" d="M198.5,40.7H209l16.4,40.5H214l-2.8-7.5h-14.9l-2.8,7.5H182L198.5,40.7z M199.8,64.4h7.8l-3.9-10.9h-0.1
			L199.8,64.4z"/>
		<path class="st1" d="M228.4,40.7h10.7v40.5h-10.7V40.7z"/>
	</g>
	<g id="AI_00000025426510106458475960000005993860434912945328_">
		<g>
			<path class="st1" d="M247.2,62.1l4.5-1.6c5-1.8,9-5.7,10.8-10.8l1.6-4.5c0.1-0.4,0.7-0.4,0.9,0l1.6,4.5c1.8,5,5.7,9,10.8,10.8
				l4.5,1.6c0.4,0.1,0.4,0.7,0,0.9l-4.5,1.6c-5,1.8-9,5.7-10.8,10.8l-1.6,4.5c-0.1,0.4-0.7,0.4-0.9,0l-1.6-4.5
				c-1.8-5-5.7-9-10.8-10.8l-4.5-1.6C246.8,62.8,246.8,62.2,247.2,62.1z"/>
		</g>
	</g>
</g>
</svg>
