<?xml version="1.0" encoding="utf-8"?>
<!-- Generator: Adobe Illustrator 29.5.1, SVG Export Plug-In . SVG Version: 9.03 Build 0)  -->
<svg version="1.0" id="Layer_1" xmlns="http://www.w3.org/2000/svg" xmlns:xlink="http://www.w3.org/1999/xlink" x="0px" y="0px"
	 viewBox="0 0 289 122" style="enable-background:new 0 0 289 122;" xml:space="preserve">
<style type="text/css">
	.st0{fill:#BE983F;}
</style>
<g>
	<g>
		<path class="st0" d="M7.9,39.2h17.4c2.4,0,4.6,0.5,6.4,1.5c1.9,1,3.3,2.5,4.4,4.3c1.1,1.9,1.6,4.1,1.6,6.7c0,2.6-0.4,4.7-1.3,6.3
			c-0.9,1.6-1.9,2.8-3.2,3.6s-2.4,1.3-3.4,1.5l9.8,16.5h-12L19.1,64h-0.5v15.7H7.9V39.2z M18.6,56.7h2.9c1.3,0,2.5-0.3,3.6-1
			c1.1-0.6,1.6-1.9,1.6-3.7c0-1.8-0.5-3-1.6-3.6c-1.1-0.6-2.3-1-3.6-1h-3V56.7z"/>
		<path class="st0" d="M45.3,39.2h26.6v9.3H55.9v6.4h15.9v9H55.9v6.5h15.9v9.3H45.3V39.2z"/>
		<path class="st0" d="M100.5,69.9c1.6,0,3.1-0.2,4.6-0.7c1.4-0.5,2.5-1,3.3-1.5l4.5,9.1c-1,0.8-2.6,1.6-5,2.5s-5.1,1.3-8.3,1.3
			c-3,0-5.8-0.5-8.4-1.6c-2.6-1-5-2.5-7-4.4s-3.6-4.1-4.8-6.6c-1.1-2.5-1.7-5.3-1.7-8.3c0-3,0.6-5.8,1.7-8.4
			c1.1-2.6,2.7-4.8,4.8-6.7c2-1.9,4.4-3.4,7-4.4c2.7-1.1,5.5-1.6,8.5-1.6c3.2,0,6,0.4,8.3,1.3c2.3,0.8,4,1.7,5,2.5l-4.5,9.1
			c-0.8-0.5-1.9-1-3.3-1.5c-1.4-0.5-3-0.7-4.6-0.7c-2,0-3.7,0.3-5.1,0.9c-1.4,0.6-2.6,1.4-3.5,2.4c-0.9,1-1.6,2.1-2,3.3
			c-0.4,1.2-0.6,2.5-0.6,3.7c0,1.3,0.2,2.6,0.6,3.8c0.4,1.2,1.1,2.4,2,3.4c0.9,1,2.1,1.8,3.5,2.4C96.7,69.6,98.4,69.9,100.5,69.9z"
			/>
		<path class="st0" d="M118.1,39.2h26.6v9.3h-15.9v6.4h15.9v9h-15.9v6.5h15.9v9.3h-26.6V39.2z"/>
		<path class="st0" d="M151.2,39.2h16c2.6,0,5,0.5,7.1,1.4c2.1,0.9,3.8,2.4,5,4.2c1.2,1.9,1.9,4.2,1.9,7c0,2.8-0.6,5.1-1.9,7.1
			c-1.2,2-2.9,3.5-5,4.5c-2.1,1-4.5,1.6-7.1,1.6h-5.3v14.7h-10.7V39.2z M161.8,56.7h2.3c1.1,0,2-0.2,2.8-0.5c0.8-0.3,1.5-0.8,2-1.5
			s0.7-1.5,0.7-2.6c0-1.1-0.2-2-0.7-2.7s-1.2-1.2-2-1.5c-0.8-0.3-1.8-0.5-2.8-0.5h-2.3V56.7z"/>
		<path d="M199.4,39.2h10.5l16.4,40.5h-11.4l-2.8-7.5h-14.9l-2.8,7.5H183L199.4,39.2z M200.8,62.9h7.8L204.8,52h-0.1L200.8,62.9z"/>
		<path d="M229.4,39.2h10.7v40.5h-10.7V39.2z"/>
	</g>
	<g id="AI_00000025426510106458475960000005993860434912945328_">
		<g>
			<path d="M248.1,60.6l4.5-1.6c5-1.8,9-5.7,10.8-10.8l1.6-4.5c0.1-0.4,0.7-0.4,0.9,0l1.6,4.5c1.8,5,5.7,9,10.8,10.8l4.5,1.6
				c0.4,0.1,0.4,0.7,0,0.9l-4.5,1.6c-5,1.8-9,5.7-10.8,10.8l-1.6,4.5c-0.1,0.4-0.7,0.4-0.9,0l-1.6-4.5c-1.8-5-5.7-9-10.8-10.8
				l-4.5-1.6C247.7,61.3,247.7,60.7,248.1,60.6z"/>
		</g>
	</g>
</g>
</svg>
