<svg version="1.1" id="Layer_1" xmlns="http://www.w3.org/2000/svg" xmlns:xlink="http://www.w3.org/1999/xlink" x="0px" y="0px"
	 width="504px" height="216px" viewBox="0 0 504 216" enable-background="new 0 0 504 216" xml:space="preserve">
<path fill="#000" d="M257.045,85.19c0-2.696,1.426-4.136,4.134-4.136h4.88c2.701,0,4.148,1.44,4.148,4.136v45.488
	c0,2.714-1.447,4.133-4.148,4.133h-4.88c-2.708,0-4.134-1.419-4.134-4.133V85.19z"/>
<path fill="#000" d="M290.721,85.19c0-2.696,1.432-4.136,4.131-4.136h5.868c2.325,0,3.825,0.838,4.945,2.786l13.243,22.338
	c2.108,3.526,4.505,9.16,4.505,9.16h0.144c0,0-0.593-5.782-0.593-9.16V85.19c0-2.696,1.417-4.136,4.133-4.136h4.894
	c2.715,0,4.134,1.44,4.134,4.136v45.488c0,2.714-1.419,4.133-4.134,4.133h-5.865c-2.243,0-3.758-0.824-4.891-2.781l-13.298-22.244
	c-2.111-3.536-4.514-9.176-4.514-9.176h-0.162c0,0,0.606,5.784,0.606,9.176v20.893c0,2.714-1.419,4.133-4.135,4.133h-4.881
	c-2.699,0-4.131-1.419-4.131-4.133V85.19z"/>
<path fill="#000" d="M354.907,124.662l2.341-3.376c1.497-2.188,3.229-2.339,5.701-0.987c1.744,0.905,5.108,3.323,9.783,3.323
	c3.906,0,5.712-1.661,5.712-3.77c0-7.596-23.75-6.393-23.75-23.23c0-9.919,8.255-16.473,19.156-16.473
	c6.247,0,11.963,2.189,14.517,3.987c2.176,1.587,2.406,3.473,1.278,5.647l-1.803,3.54c-1.502,2.92-3.526,2.474-5.65,1.421
	c-2.473-1.204-4.947-2.474-8.486-2.474c-4.121,0-5.853,1.649-5.853,3.744c0,7.824,23.744,5.944,23.744,22.932
	c0,9.027-6.77,16.77-18.865,16.77c-7.53,0-14.2-3.08-17.066-5.336C354.084,129.108,352.963,127.447,354.907,124.662"/>
<path fill="#000" d="M407.909,85.19c0-2.696,1.414-4.136,4.134-4.136h4.879c2.716,0,4.142,1.44,4.142,4.136v38.352h17.818
	c2.701,0,4.135,1.419,4.135,4.137v2.999c0,2.714-1.434,4.133-4.135,4.133h-26.839c-2.72,0-4.134-1.419-4.134-4.133V85.19z"/>
<path fill="#000" d="M461.203,112.784l-14.97-26.77c-1.662-2.853-0.365-4.96,2.861-4.96h5.936c2.339,0,3.839,0.987,4.812,3.083
	l4.676,9.851c1.731,3.688,3.221,7.749,3.221,7.749h0.145c0,0,1.513-4.061,3.234-7.749l4.588-9.851
	c0.975-2.096,2.487-3.083,4.809-3.083h5.95c3.228,0,4.512,2.108,2.863,4.96l-14.973,26.77v17.894c0,2.714-1.42,4.133-4.135,4.133
	h-4.88c-2.716,0-4.137-1.419-4.137-4.133V112.784z"/>
<path fill="#F79226" d="M21.964,96.663c-6.222,6.204-6.222,16.339,0,22.553l75.285,75.285c6.214,6.229,16.351,6.215,22.566,0
	l75.282-75.285c6.218-6.214,6.231-16.349,0-22.553l-75.282-75.297c-6.216-6.217-16.353-6.217-22.566,0L21.964,96.663z
	 M199.937,124.056l-75.283,75.283c-8.892,8.878-23.353,8.878-32.23,0l-75.298-75.283c-8.878-8.892-8.878-23.351,0-32.243
	l75.298-75.278c8.877-8.876,23.338-8.876,32.217,0l75.296,75.292C208.816,100.705,208.816,115.164,199.937,124.056"/>
<path fill="#F79226" d="M44.032,43.433c-3.026,3.026-4.689,7.028-4.702,11.271l0.013,106.472c0,8.799,7.162,15.946,15.942,15.959
	h106.477c8.485,0,15.959-7.487,15.959-15.959V54.697c0-8.791-7.162-15.952-15.947-15.952H55.285
	C51.058,38.745,47.059,40.413,44.032,43.433 M177.869,177.271c-4.311,4.316-10.041,6.696-16.107,6.696H55.285
	c-12.549-0.008-22.784-10.239-22.784-22.792V54.704c0-12.147,10.652-22.796,22.796-22.796h106.476
	c12.556,0.011,22.771,10.228,22.783,22.784v106.485C184.556,167.241,182.18,172.961,177.869,177.271"/>
<path fill="#000" d="M65.843,115.975c-1.909-1.906-1.919-3.927-0.015-5.812l3.419-3.438c1.931-1.926,3.928-1.898,5.839,0.005
	l26.944,26.96l12.541-12.541c1.907-1.904,3.906-1.89,5.818,0.014l2.115,2.123c1.892,1.894,1.905,3.905,0,5.805l-18.878,18.87
	c-1.907,1.898-3.904,1.898-5.798,0L65.843,115.975z"/>
<path fill="#000" d="M131.707,126.635c0.513-0.302,1.204-0.668,1.851-1.295c1.637-1.649,1.785-4.446,0.839-6.665l-0.728-1.803
	l-33.434-13.208c-2.897-1.13-3.378-3.378-1.148-5.61l4.121-4.121c1.757-1.742,3.607-2.014,5.713-0.959l13.367,6.924
	c1.961,1.007,5.245,3.226,5.245,3.226l0.093-0.103c0,0-2.066-3.129-3.176-4.968L117,85.095c-1.205-2.162-0.955-4.013,0.802-5.756
	l3.866-3.86c2.108-2.114,4.377-1.749,5.647,1.009l16.865,36.743c3.811,8.351,1.162,15.215-3.175,19.552
	c-1.419,1.435-3.054,2.433-4.5,3.131c-2.297,1.153-4.285,0.047-5.229-2.388l-0.826-2.214
	C129.532,128.933,130.381,127.555,131.707,126.635"/>
</svg>