<?xml version="1.0" encoding="UTF-8"?>
<!DOCTYPE svg PUBLIC "-//W3C//DTD SVG 1.1//EN" "http://www.w3.org/Graphics/SVG/1.1/DTD/svg11.dtd">
<svg xmlns="http://www.w3.org/2000/svg" version="1.1" width="703px" height="116px" style="shape-rendering:geometricPrecision; text-rendering:geometricPrecision; image-rendering:optimizeQuality; fill-rule:evenodd; clip-rule:evenodd" xmlns:xlink="http://www.w3.org/1999/xlink">
<g><path style="opacity:0.997" fill="#92a7fe" d="M 118.5,30.5 C 113.731,31.1171 109.064,31.7838 104.5,32.5C 103.167,32.5 101.833,32.5 100.5,32.5C 97.8333,32.5 95.1667,32.5 92.5,32.5C 86.6105,32.4497 80.9438,33.1164 75.5,34.5C 72.1501,34.335 68.8168,34.5017 65.5,35C 64.2625,35.2321 63.2625,35.7321 62.5,36.5C 59.1451,37.3392 56.8118,39.3392 55.5,42.5C 54.5987,43.2905 53.9321,44.2905 53.5,45.5C 48.6367,45.1805 43.97,45.5139 39.5,46.5C 38.209,46.7373 37.209,46.404 36.5,45.5C 36.9819,39.0742 37.9819,32.7409 39.5,26.5C 40.6491,26.2089 41.3158,25.3756 41.5,24C 41.3158,22.6244 40.6491,21.7911 39.5,21.5C 34.3293,22.3813 29.8293,20.7146 26,16.5C 23.5409,7.98326 26.5409,2.64993 35,0.5C 39.733,0.908621 43.0663,3.24195 45,7.5C 45.3333,10.8333 45.6667,14.1667 46,17.5C 46.7247,18.0585 47.5581,18.3918 48.5,18.5C 66.437,15.92 84.2704,13.2534 102,10.5C 113.927,11.9226 119.427,18.5892 118.5,30.5 Z"/></g>
<g><path style="opacity:1" fill="#fefffe" d="M 334.5,24.5 C 341.167,24.5 347.833,24.5 354.5,24.5C 354.5,29.1667 354.5,33.8333 354.5,38.5C 347.833,38.5 341.167,38.5 334.5,38.5C 334.5,33.8333 334.5,29.1667 334.5,24.5 Z"/></g>
<g><path style="opacity:1" fill="#fefffe" d="M 632.5,24.5 C 638.833,24.5 645.167,24.5 651.5,24.5C 651.334,33.1731 651.5,41.8397 652,50.5C 659.594,44.8497 668.094,43.0163 677.5,45C 686.612,49.1387 691.445,56.3054 692,66.5C 694.387,79.6138 690.887,90.7804 681.5,100C 674.437,104.28 666.77,105.613 658.5,104C 656.254,102.961 654.087,101.794 652,100.5C 645.789,102.434 639.289,103.101 632.5,102.5C 632.5,76.5 632.5,50.5 632.5,24.5 Z M 656.5,59.5 C 660.637,59.1463 664.637,59.6463 668.5,61C 670.317,62.7998 671.484,64.9664 672,67.5C 673.356,74.6121 672.356,81.2788 669,87.5C 663.628,90.5868 657.962,91.2535 652,89.5C 651.168,80.1489 651.335,70.8155 652.5,61.5C 654.026,61.0057 655.359,60.339 656.5,59.5 Z"/></g>
<g><path style="opacity:0.843" fill="#c7d0f7" d="M 39.5,21.5 C 40.6491,21.7911 41.3158,22.6244 41.5,24C 41.3158,25.3756 40.6491,26.2089 39.5,26.5C 39.5,24.8333 39.5,23.1667 39.5,21.5 Z"/></g>
<g><path style="opacity:1" fill="#fefffe" d="M 208.5,25.5 C 222.328,24.1268 235.661,25.9601 248.5,31C 249.476,37.0758 249.81,43.2424 249.5,49.5C 248.127,49.6567 246.793,49.49 245.5,49C 234.15,39.8337 221.816,38.1671 208.5,44C 199.553,52.8231 197.053,63.3231 201,75.5C 203.695,82.8635 208.862,87.3635 216.5,89C 220.821,89.499 225.154,89.6657 229.5,89.5C 229.5,84.8333 229.5,80.1667 229.5,75.5C 224.5,75.5 219.5,75.5 214.5,75.5C 214.5,70.8333 214.5,66.1667 214.5,61.5C 226.167,61.5 237.833,61.5 249.5,61.5C 249.832,74.1842 249.499,86.8508 248.5,99.5C 231.972,105.458 215.305,105.958 198.5,101C 187.811,95.3025 181.311,86.4692 179,74.5C 175.115,49.5642 184.948,33.2308 208.5,25.5 Z"/></g>
<g><path style="opacity:1" fill="#fefffe" d="M 474.5,27.5 C 481.167,27.5 487.833,27.5 494.5,27.5C 494.5,36.5 494.5,45.5 494.5,54.5C 503.833,54.5 513.167,54.5 522.5,54.5C 522.5,45.5 522.5,36.5 522.5,27.5C 529.167,27.5 535.833,27.5 542.5,27.5C 542.5,52.5 542.5,77.5 542.5,102.5C 535.833,102.5 529.167,102.5 522.5,102.5C 522.5,91.1667 522.5,79.8333 522.5,68.5C 513.167,68.5 503.833,68.5 494.5,68.5C 494.5,79.8333 494.5,91.1667 494.5,102.5C 487.833,102.5 481.167,102.5 474.5,102.5C 474.5,77.5 474.5,52.5 474.5,27.5 Z"/></g>
<g><path style="opacity:1" fill="#1038e1" d="M 100.5,32.5 C 101.833,32.5 103.167,32.5 104.5,32.5C 108.833,32.5 113.167,32.5 117.5,32.5C 117.939,44.9085 117.439,57.2419 116,69.5C 110.867,76.1616 104.034,78.8282 95.5,77.5C 95.5,65.8333 95.5,54.1667 95.5,42.5C 84.9578,42.2636 74.6245,42.9302 64.5,44.5C 60.9878,45.0545 57.9878,44.3878 55.5,42.5C 56.8118,39.3392 59.1451,37.3392 62.5,36.5C 68.992,36.0059 75.3253,35.3393 81.5,34.5C 82.8333,34.5 84.1667,34.5 85.5,34.5C 90.7312,34.5557 95.7312,33.889 100.5,32.5 Z"/></g>
<g><path style="opacity:1" fill="#4266fe" d="M 118.5,30.5 C 123.566,30.3399 128.566,30.8399 133.5,32C 135.996,33.331 137.996,35.1644 139.5,37.5C 140.306,54.7897 140.806,72.123 141,89.5C 150.429,94.7299 151.929,101.73 145.5,110.5C 141.854,111.283 138.188,111.45 134.5,111C 132.248,108.898 129.915,107.064 127.5,105.5C 121.53,102.639 115.196,101.306 108.5,101.5C 108.119,100.069 107.119,99.2355 105.5,99C 101.848,98.5014 98.1817,98.3347 94.5,98.5C 95.4601,91.9221 95.7934,85.2554 95.5,78.5C 95.5,78.1667 95.5,77.8333 95.5,77.5C 104.034,78.8282 110.867,76.1616 116,69.5C 117.439,57.2419 117.939,44.9085 117.5,32.5C 113.167,32.5 108.833,32.5 104.5,32.5C 109.064,31.7838 113.731,31.1171 118.5,30.5 Z"/></g>
<g><path style="opacity:1" fill="#647ef3" d="M 92.5,32.5 C 90.1667,33.1667 87.8333,33.8333 85.5,34.5C 84.1667,34.5 82.8333,34.5 81.5,34.5C 79.5,34.5 77.5,34.5 75.5,34.5C 80.9438,33.1164 86.6105,32.4497 92.5,32.5 Z"/></g>
<g><path style="opacity:1" fill="#3754e8" d="M 92.5,32.5 C 95.1667,32.5 97.8333,32.5 100.5,32.5C 95.7312,33.889 90.7312,34.5557 85.5,34.5C 87.8333,33.8333 90.1667,33.1667 92.5,32.5 Z"/></g>
<g><path style="opacity:1" fill="#425deb" d="M 75.5,34.5 C 77.5,34.5 79.5,34.5 81.5,34.5C 75.3253,35.3393 68.992,36.0059 62.5,36.5C 63.2625,35.7321 64.2625,35.2321 65.5,35C 68.8168,34.5017 72.1501,34.335 75.5,34.5 Z"/></g>
<g><path style="opacity:1" fill="#02269a" d="M 55.5,42.5 C 57.9878,44.3878 60.9878,45.0545 64.5,44.5C 74.5115,44.4467 84.5115,44.1134 94.5,43.5C 94.5,54.8333 94.5,66.1667 94.5,77.5C 86.8623,76.6869 79.1956,76.3536 71.5,76.5C 65.8333,76.5 60.1667,76.5 54.5,76.5C 53.5058,66.3468 53.1724,56.0135 53.5,45.5C 53.9321,44.2905 54.5987,43.2905 55.5,42.5 Z"/></g>
<g><path style="opacity:1" fill="#052bb2" d="M 95.5,77.5 C 95.5,77.8333 95.5,78.1667 95.5,78.5C 87.3247,78.1588 79.3247,77.4921 71.5,76.5C 79.1956,76.3536 86.8623,76.6869 94.5,77.5C 94.5,66.1667 94.5,54.8333 94.5,43.5C 84.5115,44.1134 74.5115,44.4467 64.5,44.5C 74.6245,42.9302 84.9578,42.2636 95.5,42.5C 95.5,54.1667 95.5,65.8333 95.5,77.5 Z"/></g>
<g><path style="opacity:1" fill="#fefffe" d="M 275.5,44.5 C 284.173,44.3336 292.84,44.5002 301.5,45C 310.27,45.6205 315.77,50.1205 318,58.5C 318.5,73.1629 318.667,87.8295 318.5,102.5C 312.167,102.5 305.833,102.5 299.5,102.5C 299.762,101.022 299.429,99.6888 298.5,98.5C 291.115,104.173 282.781,106.006 273.5,104C 262.148,98.4415 258.648,89.6082 263,77.5C 267.293,71.5969 273.126,68.0969 280.5,67C 286.796,65.9882 293.129,65.4882 299.5,65.5C 299.57,61.3987 297.57,58.8987 293.5,58C 288.5,57.3333 283.5,57.3333 278.5,58C 274.595,59.3591 270.595,60.1924 266.5,60.5C 266.5,55.8333 266.5,51.1667 266.5,46.5C 269.689,46.1417 272.689,45.475 275.5,44.5 Z M 291.5,77.5 C 294.167,77.5 296.833,77.5 299.5,77.5C 302.41,87.2109 298.91,91.8775 289,91.5C 281.347,91.3573 279.18,87.8573 282.5,81C 285.459,79.3957 288.459,78.2291 291.5,77.5 Z"/></g>
<g><path style="opacity:1" fill="#fefffe" d="M 379.5,44.5 C 388.173,44.3336 396.84,44.5002 405.5,45C 414.27,45.6205 419.77,50.1205 422,58.5C 422.5,73.1629 422.667,87.8295 422.5,102.5C 416.167,102.5 409.833,102.5 403.5,102.5C 403.762,101.022 403.429,99.6888 402.5,98.5C 395.115,104.173 386.781,106.006 377.5,104C 366.148,98.4415 362.648,89.6082 367,77.5C 371.293,71.5969 377.126,68.0969 384.5,67C 390.796,65.9882 397.129,65.4882 403.5,65.5C 403.57,61.3987 401.57,58.8987 397.5,58C 392.5,57.3333 387.5,57.3333 382.5,58C 378.595,59.3591 374.595,60.1924 370.5,60.5C 370.5,55.8333 370.5,51.1667 370.5,46.5C 373.689,46.1417 376.689,45.475 379.5,44.5 Z M 395.5,77.5 C 398.167,77.5 400.833,77.5 403.5,77.5C 406.41,87.2109 402.91,91.8775 393,91.5C 385.347,91.3573 383.18,87.8573 386.5,81C 389.459,79.3957 392.459,78.2291 395.5,77.5 Z"/></g>
<g><path style="opacity:0.986" fill="#5472fe" d="M 36.5,45.5 C 37.209,46.404 38.209,46.7373 39.5,46.5C 39.1039,54.253 39.6039,61.9196 41,69.5C 43.6539,73.3323 47.3205,75.6656 52,76.5C 52.1489,80.1325 52.9823,83.4659 54.5,86.5C 56.2898,90.4527 59.2898,93.286 63.5,95C 73.7489,96.882 84.0822,98.0486 94.5,98.5C 98.1817,98.3347 101.848,98.5014 105.5,99C 107.119,99.2355 108.119,100.069 108.5,101.5C 104.034,99.8597 99.3673,99.3597 94.5,100C 93.7433,101.512 92.7433,102.846 91.5,104C 88.0946,105.544 84.5946,106.711 81,107.5C 74.6207,105.926 68.1207,104.926 61.5,104.5C 61.5,103.5 61.5,102.5 61.5,101.5C 53.7625,101.074 46.0958,100.074 38.5,98.5C 37.4163,98.685 36.4163,99.0183 35.5,99.5C 33.1727,99.7529 31.1727,99.0863 29.5,97.5C 27.7419,98.1279 26.2419,99.1279 25,100.5C 23.3142,107.592 19.1476,109.759 12.5,107C 11.4178,105.67 10.7512,104.17 10.5,102.5C 11.3058,101.003 11.9724,99.3361 12.5,97.5C 14.8493,96.4571 16.8493,95.1238 18.5,93.5C 19.1667,93.5 19.8333,93.5 20.5,93.5C 20.5,94.5 20.5,95.5 20.5,96.5C 24.4134,96.7595 26.7468,94.9261 27.5,91C 27.1639,89.9701 26.4972,89.4701 25.5,89.5C 25.3334,76.8289 25.5001,64.1623 26,51.5C 28.7538,48.0439 32.2538,46.0439 36.5,45.5 Z"/></g>
<g><path style="opacity:1" fill="#1a40fc" d="M 53.5,45.5 C 53.1724,56.0135 53.5058,66.3468 54.5,76.5C 54.5,79.8333 54.5,83.1667 54.5,86.5C 52.9823,83.4659 52.1489,80.1325 52,76.5C 47.3205,75.6656 43.6539,73.3323 41,69.5C 39.6039,61.9196 39.1039,54.253 39.5,46.5C 43.97,45.5139 48.6367,45.1805 53.5,45.5 Z"/></g>
<g><path style="opacity:1" fill="#fefffe" d="M 334.5,46.5 C 340.833,46.5 347.167,46.5 353.5,46.5C 353.5,65.1667 353.5,83.8333 353.5,102.5C 347.167,102.5 340.833,102.5 334.5,102.5C 334.5,83.8333 334.5,65.1667 334.5,46.5 Z"/></g>
<g><path style="opacity:1" fill="#fefffe" d="M 559.5,46.5 C 565.833,46.5 572.167,46.5 578.5,46.5C 578.333,58.8378 578.5,71.1712 579,83.5C 580.35,87.5943 583.183,89.2609 587.5,88.5C 590.666,88.5508 593.666,87.8841 596.5,86.5C 597.499,73.1833 597.833,59.85 597.5,46.5C 603.833,46.5 610.167,46.5 616.5,46.5C 616.5,65.1667 616.5,83.8333 616.5,102.5C 610.167,102.5 603.833,102.5 597.5,102.5C 597.657,101.127 597.49,99.7932 597,98.5C 589.406,104.15 580.906,105.984 571.5,104C 565.26,102.092 561.427,97.9253 560,91.5C 559.5,76.5037 559.333,61.5037 559.5,46.5 Z"/></g>
<g><path style="opacity:0.271" fill="#5e7cfe" d="M 139.5,37.5 C 140.79,38.0577 141.623,39.0577 142,40.5C 142.333,56.5 142.667,72.5 143,88.5C 150.376,92.5801 152.71,98.5801 150,106.5C 149.124,108.635 147.624,109.969 145.5,110.5C 151.929,101.73 150.429,94.7299 141,89.5C 140.806,72.123 140.306,54.7897 139.5,37.5 Z"/></g>
<g><path style="opacity:1" fill="#032bf7" d="M 54.5,76.5 C 60.1667,76.5 65.8333,76.5 71.5,76.5C 79.3247,77.4921 87.3247,78.1588 95.5,78.5C 95.7934,85.2554 95.4601,91.9221 94.5,98.5C 84.0822,98.0486 73.7489,96.882 63.5,95C 59.2898,93.286 56.2898,90.4527 54.5,86.5C 54.5,83.1667 54.5,79.8333 54.5,76.5 Z"/></g>
<g><path style="opacity:0.957" fill="#7289ff" d="M 25.5,89.5 C 26.4972,89.4701 27.1639,89.9701 27.5,91C 26.7468,94.9261 24.4134,96.7595 20.5,96.5C 20.5,95.5 20.5,94.5 20.5,93.5C 23.9496,94.2436 25.6162,92.9103 25.5,89.5 Z"/></g>
<g><path style="opacity:0.9" fill="#748bfe" d="M 18.5,93.5 C 16.8493,95.1238 14.8493,96.4571 12.5,97.5C 11.9724,99.3361 11.3058,101.003 10.5,102.5C 9.39832,96.6269 12.065,93.6269 18.5,93.5 Z"/></g>
<g><path style="opacity:0.992" fill="#6982fe" d="M 61.5,104.5 C 53.2391,102.901 44.9057,101.735 36.5,101C 35.944,100.617 35.6107,100.117 35.5,99.5C 36.4163,99.0183 37.4163,98.685 38.5,98.5C 46.0958,100.074 53.7625,101.074 61.5,101.5C 61.5,102.5 61.5,103.5 61.5,104.5 Z"/></g>
<g><path style="opacity:0.882" fill="#5e7bfe" d="M 127.5,105.5 C 129.915,107.064 132.248,108.898 134.5,111C 138.188,111.45 141.854,111.283 145.5,110.5C 144.942,111.79 143.942,112.623 142.5,113C 135.597,114.256 130.597,111.756 127.5,105.5 Z"/></g>
</svg>
