<svg xmlns="http://www.w3.org/2000/svg" viewBox="0 0 60 60"><defs><style>.cls-1{fill:#31a9ba;}</style></defs><title>JLINC Knot 60px RGB</title><g id="Layer_2" data-name="Layer 2"><g id="Layer_1-2" data-name="Layer 1"><path class="cls-1" d="M5.09,24.61,10.48,30l11.3,11.3,4.63-4.63-11.3-11.3L9.49,19.74a9.79,9.79,0,0,1-3.08-5.53C6.13,12.35,7,10.42,9,8.4a7.24,7.24,0,0,1,5.11-2.46q2.6,0,5.53,2.89L22,11.19l4.3-4.3L23,3.58A12.46,12.46,0,0,0,18.28.65,10.19,10.19,0,0,0,11.94.37,15.28,15.28,0,0,0,4.81,4.76,17.19,17.19,0,0,0,1,10.43a10.88,10.88,0,0,0-.48,6.81A15.71,15.71,0,0,0,5.09,24.61Z"/><path class="cls-1" d="M36.67,33.59l-11.3,11.3-5.63,5.62a9.79,9.79,0,0,1-5.53,3.08c-1.86.28-3.79-.59-5.81-2.6a7.24,7.24,0,0,1-2.46-5.11q0-2.6,2.89-5.53L11.19,38l-4.3-4.3L3.58,37A12.46,12.46,0,0,0,.65,41.72a10.19,10.19,0,0,0-.28,6.34,15.28,15.28,0,0,0,4.39,7.13A17.19,17.19,0,0,0,10.43,59a10.88,10.88,0,0,0,6.81.48,15.71,15.71,0,0,0,7.37-4.54L30,49.52l11.3-11.3Z"/><path class="cls-1" d="M54.91,35.39,49.52,30,38.22,18.7l-4.63,4.63,11.3,11.3,5.62,5.63a9.79,9.79,0,0,1,3.08,5.53c.28,1.86-.59,3.79-2.6,5.81a7.24,7.24,0,0,1-5.11,2.46q-2.6,0-5.53-2.89L38,48.81l-4.3,4.3L37,56.42a12.46,12.46,0,0,0,4.72,2.93,10.19,10.19,0,0,0,6.34.28,15.28,15.28,0,0,0,7.13-4.39A17.19,17.19,0,0,0,59,49.57a10.88,10.88,0,0,0,.48-6.81A15.71,15.71,0,0,0,54.91,35.39Z"/><path class="cls-1" d="M23.33,26.41l11.3-11.3,5.63-5.62a9.79,9.79,0,0,1,5.53-3.08C47.65,6.13,49.58,7,51.6,9a7.24,7.24,0,0,1,2.46,5.11q0,2.6-2.89,5.53L48.81,22l4.3,4.3L56.42,23a12.54,12.54,0,0,0,2.93-4.72,10.19,10.19,0,0,0,.28-6.34,15.28,15.28,0,0,0-4.39-7.13A17.19,17.19,0,0,0,49.57,1,10.88,10.88,0,0,0,42.76.55a15.71,15.71,0,0,0-7.37,4.54L30,10.48,18.7,21.78Z"/></g></g></svg>