<svg width="1554" height="1008" version="1.1" xmlns="http://www.w3.org/2000/svg">
 <path d="m681.37 141.06c-54.346 31.412-73.382 102.46-42.023 156.83l384.14 666.11c31.359 54.376 102.33 73.393 156.68 41.981l665.73-384.8c54.35-31.412 73.39-102.46 42.03-156.83l-384.15-666.11c-31.35-54.376-102.33-73.394-156.67-41.982zm1189 522.61-665.73 384.8c-78.121 45.15-179.9 17.88-224.97-60.282l-382.8-665.75c-45.078-78.166-18.14-178.7 60.341-225.19l664.03-383.81c78.121-45.155 178.55-18.243 224.97 60.281l384.14 666.11c45.08 78.166 18.14 178.7-59.98 223.85z" fill="#ff7d00"/>
 <path d="m934.89-188.97c-26.813 14.366-46.408 39.286-54.309 68.775l-198.98 742.6c-16.522 61.66 19.736 124.53 81.336 141.04l741.88 198.78c58.92 15.788 125.15-22.495 140.96-81.475l198.98-742.6c16.52-61.66-19.74-124.53-81.34-141.04l-741.88-198.78c-29.461-7.894-60.815-3.365-86.649 12.699zm682.04 1182.7c-37.36 21.596-82.2 28.257-125.05 16.775l-741.88-198.79c-87.043-23.323-140.32-113.74-116.62-202.21l198.98-742.6c22.628-84.448 116.39-139.78 202.1-116.81l741.88 198.78c87.04 23.323 138.98 113.38 116.61 202.21l-198.98 742.6c-11.49 42.894-39.67 78.442-77.04 100.04z" fill="#ff7d00"/>
 <path d="m950.77 356.91c-9.8-16.993-6.208-30.397 10.775-40.213l30.569-17.67c16.983-9.816 30.374-6.228 40.174 10.765l137.19 237.9 110.39-63.806c16.983-9.816 30.374-6.228 40.174 10.765l10.779 18.692c9.8 16.992 6.208 30.397-10.775 40.213l-166.43 96.199c-16.983 9.816-30.374 6.228-40.173-10.765z" fill="#eee"/>
 <path d="m1390 555.06c4.736-1.604 9.109-1.868 15.909-5.795 15.28-8.834 20.31-27.6 17.92-45.48l-2.12-13.499-208.22-154.92c-17.932-13.425-17.639-30.587 2.381-41.026l35.664-20.614c15.285-8.835 29.035-6.587 41.97 4.062l80.809 73.373c11.595 10.291 30.051 32.476 30.051 32.476l0.36-1.341s-8.985-25.394-13.428-40.951l-28.162-103.8c-4.084-16.898 0.847-29.943 16.132-38.778l33.968-19.632c18.68-10.798 34.03-3.812 37.04 17.107l49.24 287.6c11.34 64.815-20.34 108.05-59.4 130.62-11.89 6.871-26.1 11.685-36.55 13.194-18.224 3.737-29.46-7.894-31.845-25.773l-1.047-17.521c0.652-18.502 8.523-26.45 19.333-29.3z" fill="#eee"/>
</svg>