<svg xmlns="http://www.w3.org/2000/svg" fill="none" viewBox="0 -34 109 109" aria-hidden="true"><path fill="#0194E2" d="M0 31.032v-15.53h3.543v1.968c.893-1.594 2.84-2.425 4.593-2.425 2.042 0 3.828.926 4.658 2.745 1.216-2.043 3.034-2.745 5.043-2.745 2.81 0 5.49 1.787 5.49 5.904v10.083h-3.574v-9.478c0-1.818-.926-3.19-3-3.19-1.947 0-3.224 1.53-3.224 3.445v9.22H9.893v-9.475c0-1.786-.898-3.18-3.003-3.18-1.977 0-3.223 1.467-3.223 3.444v9.221ZM27.855 31.032V7.929h3.703v23.103ZM30.07 39.487c.833.232 1.582.383 3.17.383 2.953 0 6.436-1.665 7.353-6.339l3.786-18.739h5.629l.687-3.117h-5.686l.765-3.725c.586-2.892 2.186-4.358 4.754-4.358.668 0 .48.058 1.076.17L52.427.57c-.793-.237-1.503-.379-3.049-.379a7.32 7.32 0 0 0-4.528 1.484c-1.441 1.114-2.393 2.75-2.827 4.863l-1.066 5.137h-5.034l-.411 3.12h4.823L36.859 32.12c-.383 1.965-1.5 4.315-4.708 4.315-.727 0-.463-.055-1.121-.162ZM53.342 30.905H49.64l5.074-23.309h3.701ZM71.807 16.477A7.962 7.962 0 0 0 60.97 27.904l2.425-1.78a5.005 5.005 0 0 1 3.845-8.145v1.895ZM62.618 29.472a7.962 7.962 0 0 0 10.836-11.428l-2.425 1.78a5.005 5.005 0 0 1-3.845 8.145v-1.894ZM78.092 15.493h4.044l.823 10.612 5.759-10.612 3.839.055 1.508 10.557 5.074-10.612 3.701.055-7.678 15.493H91.46l-1.783-11.106-5.895 11.106h-3.84ZM105.072 15.768h-.766v-.266h1.845v.272h-.765v2.243h-.314ZM106.614 15.502h.383l.482 1.34q.091.259.178.524h.018c.059-.176.113-.352.172-.524l.478-1.34h.383v2.515h-.298V16.63c0-.22.024-.523.04-.747h-.016l-.191.574-.475 1.304h-.208l-.481-1.302-.191-.574h-.015c.017.224.042.527.042.747v1.387h-.291Z"></path></svg>
