<svg xmlns="http://www.w3.org/2000/svg" data-name="Layer 1" width="913.30719" height="595.51262" viewBox="0 0 913.30719 595.51262" xmlns:xlink="http://www.w3.org/1999/xlink"><path d="M887.76335,746.68047H873.00407a7.00818,7.00818,0,0,1-7-7V616.6668a7.00818,7.00818,0,0,1,7-7h14.75928a7.00818,7.00818,0,0,1,7,7V739.68047A7.00818,7.00818,0,0,1,887.76335,746.68047Z" transform="translate(-143.34641 -152.24369)" fill="#673ab7"/><path d="M918.95573,746.68047H904.196a7.00817,7.00817,0,0,1-7-7V616.6668a7.00817,7.00817,0,0,1,7-7h14.75976a7.00818,7.00818,0,0,1,7,7V739.68047A7.00818,7.00818,0,0,1,918.95573,746.68047Z" transform="translate(-143.34641 -152.24369)" fill="#673ab7"/><path d="M923.96013,655.58477h-57a8.50981,8.50981,0,0,1-8.5-8.5v-16a8.50981,8.50981,0,0,1,8.5-8.5h57a8.50982,8.50982,0,0,1,8.5,8.5v16A8.50982,8.50982,0,0,1,923.96013,655.58477Z" transform="translate(-143.34641 -152.24369)" fill="#2f2e41"/><path d="M900.80618,357.30822c1.74158-17.35888,13.15-33.959,30.56666-38.47671a37.30014,37.30014,0,0,1,25.47511,2.31068,33.72942,33.72942,0,0,1,15.95569,17.17075,47.97968,47.97968,0,0,1,3.40191,23.3114,61.33914,61.33914,0,0,1-8.11742,24.556c-4.72411,8.32857-10.86712,15.77441-17.315,22.815-6.56956,7.17342-14.00236,13.77315-19.53043,21.82661-4.90274,7.14244-8.8453,16.84276-4.01352,25.06345a18.5107,18.5107,0,0,0,18.18309,8.49373,15.41366,15.41366,0,0,0,4.94667-1.64207c1.7026-.909,3.21977,1.67981,1.51416,2.59041-6.4702,3.45432-14.51485,2.67155-20.62729-1.21294-7.04537-4.47737-10.19028-12.37936-8.86984-20.54779,1.50552-9.31336,7.99971-17.30975,14.23514-24.01342,6.51348-7.00258,13.33527-13.68909,19.3683-21.12836,5.95933-7.34841,11.28006-15.45906,14.46971-24.41751a51.06,51.06,0,0,0,2.61-23.38747c-.95037-7.53727-3.88112-15.00574-9.13939-20.58239a31.11512,31.11512,0,0,0-22.38493-9.44561,35.198,35.198,0,0,0-23.59037,8.67326,42.74581,42.74581,0,0,0-13.028,21.7192,44.018,44.018,0,0,0-1.11019,6.3238c-.19091,1.90286-3.19289,1.92258-3,0Z" transform="translate(-143.34641 -152.24369)" fill="#2f2e41"/><path d="M910.35168,356.6197,896.108,351.91658a5.4995,5.4995,0,1,1,3.44873-10.44434l14.24365,4.70313a5.4995,5.4995,0,1,1-3.44873,10.44433Z" transform="translate(-143.34641 -152.24369)" fill="#2f2e41"/><rect x="589.27458" y="593.2719" width="324.03261" height="2.24072" fill="#3f3d56"/><path d="M628.32243,542.285a114.63285,114.63285,0,0,1-25.7168-2.92578,113.13276,113.13276,0,0,1-12.80078-3.77441h-.00049l-.17529-.05957a113.82755,113.82755,0,0,1-15.63769-7.043c-1.292-.69434-2.59815-1.43945-3.87745-2.21094-.88037-.52051-1.748-1.05469-2.61572-1.59961A114.00655,114.00655,0,1,1,742.40007,428.285v-.001a114.5711,114.5711,0,0,1-54.75049,97.40527c-1.9585,1.19434-3.97754,2.33887-6.17236,3.499-2.98389,1.58008-6.03321,3.01758-9.07178,4.2793l-.56348.24121c-1.05127.43457-2.10254.84961-3.16357,1.24317-.4834.1875-.99121.37988-1.49854.56347a113.94654,113.94654,0,0,1-38.7456,6.76953Zm-38.169-8.69726.167.05664A110.92831,110.92831,0,0,0,603.05583,537.41a112.57665,112.57665,0,0,0,25.26758,2.875c.03613,0,.07324.002.10986,0a111.95911,111.95911,0,0,0,38.06787-6.65039c.4917-.17773.98389-.36425,1.4668-.55273.84179-.3125,1.66845-.63379,2.49219-.96777v-.001l.62207-.26367c3.165-1.292,6.34765-2.78125,9.46-4.42871,2.15869-1.14161,4.14306-2.26661,6.06738-3.43946a112.562,112.562,0,0,0,53.79053-95.69531v-.001A112.00653,112.00653,0,1,0,568.56413,522.9793c.85059.53418,1.70264,1.05859,2.57519,1.5752,1.25879.75878,2.53614,1.4873,3.8042,2.16894A111.849,111.849,0,0,0,590.15348,533.5877Z" transform="translate(-143.34641 -152.24369)" fill="#e6e6e6"/><path d="M422.32243,380.285a114.63285,114.63285,0,0,1-25.7168-2.92578,113.13276,113.13276,0,0,1-12.80078-3.77441h-.00049l-.17529-.05957a113.82755,113.82755,0,0,1-15.63769-7.043c-1.292-.69434-2.59815-1.43945-3.87745-2.21094-.88037-.52051-1.748-1.05469-2.61572-1.59961A114.00655,114.00655,0,1,1,536.40007,266.285v-.001a114.5711,114.5711,0,0,1-54.75049,97.40527c-1.9585,1.19434-3.97754,2.33887-6.17236,3.499-2.98389,1.58008-6.03321,3.01758-9.07178,4.2793l-.56348.24121c-1.05127.43457-2.10254.84961-3.16357,1.24317-.4834.1875-.99121.37988-1.49854.56347a113.94654,113.94654,0,0,1-38.7456,6.76953C422.39714,380.284,422.36052,380.285,422.32243,380.285Zm-38.16895-8.69726.167.05664A110.92831,110.92831,0,0,0,397.05583,375.41a112.57665,112.57665,0,0,0,25.26758,2.875c.03662,0,.07275.001.10986,0a111.95911,111.95911,0,0,0,38.06787-6.65039c.4917-.17773.98389-.36425,1.4668-.55273.84179-.3125,1.66845-.63379,2.49219-.96777v-.001l.62207-.26367c3.165-1.292,6.34765-2.78125,9.46-4.42871,2.15869-1.14161,4.14306-2.26661,6.06738-3.43946a112.562,112.562,0,0,0,53.79053-95.69531v-.001A112.00653,112.00653,0,1,0,362.56413,360.9793c.85059.53418,1.70264,1.05859,2.57519,1.5752,1.25879.75878,2.53614,1.4873,3.8042,2.16894A111.849,111.849,0,0,0,384.15348,371.5877Z" transform="translate(-143.34641 -152.24369)" fill="#e6e6e6"/><path d="M257.32243,610.285a114.63285,114.63285,0,0,1-25.7168-2.92578,113.13276,113.13276,0,0,1-12.80078-3.77441h-.00049l-.17529-.05957a113.82755,113.82755,0,0,1-15.63769-7.043c-1.292-.69434-2.59815-1.43945-3.87745-2.21094-.88037-.52051-1.748-1.05469-2.61572-1.59961A114.00655,114.00655,0,1,1,371.40007,496.285v-.001a114.5711,114.5711,0,0,1-54.75049,97.40527c-1.9585,1.19434-3.97754,2.33887-6.17236,3.499-2.98389,1.58008-6.03321,3.01758-9.07178,4.2793l-.56348.24121c-1.05127.43457-2.10254.84961-3.16357,1.24317-.4834.1875-.99121.37988-1.49854.56347a113.94654,113.94654,0,0,1-38.7456,6.76953C257.39714,610.28594,257.36,610.285,257.32243,610.285Zm-38.16895-8.69726.167.05664A110.92831,110.92831,0,0,0,232.05583,605.41a112.57665,112.57665,0,0,0,25.26758,2.875c.03613.002.07129.001.10986,0a111.95911,111.95911,0,0,0,38.06787-6.65039c.4917-.17773.98389-.36425,1.4668-.55273.84179-.3125,1.66845-.63379,2.49219-.96777v-.001l.62207-.26367c3.165-1.292,6.34765-2.78125,9.46-4.42871,2.15869-1.14161,4.14306-2.26661,6.06738-3.43946a112.562,112.562,0,0,0,53.79053-95.69531v-.001A112.00653,112.00653,0,1,0,197.56413,590.9793c.85059.53418,1.70264,1.05859,2.57519,1.5752,1.25879.75878,2.53614,1.4873,3.8042,2.16894A111.849,111.849,0,0,0,219.15348,601.5877Z" transform="translate(-143.34641 -152.24369)" fill="#e6e6e6"/><circle cx="176.27518" cy="248.03793" r="15.83854" fill="#ccc"/><circle cx="348.27518" cy="27.03793" r="15.83854" fill="#ccc"/><circle cx="572.27518" cy="210.03793" r="15.83854" fill="#ccc"/><circle cx="752.84977" cy="258.59095" r="53.51916" fill="#673ab7"/><path d="M756.77946,579.10625a7.0272,7.0272,0,0,1-2.15723-.34179,6.95255,6.95255,0,0,1-4.081-3.47266l-6.72461-13.13867a6.99909,6.99909,0,0,1,3.043-9.41992l109.50293-56.04786a7.00139,7.00139,0,0,1,9.42139,3.043l6.72461,13.13868a7.00025,7.00025,0,0,1-3.04151,9.41992L759.96257,578.33477A6.93989,6.93989,0,0,1,756.77946,579.10625Z" transform="translate(-143.34641 -152.24369)" fill="#673ab7"/><path d="M941.96013,632.58477h-91a8.50981,8.50981,0,0,1-8.5-8.5v-95.5a54,54,0,0,1,108,0v95.5A8.50982,8.50982,0,0,1,941.96013,632.58477Z" transform="translate(-143.34641 -152.24369)" fill="#ccc"/><path d="M907.12321,622.20586c-.06933,0-.13867-.001-.20849-.00293l-14.75391-.42676a7.00141,7.00141,0,0,1-6.79395-7.20019l3.561-122.96289a6.96028,6.96028,0,0,1,2.19287-4.8877c.13574-.1289.27686-.251.42041-.36621a6.986,6.986,0,0,1,4.58789-1.54l14.75244.42676a7.011,7.011,0,0,1,6.79492,7.20117L914.11491,615.41a7.00769,7.00769,0,0,1-6.9917,6.7959Z" transform="translate(-143.34641 -152.24369)" fill="#673ab7"/><path d="M892.85369,482.13106a6.44841,6.44841,0,0,1,4.26074-1.43049l14.75251.4272a6.5085,6.5085,0,0,1,6.30958,6.68577l3.43851,56.963a6.50635,6.50635,0,0,1-6.68562,6.30821l-.00038.0003-27.7535-.42765a6.499,6.499,0,0,1-6.30859-6.68532l6.09319-55.88733c.05041-1.73535,4.24165-4.42249,5.504-5.61457C892.59013,482.35106,892.72064,482.23832,892.85369,482.13106Z" transform="translate(-143.34641 -152.24369)" fill="#ccc"/><path d="M872.10377,492.29715a6.44844,6.44844,0,0,1,3.29439,3.05731l6.68192,13.15945a6.50851,6.50851,0,0,1-2.8529,8.73907l-48.37786,30.26865a6.50634,6.50634,0,0,1-8.73779-2.85343l-.00045-.00018-12.90074-24.57663a6.499,6.499,0,0,1,2.853-8.738l54.59615-18.85275a6.46073,6.46073,0,0,1,4.96014-.38336C871.78449,492.171,871.94593,492.23162,872.10377,492.29715Z" transform="translate(-143.34641 -152.24369)" fill="#ccc"/><path d="M878.31608,423.91192c-3.30615-.09278-7.4209-.208-10.58984-2.52344a8.13023,8.13023,0,0,1-3.2002-6.07129,5.46955,5.46955,0,0,1,1.86035-4.49414c1.65625-1.39941,4.07276-1.72656,6.67872-.96094l-2.69971-19.72656,1.98144-.27148,3.17383,23.19043-1.65478-.75879c-1.91846-.88086-4.55225-1.32813-6.18848.05468a3.51413,3.51413,0,0,0-1.15234,2.89551,6.14364,6.14364,0,0,0,2.38086,4.52735c2.4663,1.80175,5.74609,2.03515,9.46582,2.13867Z" transform="translate(-143.34641 -152.24369)" fill="#2f2e41"/><rect x="706.44819" y="239.59401" width="10.77197" height="2" fill="#2f2e41"/><rect x="740.44819" y="239.59401" width="10.77197" height="2" fill="#2f2e41"/><circle cx="481.26567" cy="284.4045" r="53.51916" fill="#673ab7"/><path d="M600.3319,407.83155c-6.2466-1.47341-12.99094-3.45575-17.44639-8.37388-3.79286-4.18673-5.57177-10.64807-2.21078-15.61165,3.069-4.53236,9.12253-6.19535,14.21768-7.04527,5.92227-.98789,12.00847-1.13216,17.56578-3.6527a18.17391,18.17391,0,0,0,6.93173-5.49956,47.27264,47.27264,0,0,0,4.38605-7.54814,27.52676,27.52676,0,0,1,4.60233-7.06891,13.9316,13.9316,0,0,1,7.89443-3.85439c6.70455-1.019,13.06965,2.07943,18.34511,5.92718a79.66337,79.66337,0,0,1,13.80487,13.09993,86.63335,86.63335,0,0,1,18.47579,38.152c.39,1.88951,3.28239,1.08984,2.89283-.79752a89.462,89.462,0,0,0-16.86855-36.52353,86.52793,86.52793,0,0,0-14.10714-14.45665c-5.43617-4.37922-11.71259-8.19574-18.86257-8.55739a19.43751,19.43751,0,0,0-9.58882,1.904,17.44619,17.44619,0,0,0-6.68162,6.22286c-3.36885,5.1093-4.994,11.71166-10.42909,15.16778-5.50527,3.50075-12.39817,3.53523-18.64323,4.5093-5.55466.86639-11.73876,2.69613-15.49908,7.157-4.15941,4.93428-4.003,11.65832-.89623,17.10023,3.452,6.04659,9.86553,9.34642,16.30637,11.31371,1.654.50521,3.33011.93142,5.013,1.32838,1.87753.44286,2.67882-2.44909.79752-2.89284Z" transform="translate(-143.34641 -152.24369)" fill="#2f2e41"/><path d="M622.32731,454.51739l-.05566-2c3.7207-.10352,7.001-.33692,9.46582-2.1377a6.148,6.148,0,0,0,2.38135-4.52832,3.51435,3.51435,0,0,0-1.15284-2.89453c-1.63623-1.38184-4.269-.93457-6.188-.05469l-1.65479.75879,3.17334-23.19043,1.98145.27149-2.69922,19.72656c2.60742-.7666,5.02344-.43653,6.67822.96094a5.471,5.471,0,0,1,1.86035,4.49218,8.13266,8.13266,0,0,1-3.20019,6.07324C629.75016,454.30938,625.63444,454.42461,622.32731,454.51739Z" transform="translate(-143.34641 -152.24369)" fill="#2f2e41"/><rect x="496.73091" y="270.19948" width="10.77148" height="2" fill="#2f2e41"/><rect x="462.73091" y="270.19948" width="10.77148" height="2" fill="#2f2e41"/><circle cx="112.26567" cy="352.4045" r="53.51916" fill="#673ab7"/><path d="M253.32731,522.51739l-.05566-2c3.7207-.10352,7.001-.33692,9.46582-2.1377a6.148,6.148,0,0,0,2.38135-4.52832,3.51435,3.51435,0,0,0-1.15284-2.89453c-1.63623-1.38184-4.269-.93457-6.188-.05469l-1.65479.75879,3.17334-23.19043,1.98145.27149-2.69922,19.72656c2.60742-.7666,5.02344-.43653,6.67822.96094a5.471,5.471,0,0,1,1.86035,4.49218,8.13266,8.13266,0,0,1-3.20019,6.07324C260.75016,522.30938,256.63444,522.42461,253.32731,522.51739Z" transform="translate(-143.34641 -152.24369)" fill="#2f2e41"/><rect x="127.73091" y="338.19948" width="10.77148" height="2" fill="#2f2e41"/><rect x="93.73091" y="338.19948" width="10.77148" height="2" fill="#2f2e41"/><circle cx="280.26484" cy="120.85653" r="53.51916" fill="#ccc"/><path d="M461.43707,292.89248l-.05567-2c3.72071-.10352,7.001-.33692,9.46582-2.1377a6.148,6.148,0,0,0,2.38135-4.52832,3.51434,3.51434,0,0,0-1.15283-2.89453c-1.63574-1.38281-4.26855-.93555-6.188-.05469l-1.65478.75879,3.17334-23.19043,1.98144.27148-2.69922,19.72657c2.60791-.7666,5.02344-.4375,6.67823.96093a5.471,5.471,0,0,1,1.86035,4.49219,8.13264,8.13264,0,0,1-3.2002,6.07324C468.85992,292.68447,464.7442,292.7997,461.43707,292.89248Z" transform="translate(-143.34641 -152.24369)" fill="#2f2e41"/><rect x="301.84066" y="108.57457" width="10.77148" height="2" fill="#2f2e41"/><path d="M455.24654,216.42726c-1.99912-11.91579-9.54714-22.15918-19.25874-29.07416a55.10907,55.10907,0,0,0-32.51916-9.942c-22.49328.24747-44.48665,12.8457-56.54607,31.75-13.36018,20.94334-13.6238,48.29267-4.592,70.93669a87.82239,87.82239,0,0,0,8.73183,16.61132c3.877,5.74473,8.57381,10.8126,13.14194,16.001,8.51338,9.66944,18.27377,23.11686,12.56894,36.60868-2.10712,4.98331-6.55226,9.51413-12.20911,9.871-4.77527.30126-10.06981-1.98261-12.18726-6.47151-2.37207-5.02868.91217-10.98038,5.76434-13.03856,5.08919-2.15872,10.37851,1.02589,12.25843,5.9241a9.51686,9.51686,0,0,1,.08872,7.061,1.55346,1.55346,0,0,0,.53813,2.05228,1.5092,1.5092,0,0,0,2.05228-.53812,13.418,13.418,0,0,0-3.3623-14.84822,11.877,11.877,0,0,0-15.31318-.94673c-4.756,3.47373-7.27074,9.69171-4.86059,15.30259,2.08679,4.85806,7.13591,7.792,12.2349,8.41139a16.37228,16.37228,0,0,0,14.74775-6.52985,23.93,23.93,0,0,0,4.75354-17.27054c-1.6693-15.35391-13.93589-25.85107-23.14438-37.08742A84.87837,84.87837,0,0,1,341.2659,266.682a78.31719,78.31719,0,0,1,.32322-37.781,64.1854,64.1854,0,0,1,18.33607-30.62572A67.88388,67.88388,0,0,1,390.17,182.0697,56.24075,56.24075,0,0,1,423.86,184.11985c11.27327,4.47218,21.27784,13.321,26.04539,24.58865a37.97918,37.97918,0,0,1,2.44827,8.51628c.31873,1.8998,3.21019,1.09406,2.89284-.79752Z" transform="translate(-143.34641 -152.24369)" fill="#2f2e41"/><path d="M455.181,216.87906c5.00869-4.82567,13.17359-5.52149,19.2087-2.25276,6.24243,3.381,8.74746,10.66269,7.14633,17.4009a15.72933,15.72933,0,0,1-6.11139,9.36192c-1.57348,1.09533-.07556,3.69705,1.51416,2.59042,6.75261-4.70063,9.59606-13.75947,7.29139-21.5958-2.40632-8.182-10.39807-13.06651-18.74438-12.74061a18.87464,18.87464,0,0,0-12.42613,5.11461c-1.393,1.34208.73,3.46185,2.12132,2.12132Z" transform="translate(-143.34641 -152.24369)" fill="#2f2e41"/><path d="M269.24111,470.83543c6.45521-.60007,11.85966-4.87478,14.72562-10.5951a21.69009,21.69009,0,0,0,.07989-19.05759,30.50941,30.50941,0,0,0-14.38929-14.20732c-7.29511-3.53353-15.53367-4.51176-23.55829-4.18773-15.12145.61061-31.78114,4.85586-41.07674,17.74979A27.83571,27.83571,0,0,0,199.731,460.951c1.17624,7.593,5.79765,14.16887,10.73188,19.837,5.17143,5.94055,11.139,11.291,15.22624,18.09644,3.53656,5.88853,5.439,13.30383,3.07326,19.98607a14.38316,14.38316,0,0,1-2.47409,4.35156c-1.22319,1.47608.88781,3.60985,2.12132,2.12133,4.25587-5.13578,5.11631-11.91521,3.77613-18.30533-1.47546-7.03515-5.73168-12.98289-10.38579-18.29624-9.056-10.3388-22.5431-21.62811-18.73669-37.07346A29.76292,29.76292,0,0,1,214.563,435.09525c6.05317-4.38872,13.24027-6.80334,20.54341-8.11463,13.97517-2.50926,30.89913-2.24692,41.45786,8.64189,4.38837,4.52555,7.40665,10.84888,6.59827,17.26656-.72895,5.78709-4.424,11.46311-9.82635,13.87687a13.06579,13.06579,0,0,1-4.095,1.06949c-1.90616.1772-1.92469,3.17892,0,3Z" transform="translate(-143.34641 -152.24369)" fill="#2f2e41"/></svg>