<?xml version="1.0" encoding="UTF-8"?>
<svg version="1.1" xmlns="http://www.w3.org/2000/svg" width="512" height="512">
<path d="M0 0 C3.66944815 3.00099539 6.96937735 6.29600157 10.25927734 9.70410156 C10.99662109 10.41050781 11.73396484 11.11691406 12.49365234 11.84472656 C25.31131979 24.86111753 30.5911446 43.35368285 30.75927734 61.14160156 C30.56892972 81.30357889 24.43897083 99.71989604 9.96240234 114.09472656 C9.07037109 114.95582031 8.17833984 115.81691406 7.25927734 116.70410156 C6.55287109 117.44144531 5.84646484 118.17878906 5.11865234 118.93847656 C-8.02484243 131.88130729 -26.77925351 137.02626523 -44.74072266 137.20410156 C-64.37426849 137.00971002 -82.75017857 130.85319086 -96.74072266 116.70410156 C-103.90974763 120.42293107 -110.55452423 124.83741808 -117.20721436 129.39645386 C-119.8854592 131.23149996 -122.56988936 133.05741652 -125.2538147 134.88414001 C-126.72234458 135.88376716 -128.19057873 136.88382889 -129.65853882 137.8842926 C-139.12377733 144.33370743 -148.61973502 150.7375877 -158.11572266 157.14160156 C-159.02393768 157.75436951 -159.93215271 158.36713745 -160.8678894 158.99847412 C-174.8252154 168.4143557 -188.81319004 177.7831607 -202.84179688 187.0925293 C-203.48688705 187.52116776 -204.13197723 187.94980621 -204.7966156 188.39143372 C-206.51033815 189.52998312 -208.22497939 190.66714939 -209.93969727 191.80419922 C-211.66102868 192.97175793 -213.35523625 194.18222652 -214.99682617 195.45947266 C-216.74072266 196.70410156 -216.74072266 196.70410156 -218.74072266 196.70410156 C-218.53914551 197.28788574 -218.33756836 197.87166992 -218.12988281 198.47314453 C-217.20188856 201.17290955 -216.28377714 203.87594114 -215.36572266 206.57910156 C-215.04861328 207.49691406 -214.73150391 208.41472656 -214.40478516 209.36035156 C-210.6445341 220.48442762 -209.35017701 230.50520808 -209.36572266 242.26660156 C-209.36593414 242.92917969 -209.36614563 243.59175781 -209.36636353 244.27441406 C-209.40037806 254.96303709 -210.34330085 264.5335449 -213.74072266 274.70410156 C-213.96518066 275.37973145 -214.18963867 276.05536133 -214.42089844 276.75146484 C-215.77047579 280.77190387 -217.21095559 284.74802362 -218.74072266 288.70410156 C-218.02094238 288.96537842 -217.30116211 289.22665527 -216.55957031 289.49584961 C-213.63339991 290.75010367 -211.26017123 292.23228324 -208.63916016 294.03613281 C-207.61411377 294.73714111 -206.58906738 295.43814941 -205.53295898 296.16040039 C-204.98040436 296.54144928 -204.42784973 296.92249817 -203.85855103 297.31509399 C-201.4206271 298.99580111 -198.97497091 300.66511131 -196.52980042 302.33525085 C-195.17011043 303.26403603 -193.81077763 304.19334428 -192.45176697 305.12312317 C-183.18075052 311.46303878 -173.86583463 317.73802545 -164.55322266 324.01660156 C-163.6373941 324.6343042 -162.72156555 325.25200684 -161.77798462 325.88842773 C-145.60029065 336.79863054 -129.38128137 347.64574516 -113.13183594 358.44873047 C-107.99810075 361.86213893 -102.86944873 365.28317313 -97.74072266 368.70410156 C-97.21945801 368.30521729 -96.69819336 367.90633301 -96.16113281 367.49536133 C-75.80362938 351.977112 -56.1373874 345.88036616 -30.44677734 348.98095703 C-14.33323873 351.7183172 -0.88456025 360.15988658 10.25927734 371.70410156 C10.99662109 372.41050781 11.73396484 373.11691406 12.49365234 373.84472656 C25.31131979 386.86111753 30.5911446 405.35368285 30.75927734 423.14160156 C30.56892972 443.30357889 24.43897083 461.71989604 9.96240234 476.09472656 C9.07037109 476.95582031 8.17833984 477.81691406 7.25927734 478.70410156 C6.55287109 479.44144531 5.84646484 480.17878906 5.11865234 480.93847656 C-8.02484243 493.88130729 -26.77925351 499.02626523 -44.74072266 499.20410156 C-64.65940827 499.00688685 -82.95649061 492.68240626 -97.13134766 478.40722656 C-97.99244141 477.51519531 -98.85353516 476.62316406 -99.74072266 475.70410156 C-100.47806641 474.99769531 -101.21541016 474.29128906 -101.97509766 473.56347656 C-108.41805681 467.02062657 -112.16443252 459.05221994 -115.74072266 450.70410156 C-116.19962891 449.63804687 -116.65853516 448.57199219 -117.13134766 447.47363281 C-119.89044153 439.65296181 -120.14200605 432.00121217 -120.24072266 423.76660156 C-120.25941406 422.70715332 -120.27810547 421.64770508 -120.29736328 420.55615234 C-120.22764607 411.79189384 -118.26831664 404.02313881 -115.74072266 395.70410156 C-163.78450206 363.10802503 -163.78450206 363.10802503 -212.05078125 330.84301758 C-220.01333901 325.55560832 -227.90269494 320.17478534 -235.74072266 314.70410156 C-236.60697266 315.46722656 -237.47322266 316.23035156 -238.36572266 317.01660156 C-239.82036293 318.25013651 -241.279407 319.47848198 -242.74072266 320.70410156 C-243.72556641 321.53941406 -244.71041016 322.37472656 -245.72509766 323.23535156 C-270.70318741 343.9568201 -299.20529577 350.08302505 -331.25048828 347.50195312 C-356.63632107 344.37300164 -380.21701491 329.483618 -396.65478516 310.38769531 C-416.07277875 285.40611929 -422.89272833 256.13052313 -419.42431641 224.85058594 C-418.6221691 219.97929334 -417.31292998 215.37934967 -415.74072266 210.70410156 C-415.39009766 209.60066406 -415.03947266 208.49722656 -414.67822266 207.36035156 C-405.17198328 180.16194447 -385.15061982 159.02592318 -359.42822266 146.45410156 C-335.92850609 136.08997595 -307.28538376 133.45014473 -282.74072266 141.70410156 C-281.63728516 142.05472656 -280.53384766 142.40535156 -279.39697266 142.76660156 C-265.41816952 147.65239683 -253.5488339 155.2116934 -242.63134766 165.10253906 C-240.39047431 167.11932507 -238.16254624 168.92380774 -235.74072266 170.70410156 C-234.75418701 170.03805908 -233.76765137 169.3720166 -232.7512207 168.68579102 C-223.32730602 162.32353687 -213.90280617 155.96215044 -204.4778595 149.60142517 C-198.78658367 145.76033672 -193.09602957 141.91818232 -187.40609741 138.07510376 C-183.77278708 135.62132331 -180.13901433 133.16822844 -176.50506592 130.71539307 C-174.7038734 129.49955659 -172.9028073 128.28353282 -171.10186768 127.06732178 C-161.70147176 120.72000216 -152.29026169 114.39055276 -142.83447266 108.12597656 C-142.05953964 107.61202835 -141.28460663 107.09808014 -140.4861908 106.56855774 C-136.87402111 104.17347329 -133.25884729 101.78321091 -129.63745117 99.40209961 C-128.37098371 98.56413112 -127.10461981 97.7260061 -125.83837891 96.88769531 C-124.75049072 96.17154053 -123.66260254 95.45538574 -122.54174805 94.7175293 C-119.99117515 92.88413135 -117.87659577 90.99780575 -115.74072266 88.70410156 C-116.17384766 87.640625 -116.17384766 87.640625 -116.61572266 86.55566406 C-122.16858356 70.6297505 -122.42997653 50.31867719 -115.74072266 34.70410156 C-115.34602783 33.75083984 -115.34602783 33.75083984 -114.94335938 32.77832031 C-110.53815736 22.34744016 -104.85369323 14.53569743 -96.74072266 6.70410156 C-96.03431641 5.96675781 -95.32791016 5.22941406 -94.60009766 4.46972656 C-70.44194919 -19.31959521 -26.54699753 -19.76317852 0 0 Z " fill="#FE7088" transform="translate(450.74072265625,13.2958984375)"/>
<path d="M0 0 C3.66944815 3.00099539 6.96937735 6.29600157 10.25927734 9.70410156 C10.99662109 10.41050781 11.73396484 11.11691406 12.49365234 11.84472656 C25.31131979 24.86111753 30.5911446 43.35368285 30.75927734 61.14160156 C30.56892972 81.30357889 24.43897083 99.71989604 9.96240234 114.09472656 C9.07037109 114.95582031 8.17833984 115.81691406 7.25927734 116.70410156 C6.55287109 117.44144531 5.84646484 118.17878906 5.11865234 118.93847656 C-8.02484243 131.88130729 -26.77925351 137.02626523 -44.74072266 137.20410156 C-64.37426849 137.00971002 -82.75017857 130.85319086 -96.74072266 116.70410156 C-103.90974763 120.42293107 -110.55452423 124.83741808 -117.20721436 129.39645386 C-119.8854592 131.23149996 -122.56988936 133.05741652 -125.2538147 134.88414001 C-126.72234458 135.88376716 -128.19057873 136.88382889 -129.65853882 137.8842926 C-139.12377286 144.33370438 -148.61928937 150.7382556 -158.11572266 157.14160156 C-159.02493469 157.75470184 -159.93414673 158.36780212 -160.87091064 158.9994812 C-172.6860827 166.96499104 -184.50719221 174.92168332 -196.35479736 182.83889771 C-197.76020903 183.77830868 -199.16513016 184.718454 -200.56951904 185.65939331 C-202.49479139 186.94882675 -204.42211454 188.23513226 -206.35009766 189.52050781 C-207.95836426 190.59473999 -207.95836426 190.59473999 -209.59912109 191.69067383 C-212.92255267 193.82063499 -216.29830643 195.77390897 -219.74072266 197.70410156 C-220.0780542 197.15995605 -220.41538574 196.61581055 -220.76293945 196.05517578 C-222.3133454 193.56020258 -223.8707177 191.06964877 -225.42822266 188.57910156 C-225.95867187 187.72316406 -226.48912109 186.86722656 -227.03564453 185.98535156 C-230.00038211 181.25632229 -233.04372775 176.88808467 -236.74072266 172.70410156 C-233.12790657 168.85883231 -229.3143696 165.86709056 -224.88916016 162.98535156 C-224.21461288 162.53892303 -223.54006561 162.09249451 -222.84507751 161.63253784 C-221.37783468 160.66224745 -219.90886965 159.69455736 -218.43838501 158.72918701 C-214.38668093 156.0687939 -210.34800682 153.38870959 -206.30712891 150.71191406 C-205.45223373 150.14638824 -204.59733856 149.58086243 -203.71653748 148.99819946 C-193.78536205 142.42286912 -183.91996482 135.75054734 -174.05322266 129.07910156 C-163.6648324 122.05579239 -153.27306459 115.03935431 -142.81884766 108.11425781 C-142.04490158 107.6010498 -141.27095551 107.0878418 -140.47355652 106.55908203 C-136.86586434 104.16749429 -133.25508175 101.78084531 -129.63842773 99.40283203 C-128.37163278 98.56462239 -127.10494325 97.72625338 -125.83837891 96.88769531 C-124.75049072 96.17154053 -123.66260254 95.45538574 -122.54174805 94.7175293 C-119.99117515 92.88413135 -117.87659577 90.99780575 -115.74072266 88.70410156 C-116.02947266 87.99511719 -116.31822266 87.28613281 -116.61572266 86.55566406 C-122.16858356 70.6297505 -122.42997653 50.31867719 -115.74072266 34.70410156 C-115.47759277 34.06859375 -115.21446289 33.43308594 -114.94335938 32.77832031 C-110.53815736 22.34744016 -104.85369323 14.53569743 -96.74072266 6.70410156 C-96.03431641 5.96675781 -95.32791016 5.22941406 -94.60009766 4.46972656 C-70.44194919 -19.31959521 -26.54699753 -19.76317852 0 0 Z " fill="#FE968B" transform="translate(450.74072265625,13.2958984375)"/>
<path d="M0 0 C3.66944815 3.00099539 6.96937735 6.29600157 10.25927734 9.70410156 C10.99662109 10.41050781 11.73396484 11.11691406 12.49365234 11.84472656 C25.31131979 24.86111753 30.5911446 43.35368285 30.75927734 61.14160156 C30.56892972 81.30357889 24.43897083 99.71989604 9.96240234 114.09472656 C9.07037109 114.95582031 8.17833984 115.81691406 7.25927734 116.70410156 C6.55287109 117.44144531 5.84646484 118.17878906 5.11865234 118.93847656 C-8.02484243 131.88130729 -26.77925351 137.02626523 -44.74072266 137.20410156 C-64.65940827 137.00688685 -82.95649061 130.68240626 -97.13134766 116.40722656 C-97.99244141 115.51519531 -98.85353516 114.62316406 -99.74072266 113.70410156 C-100.47806641 112.99769531 -101.21541016 112.29128906 -101.97509766 111.56347656 C-108.41805681 105.02062657 -112.16443252 97.05221994 -115.74072266 88.70410156 C-116.19962891 87.63804687 -116.65853516 86.57199219 -117.13134766 85.47363281 C-123.10721425 68.53499688 -121.63225294 47.42047387 -114.16259766 31.29785156 C-110.70347683 24.50426292 -106.70163793 18.47680297 -101.74072266 12.70410156 C-100.98919922 11.79660156 -100.23767578 10.88910156 -99.46337891 9.95410156 C-75.35988496 -18.0714459 -29.63509568 -22.06214416 0 0 Z " fill="#FD4985" transform="translate(450.74072265625,375.2958984375)"/>
<path d="M0 0 C0.35191406 0.76183594 0.70382812 1.52367188 1.06640625 2.30859375 C4.38632866 9.25182574 8.08709236 15.09975257 13 21 C16 24.73455378 16 24.73455378 16 27 C13.69483455 28.71319104 11.3847344 30.29863047 8.98046875 31.86328125 C8.23212265 32.35843735 7.48377655 32.85359344 6.7127533 33.36375427 C5.07457263 34.44670334 3.43431649 35.52651757 1.79229736 36.6036377 C-2.67740164 39.53595798 -7.1322138 42.49078622 -11.58984375 45.44140625 C-12.99124603 46.36752213 -12.99124603 46.36752213 -14.42095947 47.31234741 C-23.70993274 53.45540088 -32.94229298 59.68098943 -42.16744995 65.91931152 C-55.62665729 75.01964775 -69.0963849 84.10440973 -82.60601807 93.12976074 C-84.01488528 94.07125159 -85.42322693 95.01352947 -86.83099365 95.95666504 C-88.75554373 97.24562522 -90.68213255 98.53147632 -92.609375 99.81640625 C-94.2176416 100.89063843 -94.2176416 100.89063843 -95.85839844 101.98657227 C-99.18183002 104.11653343 -102.55758377 106.0698074 -106 108 C-106.33733154 107.45585449 -106.67466309 106.91170898 -107.0222168 106.35107422 C-108.57262274 103.85610102 -110.12999504 101.36554721 -111.6875 98.875 C-112.21794922 98.0190625 -112.74839844 97.163125 -113.29492188 96.28125 C-116.25965946 91.55222073 -119.30300509 87.1839831 -123 83 C-119.38718391 79.15473075 -115.57364694 76.162989 -111.1484375 73.28125 C-110.47389023 72.83482147 -109.79934296 72.38839294 -109.10435486 71.92843628 C-107.63711202 70.95814589 -106.168147 69.99045579 -104.69766235 69.02508545 C-100.64595828 66.36469234 -96.60728417 63.68460803 -92.56640625 61.0078125 C-91.71151108 60.44228668 -90.85661591 59.87676086 -89.97581482 59.2940979 C-80.04462995 52.7187613 -70.17970988 46.045768 -60.3125 39.375 C-45.54517279 29.39666934 -30.74789467 19.46548033 -15.89770508 9.61083984 C-15.25279114 9.18230713 -14.6078772 8.75377441 -13.94342041 8.31225586 C-12.22993887 7.17382555 -10.51552104 6.03680481 -8.80102539 4.89990234 C-7.07969397 3.73234363 -5.38548641 2.52187505 -3.74389648 1.24462891 C-2 0 -2 0 0 0 Z " fill="#FFE8EC" transform="translate(337,103)"/>
<path d="M0 0 C6.77416237 3.5798922 13.07516371 7.64805516 19.375 12 C21.59050543 13.5178736 23.80662417 15.03482116 26.0234375 16.55078125 C26.63161316 16.96717361 27.23978882 17.38356598 27.86639404 17.81257629 C36.88195167 23.98026564 45.94313613 30.08071588 55 36.1875 C55.92150848 36.80901947 56.84301697 37.43053894 57.79244995 38.07089233 C74.02710682 49.01860211 90.30264832 59.9038872 106.60888672 70.74462891 C111.7426219 74.15803736 116.87127393 77.57907157 122 81 C121.26262739 84.35047989 120.4283791 85.86725716 118 88.3125 C112.63451404 94.16879964 108.93536328 101.14657823 105 108 C98.03722197 103.66253172 91.19327953 99.1557272 84.37109375 94.6015625 C82.99368011 93.68262207 82.99368011 93.68262207 81.58843994 92.74511719 C72.67898 86.79546738 63.79791338 80.80408933 54.92147827 74.80532837 C37.67520024 63.15060259 37.67520024 63.15060259 20.37109375 51.58203125 C19.62451508 51.08549042 18.8779364 50.58894958 18.10873413 50.07736206 C14.66849671 47.79048748 11.22605565 45.50702625 7.78027344 43.22851562 C-0.61332983 37.66584495 -8.84245097 31.90325271 -17 26 C-14.89552382 22.44408422 -12.66500791 19.12073049 -10.1875 15.8125 C-6.44510822 10.72118697 -3.1599122 5.46579408 0 0 Z " fill="#FECBD3" transform="translate(231,301)"/>
</svg>
