<svg width="406" height="278" viewBox="0 0 406 278" fill="none" xmlns="http://www.w3.org/2000/svg">
<g clip-path="url(#clip0_121_1980)">
<path d="M317.327 243.423C334.299 230.507 342.406 208.803 337.331 188.098C337.205 187.584 337.071 187.071 336.931 186.559C333.567 174.269 325.243 162.588 313.111 158.661C302.925 155.364 291.806 157.899 281.179 156.588C260.318 154.014 244.145 137.15 232.765 119.493C221.385 101.835 212.639 82.0704 197.518 67.4829C172.593 43.4378 131.933 38.2609 101.03 53.9125C70.126 69.564 50.4407 104.288 51.2802 138.895C52.1198 173.503 72.6823 206.589 102.544 224.144C113.514 230.593 126.202 235.161 138.829 233.563C149.786 232.176 159.741 226.294 170.645 224.547C187.79 221.802 204.826 229.547 219.655 238.572C234.484 247.597 248.807 258.295 265.658 262.479C282.021 266.542 302.292 254.864 317.327 243.423Z" fill="#F2F2F2"/>
<path d="M183.035 88.8705H13.952C10.4257 88.8746 7.04503 90.276 4.55156 92.7673C2.0581 95.2586 0.655467 98.6364 0.651367 102.16V186.239C0.655465 189.762 2.0581 193.14 4.55156 195.631C7.04503 198.122 10.4257 199.524 13.952 199.528H183.035C186.561 199.525 189.943 198.124 192.436 195.632C194.93 193.141 196.332 189.762 196.335 186.239V102.16C196.332 98.636 194.93 95.2576 192.436 92.7661C189.943 90.2745 186.561 88.8735 183.035 88.8705Z" fill="white"/>
<path d="M183.035 200.183H13.9547C10.255 200.179 6.70799 198.708 4.09187 196.095C1.47576 193.481 0.00418668 189.937 0 186.24V102.158C0.00418495 98.4619 1.47576 94.918 4.09187 92.3041C6.70799 89.6903 10.255 88.22 13.9547 88.2158H183.035C186.735 88.22 190.282 89.6903 192.898 92.3041C195.514 94.918 196.986 98.4619 196.99 102.158V186.24C196.986 189.937 195.514 193.481 192.898 196.095C190.282 198.708 186.735 200.179 183.035 200.183ZM13.9547 89.5225C10.6018 89.5264 7.3872 90.8589 5.01627 93.2277C2.64535 95.5966 1.31167 98.8084 1.30783 102.158V186.24C1.31167 189.59 2.64535 192.802 5.01627 195.171C7.3872 197.54 10.6018 198.872 13.9547 198.876H183.035C186.388 198.872 189.603 197.54 191.973 195.171C194.344 192.802 195.678 189.59 195.682 186.24V102.158C195.678 98.8084 194.344 95.5966 191.973 93.2277C189.603 90.8589 186.388 89.5264 183.035 89.5225H13.9547Z" fill="#2E3641"/>
<path d="M192.774 218.2H30.7417C29.3412 218.2 27.998 217.644 27.0076 216.655C26.0173 215.665 25.4609 214.323 25.4609 212.924C25.4609 211.524 26.0173 210.182 27.0076 209.193C27.998 208.203 29.3412 207.648 30.7417 207.648H192.774C194.175 207.648 195.518 208.203 196.508 209.193C197.499 210.182 198.055 211.524 198.055 212.924C198.055 214.323 197.499 215.665 196.508 216.655C195.518 217.644 194.175 218.2 192.774 218.2Z" fill="#1A40D7"/>
<path d="M342.358 149.719H271.701C270.228 149.717 268.815 149.132 267.773 148.091C266.731 147.049 266.145 145.638 266.143 144.165V109.029C266.145 107.556 266.731 106.145 267.773 105.103C268.815 104.062 270.228 103.477 271.701 103.475H342.358C343.832 103.477 345.245 104.062 346.287 105.103C347.329 106.145 347.915 107.556 347.917 109.029V144.165C347.915 145.638 347.329 147.049 346.287 148.091C345.245 149.132 343.832 149.717 342.358 149.719Z" fill="white"/>
<path d="M342.358 150.372H271.701C270.054 150.37 268.475 149.716 267.311 148.552C266.146 147.389 265.491 145.811 265.489 144.165V109.029C265.491 107.383 266.146 105.805 267.311 104.642C268.475 103.478 270.054 102.824 271.701 102.822H342.358C344.005 102.824 345.584 103.478 346.749 104.642C347.914 105.805 348.569 107.383 348.571 109.029V144.165C348.569 145.811 347.914 147.389 346.749 148.552C345.584 149.716 344.005 150.37 342.358 150.372ZM271.701 104.128C270.401 104.13 269.155 104.647 268.235 105.565C267.316 106.484 266.799 107.729 266.797 109.029V144.165C266.799 145.465 267.316 146.71 268.235 147.629C269.155 148.547 270.401 149.064 271.701 149.066H342.358C343.659 149.064 344.905 148.547 345.825 147.629C346.744 146.71 347.261 145.465 347.263 144.165V109.029C347.261 107.729 346.744 106.484 345.825 105.565C344.905 104.647 343.659 104.13 342.358 104.128H271.701Z" fill="#2E3641"/>
<path d="M316.408 22.5302H19.3397C19.0307 22.5237 18.7366 22.3965 18.5204 22.1758C18.3042 21.9552 18.1831 21.6587 18.1831 21.3499C18.1831 21.0411 18.3042 20.7446 18.5204 20.524C18.7366 20.3033 19.0307 20.1761 19.3397 20.1696H316.408C316.717 20.1761 317.012 20.3033 317.228 20.524C317.444 20.7446 317.565 21.0411 317.565 21.3499C317.565 21.6587 317.444 21.9552 317.228 22.1758C317.012 22.3965 316.717 22.5237 316.408 22.5302Z" fill="#CACACA"/>
<path d="M39.5615 14.143C43.3852 14.143 46.4848 10.9769 46.4848 7.07148C46.4848 3.16601 43.3852 0 39.5615 0C35.7379 0 32.6382 3.16601 32.6382 7.07148C32.6382 10.9769 35.7379 14.143 39.5615 14.143Z" fill="#3D4456"/>
<path d="M63.4785 14.143C67.3021 14.143 70.4018 10.9769 70.4018 7.07148C70.4018 3.16601 67.3021 0 63.4785 0C59.6549 0 56.5552 3.16601 56.5552 7.07148C56.5552 10.9769 59.6549 14.143 63.4785 14.143Z" fill="#3D4456"/>
<path d="M87.3955 14.143C91.2191 14.143 94.3188 10.9769 94.3188 7.07148C94.3188 3.16601 91.2191 0 87.3955 0C83.5718 0 80.4722 3.16601 80.4722 7.07148C80.4722 10.9769 83.5718 14.143 87.3955 14.143Z" fill="#3D4456"/>
<path d="M302.008 1.75269H285.019C284.682 1.75934 284.361 1.89768 284.126 2.13799C283.89 2.3783 283.758 2.70143 283.758 3.03797C283.758 3.37451 283.89 3.69763 284.126 3.93794C284.361 4.17826 284.682 4.31659 285.019 4.32325H302.008C302.345 4.31659 302.666 4.17826 302.902 3.93794C303.137 3.69763 303.27 3.37451 303.27 3.03797C303.27 2.70143 303.137 2.3783 302.902 2.13799C302.666 1.89768 302.345 1.75934 302.008 1.75269Z" fill="#3D4456"/>
<path d="M302.008 6.57727H285.019C284.682 6.58393 284.361 6.72226 284.126 6.96257C283.89 7.20289 283.758 7.52601 283.758 7.86255C283.758 8.19909 283.89 8.52222 284.126 8.76253C284.361 9.00284 284.682 9.14118 285.019 9.14783H302.008C302.345 9.14118 302.666 9.00284 302.902 8.76253C303.137 8.52222 303.27 8.19909 303.27 7.86255C303.27 7.52601 303.137 7.20289 302.902 6.96257C302.666 6.72226 302.345 6.58393 302.008 6.57727Z" fill="#3D4456"/>
<path d="M302.008 11.3955H285.019C284.682 11.4022 284.361 11.5405 284.126 11.7808C283.89 12.0211 283.758 12.3442 283.758 12.6808C283.758 13.0173 283.89 13.3405 284.126 13.5808C284.361 13.8211 284.682 13.9594 285.019 13.9661H302.008C302.345 13.9594 302.666 13.8211 302.902 13.5808C303.137 13.3405 303.27 13.0173 303.27 12.6808C303.27 12.3442 303.137 12.0211 302.902 11.7808C302.666 11.5405 302.345 11.4022 302.008 11.3955Z" fill="#3D4456"/>
<path d="M347.425 156.907C351.893 156.907 355.515 153.288 355.515 148.823C355.515 144.359 351.893 140.74 347.425 140.74C342.957 140.74 339.334 144.359 339.334 148.823C339.334 153.288 342.957 156.907 347.425 156.907Z" fill="#3D4456"/>
<path d="M346.819 152.054C346.802 152.054 346.784 152.053 346.767 152.052C346.615 152.045 346.466 152.005 346.33 151.935C346.195 151.864 346.077 151.766 345.983 151.645L344.631 149.909C344.545 149.799 344.483 149.674 344.446 149.54C344.409 149.406 344.399 149.266 344.416 149.128C344.433 148.99 344.477 148.857 344.546 148.736C344.615 148.616 344.707 148.51 344.816 148.424L344.865 148.386C344.975 148.301 345.1 148.238 345.234 148.201C345.368 148.164 345.508 148.154 345.646 148.172C345.784 148.189 345.918 148.233 346.039 148.302C346.159 148.37 346.266 148.462 346.351 148.572C346.419 148.66 346.506 148.731 346.604 148.783C346.703 148.834 346.811 148.863 346.922 148.868C347.033 148.874 347.144 148.855 347.247 148.814C347.351 148.773 347.444 148.709 347.52 148.629L350.265 145.733C350.459 145.53 350.725 145.411 351.005 145.404C351.286 145.396 351.558 145.5 351.762 145.693L351.807 145.735C351.908 145.831 351.989 145.945 352.046 146.072C352.102 146.199 352.133 146.336 352.137 146.475C352.141 146.614 352.117 146.752 352.067 146.881C352.018 147.011 351.943 147.13 351.847 147.231L347.587 151.723C347.488 151.828 347.369 151.911 347.237 151.968C347.105 152.025 346.963 152.054 346.819 152.054Z" fill="white"/>
<path d="M126.009 186.034C126.016 190.348 125.025 194.605 123.112 198.473C122.896 198.918 122.668 199.349 122.426 199.78H73.2708C73.0289 199.349 72.8 198.918 72.5842 198.473C70.7076 194.672 69.7148 190.495 69.6801 186.256C69.6454 182.018 70.5697 177.826 72.3838 173.994C74.1979 170.162 76.8551 166.789 80.1569 164.127C83.4586 161.465 87.3197 159.582 91.4517 158.62C95.5836 157.658 99.8798 157.641 104.019 158.57C108.159 159.5 112.035 161.352 115.357 163.987C118.68 166.623 121.364 169.975 123.208 173.793C125.053 177.61 126.01 181.795 126.009 186.034Z" fill="#2E3641"/>
<path d="M98.5616 188.524C103.877 188.524 108.187 184.218 108.187 178.907C108.187 173.596 103.877 169.29 98.5616 169.29C93.2458 169.29 88.9365 173.596 88.9365 178.907C88.9365 184.218 93.2458 188.524 98.5616 188.524Z" fill="white"/>
<path d="M98.5619 182.113C100.334 182.113 101.77 180.678 101.77 178.907C101.77 177.137 100.334 175.702 98.5619 175.702C96.79 175.702 95.3535 177.137 95.3535 178.907C95.3535 180.678 96.79 182.113 98.5619 182.113Z" fill="#3D4456"/>
<path d="M70.5301 159.863C68.2561 149.688 75.5252 139.407 86.7659 136.899C98.0067 134.391 108.963 140.607 111.236 150.782C113.51 160.957 106.061 164.71 94.8201 167.217C83.5793 169.725 72.8041 170.038 70.5301 159.863Z" fill="#1A40D7"/>
<path d="M136.42 210.282C137.92 208.434 134.36 203.065 128.467 198.291C122.575 193.517 116.582 191.145 115.082 192.993C113.582 194.841 117.143 200.209 123.035 204.984C128.927 209.758 134.92 212.13 136.42 210.282Z" fill="#2E3641"/>
<path d="M78.2215 186.108C79.7216 184.26 76.161 178.891 70.2687 174.117C64.3764 169.343 58.3837 166.971 56.8836 168.819C55.3835 170.667 58.9441 176.036 64.8364 180.81C70.7287 185.584 76.7214 187.956 78.2215 186.108Z" fill="#2E3641"/>
<path d="M339.748 115.48C347.093 113.585 352.565 110.18 351.969 107.876C351.374 105.572 344.936 105.241 337.591 107.137C330.246 109.032 324.774 112.437 325.37 114.741C325.965 117.045 332.403 117.376 339.748 115.48Z" fill="#2E3641"/>
<path d="M285.107 115.575C288.019 108.576 288.596 102.161 286.397 101.248C284.197 100.335 280.055 105.269 277.143 112.269C274.232 119.268 273.655 125.682 275.854 126.596C278.053 127.509 282.196 122.575 285.107 115.575Z" fill="#2E3641"/>
<path d="M311.131 134.88C326.303 134.88 338.603 122.591 338.603 107.432C338.603 92.2721 326.303 79.9829 311.131 79.9829C295.958 79.9829 283.658 92.2721 283.658 107.432C283.658 122.591 295.958 134.88 311.131 134.88Z" fill="#2E3641"/>
<path d="M307.128 143.933L298.782 143.972C292.673 137.963 293.577 133.139 298.712 129.031L307.058 128.993C303.21 133.726 302.185 138.639 307.128 143.933Z" fill="#2E3641"/>
<path d="M302.538 147.775C305.855 145.84 307.956 143.265 307.23 142.022C306.504 140.779 303.226 141.339 299.908 143.273C296.591 145.208 294.49 147.783 295.216 149.026C295.942 150.269 299.22 149.709 302.538 147.775Z" fill="#2E3641"/>
<path d="M322.168 143.933L313.822 143.972C307.713 137.963 308.617 133.139 313.752 129.031L322.098 128.993C318.25 133.726 317.225 138.639 322.168 143.933Z" fill="#2E3641"/>
<path d="M317.578 147.775C320.895 145.84 322.996 143.264 322.27 142.021C321.544 140.778 318.266 141.339 314.948 143.273C311.631 145.208 309.53 147.783 310.256 149.026C310.982 150.269 314.26 149.709 317.578 147.775Z" fill="#2E3641"/>
<path d="M310.403 109.867C315.589 109.867 319.792 105.667 319.792 100.486C319.792 95.3048 315.589 91.1047 310.403 91.1047C305.217 91.1047 301.014 95.3048 301.014 100.486C301.014 105.667 305.217 109.867 310.403 109.867Z" fill="white"/>
<path d="M310.456 108.126C312.185 108.126 313.586 106.726 313.586 104.999C313.586 103.272 312.185 101.872 310.456 101.872C308.728 101.872 307.327 103.272 307.327 104.999C307.327 106.726 308.728 108.126 310.456 108.126Z" fill="#3D4456"/>
<path d="M337.661 81.7817C339.833 71.8456 332.695 61.849 321.719 59.4536C310.742 57.0583 300.083 63.1711 297.911 73.1072C295.739 83.0432 303.023 86.6702 313.999 89.0657C324.976 91.4611 335.489 91.7177 337.661 81.7817Z" fill="#1A40D7"/>
<path d="M316.683 119.393C316.693 121.051 316.044 122.644 314.879 123.824C313.714 125.004 312.127 125.674 310.468 125.686C308.809 125.698 307.214 125.051 306.031 123.888C304.849 122.725 304.177 121.141 304.164 119.483L304.164 119.463L304.164 119.451C304.148 115.997 306.947 115.269 310.404 115.253C313.861 115.237 316.667 115.939 316.683 119.393Z" fill="white"/>
<path d="M400.719 110.071H353.122C352.428 110.072 351.74 109.936 351.099 109.671C350.458 109.406 349.875 109.018 349.384 108.528C348.893 108.038 348.503 107.456 348.238 106.815C347.972 106.175 347.835 105.488 347.835 104.795C347.835 104.101 347.972 103.415 348.238 102.774C348.503 102.134 348.893 101.552 349.384 101.062C349.875 100.572 350.458 100.183 351.099 99.9185C351.74 99.6537 352.428 99.5178 353.122 99.5186H400.719C402.119 99.5201 403.46 100.077 404.449 101.066C405.439 102.055 405.994 103.396 405.994 104.795C405.994 106.193 405.439 107.534 404.449 108.524C403.46 109.513 402.119 110.069 400.719 110.071Z" fill="#1A40D7"/>
<path d="M314.442 254.689C314.442 259.17 313.112 263.551 310.62 267.277C308.129 271.003 304.587 273.907 300.443 275.622C296.299 277.337 291.74 277.785 287.341 276.911C282.942 276.037 278.901 273.879 275.729 270.71C272.558 267.541 270.398 263.504 269.523 259.109C268.648 254.714 269.097 250.158 270.814 246.018C272.53 241.878 275.437 238.339 279.166 235.85C282.895 233.36 287.28 232.031 291.765 232.031C297.754 232.006 303.507 234.358 307.76 238.571C312.013 242.784 314.417 248.512 314.442 254.496C314.442 254.56 314.442 254.624 314.442 254.689Z" fill="white"/>
<path d="M291.765 278C288.7 278.002 285.664 277.4 282.832 276.229C280 275.058 277.427 273.341 275.259 271.177C273.091 269.012 271.371 266.442 270.198 263.612C269.025 260.783 268.421 257.751 268.421 254.689C268.421 251.627 269.025 248.594 270.198 245.765C271.371 242.936 273.091 240.366 275.259 238.201C277.427 236.036 280 234.319 282.832 233.149C285.664 231.978 288.7 231.376 291.765 231.378C291.798 231.378 291.833 231.377 291.867 231.377C298.011 231.379 303.904 233.812 308.258 238.144C312.611 242.476 315.07 248.355 315.096 254.493V254.689C315.089 260.869 312.628 266.794 308.255 271.164C303.881 275.535 297.95 277.993 291.765 278ZM291.863 232.684C291.83 232.684 291.8 232.684 291.767 232.684C287.411 232.684 283.153 233.974 279.531 236.391C275.909 238.809 273.086 242.245 271.418 246.266C269.751 250.287 269.314 254.711 270.164 258.98C271.013 263.249 273.111 267.17 276.19 270.247C279.27 273.325 283.195 275.421 287.467 276.27C291.739 277.12 296.167 276.684 300.192 275.019C304.216 273.353 307.656 270.533 310.076 266.914C312.496 263.295 313.788 259.041 313.788 254.689V254.499C313.756 248.707 311.433 243.163 307.326 239.076C303.218 234.989 297.66 232.691 291.863 232.684Z" fill="#2E3641"/>
<path d="M307.535 270.917V270.965C303.457 274.913 298.044 277.188 292.367 277.339C286.691 277.489 281.164 275.504 276.883 271.776C276.864 271.493 276.855 271.201 276.855 270.917C276.849 266.852 278.46 262.952 281.333 260.073C284.205 257.195 288.105 255.575 292.174 255.569C296.242 255.563 300.146 257.173 303.027 260.043C305.908 262.914 307.529 266.81 307.535 270.875L307.535 270.917Z" fill="#2E3641"/>
<path d="M292.581 272.271C295.478 272.271 297.825 269.926 297.825 267.032C297.825 264.138 295.478 261.792 292.581 261.792C289.685 261.792 287.337 264.138 287.337 267.032C287.337 269.926 289.685 272.271 292.581 272.271Z" fill="white"/>
<path d="M292.581 268.778C293.546 268.778 294.329 267.996 294.329 267.032C294.329 266.067 293.546 265.285 292.581 265.285C291.616 265.285 290.833 266.067 290.833 267.032C290.833 267.996 291.616 268.778 292.581 268.778Z" fill="#3D4456"/>
<path d="M277.309 256.656C276.07 251.113 280.03 245.511 286.154 244.145C292.279 242.779 298.248 246.165 299.487 251.709C300.725 257.252 296.667 259.297 290.543 260.663C284.418 262.029 278.548 262.2 277.309 256.656Z" fill="#1A40D7"/>
</g>
<defs>
<clipPath id="clip0_121_1980">
<rect width="406" height="278" fill="white"/>
</clipPath>
</defs>
</svg>
