<svg width="621" height="426" viewBox="0 0 621 426" fill="none" xmlns="http://www.w3.org/2000/svg">
  <g clip-path="url(#clip0_121_1672)">
  <path d="M485.273 372.578C511.228 352.809 523.625 319.589 515.864 287.899C515.671 287.112 515.468 286.326 515.253 285.543C510.108 266.732 497.379 248.854 478.827 242.843C463.249 237.797 446.246 241.678 429.995 239.671C398.093 235.731 373.36 209.919 355.957 182.893C338.554 155.867 325.18 125.615 302.055 103.288C263.938 66.4851 201.76 58.5614 154.5 82.5173C107.241 106.473 77.137 159.622 78.4209 212.59C79.7048 265.559 111.15 316.201 156.816 343.07C173.592 352.941 192.995 359.933 212.305 357.486C229.06 355.363 244.284 346.36 260.96 343.688C287.179 339.485 313.231 351.34 335.908 365.154C358.585 378.967 380.49 395.341 406.259 401.745C431.281 407.964 462.281 390.09 485.273 372.578Z" fill="#F2F2F2"/>
  <path d="M279.906 136.023H21.3356C15.943 136.029 10.7731 138.174 6.95999 141.988C3.14686 145.801 1.00188 150.971 0.995605 156.363V285.053C1.00187 290.446 3.14686 295.616 6.95999 299.429C10.7731 303.242 15.943 305.387 21.3356 305.393H279.906C285.299 305.389 290.47 303.244 294.283 299.431C298.097 295.617 300.241 290.446 300.246 285.053V156.363C300.241 150.97 298.097 145.799 294.283 141.986C290.47 138.172 285.299 136.028 279.906 136.023Z" fill="white"/>
  <path d="M279.907 306.396H21.3403C15.6825 306.389 10.2582 304.139 6.25751 300.138C2.25681 296.138 0.00640248 290.713 0 285.055V156.362C0.00639984 150.704 2.25681 145.279 6.25751 141.279C10.2582 137.278 15.6825 135.028 21.3403 135.021H279.907C285.565 135.028 290.989 137.278 294.99 141.279C298.99 145.279 301.241 150.704 301.247 156.362V285.055C301.241 290.713 298.99 296.138 294.99 300.138C290.989 304.139 285.565 306.389 279.907 306.396ZM21.3403 137.021C16.2128 137.027 11.2969 139.067 7.67114 142.692C4.0454 146.318 2.00588 151.234 2 156.362V285.055C2.00588 290.183 4.0454 295.099 7.67114 298.725C11.2969 302.35 16.2128 304.39 21.3403 304.396H279.907C285.034 304.39 289.95 302.35 293.576 298.725C297.202 295.099 299.241 290.183 299.247 285.055V156.362C299.241 151.234 297.202 146.318 293.576 142.692C289.95 139.067 285.034 137.027 279.907 137.021H21.3403Z" fill="#2E3641"/>
  <path d="M294.801 333.972H47.0122C44.8704 333.972 42.8163 333.122 41.3018 331.607C39.7873 330.093 38.9365 328.039 38.9365 325.897C38.9365 323.755 39.7873 321.701 41.3018 320.186C42.8163 318.672 44.8704 317.821 47.0122 317.821H294.801C296.943 317.821 298.997 318.672 300.511 320.186C302.026 321.701 302.876 323.755 302.876 325.897C302.876 328.039 302.026 330.093 300.511 331.607C298.997 333.122 296.943 333.972 294.801 333.972Z" fill="#1A40D7"/>
  <path d="M523.552 229.156H415.5C413.246 229.154 411.086 228.258 409.492 226.664C407.899 225.071 407.003 222.91 407 220.656V166.877C407.003 164.623 407.899 162.463 409.492 160.869C411.086 159.276 413.246 158.379 415.5 158.377H523.552C525.806 158.379 527.966 159.276 529.56 160.869C531.153 162.463 532.05 164.623 532.052 166.877V220.656C532.05 222.91 531.153 225.071 529.56 226.664C527.966 228.258 525.806 229.154 523.552 229.156Z" fill="white"/>
  <path d="M523.552 230.156H415.5C412.981 230.154 410.567 229.152 408.786 227.371C407.005 225.59 406.003 223.175 406 220.656V166.877C406.003 164.358 407.005 161.943 408.786 160.162C410.567 158.381 412.981 157.38 415.5 157.377H523.552C526.071 157.38 528.486 158.381 530.267 160.162C532.048 161.943 533.049 164.358 533.052 166.877V220.656C533.049 223.175 532.048 225.59 530.267 227.371C528.486 229.152 526.071 230.154 523.552 230.156ZM415.5 159.377C413.512 159.379 411.605 160.17 410.199 161.576C408.793 162.982 408.002 164.888 408 166.877V220.656C408.002 222.645 408.793 224.551 410.199 225.957C411.605 227.363 413.512 228.154 415.5 228.156H523.552C525.541 228.154 527.447 227.363 528.853 225.957C530.259 224.551 531.05 222.645 531.052 220.656V166.877C531.05 164.888 530.259 162.982 528.853 161.576C527.447 160.17 525.541 159.379 523.552 159.377H415.5Z" fill="#2E3641"/>
  <path d="M483.868 34.4843H29.5749C29.1024 34.4743 28.6526 34.2795 28.322 33.9418C27.9913 33.6041 27.8062 33.1503 27.8062 32.6777C27.8062 32.2051 27.9913 31.7513 28.322 31.4135C28.6526 31.0758 29.1024 30.8811 29.5749 30.8711H483.868C484.34 30.8811 484.79 31.0758 485.121 31.4135C485.451 31.7513 485.637 32.2051 485.637 32.6777C485.637 33.1503 485.451 33.6041 485.121 33.9418C484.79 34.2795 484.34 34.4743 483.868 34.4843Z" fill="#CACACA"/>
  <path d="M60.4996 21.6469C66.3469 21.6469 71.0871 16.8011 71.0871 10.8235C71.0871 4.84582 66.3469 0 60.4996 0C54.6523 0 49.9121 4.84582 49.9121 10.8235C49.9121 16.8011 54.6523 21.6469 60.4996 21.6469Z" fill="#3D4456"/>
  <path d="M97.0743 21.6469C102.922 21.6469 107.662 16.8011 107.662 10.8235C107.662 4.84582 102.922 0 97.0743 0C91.227 0 86.4868 4.84582 86.4868 10.8235C86.4868 16.8011 91.227 21.6469 97.0743 21.6469Z" fill="#3D4456"/>
  <path d="M133.65 21.6469C139.497 21.6469 144.237 16.8011 144.237 10.8235C144.237 4.84582 139.497 0 133.65 0C127.802 0 123.062 4.84582 123.062 10.8235C123.062 16.8011 127.802 21.6469 133.65 21.6469Z" fill="#3D4456"/>
  <path d="M461.847 2.68262H435.866C435.351 2.69281 434.86 2.90454 434.5 3.27235C434.139 3.64017 433.937 4.13474 433.937 4.64984C433.937 5.16494 434.139 5.65951 434.5 6.02733C434.86 6.39515 435.351 6.60688 435.866 6.61707H461.847C462.362 6.60688 462.852 6.39515 463.213 6.02733C463.573 5.65951 463.775 5.16494 463.775 4.64984C463.775 4.13474 463.573 3.64017 463.213 3.27235C462.852 2.90454 462.362 2.69281 461.847 2.68262Z" fill="#3D4456"/>
  <path d="M461.847 10.0671H435.866C435.351 10.0773 434.86 10.2891 434.5 10.6569C434.139 11.0247 433.937 11.5193 433.937 12.0344C433.937 12.5495 434.139 13.044 434.5 13.4118C434.86 13.7797 435.351 13.9914 435.866 14.0016H461.847C462.362 13.9914 462.852 13.7797 463.213 13.4118C463.573 13.044 463.775 12.5495 463.775 12.0344C463.775 11.5193 463.573 11.0247 463.213 10.6569C462.852 10.2891 462.362 10.0773 461.847 10.0671Z" fill="#3D4456"/>
  <path d="M461.847 17.4417H435.866C435.351 17.4518 434.86 17.6636 434.5 18.0314C434.139 18.3992 433.937 18.8938 433.937 19.4089C433.937 19.924 434.139 20.4186 434.5 20.7864C434.86 21.1542 435.351 21.3659 435.866 21.3761H461.847C462.362 21.3659 462.852 21.1542 463.213 20.7864C463.573 20.4186 463.775 19.924 463.775 19.4089C463.775 18.8938 463.573 18.3992 463.213 18.0314C462.852 17.6636 462.362 17.4518 461.847 17.4417Z" fill="#3D4456"/>
  <path d="M531.3 240.158C538.133 240.158 543.672 234.619 543.672 227.786C543.672 220.953 538.133 215.413 531.3 215.413C524.467 215.413 518.928 220.953 518.928 227.786C518.928 234.619 524.467 240.158 531.3 240.158Z" fill="#3D4456"/>
  <path d="M530.374 232.73C530.348 232.73 530.321 232.73 530.295 232.728C530.062 232.717 529.834 232.655 529.627 232.548C529.42 232.44 529.239 232.289 529.095 232.105L527.028 229.447C526.897 229.279 526.801 229.087 526.745 228.882C526.688 228.677 526.673 228.463 526.699 228.252C526.725 228.041 526.793 227.838 526.898 227.653C527.003 227.468 527.144 227.306 527.311 227.175L527.386 227.117C527.554 226.987 527.746 226.89 527.951 226.834C528.156 226.777 528.37 226.762 528.581 226.788C528.792 226.815 528.996 226.882 529.18 226.987C529.365 227.093 529.528 227.233 529.658 227.401C529.763 227.535 529.895 227.645 530.046 227.723C530.196 227.802 530.362 227.847 530.532 227.855C530.702 227.863 530.871 227.835 531.029 227.771C531.187 227.708 531.329 227.611 531.446 227.488L535.644 223.056C535.94 222.745 536.347 222.564 536.776 222.552C537.205 222.54 537.621 222.699 537.933 222.994L538.002 223.06C538.156 223.206 538.28 223.381 538.367 223.575C538.453 223.769 538.501 223.979 538.507 224.191C538.512 224.404 538.476 224.615 538.4 224.814C538.324 225.012 538.21 225.194 538.064 225.348L531.549 232.225C531.397 232.384 531.215 232.512 531.013 232.599C530.811 232.686 530.594 232.73 530.374 232.73Z" fill="white"/>
  <path d="M192.7 284.739C192.71 291.343 191.194 297.859 188.27 303.779C187.94 304.459 187.59 305.119 187.22 305.779H112.05C111.68 305.119 111.33 304.459 111 303.779C108.13 297.96 106.612 291.568 106.559 285.08C106.505 278.592 107.919 272.176 110.693 266.311C113.467 260.446 117.531 255.283 122.58 251.209C127.629 247.134 133.534 244.253 139.853 242.781C146.172 241.308 152.741 241.282 159.072 242.705C165.402 244.127 171.329 246.962 176.41 250.996C181.492 255.03 185.596 260.161 188.417 266.003C191.237 271.846 192.701 278.251 192.7 284.739Z" fill="#2E3641"/>
  <path d="M150.726 288.551C158.855 288.551 165.445 281.961 165.445 273.832C165.445 265.702 158.855 259.112 150.726 259.112C142.596 259.112 136.006 265.702 136.006 273.832C136.006 281.961 142.596 288.551 150.726 288.551Z" fill="white"/>
  <path d="M150.726 278.738C153.435 278.738 155.632 276.541 155.632 273.831C155.632 271.122 153.435 268.925 150.726 268.925C148.016 268.925 145.819 271.122 145.819 273.831C145.819 276.541 148.016 278.738 150.726 278.738Z" fill="#3D4456"/>
  <path d="M107.859 244.683C104.381 229.109 115.498 213.373 132.687 209.534C149.877 205.696 166.632 215.21 170.109 230.783C173.587 246.357 162.194 252.101 145.004 255.939C127.814 259.778 111.336 260.257 107.859 244.683Z" fill="#1A40D7"/>
  <path d="M208.621 321.853C210.915 319.024 205.47 310.807 196.459 303.5C187.448 296.193 178.284 292.562 175.99 295.391C173.696 298.22 179.141 306.436 188.151 313.744C197.162 321.051 206.327 324.682 208.621 321.853Z" fill="#2E3641"/>
  <path d="M119.621 284.853C121.915 282.024 116.47 273.807 107.459 266.5C98.448 259.192 89.2836 255.562 86.9896 258.391C84.6956 261.219 90.1406 269.436 99.1514 276.744C108.162 284.051 117.327 287.682 119.621 284.853Z" fill="#2E3641"/>
  <path d="M519.56 176.751C530.793 173.85 539.161 168.639 538.25 165.113C537.339 161.587 527.495 161.08 516.262 163.981C505.029 166.883 496.662 172.093 497.572 175.62C498.483 179.146 508.328 179.653 519.56 176.751Z" fill="#2E3641"/>
  <path d="M436.001 176.897C440.453 166.184 441.336 156.366 437.972 154.969C434.609 153.571 428.274 161.123 423.822 171.836C419.37 182.549 418.487 192.367 421.85 193.764C425.214 195.162 431.549 187.61 436.001 176.897Z" fill="#2E3641"/>
  <path d="M475.797 206.445C499 206.445 517.81 187.635 517.81 164.432C517.81 141.23 499 122.42 475.797 122.42C452.595 122.42 433.785 141.23 433.785 164.432C433.785 187.635 452.595 206.445 475.797 206.445Z" fill="#2E3641"/>
  <path d="M469.676 220.301L456.912 220.36C447.57 211.163 448.952 203.781 456.806 197.493L469.569 197.434C463.685 204.679 462.117 212.199 469.676 220.301Z" fill="#2E3641"/>
  <path d="M462.657 226.181C467.73 223.22 470.943 219.278 469.833 217.375C468.722 215.473 463.709 216.33 458.636 219.291C453.563 222.252 450.35 226.194 451.46 228.097C452.57 229.999 457.583 229.141 462.657 226.181Z" fill="#2E3641"/>
  <path d="M492.676 220.301L479.912 220.36C470.57 211.163 471.952 203.781 479.806 197.493L492.569 197.434C486.685 204.679 485.117 212.199 492.676 220.301Z" fill="#2E3641"/>
  <path d="M485.657 226.181C490.73 223.22 493.943 219.278 492.833 217.375C491.722 215.473 486.709 216.33 481.636 219.291C476.563 222.252 473.35 226.194 474.46 228.097C475.57 229.999 480.583 229.141 485.657 226.181Z" fill="#2E3641"/>
  <path d="M474.684 168.16C482.614 168.16 489.043 161.732 489.043 153.801C489.043 145.871 482.614 139.443 474.684 139.443C466.754 139.443 460.326 145.871 460.326 153.801C460.326 161.732 466.754 168.16 474.684 168.16Z" fill="white"/>
  <path d="M474.766 165.495C477.409 165.495 479.552 163.352 479.552 160.709C479.552 158.065 477.409 155.922 474.766 155.922C472.122 155.922 469.979 158.065 469.979 160.709C469.979 163.352 472.122 165.495 474.766 165.495Z" fill="#3D4456"/>
  <path d="M516.369 125.173C519.69 109.965 508.775 94.6649 491.989 90.9985C475.203 87.3322 458.903 96.6885 455.581 111.896C452.259 127.104 463.399 132.656 480.185 136.322C496.971 139.988 513.047 140.381 516.369 125.173Z" fill="#1A40D7"/>
  <path d="M484.287 182.74C484.303 185.278 483.311 187.717 481.529 189.523C479.747 191.329 477.321 192.354 474.784 192.372C472.247 192.391 469.807 191.401 467.999 189.621C466.191 187.841 465.164 185.416 465.143 182.879L465.143 182.848L465.143 182.829C465.118 177.543 469.399 176.428 474.685 176.403C479.972 176.379 484.263 177.454 484.287 182.74Z" fill="white"/>
  <path d="M612.801 168.472H540.012C538.951 168.474 537.9 168.266 536.919 167.86C535.938 167.455 535.047 166.86 534.296 166.11C533.545 165.36 532.95 164.47 532.543 163.489C532.137 162.509 531.928 161.458 531.928 160.397C531.928 159.335 532.137 158.285 532.543 157.304C532.95 156.324 533.545 155.433 534.296 154.683C535.047 153.933 535.938 153.339 536.919 152.933C537.9 152.528 538.951 152.32 540.012 152.321H612.801C614.941 152.323 616.993 153.175 618.506 154.69C620.018 156.204 620.868 158.256 620.868 160.397C620.868 162.537 620.018 164.59 618.506 166.104C616.993 167.618 614.941 168.47 612.801 168.472Z" fill="#1A40D7"/>
  <path d="M480.861 389.821C480.861 396.68 478.827 403.385 475.017 409.088C471.206 414.791 465.79 419.236 459.453 421.861C453.116 424.486 446.143 425.173 439.416 423.834C432.689 422.496 426.51 419.193 421.66 414.343C416.81 409.493 413.507 403.314 412.169 396.587C410.831 389.86 411.518 382.887 414.142 376.55C416.767 370.213 421.212 364.797 426.915 360.986C432.618 357.176 439.323 355.142 446.182 355.142C455.34 355.103 464.139 358.703 470.643 365.152C477.146 371.6 480.822 380.368 480.861 389.526C480.862 389.624 480.862 389.723 480.861 389.821Z" fill="white"/>
  <path d="M446.182 425.501C441.495 425.504 436.853 424.582 432.522 422.79C428.191 420.999 424.256 418.371 420.94 415.057C417.625 411.744 414.995 407.81 413.201 403.48C411.407 399.15 410.483 394.509 410.483 389.822C410.483 385.135 411.407 380.493 413.201 376.163C414.995 371.833 417.625 367.899 420.94 364.586C424.256 361.272 428.191 358.645 432.522 356.853C436.853 355.061 441.495 354.14 446.182 354.142C446.234 354.142 446.286 354.142 446.338 354.142C455.734 354.144 464.746 357.868 471.404 364.498C478.061 371.129 481.821 380.127 481.861 389.522V389.821C481.85 399.281 478.088 408.35 471.399 415.039C464.71 421.728 455.641 425.49 446.182 425.501ZM446.332 356.142C446.282 356.142 446.235 356.142 446.186 356.142C439.525 356.141 433.013 358.116 427.474 361.816C421.934 365.516 417.617 370.776 415.067 376.93C412.517 383.084 411.85 389.856 413.149 396.389C414.448 402.923 417.655 408.924 422.365 413.635C427.075 418.346 433.076 421.554 439.609 422.854C446.143 424.153 452.915 423.487 459.069 420.938C465.224 418.389 470.484 414.072 474.185 408.533C477.886 402.994 479.861 396.483 479.861 389.821V389.531C479.813 380.667 476.26 372.181 469.979 365.925C463.697 359.67 455.197 356.153 446.332 356.142Z" fill="#2E3641"/>
  <path d="M470.299 414.66V414.733C464.063 420.777 455.785 424.258 447.103 424.489C438.422 424.719 429.971 421.68 423.424 415.975C423.395 415.542 423.38 415.094 423.38 414.66C423.372 408.439 425.835 402.468 430.228 398.063C434.622 393.657 440.585 391.177 446.807 391.169C453.029 391.16 458.999 393.623 463.405 398.017C467.81 402.41 470.29 408.374 470.299 414.595L470.299 414.66Z" fill="#2E3641"/>
  <path d="M447.43 416.733C451.859 416.733 455.45 413.142 455.45 408.713C455.45 404.284 451.859 400.694 447.43 400.694C443.002 400.694 439.411 404.284 439.411 408.713C439.411 413.142 443.002 416.733 447.43 416.733Z" fill="white"/>
  <path d="M447.43 411.387C448.907 411.387 450.104 410.19 450.104 408.713C450.104 407.237 448.907 406.04 447.43 406.04C445.954 406.04 444.757 407.237 444.757 408.713C444.757 410.19 445.954 411.387 447.43 411.387Z" fill="#3D4456"/>
  <path d="M424.075 392.833C422.181 384.348 428.237 375.774 437.603 373.683C446.968 371.592 456.096 376.775 457.991 385.26C459.885 393.745 453.678 396.874 444.313 398.965C434.948 401.056 425.97 401.318 424.075 392.833Z" fill="#1A40D7"/>
  </g>
  <defs>
  <clipPath id="clip0_121_1672">
  <rect width="620.876" height="425.501" fill="white"/>
  </clipPath>
  </defs>
  </svg>
  