<svg xmlns="http://www.w3.org/2000/svg" data-name="Layer 1" width="1008.92039" height="607.44997" viewBox="0 0 1008.92039 607.44997" xmlns:xlink="http://www.w3.org/1999/xlink"><path d="M1104.46,620.305a15.34,15.34,0,0,1-15.25952,15.42H417.8a15.34,15.34,0,0,1-15.26-15.41955V161.695a15.34,15.34,0,0,1,15.25958-15.42H1089.2a15.34,15.34,0,0,1,15.26,15.41957h0V620.305Z" transform="translate(-95.53981 -146.27502)" fill="#e6e6e6"/><path d="M1096.54006,612.795a14.91,14.91,0,0,1-14.91,14.91H425.83a14.91,14.91,0,0,1-14.91-14.91V169.415a14.91,14.91,0,0,1,14.91-14.91h655.83a14.91,14.91,0,0,1,14.88,14.91Z" transform="translate(-95.53981 -146.27502)" fill="#fff"/><path id="a90d98f2-fe2a-41dc-85de-0aa221261a3e-1388" data-name="b9c54412-061c-4155-b289-fb4c23e4a64e" d="M445.97,173.755h616.22a8.85,8.85,0,0,1,8.85,8.85v415.28a8.85,8.85,0,0,1-8.85,8.85H445.97a8.85,8.85,0,0,1-8.85-8.85h0V182.605a8.85,8.85,0,0,1,8.85-8.85Z" transform="translate(-95.53981 -146.27502)" fill="#e6e6e6"/><path d="M453.77,183.715h599.95a8.85,8.85,0,0,1,8.85,8.85v393.12a8.85,8.85,0,0,1-8.85,8.85H453.77a8.85,8.85,0,0,1-8.85-8.85h0V192.565a8.85,8.85,0,0,1,8.85-8.85Z" transform="translate(-95.53981 -146.27502)" fill="#fff"/><path d="M949.46,675.305a15.34,15.34,0,0,1-15.25958,15.42H262.8a15.34,15.34,0,0,1-15.26-15.41961h0V216.695a15.34,15.34,0,0,1,15.25957-15.42H934.2a15.34,15.34,0,0,1,15.26,15.41957h0V675.305Z" transform="translate(-95.53981 -146.27502)" fill="#e6e6e6"/><path d="M941.54,667.795a14.91,14.91,0,0,1-14.91,14.91H270.83a14.91,14.91,0,0,1-14.91-14.91V224.415a14.91,14.91,0,0,1,14.91-14.91H926.66a14.91,14.91,0,0,1,14.88,14.91Z" transform="translate(-95.53981 -146.27502)" fill="#fff"/><path id="b54624cf-b287-45f0-8f58-93aafc1fcbba-1389" data-name="a7242049-80b4-49e1-bd08-67354734c824" d="M290.97,228.755H907.19a8.85,8.85,0,0,1,8.85,8.85v415.28a8.85,8.85,0,0,1-8.85,8.85H290.97a8.85,8.85,0,0,1-8.85-8.85h0V237.605a8.85,8.85,0,0,1,8.85-8.85h0Z" transform="translate(-95.53981 -146.27502)" fill="#e6e6e6"/><path d="M298.77,238.715H898.72a8.85,8.85,0,0,1,8.85,8.85v393.12a8.85,8.85,0,0,1-8.85,8.85H298.77a8.85,8.85,0,0,1-8.85-8.85h0V247.565a8.85,8.85,0,0,1,8.85-8.85Z" transform="translate(-95.53981 -146.27502)" fill="#fff"/><path d="M797.46,738.305a15.34,15.34,0,0,1-15.25958,15.42H110.8a15.34,15.34,0,0,1-15.26-15.41955V279.695a15.34,15.34,0,0,1,15.25957-15.42H782.2a15.34,15.34,0,0,1,15.26,15.41959h0V738.305Z" transform="translate(-95.53981 -146.27502)" fill="#e6e6e6"/><path d="M789.54,730.795a14.91,14.91,0,0,1-14.91,14.91H118.83a14.91,14.91,0,0,1-14.91-14.91V287.415a14.91,14.91,0,0,1,14.91-14.91H774.66a14.91,14.91,0,0,1,14.88,14.91Z" transform="translate(-95.53981 -146.27502)" fill="#fff"/><path id="a665a07e-790f-4a9c-be99-8c13ca89238c-1390" data-name="b7a050eb-0cb2-44a8-b642-35d340850eff" d="M138.97,291.755H755.19a8.85,8.85,0,0,1,8.85,8.85v415.28a8.85,8.85,0,0,1-8.85,8.85H138.97a8.85,8.85,0,0,1-8.85-8.85V300.605a8.85,8.85,0,0,1,8.85-8.85h0Z" transform="translate(-95.53981 -146.27502)" fill="#e6e6e6"/><path d="M146.77,301.715H746.72a8.85,8.85,0,0,1,8.85,8.85v393.12a8.85,8.85,0,0,1-8.85,8.85H146.77a8.85,8.85,0,0,1-8.85-8.85V310.565A8.85,8.85,0,0,1,146.77,301.715Z" transform="translate(-95.53981 -146.27502)" fill="#fff"/><path d="M590.14174,386.874v272a6.00477,6.00477,0,0,1-6,6h-285a6.00476,6.00476,0,0,1-6-6v-304a6.00475,6.00475,0,0,1,6-6h249Z" transform="translate(-95.53981 -146.27502)" fill="#673ab7"/><path id="b3cdc3b1-5d0a-4cee-b54c-a38ee088c012-1391" data-name="Path 40" d="M343.57782,415.072a3.755,3.755,0,0,0,0,7.50892h99.00454a3.755,3.755,0,1,0,.12329-7.50892q-.06165-.001-.12329,0Z" transform="translate(-95.53981 -146.27502)" fill="#fff"/><path id="b79c0997-055d-434d-8704-cfc1ccad2281-1392" data-name="Path 40" d="M343.57782,450.291a3.755,3.755,0,0,0,0,7.50893H539.58236a3.755,3.755,0,0,0,.12329-7.50893q-.06165-.001-.12329,0Z" transform="translate(-95.53981 -146.27502)" fill="#fff"/><path id="ed7d1f14-d1d4-40af-b9ad-7b5b5ece23df-1393" data-name="Path 40" d="M343.57782,485.51005a3.755,3.755,0,0,0,0,7.50893H539.58236a3.755,3.755,0,1,0,.12329-7.50893q-.06165-.001-.12329,0Z" transform="translate(-95.53981 -146.27502)" fill="#fff"/><path id="ba3b747a-a6b2-4f39-a169-6ef4c21cd2ce-1394" data-name="Path 40" d="M343.57782,520.72906a3.755,3.755,0,0,0,0,7.50892H539.58236a3.755,3.755,0,1,0,.12329-7.50892q-.06165-.001-.12329,0Z" transform="translate(-95.53981 -146.27502)" fill="#fff"/><path id="b6e4b743-2497-479e-800a-91c8b21b3df9-1395" data-name="Path 40" d="M343.57782,555.94807a3.755,3.755,0,0,0,0,7.50892H539.58236a3.755,3.755,0,1,0,.12329-7.50892q-.06165-.00105-.12329,0Z" transform="translate(-95.53981 -146.27502)" fill="#fff"/><path id="f91f499d-e7c9-446d-84c9-bf78465468f6-1396" data-name="Path 40" d="M343.57782,591.16708a3.755,3.755,0,0,0,0,7.50892H539.58236a3.755,3.755,0,1,0,.12329-7.50892q-.06165-.00105-.12329,0Z" transform="translate(-95.53981 -146.27502)" fill="#fff"/><path d="M590.14174,386.874h-38a4,4,0,0,1-4-4v-34h0Z" transform="translate(-95.53981 -146.27502)" fill="#673ab7"/><path d="M590.14174,386.874h-38a4,4,0,0,1-4-4v-34h0Z" transform="translate(-95.53981 -146.27502)" opacity="0.2"/></svg>