<svg width="1009" height="608" viewBox="0 0 1009 608" fill="none" xmlns="http://www.w3.org/2000/svg">
  <g clip-path="url(#clip0_172_1841)">
  <path d="M1008.92 474.03C1008.94 478.098 1007.35 482.009 1004.48 484.9C1001.62 487.792 997.729 489.429 993.661 489.45H322.26C318.192 489.429 314.299 487.792 311.437 484.901C308.575 482.009 306.979 478.099 307 474.03V15.42C306.979 11.3516 308.575 7.44145 311.436 4.54964C314.298 1.65783 318.191 0.0212731 322.26 0H993.66C997.729 0.0211623 1001.62 1.65762 1004.48 4.54935C1007.35 7.44108 1008.94 11.3512 1008.92 15.4196V474.03Z" fill="#E6E6E6"/>
  <path d="M1001 466.52C1001 470.474 999.429 474.267 996.633 477.063C993.837 479.859 990.044 481.43 986.09 481.43H330.29C326.336 481.43 322.543 479.859 319.747 477.063C316.951 474.267 315.38 470.474 315.38 466.52V23.14C315.38 19.1856 316.951 15.3932 319.747 12.597C322.543 9.80085 326.336 8.22998 330.29 8.22998H986.12C990.069 8.23793 993.854 9.8123 996.644 12.6076C999.433 15.4029 1001 19.1908 1001 23.14V466.52Z" fill="white"/>
  <path d="M350.43 27.48H966.65C968.997 27.48 971.248 28.4124 972.908 30.0721C974.568 31.7318 975.5 33.9828 975.5 36.33V451.61C975.5 453.957 974.568 456.208 972.908 457.868C971.248 459.528 968.997 460.46 966.65 460.46H350.43C349.268 460.46 348.117 460.231 347.043 459.786C345.97 459.342 344.994 458.69 344.172 457.868C343.35 457.046 342.699 456.07 342.254 454.997C341.809 453.923 341.58 452.772 341.58 451.61V36.33C341.58 35.1678 341.809 34.017 342.254 32.9432C342.699 31.8695 343.35 30.8939 344.172 30.0721C344.994 29.2503 345.97 28.5984 347.043 28.1536C348.117 27.7089 349.268 27.48 350.43 27.48Z" fill="#E6E6E6"/>
  <path d="M358.23 37.4399H958.18C960.527 37.4399 962.778 38.3723 964.438 40.032C966.098 41.6917 967.03 43.9428 967.03 46.2899V439.41C967.03 441.757 966.098 444.008 964.438 445.668C962.778 447.328 960.527 448.26 958.18 448.26H358.23C355.883 448.26 353.632 447.328 351.972 445.668C350.313 444.008 349.38 441.757 349.38 439.41V46.2899C349.38 43.9428 350.313 41.6917 351.972 40.032C353.632 38.3723 355.883 37.4399 358.23 37.4399Z" fill="white"/>
  <path d="M853.92 529.03C853.941 533.098 852.346 537.009 849.484 539.9C846.622 542.792 842.729 544.429 838.661 544.45H167.26C165.246 544.44 163.253 544.032 161.396 543.252C159.539 542.471 157.854 541.333 156.437 539.901C155.02 538.469 153.899 536.772 153.137 534.907C152.376 533.042 151.99 531.045 152 529.03V70.42C151.979 66.3516 153.575 62.4415 156.436 59.5497C159.298 56.6578 163.191 55.0213 167.26 55H838.66C842.729 55.0212 846.622 56.6576 849.484 59.5493C852.346 62.4411 853.941 66.3512 853.92 70.4196V529.03Z" fill="#E6E6E6"/>
  <path d="M846 521.52C846 525.474 844.429 529.267 841.633 532.063C838.837 534.859 835.045 536.43 831.09 536.43H175.29C171.336 536.43 167.543 534.859 164.747 532.063C161.951 529.267 160.38 525.474 160.38 521.52V78.14C160.38 74.1856 161.951 70.3932 164.747 67.597C167.543 64.8008 171.336 63.23 175.29 63.23H831.12C835.069 63.2379 838.854 64.8123 841.644 67.6076C844.433 70.4029 846 74.1908 846 78.14V521.52Z" fill="white"/>
  <path d="M195.43 82.48H811.65C813.997 82.48 816.248 83.4124 817.908 85.0721C819.568 86.7318 820.5 88.9828 820.5 91.33V506.61C820.5 508.957 819.568 511.208 817.908 512.868C816.248 514.528 813.997 515.46 811.65 515.46H195.43C193.083 515.46 190.832 514.528 189.172 512.868C187.512 511.208 186.58 508.957 186.58 506.61V91.33C186.58 88.9828 187.512 86.7318 189.172 85.0721C190.832 83.4124 193.083 82.48 195.43 82.48Z" fill="#E6E6E6"/>
  <path d="M203.23 92.4399H803.18C805.527 92.4399 807.778 93.3723 809.438 95.032C811.098 96.6917 812.03 98.9428 812.03 101.29V494.41C812.03 496.757 811.098 499.008 809.438 500.668C807.778 502.328 805.527 503.26 803.18 503.26H203.23C200.883 503.26 198.632 502.328 196.972 500.668C195.313 499.008 194.38 496.757 194.38 494.41V101.29C194.38 98.9428 195.313 96.6917 196.972 95.032C198.632 93.3723 200.883 92.4399 203.23 92.4399Z" fill="white"/>
  <path d="M701.92 592.03C701.941 596.098 700.346 600.009 697.484 602.9C694.622 605.792 690.729 607.429 686.661 607.45H15.2602C11.1919 607.429 7.29852 605.792 4.43672 602.901C1.57491 600.009 -0.020943 596.099 0.000209995 592.03V133.42C-0.0210629 129.352 1.57468 125.441 4.43641 122.55C7.29813 119.658 11.1914 118.021 15.2598 118H686.66C688.675 118.01 690.667 118.418 692.524 119.198C694.382 119.979 696.067 121.118 697.484 122.549C698.901 123.981 700.022 125.678 700.783 127.543C701.544 129.408 701.931 131.405 701.92 133.42V592.03Z" fill="#E6E6E6"/>
  <path d="M694 584.52C694 588.474 692.429 592.267 689.633 595.063C686.837 597.859 683.045 599.43 679.09 599.43H23.2901C19.3358 599.43 15.5433 597.859 12.7472 595.063C9.951 592.267 8.38013 588.474 8.38013 584.52V141.14C8.38013 137.186 9.951 133.393 12.7472 130.597C15.5433 127.801 19.3358 126.23 23.2901 126.23H679.12C683.069 126.238 686.854 127.812 689.644 130.608C692.433 133.403 694 137.191 694 141.14V584.52Z" fill="white"/>
  <path d="M43.4301 145.48H659.65C661.997 145.48 664.248 146.412 665.908 148.072C667.568 149.732 668.5 151.983 668.5 154.33V569.61C668.5 571.957 667.568 574.208 665.908 575.868C664.248 577.528 661.997 578.46 659.65 578.46H43.4301C41.0829 578.46 38.8319 577.528 37.1722 575.868C35.5125 574.208 34.5801 571.957 34.5801 569.61V154.33C34.5801 151.983 35.5125 149.732 37.1722 148.072C38.8319 146.412 41.0829 145.48 43.4301 145.48Z" fill="#E6E6E6"/>
  <path d="M51.2301 155.44H651.18C653.527 155.44 655.778 156.372 657.438 158.032C659.098 159.692 660.03 161.943 660.03 164.29V557.41C660.03 559.757 659.098 562.008 657.438 563.668C655.778 565.328 653.527 566.26 651.18 566.26H51.2301C48.883 566.26 46.6319 565.328 44.9722 563.668C43.3125 562.008 42.3801 559.757 42.3801 557.41V164.29C42.3801 161.943 43.3125 159.692 44.9722 158.032C46.6319 156.372 48.883 155.44 51.2301 155.44Z" fill="white"/>
  <path d="M494.602 240.599V512.599C494.601 514.19 493.968 515.715 492.843 516.84C491.718 517.965 490.193 518.598 488.602 518.599H203.602C202.011 518.598 200.486 517.965 199.361 516.84C198.236 515.715 197.603 514.19 197.602 512.599V208.599C197.603 207.008 198.236 205.483 199.361 204.358C200.486 203.233 202.011 202.6 203.602 202.599H452.602L494.602 240.599Z" fill="#1A40D7"/>
  <path d="M248.038 268.797C247.053 268.814 246.115 269.216 245.424 269.919C244.734 270.621 244.347 271.566 244.347 272.551C244.347 273.536 244.734 274.482 245.424 275.184C246.115 275.886 247.053 276.289 248.038 276.306H347.043C347.537 276.316 348.028 276.229 348.489 276.048C348.949 275.868 349.37 275.599 349.726 275.256C350.082 274.913 350.366 274.502 350.564 274.049C350.761 273.596 350.867 273.108 350.875 272.613C350.883 272.119 350.793 271.628 350.611 271.168C350.429 270.708 350.158 270.289 349.813 269.935C349.468 269.58 349.057 269.297 348.603 269.102C348.149 268.907 347.66 268.803 347.166 268.797C347.125 268.796 347.084 268.796 347.043 268.797H248.038Z" fill="white"/>
  <path d="M248.038 304.016C247.053 304.033 246.114 304.435 245.424 305.138C244.733 305.84 244.346 306.785 244.346 307.77C244.346 308.755 244.733 309.701 245.424 310.403C246.114 311.105 247.053 311.508 248.038 311.525H444.043C445.036 311.537 445.994 311.156 446.706 310.463C447.418 309.771 447.828 308.825 447.844 307.832C447.86 306.839 447.482 305.879 446.793 305.164C446.104 304.449 445.159 304.036 444.166 304.016C444.125 304.015 444.084 304.015 444.043 304.016H248.038Z" fill="white"/>
  <path d="M248.038 339.235C247.053 339.252 246.114 339.655 245.424 340.357C244.733 341.059 244.346 342.005 244.346 342.99C244.346 343.975 244.733 344.92 245.424 345.622C246.114 346.325 247.053 346.727 248.038 346.744H444.043C444.537 346.754 445.028 346.666 445.488 346.486C445.949 346.306 446.369 346.036 446.725 345.693C447.081 345.35 447.366 344.94 447.563 344.487C447.76 344.034 447.865 343.546 447.874 343.051C447.882 342.557 447.792 342.066 447.61 341.607C447.428 341.147 447.157 340.728 446.812 340.373C446.468 340.019 446.057 339.736 445.603 339.54C445.148 339.345 444.66 339.241 444.166 339.235C444.125 339.234 444.084 339.234 444.043 339.235H248.038Z" fill="white"/>
  <path d="M248.038 374.454C247.053 374.471 246.115 374.874 245.424 375.576C244.734 376.278 244.347 377.224 244.347 378.209C244.347 379.193 244.734 380.139 245.424 380.841C246.115 381.543 247.053 381.946 248.038 381.963H444.043C444.537 381.973 445.028 381.886 445.489 381.706C445.949 381.525 446.37 381.256 446.726 380.913C447.082 380.57 447.367 380.16 447.564 379.706C447.761 379.253 447.867 378.765 447.875 378.27C447.883 377.776 447.793 377.285 447.611 376.825C447.429 376.366 447.158 375.946 446.813 375.592C446.468 375.237 446.057 374.954 445.603 374.759C445.149 374.564 444.66 374.46 444.166 374.454C444.125 374.453 444.084 374.453 444.043 374.454H248.038Z" fill="white"/>
  <path d="M248.038 409.673C247.053 409.69 246.115 410.092 245.424 410.795C244.734 411.497 244.347 412.442 244.347 413.427C244.347 414.412 244.734 415.358 245.424 416.06C246.115 416.762 247.053 417.165 248.038 417.182H444.043C444.537 417.192 445.028 417.105 445.489 416.924C445.949 416.744 446.37 416.475 446.726 416.132C447.082 415.788 447.367 415.378 447.564 414.925C447.761 414.472 447.867 413.984 447.875 413.489C447.883 412.995 447.793 412.504 447.611 412.044C447.429 411.584 447.158 411.165 446.813 410.811C446.468 410.456 446.057 410.173 445.603 409.978C445.149 409.783 444.66 409.679 444.166 409.673C444.125 409.672 444.084 409.672 444.043 409.673H248.038Z" fill="white"/>
  <path d="M248.038 444.892C247.053 444.909 246.115 445.312 245.424 446.014C244.734 446.716 244.347 447.662 244.347 448.647C244.347 449.632 244.734 450.577 245.424 451.279C246.115 451.981 247.053 452.384 248.038 452.401H444.043C444.537 452.411 445.028 452.324 445.489 452.144C445.949 451.963 446.37 451.694 446.726 451.351C447.082 451.008 447.367 450.598 447.564 450.144C447.761 449.691 447.867 449.203 447.875 448.709C447.883 448.214 447.793 447.723 447.611 447.263C447.429 446.804 447.158 446.384 446.813 446.03C446.468 445.675 446.057 445.392 445.603 445.197C445.149 445.002 444.66 444.898 444.166 444.892C444.125 444.891 444.084 444.891 444.043 444.892H248.038Z" fill="white"/>
  <path d="M494.602 240.599H456.602C455.541 240.599 454.524 240.177 453.774 239.427C453.023 238.677 452.602 237.66 452.602 236.599V202.599L494.602 240.599Z" fill="#3E444A"/>
  </g>
  <defs>
  <clipPath id="clip0_172_1841">
  <rect width="1008.92" height="607.45" fill="white"/>
  </clipPath>
  </defs>
  </svg>
  