<svg xmlns="http://www.w3.org/2000/svg" data-name="Layer 1" width="641.9999" height="608.42057" viewBox="0 0 641.9999 608.42057" xmlns:xlink="http://www.w3.org/1999/xlink"><path d="M511.00005,261.78971a115.853,115.853,0,0,1-49.68994,95.19,114.44983,114.44983,0,0,1-13.55029,8.15c-1.55957.8-3.12989,1.56-4.7295,2.28-1.44043.66-2.89013,1.28-4.36035,1.87a116.42052,116.42052,0,0,1-57.56982,7.68q-5.06984-.6-10.01026-1.65c-.13964-.03-.29-.06-.42968-.09a113.3187,113.3187,0,0,1-20.15039-6.27,116.01241,116.01241,0,1,1,160.49023-107.16Z" transform="translate(-279.00005 -145.78971)" fill="#f1f1f1"/><path d="M416.35991,240.13969c-.10009-.12-.21-.23-.31982-.34a33.4444,33.4444,0,0,0-47.04-.48c-.06982.06-.12988.12-.18994.18-.08008.07-.1499.13995-.22022.21a33.42692,33.42692,0,0,0-9.81982,23.68v21a4.50677,4.50677,0,0,0,4.5,4.5h58a4.50677,4.50677,0,0,0,4.5-4.5v-21A33.34842,33.34842,0,0,0,416.35991,240.13969Z" transform="translate(-279.00005 -145.78971)" fill="#2f2e41"/><circle cx="114.61417" cy="118.33089" r="24.56103" fill="#ffb7b7"/><path d="M419.43023,262.0297l-2.89991-20.26a2.537,2.537,0,0,0-.89013-1.59,2.62681,2.62681,0,0,0-.53028-.33c-14.85009-6.95-29.90966-6.95-44.75976-.02a2.4484,2.4484,0,0,0-.5503.35c-.05957.05-.11962.11-.17968.17a2.53154,2.53154,0,0,0-.7002,1.51l-1.93994,20.29a2.50543,2.50543,0,0,0,.64014,1.92,2.47719,2.47719,0,0,0,1.43994.78,1.83844,1.83844,0,0,0,.41015.04h4.91993a2.52263,2.52263,0,0,0,2.27-1.44l2.12988-4.56a1.49369,1.49369,0,0,1,2.83984.45l.41992,3.36a2.51167,2.51167,0,0,0,2.48047,2.19H416.96a2.40424,2.40424,0,0,0,1.21-.31995,2.53246,2.53246,0,0,0,.68018-.54A2.50641,2.50641,0,0,0,419.43023,262.0297Z" transform="translate(-279.00005 -145.78971)" fill="#2f2e41"/><path d="M454.35015,333.67973l6.96,23.3a114.44983,114.44983,0,0,1-13.55029,8.15c-1.55957.8-3.12989,1.56-4.7295,2.28l-7.21045-30.91-2.7998-11.99006,18-2Z" transform="translate(-279.00005 -145.78971)" fill="#ffb7b7"/><path d="M371.52007,329.80973l-.6001,31.48-.25976,13.93a113.3187,113.3187,0,0,1-20.15039-6.27L352.9,339.12974l.6001-7.52Z" transform="translate(-279.00005 -145.78971)" fill="#ffb7b7"/><path d="M454.35015,333.67973l-18.08008,2.71.22021,2.97,2.17969,29.92a116.42052,116.42052,0,0,1-57.56982,7.68q-5.06984-.6-10.01026-1.65c1.48-6.22,2.76026-11.82,1.18018-12.92a11.97931,11.97931,0,0,1-1.3501-1.1c-7.37012-7.03-4.6499-22.9-4.6499-22.9L352.9,339.12974l-4.62988.25995s2-32,11-32h11l53-5s15-5,19,2c2.1001,3.67,5.83984,11.45,8.93018,18.03,2.7998,5.98,5.06982,10.97,5.06982,10.97Z" transform="translate(-279.00005 -145.78971)" fill="#2f2e41"/><path d="M920.99316,263.06744a115.8475,115.8475,0,0,1-48.88325,93.35228c-.25976.18-.52978.37-.7998.56-.27979.2-.56983.4-.85986.59q-2.52027,1.74-5.14014,3.33-3.68994,2.25-7.55029,4.23c-.07959.04-.16993.08-.25.12q-2.21925,1.13991-4.4795,2.16c-.05029.02-.09033.04-.14013.06-.3501.16-.72022.33-1.08008.48-2.79,1.24-5.64014,2.37005-8.54,3.37005q-3.70533,1.305-7.52,2.34a113.72947,113.72947,0,0,1-15.8501,3.18,115.58789,115.58789,0,0,1-13.75976.94c-.38037.01-.76026.01-1.14014.01-2.50977,0-5.00977-.08-7.48-.24-2.16016-.14-4.29981-.33-6.41992-.59-3.27-.39-6.5-.91-9.68018-1.59-.13965-.02-.27978-.05-.41992-.08-.10986-.02-.23-.05-.33984-.07-3.2002-.67-6.3501-1.49-9.43995-2.43q-4.36523-1.32-8.57031-2.98c-.71972-.28-1.42969-.56-2.14013-.86-1.76954-.74-3.51954-1.51-5.23975-2.34-.5-.23-.98975-.47-1.48-.71-1.66016-.81-3.29981-1.66-4.8999-2.56q-2.89527-1.605-5.68994-3.37c-2.3501-1.48-4.6504-3.04-6.88038-4.69a116.0049,116.0049,0,0,1,70.32986-209.47852C870.25764,146.6848,921.67946,199.45709,920.99316,263.06744Z" transform="translate(-279.00005 -145.78971)" fill="#f1f1f1"/><path d="M780.66021,375.21971c-3.2002-.67-6.3501-1.49-9.43995-2.43l10.60987-65.79,10.98974-.34,19.93018-.63,10.22021-.32s7.25,31.86,12.77979,67.95a113.72947,113.72947,0,0,1-15.8501,3.18,115.58789,115.58789,0,0,1-13.75976.94c-.38037.01-.76026.01-1.14014.01-2.50977,0-5.00977-.08-7.48-.24-2.16016-.14-4.29981-.33-6.41992-.59-3.27-.39-6.5-.91-9.68018-1.59-.13965-.02-.27978-.05-.41992-.08C780.89019,375.26969,780.77007,375.23973,780.66021,375.21971Z" transform="translate(-279.00005 -145.78971)" fill="#cbcbcb"/><path d="M781.42,375.36973c-.13965-.02-.27978-.05-.41992-.08-.10986-.02-.23-.05-.33984-.07-3.2002-.67-6.3501-1.49-9.43995-2.43q-4.36523-1.32-8.57031-2.98c-.71972-.28-1.42969-.56-2.14013-.86-1.76954-.74-3.51954-1.51-5.23975-2.34-.5-.23-.98975-.47-1.48-.71l-.87988-49.26,27-11.56995s.08984.72,12.90966,1.59C795.25982,314.61973,781.42,375.36973,781.42,375.36973Z" transform="translate(-279.00005 -145.78971)" fill="#2f2e41"/><path d="M862.12017,314.30973l-5.08985,26.75.4795,24.19q-2.21925,1.13991-4.4795,2.16c-.05029.02-.09033.04-.14013.06-.3501.16-.72022.33-1.08008.48-2.79,1.24-5.64014,2.37005-8.54,3.37005q-3.70533,1.305-7.52,2.34a113.72947,113.72947,0,0,1-15.8501,3.18,115.58789,115.58789,0,0,1-13.75976.94l-.53028-42.87c-1.11963-13.82,2.59034-22.96,7.14014-28.88,24.25-3.24,23.71-3.53,23.71-3.53l25.71,11.57Z" transform="translate(-279.00005 -145.78971)" fill="#2f2e41"/><path d="M764.48,320.49974l-1.83008,49.31c-.71972-.28-1.42969-.56-2.14013-.86-1.76954-.74-3.51954-1.51-5.23975-2.34-.5-.23-.98975-.47-1.48-.71-1.66016-.81-3.29981-1.66-4.8999-2.56q-2.89527-1.605-5.68994-3.37l9.71-43.33Z" transform="translate(-279.00005 -145.78971)" fill="#2f2e41"/><path d="M872.10991,356.41972c-.25976.18-.52978.37-.7998.56-.27979.2-.56983.4-.85986.59q-2.52027,1.74-5.14014,3.33-3.68994,2.25-7.55029,4.23c-.07959.04-.16993.08-.25.12q-2.28651,1.17447-4.61685,2.22169l-.00278-.00173-1.83008-49.48,11.06006-3.68.50976-.17Z" transform="translate(-279.00005 -145.78971)" fill="#2f2e41"/><ellipse cx="805.22375" cy="260.4931" rx="28.60264" ry="28.52916" transform="translate(49.71201 814.1164) rotate(-73.65991)" fill="#9f616a"/><path d="M776.492,267.66459V256.53335s-8.97669-10.57234.89767-13.23552c0,0,2.693-26.63179,26.03241-14.20362,0,0,32.3161-5.32636,28.72543,13.3159,0,0,8.079-4.8669,5.386,7.56128L832.32518,269.991s2.51535-13.22444-5.56367-14.99989l-4.48835-2.66318s-12.56737,12.42817-31.41843-2.66318c0,0-8.079-1.92825-7.18135,6.06129S776.492,267.66459,776.492,267.66459Z" transform="translate(-279.00005 -145.78971)" fill="#2f2e41"/><path d="M716.00005,611.78971a115.853,115.853,0,0,1-49.68994,95.19c-.27979.2-.56983.4-.85986.59q-2.52027,1.74-5.14014,3.33-3.68994,2.25-7.55029,4.23c-1.55957.8-3.12989,1.56-4.7295,2.28-.40039.18-.81006.37-1.22021.54-2.79,1.24-5.64014,2.37-8.54,3.37a114.20394,114.20394,0,0,1-23.37012,5.52,116.29626,116.29626,0,0,1-14.8999.95c-2.50977,0-5.00977-.08-7.48-.24-2.16016-.14-4.29981-.33-6.41992-.59-3.41016-.41-6.78028-.96-10.1001-1.67-.10986-.02-.23-.05-.33984-.07a113.3187,113.3187,0,0,1-20.15039-6.27c-1.76954-.74-3.51954-1.51-5.23975-2.34q-3.25488-1.53-6.37988-3.27a116.00862,116.00862,0,1,1,172.10986-101.55Z" transform="translate(-279.00005 -145.78971)" fill="#f1f1f1"/><circle cx="317.81344" cy="468.68566" r="25.90295" fill="#ffb8b8"/><path d="M586.10015,726.9597c-3.41016-.41-6.78028-.96-10.1001-1.67l3.1499-70.88.4502-.47,6.4497-6.81h20.51026l7.56982,7.33.64014.63,16.18994,15.51,7.31006,50.72a114.20394,114.20394,0,0,1-23.37012,5.52,116.29626,116.29626,0,0,1-14.8999.95c-2.50977,0-5.00977-.08-7.48-.24C590.35991,727.40971,588.22026,727.21971,586.10015,726.9597Z" transform="translate(-279.00005 -145.78971)" fill="#cbcbcb"/><path d="M550.27007,716.60972q-3.25488-1.53-6.37988-3.27c-.21-19.2-.3501-31.95-.3501-31.95l2.43994-1.49a.80438.80438,0,0,1,.08984-.04l27.68995-16.82,5.81005-9.44.03028.34,1.71,19.9a346.74389,346.74389,0,0,1,11.21,53.71c-2.16016-.14-4.29981-.33-6.41992-.59-3.41016-.41-6.78028-.96-10.1001-1.67-.10986-.02-.23-.05-.33984-.07a113.3187,113.3187,0,0,1-20.15039-6.27C553.74028,718.2097,551.99028,717.43974,550.27007,716.60972Z" transform="translate(-279.00005 -145.78971)" fill="#2f2e41"/><path d="M638.27007,721.31974a114.20394,114.20394,0,0,1-23.37012,5.52,91.26716,91.26716,0,0,1-1.21-19.55c2.16016-34.53-2.81982-53.69-.65967-53.69l1.09961.86,13.59033,10.74,17.88965,6.56h.01026l12.31006,4.51,2.16992.80005v1.03c.00976,3.56.02978,16.02.21,32.8q-3.68994,2.25-7.55029,4.23c-1.55957.8-3.12989,1.56-4.7295,2.28-.40039.18-.81006.37-1.22021.54C644.02007,719.18974,641.17,720.31974,638.27007,721.31974Z" transform="translate(-279.00005 -145.78971)" fill="#2f2e41"/><path d="M572.30783,622.57952s2.2008-3.865,1.68916-16.77648,19.14951-5.60893,35.57847-6.84062,12.95124,21.55611,12.95124,21.55611,1.18525-1.35461,3.72286-12.35267-3.22412-21.95808-3.22412-21.95808c-1.69691-11.5569-10.8421-7.85291-10.8421-7.85291,4.40421,1.71452,3.55833,5.38054,3.55833,5.38054-3.728-6.53621-12.8732-2.83221-12.8732-2.83221-12.197-7.65394-24.55861,2.42534-24.55861,2.42534-14.73463,3.34409-6.09333,15.06193-6.09333,15.06193C557.39833,605.87893,572.30783,622.57952,572.30783,622.57952Z" transform="translate(-279.00005 -145.78971)" fill="#2f2e41"/><path d="M531.31987,705.2797c.38038-8.79.5503-14.46.3501-15.25-1.02978-4.12,13.03028-9.64,14.31006-10.13a.80438.80438,0,0,1,.08984-.04l2.86036,1.53,1.33984,35.22q-3.25488-1.53-6.37988-3.27A115.18056,115.18056,0,0,1,531.31987,705.2797Z" transform="translate(-279.00005 -145.78971)" fill="#2f2e41"/><path d="M660.31011,710.8997q-3.68994,2.25-7.55029,4.23c-1.55957.8-3.12989,1.56-4.7295,2.28-.40039.18-.81006.37-1.22021.54l-4.5-44.43,2.62988-1.92s.24024.06.66992.16h.01026c2.10986.52,8.58984,2.24006,12.31006,4.51a7.71388,7.71388,0,0,1,2.16992,1.83,2.22274,2.22274,0,0,1,.50976,1.58c-.11963,1.16,1.88037,12.16,4.84034,27.89Q662.93,709.30971,660.31011,710.8997Z" transform="translate(-279.00005 -145.78971)" fill="#2f2e41"/><polygon points="158.016 489.633 115 489.633 115 296.788 117 296.788 117 487.633 158.016 487.633 158.016 489.633" fill="#f1f1f1"/><polygon points="527.008 489.633 483.992 489.633 483.992 487.633 525.008 487.633 525.008 295 527.008 295 527.008 489.633" fill="#f1f1f1"/><circle cx="526" cy="227.92126" r="26.43632" fill="#673ab7"/><polygon points="523.481 239.081 515.568 228.907 520.17 225.328 523.916 230.145 536.573 216.785 540.805 220.794 523.481 239.081" fill="#fff"/><circle cx="116" cy="229.98425" r="26.43632" fill="#673ab7"/><polygon points="113.481 241.144 105.568 230.97 110.17 227.391 113.916 232.208 126.573 218.848 130.805 222.857 113.481 241.144" fill="#fff"/><circle cx="321" cy="581.98425" r="26.43632" fill="#673ab7"/><polygon points="318.481 593.144 310.568 582.97 315.17 579.391 318.916 584.208 331.573 570.848 335.805 574.857 318.481 593.144" fill="#fff"/></svg>