<svg width="876" height="554" viewBox="0 0 876 554" fill="none" xmlns="http://www.w3.org/2000/svg">
<g clip-path="url(#clip0_4162_2)">
<path d="M354 256H17C12.4929 255.995 8.1718 254.202 4.98477 251.015C1.79775 247.828 0.00505274 243.507 0 239V50C0.00505274 45.4929 1.79775 41.1718 4.98477 37.9848C8.1718 34.7977 12.4929 33.0051 17 33H354C358.507 33.0051 362.828 34.7978 366.015 37.9848C369.202 41.1718 370.995 45.4929 371 50V239C370.995 243.507 369.202 247.828 366.015 251.015C362.828 254.202 358.507 255.995 354 256ZM17 35C13.0231 35.0045 9.21043 36.5863 6.39836 39.3984C3.58629 42.2104 2.0045 46.0231 2 50V239C2.0045 242.977 3.58629 246.79 6.39836 249.602C9.21043 252.414 13.0231 253.996 17 254H354C357.977 253.996 361.79 252.414 364.602 249.602C367.414 246.79 368.996 242.977 369 239V50C368.996 46.0231 367.414 42.2104 364.602 39.3984C361.79 36.5863 357.977 35.0045 354 35H17Z" fill="#E6E6E6"/>
<path d="M268.601 108.313H203.601C202.407 108.313 201.262 108.787 200.419 109.631C199.575 110.475 199.101 111.62 199.101 112.813C199.101 114.006 199.575 115.151 200.419 115.995C201.262 116.839 202.407 117.313 203.601 117.313H268.601C269.794 117.313 270.939 116.839 271.783 115.995C272.626 115.151 273.101 114.006 273.101 112.813C273.101 111.62 272.626 110.475 271.783 109.631C270.939 108.787 269.794 108.313 268.601 108.313Z" fill="#E6E6E6"/>
<path d="M331.96 136.813H202.741C200.73 136.813 199.101 138.833 199.101 141.313C199.101 143.793 200.73 145.813 202.741 145.813H331.96C333.971 145.813 335.601 143.793 335.601 141.313C335.601 138.833 333.971 136.813 331.96 136.813Z" fill="#E6E6E6"/>
<path d="M331.96 166H202.741C200.73 166 199.101 168.02 199.101 170.5C199.101 172.98 200.73 175 202.741 175H331.96C333.971 175 335.601 172.98 335.601 170.5C335.601 168.02 333.971 166 331.96 166Z" fill="#E6E6E6"/>
<path d="M154 214.5H42C39.2162 214.497 36.5473 213.39 34.5789 211.421C32.6104 209.453 31.5032 206.784 31.5 204V79C31.5032 76.2162 32.6104 73.5473 34.5789 71.5789C36.5473 69.6104 39.2162 68.5032 42 68.5H154C156.784 68.5032 159.453 69.6104 161.421 71.5789C163.39 73.5473 164.497 76.2162 164.5 79V204C164.497 206.784 163.39 209.453 161.421 211.421C159.453 213.39 156.784 214.497 154 214.5Z" fill="#E6E6E6"/>
<path d="M362 72C381.882 72 398 55.8823 398 36C398 16.1177 381.882 0 362 0C342.118 0 326 16.1177 326 36C326 55.8823 342.118 72 362 72Z" fill="#E6E6E6"/>
<path d="M832 256H495C490.493 255.995 486.172 254.202 482.985 251.015C479.798 247.828 478.005 243.507 478 239V50C478.005 45.4929 479.798 41.1718 482.985 37.9848C486.172 34.7977 490.493 33.0051 495 33H832C836.507 33.0051 840.828 34.7978 844.015 37.9848C847.202 41.1718 848.995 45.4929 849 50V239C848.995 243.507 847.202 247.828 844.015 251.015C840.828 254.202 836.507 255.995 832 256ZM495 35C491.023 35.0045 487.21 36.5863 484.398 39.3984C481.586 42.2104 480.004 46.0231 480 50V239C480.004 242.977 481.586 246.79 484.398 249.602C487.21 252.414 491.023 253.996 495 254H832C835.977 253.996 839.79 252.414 842.602 249.602C845.414 246.79 846.996 242.977 847 239V50C846.996 46.0231 845.414 42.2104 842.602 39.3984C839.79 36.5863 835.977 35.0045 832 35H495Z" fill="#3F3D56"/>
<path d="M746.601 108.313H681.601C680.407 108.313 679.262 108.787 678.419 109.631C677.575 110.475 677.101 111.62 677.101 112.813C677.101 114.006 677.575 115.151 678.419 115.995C679.262 116.839 680.407 117.313 681.601 117.313H746.601C747.794 117.313 748.939 116.839 749.783 115.995C750.626 115.151 751.101 114.006 751.101 112.813C751.101 111.62 750.626 110.475 749.783 109.631C748.939 108.787 747.794 108.313 746.601 108.313Z" fill="#3F3D56"/>
<path d="M809.96 136.813H680.741C678.73 136.813 677.101 138.833 677.101 141.313C677.101 143.793 678.73 145.813 680.741 145.813H809.96C811.971 145.813 813.601 143.793 813.601 141.313C813.601 138.833 811.971 136.813 809.96 136.813Z" fill="#3F3D56"/>
<path d="M809.96 166H680.741C678.73 166 677.101 168.02 677.101 170.5C677.101 172.98 678.73 175 680.741 175H809.96C811.971 175 813.601 172.98 813.601 170.5C813.601 168.02 811.971 166 809.96 166Z" fill="#3F3D56"/>
<path d="M632 214.5H520C517.216 214.497 514.547 213.39 512.579 211.421C510.61 209.453 509.503 206.784 509.5 204V79C509.503 76.2162 510.61 73.5473 512.579 71.5789C514.547 69.6104 517.216 68.5032 520 68.5H632C634.784 68.5032 637.453 69.6104 639.421 71.5789C641.39 73.5473 642.497 76.2162 642.5 79V204C642.497 206.784 641.39 209.453 639.421 211.421C637.453 213.39 634.784 214.497 632 214.5Z" fill="#1A40D7"/>
<path d="M840 72C859.882 72 876 55.8823 876 36C876 16.1177 859.882 0 840 0C820.118 0 804 16.1177 804 36C804 55.8823 820.118 72 840 72Z" fill="#1A40D7"/>
<path d="M837.976 50.5733C836.994 50.5752 836.039 50.2577 835.253 49.6689L835.205 49.6323L824.951 41.7819C824.475 41.4185 824.075 40.9648 823.774 40.4468C823.474 39.9287 823.278 39.3564 823.199 38.7627C823.12 38.169 823.159 37.5655 823.313 36.9867C823.467 36.4079 823.734 35.8653 824.099 35.3899C824.463 34.9144 824.917 34.5154 825.436 34.2158C825.955 33.9162 826.527 33.7219 827.121 33.6439C827.715 33.5658 828.319 33.6057 828.897 33.7612C829.475 33.9166 830.018 34.1847 830.492 34.5499L837.134 39.6425L852.828 19.1742C853.192 18.6994 853.646 18.301 854.164 18.0017C854.682 17.7024 855.254 17.5081 855.847 17.4298C856.44 17.3515 857.043 17.3908 857.621 17.5454C858.199 17.7001 858.741 17.9671 859.215 18.3311L859.118 18.4636L859.218 18.333C860.175 19.069 860.802 20.1548 860.96 21.3521C861.118 22.5495 860.795 23.7606 860.061 24.7199L841.6 48.7955C841.173 49.3503 840.624 49.7993 839.996 50.1076C839.367 50.4159 838.676 50.5753 837.976 50.5733Z" fill="white"/>
<path d="M354 554H17C12.4929 553.995 8.1718 552.202 4.98477 549.015C1.79775 545.828 0.00505274 541.507 0 537V348C0.00505274 343.493 1.79775 339.172 4.98477 335.985C8.1718 332.798 12.4929 331.005 17 331H354C358.507 331.005 362.828 332.798 366.015 335.985C369.202 339.172 370.995 343.493 371 348V537C370.995 541.507 369.202 545.828 366.015 549.015C362.828 552.202 358.507 553.995 354 554ZM17 333C13.0231 333.004 9.21043 334.586 6.39836 337.398C3.58629 340.21 2.0045 344.023 2 348V537C2.0045 540.977 3.58629 544.79 6.39836 547.602C9.21043 550.414 13.0231 551.996 17 552H354C357.977 551.996 361.79 550.414 364.602 547.602C367.414 544.79 368.996 540.977 369 537V348C368.996 344.023 367.414 340.21 364.602 337.398C361.79 334.586 357.977 333.004 354 333H17Z" fill="#3F3D56"/>
<path d="M268.601 406.313H203.601C202.407 406.313 201.262 406.787 200.419 407.631C199.575 408.475 199.101 409.62 199.101 410.813C199.101 412.006 199.575 413.151 200.419 413.995C201.262 414.839 202.407 415.313 203.601 415.313H268.601C269.794 415.313 270.939 414.839 271.783 413.995C272.626 413.151 273.101 412.006 273.101 410.813C273.101 409.62 272.626 408.475 271.783 407.631C270.939 406.787 269.794 406.313 268.601 406.313Z" fill="#3F3D56"/>
<path d="M331.96 434.813H202.741C200.73 434.813 199.101 436.833 199.101 439.313C199.101 441.793 200.73 443.813 202.741 443.813H331.96C333.971 443.813 335.601 441.793 335.601 439.313C335.601 436.833 333.971 434.813 331.96 434.813Z" fill="#3F3D56"/>
<path d="M331.96 464H202.741C200.73 464 199.101 466.02 199.101 468.5C199.101 470.98 200.73 473 202.741 473H331.96C333.971 473 335.601 470.98 335.601 468.5C335.601 466.02 333.971 464 331.96 464Z" fill="#3F3D56"/>
<path d="M154 512.5H42C39.2162 512.497 36.5473 511.39 34.5789 509.421C32.6104 507.453 31.5032 504.784 31.5 502V377C31.5032 374.216 32.6104 371.547 34.5789 369.579C36.5473 367.61 39.2162 366.503 42 366.5H154C156.784 366.503 159.453 367.61 161.421 369.579C163.39 371.547 164.497 374.216 164.5 377V502C164.497 504.784 163.39 507.453 161.421 509.421C159.453 511.39 156.784 512.497 154 512.5Z" fill="#1A40D7"/>
<path d="M362 370C381.882 370 398 353.882 398 334C398 314.118 381.882 298 362 298C342.118 298 326 314.118 326 334C326 353.882 342.118 370 362 370Z" fill="#1A40D7"/>
<path d="M359.976 348.573C358.994 348.575 358.039 348.258 357.253 347.669L357.205 347.632L346.951 339.782C346.475 339.419 346.075 338.965 345.774 338.447C345.474 337.929 345.278 337.356 345.199 336.763C345.12 336.169 345.159 335.565 345.313 334.987C345.467 334.408 345.734 333.865 346.099 333.39C346.463 332.914 346.917 332.515 347.436 332.216C347.955 331.916 348.527 331.722 349.121 331.644C349.715 331.566 350.319 331.606 350.897 331.761C351.475 331.917 352.018 332.185 352.492 332.55L359.134 337.642L374.829 317.174C375.193 316.699 375.646 316.301 376.164 316.002C376.682 315.702 377.254 315.508 377.847 315.43C378.44 315.352 379.043 315.391 379.621 315.545C380.199 315.7 380.741 315.967 381.215 316.331L381.118 316.464L381.218 316.333C382.176 317.069 382.802 318.155 382.96 319.352C383.118 320.549 382.795 321.761 382.061 322.72L363.6 346.796C363.173 347.35 362.624 347.799 361.996 348.108C361.367 348.416 360.676 348.575 359.976 348.573Z" fill="white"/>
<path d="M832 554H495C490.493 553.995 486.172 552.202 482.985 549.015C479.798 545.828 478.005 541.507 478 537V348C478.005 343.493 479.798 339.172 482.985 335.985C486.172 332.798 490.493 331.005 495 331H832C836.507 331.005 840.828 332.798 844.015 335.985C847.202 339.172 848.995 343.493 849 348V537C848.995 541.507 847.202 545.828 844.015 549.015C840.828 552.202 836.507 553.995 832 554ZM495 333C491.023 333.004 487.21 334.586 484.398 337.398C481.586 340.21 480.004 344.023 480 348V537C480.004 540.977 481.586 544.79 484.398 547.602C487.21 550.414 491.023 551.996 495 552H832C835.977 551.996 839.79 550.414 842.602 547.602C845.414 544.79 846.996 540.977 847 537V348C846.996 344.023 845.414 340.21 842.602 337.398C839.79 334.586 835.977 333.004 832 333H495Z" fill="#3F3D56"/>
<path d="M746.601 406.313H681.601C680.407 406.313 679.262 406.787 678.419 407.631C677.575 408.475 677.101 409.62 677.101 410.813C677.101 412.006 677.575 413.151 678.419 413.995C679.262 414.839 680.407 415.313 681.601 415.313H746.601C747.794 415.313 748.939 414.839 749.783 413.995C750.626 413.151 751.101 412.006 751.101 410.813C751.101 409.62 750.626 408.475 749.783 407.631C748.939 406.787 747.794 406.313 746.601 406.313Z" fill="#3F3D56"/>
<path d="M809.96 434.813H680.741C678.73 434.813 677.101 436.833 677.101 439.313C677.101 441.793 678.73 443.813 680.741 443.813H809.96C811.971 443.813 813.601 441.793 813.601 439.313C813.601 436.833 811.971 434.813 809.96 434.813Z" fill="#3F3D56"/>
<path d="M809.96 464H680.741C678.73 464 677.101 466.02 677.101 468.5C677.101 470.98 678.73 473 680.741 473H809.96C811.971 473 813.601 470.98 813.601 468.5C813.601 466.02 811.971 464 809.96 464Z" fill="#3F3D56"/>
<path d="M632 512.5H520C517.216 512.497 514.547 511.39 512.579 509.421C510.61 507.453 509.503 504.784 509.5 502V377C509.503 374.216 510.61 371.547 512.579 369.579C514.547 367.61 517.216 366.503 520 366.5H632C634.784 366.503 637.453 367.61 639.421 369.579C641.39 371.547 642.497 374.216 642.5 377V502C642.497 504.784 641.39 507.453 639.421 509.421C637.453 511.39 634.784 512.497 632 512.5Z" fill="#1A40D7"/>
<path d="M840 370C859.882 370 876 353.882 876 334C876 314.118 859.882 298 840 298C820.118 298 804 314.118 804 334C804 353.882 820.118 370 840 370Z" fill="#1A40D7"/>
<path d="M837.976 348.573C836.994 348.575 836.039 348.258 835.253 347.669L835.205 347.632L824.951 339.782C824.475 339.419 824.075 338.965 823.774 338.447C823.474 337.929 823.278 337.356 823.199 336.763C823.12 336.169 823.159 335.565 823.313 334.987C823.467 334.408 823.734 333.865 824.099 333.39C824.463 332.914 824.917 332.515 825.436 332.216C825.955 331.916 826.527 331.722 827.121 331.644C827.715 331.566 828.319 331.606 828.897 331.761C829.475 331.917 830.018 332.185 830.492 332.55L837.134 337.642L852.828 317.174C853.192 316.699 853.646 316.301 854.164 316.002C854.682 315.702 855.254 315.508 855.847 315.43C856.44 315.352 857.043 315.391 857.621 315.545C858.199 315.7 858.741 315.967 859.215 316.331L859.118 316.464L859.218 316.333C860.175 317.069 860.802 318.155 860.96 319.352C861.118 320.549 860.795 321.761 860.061 322.72L841.6 346.796C841.173 347.35 840.624 347.799 839.996 348.108C839.367 348.416 838.676 348.575 837.976 348.573Z" fill="white"/>
<path d="M579.703 189.663C577.181 189.593 574.041 189.504 571.625 187.739C570.905 187.191 570.313 186.493 569.891 185.693C569.47 184.892 569.228 184.01 569.183 183.106C569.14 182.464 569.245 181.821 569.491 181.226C569.738 180.632 570.118 180.102 570.603 179.679C571.323 179.141 572.167 178.792 573.056 178.664C573.946 178.536 574.854 178.633 575.697 178.946L573.638 163.898L575.149 163.691L577.57 181.381L576.308 180.802C574.845 180.131 572.836 179.79 571.587 180.844C571.281 181.12 571.042 181.463 570.89 181.845C570.737 182.228 570.675 182.641 570.708 183.052C570.745 183.725 570.926 184.381 571.24 184.977C571.553 185.573 571.991 186.095 572.525 186.507C574.405 187.881 576.907 188.058 579.746 188.138L579.703 189.663Z" fill="white"/>
<path d="M566.163 165.196H557.946V166.721H566.163V165.196Z" fill="white"/>
<path d="M592.1 165.196H583.883V166.721H592.1V165.196Z" fill="white"/>
<path d="M543.67 144.128C537.053 143.374 531.928 137.034 531.365 130.601C530.696 122.948 535.152 115.68 541.267 111.385C547.661 106.894 555.628 105.019 563.336 104.606C578.372 103.858 593.15 108.728 604.794 118.271C610.57 123.068 615.964 129.179 618.008 136.559C619.784 142.969 618.339 150.231 613.184 154.72C611.908 155.82 610.419 156.644 608.809 157.14C607.2 157.636 605.505 157.792 603.831 157.6C599.831 157.184 596.14 155.081 592.945 152.758C586.731 148.24 581.629 141.945 574.057 139.584C568.506 137.852 561.301 139.376 557.909 144.397C557.139 145.546 556.64 146.855 556.45 148.225C556.38 148.517 556.423 148.825 556.572 149.087C556.72 149.348 556.962 149.543 557.249 149.633C557.541 149.711 557.853 149.672 558.117 149.522C558.38 149.372 558.574 149.125 558.656 148.833C559.547 142.51 567.322 140.15 572.778 141.595C580.734 143.7 586.074 150.799 592.601 155.309C595.979 157.828 599.96 159.417 604.144 159.917C607.773 160.201 611.374 159.095 614.216 156.822C619.792 152.419 621.925 144.846 620.692 138.028C619.264 130.133 613.95 123.366 608.119 118.127C596.298 107.618 580.952 101.948 565.138 102.249C557.072 102.434 548.656 104.099 541.707 108.362C534.967 112.497 529.757 119.416 529.076 127.457C528.477 134.536 532.275 141.939 538.794 145.04C540.331 145.768 541.979 146.233 543.67 146.417C545.131 146.583 545.119 144.293 543.67 144.128Z" fill="white"/>
<path d="M579.703 483.663C577.181 483.593 574.041 483.504 571.625 481.739C570.905 481.191 570.313 480.493 569.891 479.693C569.47 478.892 569.228 478.01 569.183 477.106C569.14 476.464 569.245 475.821 569.491 475.226C569.738 474.632 570.118 474.102 570.603 473.679C571.323 473.141 572.167 472.792 573.056 472.664C573.946 472.536 574.854 472.633 575.697 472.946L573.638 457.898L575.149 457.691L577.57 475.381L576.308 474.802C574.845 474.131 572.836 473.79 571.587 474.844C571.281 475.12 571.042 475.463 570.89 475.845C570.737 476.228 570.675 476.641 570.708 477.052C570.745 477.725 570.926 478.381 571.24 478.977C571.553 479.573 571.991 480.095 572.525 480.507C574.405 481.881 576.907 482.058 579.746 482.138L579.703 483.663Z" fill="white"/>
<path d="M566.163 459.196H557.946V460.721H566.163V459.196Z" fill="white"/>
<path d="M592.1 459.196H583.883V460.721H592.1V459.196Z" fill="white"/>
<path d="M543.67 438.128C537.053 437.373 531.928 431.034 531.365 424.601C530.696 416.948 535.152 409.679 541.267 405.385C547.661 400.894 555.628 399.019 563.336 398.606C578.372 397.858 593.15 402.728 604.794 412.271C610.57 417.068 615.964 423.179 618.008 430.559C619.784 436.969 618.339 444.231 613.184 448.72C611.908 449.82 610.419 450.644 608.809 451.14C607.2 451.635 605.505 451.792 603.831 451.6C599.831 451.184 596.14 449.081 592.945 446.758C586.731 442.24 581.629 435.945 574.057 433.583C568.506 431.852 561.301 433.376 557.909 438.397C557.139 439.546 556.64 440.855 556.45 442.225C556.38 442.517 556.423 442.825 556.572 443.086C556.72 443.348 556.962 443.543 557.249 443.633C557.541 443.711 557.853 443.672 558.117 443.522C558.38 443.372 558.574 443.125 558.656 442.833C559.547 436.51 567.322 434.15 572.778 435.594C580.734 437.7 586.074 444.799 592.601 449.309C595.979 451.828 599.96 453.417 604.144 453.917C607.773 454.201 611.374 453.095 614.216 450.822C619.792 446.419 621.925 438.846 620.692 432.028C619.264 424.133 613.95 417.366 608.119 412.127C596.298 401.618 580.952 395.948 565.138 396.249C557.072 396.434 548.656 398.099 541.707 402.362C534.967 406.497 529.757 413.416 529.076 421.457C528.477 428.536 532.275 435.939 538.794 439.04C540.331 439.768 541.979 440.233 543.67 440.417C545.131 440.583 545.119 438.293 543.67 438.128Z" fill="white"/>
<path d="M96.7028 483.663C94.1805 483.593 91.0415 483.504 88.6247 481.739C87.9047 481.191 87.3131 480.493 86.8914 479.693C86.4697 478.892 86.2281 478.01 86.1835 477.106C86.1398 476.464 86.2451 475.821 86.4913 475.226C86.7375 474.632 87.1178 474.102 87.6026 473.679C88.323 473.141 89.1666 472.792 90.0565 472.664C90.9463 472.536 91.8541 472.633 92.697 472.946L90.6379 457.898L92.1494 457.691L94.5701 475.381L93.308 474.802C91.8446 474.131 89.8358 473.79 88.5874 474.844C88.281 475.12 88.0422 475.463 87.8897 475.845C87.7372 476.228 87.6751 476.641 87.7082 477.052C87.7451 477.725 87.9265 478.381 88.2399 478.977C88.5534 479.573 88.9915 480.095 89.5246 480.507C91.4054 481.881 93.9075 482.058 96.7456 482.138L96.7028 483.663Z" fill="white"/>
<path d="M83.1633 459.196H74.9463V460.721H83.1633V459.196Z" fill="white"/>
<path d="M109.1 459.196H100.883V460.721H109.1V459.196Z" fill="white"/>
<path d="M60.6698 438.128C54.0528 437.373 48.9282 431.034 48.3653 424.601C47.6957 416.948 52.1524 409.679 58.2668 405.385C64.661 400.894 72.6276 399.019 80.3356 398.606C95.3721 397.858 110.15 402.728 121.794 412.271C127.57 417.068 132.964 423.179 135.008 430.559C136.784 436.969 135.339 444.231 130.184 448.72C128.908 449.82 127.419 450.644 125.809 451.14C124.2 451.635 122.505 451.792 120.831 451.6C116.831 451.184 113.14 449.081 109.946 446.758C103.731 442.24 98.6289 435.945 91.0574 433.583C85.5057 431.852 78.3013 433.376 74.9087 438.397C74.1389 439.546 73.64 440.855 73.4497 442.225C73.3796 442.517 73.4231 442.825 73.5715 443.086C73.7199 443.348 73.962 443.543 74.2489 443.633C74.5415 443.711 74.8533 443.672 75.1168 443.522C75.3803 443.372 75.5742 443.125 75.6564 442.833C76.5471 436.51 84.3223 434.15 89.7785 435.594C97.7337 437.7 103.074 444.799 109.601 449.309C112.979 451.828 116.96 453.417 121.144 453.917C124.773 454.201 128.374 453.095 131.216 450.822C136.792 446.419 138.925 438.846 137.692 432.028C136.264 424.133 130.95 417.366 125.119 412.127C113.298 401.618 97.9516 395.948 82.1377 396.249C74.0719 396.434 65.6559 398.099 58.7072 402.362C51.967 406.497 46.7574 413.416 46.0765 421.457C45.4771 428.536 49.2748 435.939 55.7937 439.04C57.3308 439.768 58.979 440.233 60.6699 440.417C62.1307 440.583 62.1187 438.293 60.6698 438.128Z" fill="white"/>
<path d="M96.7028 191.663C94.1805 191.593 91.0415 191.504 88.6247 189.739C87.9047 189.191 87.3131 188.493 86.8914 187.693C86.4697 186.892 86.2281 186.01 86.1835 185.106C86.1398 184.464 86.2451 183.821 86.4913 183.226C86.7375 182.632 87.1178 182.102 87.6026 181.679C88.323 181.141 89.1666 180.792 90.0565 180.664C90.9463 180.536 91.8541 180.633 92.697 180.946L90.6379 165.898L92.1494 165.691L94.5701 183.381L93.308 182.802C91.8446 182.131 89.8358 181.79 88.5874 182.844C88.281 183.12 88.0422 183.463 87.8897 183.845C87.7372 184.228 87.6751 184.641 87.7082 185.052C87.7451 185.725 87.9265 186.381 88.2399 186.977C88.5534 187.573 88.9915 188.095 89.5246 188.507C91.4054 189.881 93.9075 190.058 96.7456 190.138L96.7028 191.663Z" fill="#3F3D56"/>
<path d="M83.1633 167.196H74.9463V168.721H83.1633V167.196Z" fill="#3F3D56"/>
<path d="M109.1 167.196H100.883V168.721H109.1V167.196Z" fill="#3F3D56"/>
<path d="M60.6698 146.128C54.0528 145.374 48.9282 139.034 48.3653 132.601C47.6957 124.948 52.1524 117.68 58.2668 113.385C64.661 108.894 72.6276 107.019 80.3356 106.606C95.3721 105.858 110.15 110.728 121.794 120.271C127.57 125.068 132.964 131.179 135.008 138.559C136.784 144.969 135.339 152.231 130.184 156.72C128.908 157.82 127.419 158.644 125.809 159.14C124.2 159.636 122.505 159.792 120.831 159.6C116.831 159.184 113.14 157.081 109.946 154.758C103.731 150.24 98.6289 143.945 91.0574 141.584C85.5057 139.852 78.3013 141.376 74.9087 146.397C74.1389 147.546 73.64 148.855 73.4497 150.225C73.3796 150.517 73.4231 150.825 73.5715 151.087C73.7199 151.348 73.962 151.543 74.2489 151.633C74.5415 151.711 74.8533 151.672 75.1168 151.522C75.3803 151.372 75.5742 151.125 75.6564 150.833C76.5471 144.51 84.3223 142.15 89.7785 143.595C97.7337 145.7 103.074 152.799 109.601 157.309C112.979 159.828 116.96 161.417 121.144 161.917C124.773 162.201 128.374 161.095 131.216 158.822C136.792 154.419 138.925 146.846 137.692 140.028C136.264 132.133 130.95 125.366 125.119 120.127C113.298 109.618 97.9516 103.948 82.1377 104.249C74.0719 104.434 65.6559 106.099 58.7072 110.362C51.967 114.497 46.7574 121.416 46.0765 129.457C45.4771 136.536 49.2748 143.939 55.7937 147.04C57.3308 147.768 58.979 148.233 60.6699 148.417C62.1307 148.583 62.1187 146.293 60.6698 146.128Z" fill="#3F3D56"/>
</g>
<defs>
<clipPath id="clip0_4162_2">
<rect width="876" height="554" fill="white"/>
</clipPath>
</defs>
</svg>
