<svg width="344" height="274" viewBox="0 0 344 274" fill="none" xmlns="http://www.w3.org/2000/svg">
<path d="M172 273.559C266.993 273.559 344 242.806 344 204.871C344 166.936 266.993 136.183 172 136.183C77.007 136.183 0 166.936 0 204.871C0 242.806 77.007 273.559 172 273.559Z" fill="#F5F5F5"/>
<path d="M133.991 255.263L75.5667 221.293L174.389 164.182L133.991 255.263Z" fill="#E0E0E0"/>
<path d="M49.6585 219.208L73.4651 232.934C73.9599 233.185 74.507 233.316 75.0618 233.316C75.6166 233.316 76.1636 233.185 76.6585 232.934L109.495 213.774C109.688 213.71 109.857 213.586 109.976 213.421C110.095 213.256 110.159 213.058 110.159 212.854C110.159 212.651 110.095 212.452 109.976 212.287C109.857 212.122 109.688 211.999 109.495 211.935L85.6886 198.201C85.1938 197.95 84.6467 197.819 84.0919 197.819C83.5371 197.819 82.99 197.95 82.4952 198.201L49.6585 217.361C49.4662 217.427 49.2995 217.552 49.1815 217.718C49.0634 217.883 49 218.081 49 218.285C49 218.488 49.0634 218.686 49.1815 218.852C49.2995 219.017 49.4662 219.142 49.6585 219.208Z" fill="#E0E0E0"/>
<path d="M67.991 230.914L51.8396 221.585L51.8337 186.941L67.991 196.27V230.914Z" fill="#262A38"/>
<path d="M67.9912 196.271L91.0714 182.945V217.589L67.9912 230.914V196.271Z" fill="#373C4F"/>
<path d="M91.0712 182.945L67.991 196.27L51.8337 186.941L74.9198 173.616L91.0712 182.945Z" fill="#454C64"/>
<path d="M77.9646 195.845L81.1038 194.03C81.5117 193.793 81.8428 193.9 81.8428 194.272C81.8128 194.498 81.7304 194.715 81.6021 194.904C81.4738 195.092 81.3032 195.249 81.1038 195.36L77.9646 197.175C77.5567 197.411 77.2256 197.305 77.2256 196.932C77.2556 196.706 77.338 196.49 77.4663 196.301C77.5946 196.112 77.7652 195.956 77.9646 195.845Z" fill="#262A38"/>
<path d="M69.877 213.841L88.3399 203.181L88.7656 203.424L88.3399 216.01L88.7656 216.259L70.3026 226.918L69.877 226.669V213.841Z" fill="#262A38"/>
<path d="M70.3025 214.083L88.7654 203.424V216.259L70.3025 226.918V214.083Z" fill="#454C64"/>
<path d="M77.5388 212.079L80.678 210.27C81.086 210.034 81.417 210.14 81.417 210.506C81.3875 210.734 81.3053 210.951 81.177 211.141C81.0487 211.331 80.8778 211.488 80.678 211.6L77.5388 213.415C77.1309 213.652 76.7998 213.539 76.7998 213.173C76.8302 212.946 76.9128 212.729 77.041 212.539C77.1692 212.349 77.3396 212.192 77.5388 212.079Z" fill="#262A38"/>
<path d="M69.877 197.878L88.3399 187.219L88.7656 187.462L88.3399 200.048L88.7656 200.296L70.3026 210.956L69.877 210.707V197.878Z" fill="#262A38"/>
<path d="M70.3025 198.121L88.7654 187.462V200.296L70.3025 210.956V198.121Z" fill="#454C64"/>
<path d="M77.5388 196.117L80.678 194.308C81.086 194.071 81.417 194.178 81.417 194.544C81.3875 194.771 81.3053 194.989 81.177 195.178C81.0487 195.368 80.8778 195.526 80.678 195.638L77.5388 197.453C77.1309 197.689 76.7998 197.577 76.7998 197.21C76.8302 196.983 76.9128 196.767 77.041 196.577C77.1692 196.387 77.3396 196.23 77.5388 196.117Z" fill="#262A38"/>
<path d="M67.991 194.799L51.8396 185.47L51.8337 150.82L67.991 160.149V194.799Z" fill="#262A38"/>
<path d="M67.9912 160.149L91.0714 146.823V181.473L67.9912 194.799V160.149Z" fill="#373C4F"/>
<path d="M91.0712 146.823L67.991 160.149L51.8337 150.82L74.9198 137.494L91.0712 146.823Z" fill="#454C64"/>
<path d="M70.3025 161.479L88.7654 150.82L89.1911 151.068V163.897L70.7281 174.562L70.3025 174.314V161.479Z" fill="#262A38"/>
<path d="M77.9646 159.723L81.1038 157.908C81.5117 157.672 81.8428 157.784 81.8428 158.151C81.8124 158.377 81.7298 158.594 81.6016 158.784C81.4734 158.974 81.303 159.131 81.1038 159.244L77.9646 161.053C77.5567 161.29 77.2256 161.183 77.2256 160.817C77.2551 160.59 77.3373 160.372 77.4656 160.182C77.5939 159.993 77.7648 159.835 77.9646 159.723Z" fill="#262A38"/>
<path d="M69.877 177.719L88.3399 167.06V179.894L88.7656 180.137L70.3026 190.796L69.877 190.554V177.719Z" fill="#262A38"/>
<path d="M70.3025 177.967L88.7654 167.302V180.137L70.3025 190.796V177.967Z" fill="#454C64"/>
<path d="M77.5388 175.963L80.678 174.148C81.086 173.912 81.417 174.018 81.417 174.391C81.387 174.617 81.3046 174.833 81.1763 175.022C81.048 175.211 80.8774 175.367 80.678 175.478L77.5388 177.293C77.1309 177.53 76.7998 177.423 76.7998 177.051C76.8298 176.825 76.9122 176.608 77.0405 176.419C77.1688 176.231 77.3394 176.074 77.5388 175.963Z" fill="#262A38"/>
<path d="M70.3025 161.479L88.7654 150.82V163.655L70.3025 174.314V161.479Z" fill="#262A38"/>
<path d="M97.9998 157.157L87.8904 151.328V162.632L97.9998 168.467V157.157Z" fill="#262A38"/>
<path d="M77.2256 176.141V160.149L81.1866 157.855L81.8428 158.819L93.3829 152.15V166.811L77.2256 176.141Z" fill="#1A40D7"/>
<g opacity="0.2">
<path d="M77.2256 176.141V160.149L81.1866 157.855L81.8428 158.819L93.3829 152.15V166.811L77.2256 176.141Z" fill="black"/>
</g>
<path d="M77.2256 176.14L78.3784 162.147L94.5357 152.818L93.3829 166.811L77.2256 176.14Z" fill="#1A40D7"/>
<path d="M79.5312 167.822L70.7224 162.738V174.042L79.5312 179.126V167.822Z" fill="#373C4F"/>
<path d="M79.531 166.811L97.9999 156.152V168.981L79.531 179.646V166.811Z" fill="#454C64"/>
<path d="M86.7732 164.807L89.9124 162.992C90.3203 162.756 90.6514 162.868 90.6514 163.235C90.621 163.462 90.5384 163.679 90.4102 163.868C90.282 164.058 90.1116 164.216 89.9124 164.328L86.7732 166.138C86.3652 166.374 86.0342 166.268 86.0342 165.901C86.0646 165.674 86.1472 165.457 86.2754 165.267C86.4036 165.078 86.574 164.92 86.7732 164.807Z" fill="#262A38"/>
<path d="M79.5311 166.812L78.9163 166.457V179.292L79.5311 179.646V166.812Z" fill="#262A38"/>
<path d="M78.9163 166.457L97.3851 155.797L98 156.152L79.5311 166.811L78.9163 166.457Z" fill="#373C4F"/>
<path d="M289.986 33.5745L286.95 31.8098L132.025 121.24V250.771C131.984 251.172 132.05 251.576 132.215 251.944C132.38 252.312 132.64 252.629 132.968 252.864L136.003 254.629C136.372 254.798 136.778 254.867 137.182 254.827C137.585 254.788 137.971 254.642 138.299 254.405L286.725 168.691C287.668 168.076 288.452 167.248 289.014 166.274C289.577 165.3 289.902 164.206 289.963 163.083L289.986 33.5745Z" fill="#E6E6E6"/>
<path d="M135.061 252.535C135.061 254.599 136.504 255.437 138.299 254.405L286.725 168.691C287.668 168.076 288.452 167.248 289.014 166.274C289.577 165.3 289.902 164.207 289.963 163.083V33.5747L135.061 123.012V252.535Z" fill="#FAFAFA"/>
<path d="M289.238 34.8458V163.098C289.176 164.091 288.886 165.056 288.389 165.917C287.892 166.778 287.202 167.513 286.374 168.063L137.948 253.754C137.624 253.959 137.253 254.077 136.871 254.098C135.929 254.098 135.831 253.006 135.831 252.535V123.438L289.238 34.8458ZM289.986 33.5522L135.061 123.012V252.535C135.061 254.031 135.809 254.846 136.848 254.846C137.362 254.826 137.861 254.674 138.299 254.405L286.725 168.691C287.668 168.076 288.452 167.248 289.014 166.274C289.577 165.3 289.902 164.207 289.963 163.083V33.5747L289.986 33.5522Z" fill="#E0E0E0"/>
<path d="M135.061 123.012V137.032L289.963 47.5948V33.5747L135.061 123.012Z" fill="#1A40D7"/>
<path d="M232.252 72.3899V75.3808C232.252 75.994 232.694 76.2482 233.224 75.9416L280.848 48.4397V43.2056L233.224 70.7374C232.947 70.9199 232.714 71.1638 232.546 71.4503C232.377 71.7369 232.277 72.0583 232.252 72.3899Z" fill="#FAFAFA"/>
<path d="M285.955 40.2671C286.494 39.953 286.928 40.2073 286.928 40.8279V43.8189C286.91 44.1561 286.813 44.4844 286.644 44.7768C286.475 45.0693 286.239 45.3175 285.955 45.5013L280.848 48.4474V43.2132L285.955 40.2671Z" fill="#454C64"/>
<path d="M285.581 44.402L285.006 44.2225C285.069 43.9783 285.102 43.7271 285.103 43.4748C285.128 43.2448 285.094 43.0121 285.002 42.7997C284.91 42.5873 284.764 42.4025 284.579 42.2635C284.454 42.1891 284.31 42.1499 284.164 42.1499C284.018 42.1499 283.875 42.1891 283.749 42.2635C283.387 42.5416 283.095 42.9011 282.898 43.3129C282.701 43.7247 282.603 44.1772 282.613 44.6338C282.586 44.8639 282.62 45.0971 282.712 45.3098C282.804 45.5225 282.95 45.7072 283.136 45.8451C283.244 45.911 283.369 45.9447 283.495 45.9423C283.659 45.9389 283.819 45.8924 283.959 45.8078C284.394 45.5107 284.718 45.0764 284.878 44.574L285.454 44.7534H285.499C285.543 44.7542 285.587 44.7409 285.623 44.7153C285.659 44.6898 285.687 44.6534 285.701 44.6114C285.704 44.5685 285.694 44.5258 285.673 44.4885C285.652 44.4513 285.62 44.4211 285.581 44.402ZM283.749 45.4937C283.692 45.5373 283.624 45.5639 283.553 45.5705C283.481 45.5771 283.41 45.5635 283.346 45.5311C283.23 45.4257 283.141 45.2937 283.088 45.1465C283.034 44.9993 283.018 44.8413 283.039 44.6861C283.031 44.3044 283.11 43.9259 283.27 43.5789C283.429 43.2319 283.664 42.9254 283.959 42.6822C284.038 42.6333 284.128 42.605 284.22 42.6C284.274 42.5998 284.326 42.6154 284.37 42.6448C284.484 42.7513 284.572 42.8835 284.625 43.0304C284.678 43.1773 284.696 43.3347 284.677 43.4898C284.683 43.872 284.602 44.2507 284.442 44.5977C284.281 44.9446 284.045 45.2509 283.749 45.4937Z" fill="#FAFAFA"/>
<path d="M286.008 22.9493C285.639 22.7688 285.228 22.6929 284.819 22.7298C284.411 22.7667 284.02 22.915 283.69 23.1586L135.263 108.872C134.32 109.486 133.535 110.313 132.972 111.288C132.41 112.263 132.085 113.356 132.026 114.48V121.262L135.061 123.034L289.986 33.5746V26.7926C290.031 26.3931 289.968 25.9886 289.804 25.6215C289.64 25.2545 289.38 24.9385 289.051 24.7064C288.49 24.3774 286.539 23.2708 286.008 22.9493Z" fill="#262A38"/>
<path d="M135.061 116.23C135.12 115.106 135.444 114.011 136.006 113.037C136.569 112.062 137.355 111.234 138.299 110.622L286.725 24.9232C288.513 23.8913 289.963 24.7288 289.963 26.7926V33.5746L135.061 123.012V116.23Z" fill="#373C4F"/>
<path d="M289.058 24.7215C288.689 24.537 288.275 24.4582 287.864 24.4938C287.452 24.5295 287.058 24.6781 286.725 24.9234L138.299 110.614C137.343 111.211 136.555 112.042 136.011 113.03L132.96 111.272C133.507 110.283 134.297 109.449 135.256 108.85L283.69 23.1512C284.021 22.9088 284.412 22.7618 284.82 22.7262C285.229 22.6906 285.64 22.7678 286.008 22.9493C286.539 23.2708 288.483 24.385 288.999 24.699L289.058 24.7215Z" fill="#454C64"/>
<path d="M271.741 37.0892C271.303 37.3802 270.939 37.77 270.679 38.2272C270.42 38.6843 270.271 39.1961 270.245 39.7213C270.245 40.6859 270.926 41.0822 271.741 40.5961C272.179 40.3052 272.542 39.9154 272.802 39.4582C273.062 39.0011 273.21 38.4893 273.236 37.9641C273.259 36.9846 272.578 36.5883 271.741 37.0892Z" fill="#1A40D7"/>
<path d="M277.057 34.0159C276.619 34.3052 276.256 34.6936 275.996 35.1496C275.736 35.6056 275.587 36.1163 275.562 36.6405C275.562 37.6125 276.242 38.0013 277.057 37.5228C277.494 37.231 277.857 36.841 278.117 36.384C278.377 35.927 278.526 35.4157 278.553 34.8907C278.575 33.9187 277.895 33.5299 277.057 34.0159Z" fill="#1A40D7"/>
<path d="M282.366 30.9501C281.928 31.241 281.565 31.6308 281.305 32.088C281.045 32.5452 280.897 33.0569 280.871 33.5821C280.871 34.5542 281.551 34.943 282.366 34.457C282.806 34.1673 283.17 33.7779 283.43 33.3204C283.69 32.863 283.838 32.3505 283.862 31.8249C283.892 30.8604 283.211 30.4641 282.366 30.9501Z" fill="#1A40D7"/>
<path d="M138.299 254.404L165.434 238.739V119.49L135.061 137.032V252.535C135.061 254.599 136.504 255.429 138.299 254.404Z" fill="#F5F5F5"/>
<path d="M164.687 120.783V238.306L137.925 253.754C137.601 253.959 137.231 254.077 136.848 254.098C135.906 254.098 135.809 253.006 135.809 252.535V137.458L164.687 120.783ZM165.434 119.49L135.061 137.032V252.535C135.061 254.031 135.809 254.846 136.848 254.846C137.362 254.826 137.861 254.674 138.299 254.404L165.434 238.739V119.49Z" fill="#E0E0E0"/>
<path d="M145.141 138.221L159.677 129.809C160.208 129.495 160.641 129.749 160.641 130.369V131.633C160.623 131.969 160.526 132.296 160.358 132.589C160.191 132.881 159.958 133.13 159.677 133.316L145.141 141.713C144.602 142.027 144.169 141.772 144.169 141.152V139.903C144.189 139.566 144.287 139.239 144.456 138.947C144.624 138.655 144.859 138.406 145.141 138.221Z" fill="#E0E0E0"/>
<path d="M141.133 141.66V142.924C141.115 143.261 141.017 143.589 140.848 143.882C140.679 144.174 140.444 144.422 140.161 144.607L139.069 145.235C138.531 145.549 138.097 145.294 138.097 144.674V143.41C138.115 143.073 138.213 142.745 138.382 142.453C138.551 142.16 138.786 141.912 139.069 141.728L140.161 141.1C140.699 140.786 141.133 141.025 141.133 141.66Z" fill="#1A40D7"/>
<path d="M145.141 145.212L159.677 136.815C160.208 136.501 160.641 136.755 160.641 137.368V138.632C160.623 138.969 160.526 139.297 160.359 139.591C160.191 139.884 159.958 140.134 159.677 140.322L145.141 148.719C144.602 149.025 144.169 148.779 144.169 148.158V146.894C144.188 146.557 144.285 146.23 144.454 145.937C144.623 145.645 144.858 145.397 145.141 145.212Z" fill="#E0E0E0"/>
<path d="M141.133 148.644V149.908C141.115 150.245 141.018 150.574 140.849 150.866C140.68 151.158 140.444 151.407 140.161 151.59L139.069 152.226C138.531 152.533 138.097 152.286 138.097 151.665V150.401C138.115 150.064 138.212 149.736 138.381 149.443C138.55 149.151 138.786 148.903 139.069 148.719L140.161 148.083C140.699 147.754 141.133 148.024 141.133 148.644Z" fill="#1A40D7"/>
<path d="M145.141 152.196L159.677 143.799C160.208 143.492 160.641 143.739 160.641 144.36V145.623C160.624 145.96 160.528 146.288 160.36 146.58C160.192 146.872 159.958 147.121 159.677 147.306L145.141 155.703C144.602 156.017 144.169 155.763 144.169 155.15V153.879C144.189 153.542 144.288 153.215 144.457 152.923C144.625 152.631 144.859 152.382 145.141 152.196Z" fill="#E0E0E0"/>
<path d="M141.133 155.635V156.899C141.115 157.236 141.018 157.565 140.849 157.857C140.68 158.15 140.444 158.398 140.161 158.582L139.069 159.217C138.531 159.524 138.097 159.269 138.097 158.656V157.385C138.117 157.048 138.215 156.721 138.383 156.429C138.552 156.136 138.787 155.888 139.069 155.703L140.161 155.075C140.699 154.768 141.133 155.015 141.133 155.635Z" fill="#1A40D7"/>
<path d="M145.141 175.376L159.677 166.971C160.208 166.665 160.641 166.912 160.641 167.532V168.796C160.624 169.132 160.528 169.46 160.36 169.752C160.192 170.044 159.958 170.293 159.677 170.478L145.141 178.883C144.602 179.189 144.169 178.943 144.169 178.322V177.058C144.188 176.721 144.285 176.394 144.454 176.101C144.623 175.809 144.858 175.561 145.141 175.376Z" fill="#E0E0E0"/>
<path d="M141.133 178.808V180.072C141.115 180.409 141.018 180.737 140.849 181.03C140.68 181.322 140.444 181.57 140.161 181.754L139.069 182.39C138.531 182.696 138.097 182.45 138.097 181.829V180.565C138.115 180.228 138.212 179.9 138.381 179.607C138.55 179.315 138.786 179.067 139.069 178.883L140.161 178.247C140.699 177.941 141.133 178.187 141.133 178.808Z" fill="#1A40D7"/>
<path d="M145.141 181.56L159.677 173.178C160.208 172.871 160.641 173.118 160.641 173.739V175.002C160.624 175.339 160.528 175.666 160.36 175.959C160.192 176.251 159.958 176.5 159.677 176.685L145.141 185.067C144.602 185.381 144.169 185.127 144.169 184.506V183.242C144.189 182.906 144.288 182.579 144.457 182.287C144.625 181.995 144.859 181.746 145.141 181.56Z" fill="#E0E0E0"/>
<path d="M141.133 184.999V186.263C141.115 186.6 141.018 186.929 140.849 187.221C140.68 187.514 140.444 187.762 140.161 187.946L139.069 188.574C138.531 188.888 138.097 188.633 138.097 188.013V186.749C138.117 186.412 138.215 186.085 138.383 185.793C138.552 185.5 138.787 185.252 139.069 185.067L140.161 184.439C140.699 184.132 141.133 184.394 141.133 184.999Z" fill="#1A40D7"/>
<path d="M145.141 187.751L159.677 179.354C160.208 179.04 160.641 179.294 160.641 179.915V181.178C160.623 181.514 160.526 181.842 160.358 182.134C160.191 182.426 159.958 182.675 159.677 182.861L145.141 191.258C144.602 191.572 144.169 191.318 144.169 190.697V189.433C144.189 189.097 144.287 188.769 144.456 188.477C144.624 188.185 144.859 187.936 145.141 187.751Z" fill="#E0E0E0"/>
<path d="M141.133 191.191V192.455C141.115 192.792 141.017 193.12 140.848 193.412C140.679 193.704 140.444 193.953 140.161 194.137L139.069 194.765C138.531 195.079 138.097 194.825 138.097 194.204V192.941C138.115 192.604 138.213 192.275 138.382 191.983C138.551 191.691 138.786 191.442 139.069 191.258L140.161 190.63C140.699 190.316 141.133 190.57 141.133 191.191Z" fill="#1A40D7"/>
<path d="M144.169 159.83V162.006L146.06 159.83H144.169Z" fill="#1A40D7"/>
<path d="M147.212 159.375C147.212 159.786 147.496 159.943 147.855 159.733L159.998 152.75C160.186 152.626 160.342 152.461 160.454 152.266C160.566 152.071 160.63 151.852 160.641 151.628C160.641 151.217 160.357 151.052 159.998 151.262L147.855 158.268C147.668 158.389 147.513 158.552 147.401 158.744C147.289 158.937 147.224 159.153 147.212 159.375Z" fill="#E0E0E0"/>
<path d="M144.169 163.33V165.513L146.06 163.33H144.169Z" fill="#1A40D7"/>
<path d="M147.212 162.881C147.212 163.285 147.496 163.449 147.855 163.24L159.998 156.249C160.186 156.128 160.343 155.963 160.455 155.77C160.567 155.576 160.631 155.358 160.641 155.135C160.641 154.723 160.357 154.559 159.998 154.768L147.855 161.775C147.668 161.895 147.513 162.059 147.401 162.251C147.289 162.443 147.224 162.659 147.212 162.881Z" fill="#E0E0E0"/>
<path d="M144.169 166.837V169.02L146.06 166.837H144.169Z" fill="#1A40D7"/>
<path d="M147.212 166.388C147.212 166.792 147.496 166.956 147.855 166.747L159.998 159.756C160.186 159.634 160.343 159.47 160.455 159.276C160.567 159.083 160.631 158.865 160.641 158.641C160.641 158.23 160.357 158.066 159.998 158.275L147.855 165.281C147.668 165.402 147.513 165.565 147.401 165.758C147.289 165.95 147.224 166.166 147.212 166.388Z" fill="#E0E0E0"/>
<path d="M144.169 170.344V172.527L146.06 170.344H144.169Z" fill="#1A40D7"/>
<path d="M147.212 169.895C147.212 170.299 147.496 170.463 147.855 170.254L159.998 163.262C160.186 163.141 160.343 162.977 160.455 162.783C160.567 162.589 160.631 162.372 160.641 162.148C160.641 161.737 160.357 161.572 159.998 161.782L147.855 168.788C147.668 168.909 147.513 169.072 147.401 169.265C147.289 169.457 147.224 169.673 147.212 169.895Z" fill="#E0E0E0"/>
<path d="M174.542 123.67V141.945C174.542 142.692 175.081 143.021 175.746 142.64L195.838 131.035C196.189 130.808 196.481 130.502 196.69 130.141C196.899 129.779 197.02 129.373 197.042 128.956V113.934C197.042 113.186 196.503 112.857 195.838 113.239L184.181 119.968C183.515 120.35 182.977 120.043 182.977 119.281V118.802C182.977 118.054 182.446 117.725 181.78 118.107L175.746 121.584C175.396 121.812 175.104 122.12 174.895 122.483C174.686 122.845 174.565 123.252 174.542 123.67Z" fill="#1A40D7"/>
<path d="M178.497 145.392V146.566C178.497 147.134 178.901 147.366 179.395 147.082L194.469 138.378C194.73 138.208 194.948 137.978 195.104 137.708C195.26 137.437 195.35 137.134 195.366 136.823V135.649C195.366 135.08 194.963 134.848 194.469 135.133L179.395 143.836C179.133 144.007 178.916 144.236 178.76 144.507C178.604 144.777 178.514 145.08 178.497 145.392Z" fill="#E0E0E0"/>
<path d="M202.5 107.631V125.906C202.5 126.653 203.039 126.975 203.697 126.594L223.788 114.996C224.138 114.768 224.429 114.461 224.638 114.1C224.847 113.739 224.969 113.334 224.992 112.917V97.8878C224.992 97.1401 224.454 96.8111 223.788 97.1924L212.131 103.922C211.466 104.303 210.935 103.989 210.935 103.227V102.748C210.935 102 210.396 101.679 209.731 102.06L203.697 105.545C203.347 105.774 203.057 106.082 202.849 106.445C202.641 106.807 202.521 107.214 202.5 107.631Z" fill="#1A40D7"/>
<path d="M206.433 129.353V130.557C206.433 131.132 206.837 131.364 207.331 131.08L222.405 122.331C222.666 122.159 222.883 121.928 223.039 121.657C223.195 121.385 223.285 121.081 223.302 120.769V119.602C223.302 119.026 222.899 118.795 222.405 119.086L207.331 127.79C207.069 127.962 206.852 128.193 206.696 128.465C206.541 128.736 206.451 129.04 206.433 129.353Z" fill="#E0E0E0"/>
<path d="M174.542 160.384V178.659C174.542 179.407 175.081 179.736 175.746 179.354L195.838 167.749C196.184 167.525 196.473 167.223 196.682 166.867C196.891 166.511 197.014 166.112 197.042 165.7V150.671C197.042 149.923 196.503 149.602 195.838 149.983L184.181 156.713C183.515 157.094 182.977 156.787 182.977 156.025V155.546C182.977 154.798 182.446 154.469 181.78 154.851L175.746 158.335C175.4 158.56 175.111 158.862 174.902 159.217C174.693 159.573 174.57 159.972 174.542 160.384Z" fill="#1A40D7"/>
<path d="M178.497 182.105V183.279C178.497 183.848 178.901 184.08 179.395 183.795L194.469 175.092C194.73 174.921 194.947 174.691 195.102 174.421C195.258 174.151 195.349 173.848 195.366 173.536V172.362C195.366 171.794 194.963 171.562 194.469 171.847L179.395 180.55C179.133 180.72 178.916 180.95 178.76 181.22C178.604 181.491 178.514 181.794 178.497 182.105Z" fill="#E0E0E0"/>
<path d="M202.5 144.337V162.612C202.5 163.36 203.039 163.689 203.697 163.307L223.788 151.703C224.138 151.477 224.43 151.171 224.639 150.811C224.848 150.451 224.969 150.047 224.992 149.631V134.602C224.992 133.854 224.454 133.525 223.788 133.906L212.131 140.636C211.466 141.017 210.935 140.703 210.935 139.941V139.462C210.935 138.714 210.396 138.385 209.731 138.774L203.697 142.259C203.348 142.486 203.057 142.793 202.849 143.155C202.642 143.516 202.522 143.921 202.5 144.337Z" fill="#1A40D7"/>
<path d="M206.433 166.067V167.233C206.433 167.809 206.837 168.041 207.331 167.749L222.405 159.053C222.666 158.881 222.883 158.649 223.039 158.378C223.195 158.107 223.285 157.803 223.302 157.49V156.324C223.302 155.748 222.899 155.516 222.405 155.8L207.331 164.504C207.069 164.676 206.852 164.907 206.696 165.179C206.541 165.45 206.451 165.754 206.433 166.067Z" fill="#E0E0E0"/>
<path d="M230.75 90.7018V108.977C230.75 109.724 231.288 110.053 231.946 109.672L252.045 98.067C252.394 97.8387 252.684 97.5316 252.891 97.1705C253.099 96.8093 253.219 96.4044 253.242 95.9883V80.9662C253.242 80.2184 252.703 79.8894 252.045 80.2708L240.38 87.0005C239.722 87.3893 239.184 87.0752 239.184 86.3125V85.834C239.184 85.0862 238.646 84.7572 237.98 85.1386L231.946 88.6305C231.598 88.8576 231.308 89.1635 231.1 89.5233C230.893 89.8831 230.772 90.2868 230.75 90.7018Z" fill="#1A40D7"/>
<path d="M234.369 113.306V114.48C234.369 115.048 234.772 115.28 235.273 114.996L250.355 106.292C250.619 106.123 250.838 105.894 250.995 105.624C251.153 105.353 251.243 105.049 251.26 104.737V103.57C251.26 102.995 250.856 102.763 250.355 103.047L235.288 111.751C235.022 111.918 234.8 112.146 234.64 112.417C234.48 112.687 234.387 112.992 234.369 113.306Z" fill="#E0E0E0"/>
<path d="M258.356 75.5454V93.8202C258.356 94.5679 258.895 94.8895 259.56 94.5081L279.652 82.9107C280 82.6824 280.29 82.3753 280.498 82.0141C280.706 81.653 280.826 81.248 280.848 80.8319V65.8024C280.848 65.0546 280.317 64.7256 279.652 65.107L267.995 71.8366C267.329 72.218 266.791 71.9039 266.791 71.1412V70.6627C266.791 69.9149 266.26 69.5934 265.594 69.9748L259.56 73.4592C259.208 73.6865 258.916 73.9942 258.706 74.357C258.497 74.7198 258.377 75.1271 258.356 75.5454Z" fill="#1A40D7"/>
<path d="M262.319 97.267V98.4036C262.319 98.9793 262.715 99.2111 263.216 98.927L278.291 90.2233C278.551 90.0517 278.767 89.8218 278.923 89.5518C279.079 89.2818 279.17 88.9791 279.188 88.668V87.494C279.188 86.9183 278.784 86.6865 278.291 86.9781L263.216 95.6743C262.95 95.8487 262.73 96.0843 262.574 96.3615C262.418 96.6386 262.33 96.9491 262.319 97.267Z" fill="#E0E0E0"/>
<path d="M234.369 149.998V151.172C234.369 151.74 234.772 151.972 235.273 151.688L250.355 142.992C250.619 142.823 250.838 142.593 250.995 142.323C251.153 142.053 251.243 141.749 251.26 141.436V140.277C251.26 139.709 250.856 139.477 250.355 139.761L235.288 148.465C235.025 148.63 234.805 148.855 234.645 149.121C234.485 149.388 234.391 149.688 234.369 149.998Z" fill="#E0E0E0"/>
<path d="M234.75 124.32L250.355 115.295C251.066 114.884 251.649 115.22 251.649 116.043V134.093C251.625 134.543 251.495 134.98 251.27 135.369C251.046 135.759 250.732 136.091 250.355 136.337L234.75 145.362C234.002 145.773 233.457 145.444 233.457 144.614V126.564C233.481 126.115 233.611 125.678 233.836 125.288C234.061 124.898 234.374 124.567 234.75 124.32Z" fill="#FAFAFA"/>
<path d="M234.167 145.915C233.984 145.917 233.803 145.87 233.643 145.78C233.454 145.654 233.302 145.479 233.203 145.274C233.105 145.069 233.063 144.841 233.083 144.614V126.564C233.109 126.048 233.258 125.545 233.518 125.099C233.778 124.653 234.142 124.276 234.578 123.999L250.213 114.974C250.4 114.844 250.618 114.767 250.844 114.751C251.07 114.735 251.297 114.781 251.499 114.884C251.688 115.009 251.841 115.183 251.941 115.386C252.04 115.59 252.084 115.817 252.068 116.043V134.093C252.042 134.609 251.892 135.111 251.632 135.558C251.372 136.004 251.008 136.381 250.572 136.658L234.937 145.691C234.704 145.831 234.439 145.909 234.167 145.915ZM250.961 115.497C250.822 115.502 250.688 115.546 250.572 115.624L234.937 124.649C234.616 124.86 234.349 125.143 234.157 125.476C233.965 125.808 233.853 126.18 233.83 126.564V144.614C233.83 144.876 233.898 145.063 234.017 145.13C234.109 145.16 234.206 145.168 234.301 145.152C234.396 145.136 234.486 145.098 234.563 145.04L250.198 136.015C250.518 135.801 250.784 135.516 250.976 135.183C251.168 134.85 251.28 134.477 251.305 134.093V116.043C251.316 115.948 251.305 115.851 251.271 115.761C251.237 115.671 251.182 115.591 251.111 115.527C251.064 115.505 251.013 115.494 250.961 115.497Z" fill="#EBEBEB"/>
<path d="M252.224 117.733L248.74 119.744C248.362 119.989 248.047 120.32 247.821 120.71C247.595 121.1 247.464 121.537 247.439 121.987V126.01C247.439 126.84 248.022 127.177 248.74 126.758L252.224 124.746C252.601 124.5 252.915 124.169 253.139 123.779C253.364 123.39 253.494 122.952 253.518 122.503V118.48C253.518 117.658 252.935 117.321 252.224 117.733Z" fill="#1A40D7"/>
<path d="M235.939 126.272L243.775 121.786C244.127 121.584 244.418 121.748 244.418 122.167V122.414C244.405 122.638 244.34 122.856 244.229 123.05C244.117 123.245 243.962 123.411 243.775 123.535L235.939 128.022C235.58 128.231 235.288 128.067 235.296 127.648V127.394C235.307 127.169 235.371 126.951 235.483 126.756C235.595 126.561 235.751 126.395 235.939 126.272Z" fill="#EBEBEB"/>
<path d="M235.939 129.809L243.775 125.322C244.127 125.113 244.418 125.285 244.418 125.696V125.943C244.407 126.167 244.343 126.386 244.231 126.581C244.119 126.776 243.963 126.941 243.775 127.065L235.939 131.551C235.58 131.76 235.288 131.551 235.296 131.177V130.915C235.31 130.694 235.375 130.478 235.486 130.286C235.598 130.094 235.753 129.93 235.939 129.809Z" fill="#EBEBEB"/>
<path d="M235.939 133.278L243.775 128.792C244.127 128.59 244.418 128.754 244.418 129.166V129.42C244.405 129.644 244.34 129.862 244.229 130.056C244.117 130.251 243.962 130.417 243.775 130.541L235.939 135.028C235.58 135.237 235.288 135.073 235.296 134.654V134.4C235.307 134.175 235.371 133.957 235.482 133.762C235.594 133.567 235.751 133.401 235.939 133.278Z" fill="#EBEBEB"/>
<path d="M235.939 136.778L248.95 129.3C249.308 129.099 249.6 129.3 249.6 129.674V129.929C249.587 130.153 249.522 130.372 249.409 130.567C249.296 130.762 249.138 130.927 248.95 131.05L235.939 138.528C235.58 138.729 235.288 138.565 235.296 138.154V137.892C235.308 137.669 235.373 137.452 235.485 137.258C235.596 137.065 235.752 136.9 235.939 136.778Z" fill="#EBEBEB"/>
<path d="M235.939 140.277L248.95 132.8C249.308 132.59 249.6 132.8 249.6 133.174V133.42C249.588 133.645 249.522 133.864 249.409 134.059C249.296 134.254 249.139 134.42 248.95 134.542L235.939 142.019C235.58 142.229 235.288 142.057 235.296 141.646V141.391C235.307 141.168 235.371 140.95 235.482 140.756C235.594 140.563 235.751 140.398 235.939 140.277Z" fill="#EBEBEB"/>
<path d="M261.706 134.228V135.394C261.706 135.97 262.11 136.202 262.603 135.918L277.678 127.214C277.94 127.043 278.158 126.812 278.314 126.54C278.469 126.268 278.559 125.964 278.575 125.651V124.485C278.575 123.909 278.179 123.677 277.678 123.961L262.603 132.665C262.342 132.837 262.125 133.068 261.969 133.34C261.813 133.611 261.723 133.915 261.706 134.228Z" fill="#E0E0E0"/>
<path d="M262.087 108.543L277.715 99.5178C278.463 99.0991 279.016 99.4355 279.016 100.266V118.316C278.99 118.766 278.859 119.203 278.633 119.592C278.407 119.982 278.092 120.313 277.715 120.559L262.087 129.584C261.34 129.996 260.786 129.659 260.786 128.837V110.786C260.811 110.336 260.942 109.898 261.168 109.508C261.394 109.119 261.709 108.788 262.087 108.543Z" fill="#FAFAFA"/>
<path d="M261.504 130.13C261.321 130.132 261.14 130.086 260.981 129.996C260.792 129.87 260.639 129.697 260.54 129.493C260.44 129.29 260.396 129.063 260.412 128.837V110.786C260.437 110.269 260.586 109.765 260.846 109.318C261.107 108.87 261.471 108.492 261.908 108.214L277.536 99.1889C277.718 99.0463 277.938 98.9614 278.169 98.9452C278.4 98.929 278.63 98.9823 278.83 99.0981C279.031 99.2139 279.192 99.3869 279.293 99.595C279.394 99.8031 279.43 100.037 279.397 100.266V118.316C279.372 118.832 279.223 119.335 278.963 119.781C278.702 120.227 278.339 120.605 277.902 120.881L262.274 129.906C262.041 130.047 261.776 130.124 261.504 130.13ZM262.252 108.865C261.93 109.076 261.661 109.36 261.468 109.694C261.274 110.027 261.161 110.401 261.138 110.786V128.837C261.126 128.932 261.138 129.029 261.172 129.118C261.206 129.208 261.261 129.289 261.332 129.353C261.424 129.383 261.522 129.39 261.617 129.373C261.713 129.356 261.802 129.316 261.878 129.255L277.506 120.23C277.827 120.02 278.095 119.737 278.289 119.405C278.482 119.072 278.596 118.7 278.62 118.316V100.266C278.66 100.168 278.664 100.059 278.63 99.9589C278.595 99.8589 278.526 99.7748 278.434 99.7225C278.342 99.6701 278.234 99.6531 278.131 99.6747C278.027 99.6962 277.935 99.7548 277.872 99.8394L262.252 108.865Z" fill="#EBEBEB"/>
<path d="M279.555 101.955L276.07 103.967C275.694 104.213 275.38 104.544 275.155 104.934C274.931 105.324 274.801 105.761 274.777 106.21V110.233C274.777 111.055 275.36 111.392 276.07 110.981L279.555 108.969C279.932 108.723 280.246 108.392 280.472 108.002C280.698 107.613 280.829 107.176 280.856 106.726V102.703C280.856 101.873 280.265 101.537 279.555 101.955Z" fill="#1A40D7"/>
<path d="M263.276 110.487L271.105 106.001C271.464 105.791 271.756 106.001 271.756 106.375V106.629C271.745 106.854 271.68 107.074 271.567 107.269C271.453 107.464 271.295 107.629 271.105 107.75L263.276 112.237C262.917 112.446 262.626 112.274 262.626 111.863V111.601C262.64 111.378 262.706 111.161 262.819 110.967C262.932 110.774 263.088 110.609 263.276 110.487Z" fill="#EBEBEB"/>
<path d="M263.276 113.994L271.105 109.508C271.464 109.306 271.756 109.508 271.756 109.882V110.136C271.743 110.361 271.677 110.579 271.564 110.774C271.451 110.969 271.294 111.135 271.105 111.257L263.276 115.744C262.917 115.953 262.626 115.789 262.626 115.37V115.116C262.638 114.891 262.703 114.672 262.816 114.477C262.929 114.282 263.087 114.117 263.276 113.994Z" fill="#EBEBEB"/>
<path d="M263.276 117.493L271.105 113.007C271.464 112.797 271.756 113.007 271.756 113.381V113.627C271.743 113.852 271.678 114.071 271.565 114.266C271.452 114.461 271.294 114.627 271.105 114.749L263.276 119.236C262.917 119.437 262.626 119.273 262.626 118.862V118.592C262.642 118.371 262.709 118.157 262.822 117.967C262.935 117.776 263.09 117.614 263.276 117.493Z" fill="#EBEBEB"/>
<path d="M263.276 121L276.287 113.523C276.646 113.314 276.937 113.486 276.937 113.897V114.106C276.925 114.331 276.859 114.55 276.746 114.745C276.633 114.94 276.476 115.105 276.287 115.228L263.276 122.705C262.917 122.915 262.626 122.743 262.626 122.331V122.077C262.644 121.86 262.712 121.649 262.825 121.462C262.937 121.276 263.092 121.117 263.276 121Z" fill="#EBEBEB"/>
<path d="M263.276 124.5L276.287 117.022C276.646 116.821 276.937 116.985 276.937 117.396V117.651C276.925 117.875 276.859 118.094 276.746 118.289C276.633 118.484 276.476 118.649 276.287 118.772L263.276 126.25C262.917 126.451 262.626 126.287 262.626 125.876V125.614C262.64 125.39 262.706 125.173 262.819 124.98C262.932 124.786 263.088 124.622 263.276 124.5Z" fill="#EBEBEB"/>
<path d="M234.369 187.258V188.432C234.369 189 234.772 189.232 235.273 188.948L250.355 180.244C250.619 180.075 250.838 179.846 250.995 179.575C251.153 179.305 251.243 179.001 251.26 178.689V177.515C251.26 176.947 250.856 176.715 250.355 176.999L235.288 185.703C235.022 185.87 234.8 186.098 234.64 186.369C234.48 186.639 234.387 186.944 234.369 187.258Z" fill="#E0E0E0"/>
<path d="M234.75 161.573L250.355 152.548C251.065 152.136 251.649 152.473 251.649 153.295V171.346C251.623 171.795 251.493 172.231 251.268 172.621C251.044 173.011 250.731 173.342 250.355 173.589L234.72 182.614C233.972 183.025 233.426 182.696 233.426 181.866V163.816C233.453 163.364 233.587 162.925 233.817 162.535C234.048 162.145 234.367 161.815 234.75 161.573Z" fill="#FAFAFA"/>
<path d="M234.167 183.168C233.983 183.169 233.803 183.123 233.643 183.033C233.455 182.906 233.304 182.73 233.205 182.525C233.107 182.321 233.064 182.093 233.082 181.867V163.816C233.108 163.3 233.258 162.798 233.518 162.352C233.778 161.905 234.142 161.528 234.578 161.251L250.198 152.241C250.38 152.102 250.599 152.019 250.827 152.004C251.056 151.989 251.284 152.043 251.482 152.157C251.681 152.271 251.841 152.442 251.942 152.647C252.044 152.852 252.082 153.083 252.053 153.31V171.361C252.027 171.877 251.877 172.379 251.617 172.825C251.357 173.271 250.993 173.649 250.557 173.926L234.922 182.951C234.692 183.086 234.433 183.16 234.167 183.168ZM250.961 152.742C250.823 152.751 250.689 152.794 250.572 152.869L234.937 161.902C234.616 162.112 234.348 162.395 234.156 162.728C233.964 163.06 233.852 163.433 233.83 163.816V181.867C233.79 181.964 233.786 182.073 233.82 182.173C233.855 182.273 233.924 182.357 234.016 182.41C234.108 182.462 234.216 182.479 234.319 182.458C234.422 182.436 234.515 182.377 234.578 182.293L250.213 173.268C250.533 173.054 250.799 172.769 250.991 172.436C251.183 172.103 251.295 171.73 251.32 171.346V153.295C251.331 153.2 251.319 153.103 251.286 153.014C251.252 152.924 251.197 152.844 251.125 152.779C251.075 152.752 251.018 152.739 250.961 152.742Z" fill="#EBEBEB"/>
<path d="M252.224 154.985L248.74 156.997C248.362 157.242 248.047 157.573 247.821 157.962C247.595 158.352 247.464 158.79 247.439 159.24V163.263C247.439 164.093 248.022 164.422 248.74 164.01L252.224 161.999C252.601 161.753 252.915 161.422 253.139 161.032C253.364 160.642 253.494 160.205 253.518 159.756V155.733C253.518 154.91 252.935 154.574 252.224 154.985Z" fill="#1A40D7"/>
<path d="M235.939 163.524L243.775 159.038C244.127 158.836 244.418 159.001 244.418 159.412V159.666C244.405 159.89 244.34 160.108 244.229 160.303C244.117 160.497 243.962 160.663 243.775 160.788L235.939 165.274C235.58 165.484 235.288 165.319 235.296 164.9V164.646C235.307 164.422 235.371 164.203 235.482 164.008C235.594 163.813 235.751 163.647 235.939 163.524Z" fill="#EBEBEB"/>
<path d="M235.939 167.024L243.775 162.537C244.127 162.328 244.418 162.5 244.418 162.911V163.158C244.406 163.382 244.342 163.601 244.23 163.795C244.118 163.99 243.963 164.156 243.775 164.28L235.939 168.766C235.58 168.968 235.288 168.803 235.296 168.392V168.13C235.31 167.909 235.375 167.693 235.486 167.501C235.598 167.309 235.753 167.146 235.939 167.024Z" fill="#EBEBEB"/>
<path d="M235.939 170.531L243.775 166.044C244.127 165.842 244.418 166.007 244.418 166.418V166.672C244.405 166.896 244.34 167.114 244.229 167.309C244.117 167.503 243.962 167.669 243.775 167.794L235.939 172.28C235.58 172.49 235.288 172.318 235.296 171.906V171.682C235.301 171.452 235.362 171.227 235.474 171.026C235.586 170.825 235.746 170.655 235.939 170.531Z" fill="#EBEBEB"/>
<path d="M235.939 174.03L248.95 166.553C249.308 166.351 249.6 166.515 249.6 166.927V167.196C249.587 167.421 249.522 167.639 249.409 167.834C249.296 168.029 249.138 168.195 248.95 168.317L235.939 175.795C235.58 175.997 235.288 175.832 235.296 175.421V175.159C235.306 174.934 235.37 174.714 235.481 174.517C235.593 174.321 235.75 174.154 235.939 174.03Z" fill="#EBEBEB"/>
<path d="M235.939 177.537L248.95 170.06C249.308 169.85 249.6 170.015 249.6 170.433V170.68C249.587 170.905 249.522 171.124 249.409 171.319C249.296 171.513 249.138 171.679 248.95 171.802L235.939 179.279C235.58 179.489 235.288 179.317 235.296 178.905V178.651C235.307 178.428 235.371 178.21 235.482 178.016C235.594 177.822 235.751 177.658 235.939 177.537Z" fill="#EBEBEB"/>
<path d="M261.706 171.473V172.647C261.706 173.223 262.11 173.455 262.603 173.163L277.678 164.467C277.94 164.295 278.158 164.064 278.314 163.793C278.469 163.521 278.559 163.217 278.575 162.904V161.737C278.575 161.162 278.179 160.93 277.678 161.214L262.603 169.918C262.343 170.089 262.127 170.319 261.971 170.589C261.815 170.859 261.724 171.162 261.706 171.473Z" fill="#E0E0E0"/>
<path d="M262.087 145.795L277.715 136.77C278.463 136.352 279.016 136.688 279.016 137.518V155.561C278.992 156.011 278.861 156.449 278.635 156.839C278.409 157.229 278.094 157.559 277.715 157.804L262.087 166.837C261.34 167.248 260.786 166.912 260.786 166.089V148.039C260.811 147.589 260.942 147.151 261.168 146.761C261.394 146.371 261.709 146.04 262.087 145.795Z" fill="#FAFAFA"/>
<path d="M261.504 167.383C261.321 167.385 261.14 167.338 260.981 167.248C260.792 167.123 260.639 166.949 260.54 166.746C260.44 166.542 260.396 166.315 260.412 166.089V148.039C260.437 147.521 260.585 147.017 260.845 146.57C261.106 146.122 261.47 145.744 261.908 145.467L277.536 136.441C277.718 136.299 277.938 136.214 278.169 136.198C278.4 136.181 278.63 136.235 278.83 136.351C279.031 136.466 279.192 136.639 279.293 136.847C279.394 137.056 279.43 137.289 279.397 137.518V155.561C279.373 156.078 279.225 156.582 278.964 157.03C278.704 157.478 278.34 157.856 277.902 158.133L262.274 167.196C262.038 167.323 261.773 167.388 261.504 167.383ZM262.252 146.117C261.93 146.329 261.661 146.613 261.468 146.946C261.274 147.28 261.161 147.654 261.138 148.039V166.089C261.125 166.183 261.136 166.279 261.17 166.368C261.204 166.457 261.26 166.536 261.332 166.598C261.423 166.63 261.521 166.638 261.616 166.623C261.712 166.607 261.802 166.568 261.878 166.508L277.528 157.475C277.85 157.263 278.119 156.98 278.312 156.646C278.506 156.312 278.619 155.938 278.642 155.554V137.518C278.683 137.42 278.686 137.311 278.652 137.211C278.618 137.111 278.548 137.027 278.457 136.975C278.365 136.923 278.257 136.906 278.153 136.927C278.05 136.949 277.958 137.007 277.895 137.092L262.252 146.117Z" fill="#EBEBEB"/>
<path d="M279.555 139.208L276.07 141.219C275.694 141.465 275.38 141.797 275.155 142.186C274.931 142.576 274.801 143.013 274.777 143.462V147.485C274.777 148.308 275.36 148.644 276.07 148.233L279.555 146.222C279.932 145.976 280.246 145.644 280.472 145.255C280.698 144.865 280.829 144.428 280.856 143.978V139.956C280.856 139.126 280.265 138.782 279.555 139.208Z" fill="#1A40D7"/>
<path d="M263.276 147.755L271.105 143.268C271.464 143.059 271.756 143.231 271.756 143.642V143.889C271.743 144.114 271.678 144.333 271.565 144.528C271.452 144.723 271.294 144.888 271.105 145.01L263.276 149.497C262.917 149.699 262.626 149.497 262.626 149.123V148.861C262.641 148.639 262.708 148.423 262.82 148.231C262.933 148.039 263.089 147.876 263.276 147.755Z" fill="#EBEBEB"/>
<path d="M263.276 151.246L271.105 146.76C271.464 146.558 271.756 146.76 271.756 147.134V147.388C271.743 147.613 271.677 147.832 271.564 148.026C271.451 148.221 271.294 148.387 271.105 148.51L263.276 152.996C262.917 153.205 262.626 153.033 262.626 152.622V152.368C262.637 152.143 262.702 151.923 262.815 151.728C262.928 151.533 263.086 151.368 263.276 151.246Z" fill="#EBEBEB"/>
<path d="M263.276 154.746L271.105 150.259C271.464 150.05 271.756 150.215 271.756 150.633V150.88C271.743 151.105 271.677 151.324 271.564 151.519C271.451 151.713 271.294 151.879 271.105 152.002L263.276 156.488C262.917 156.69 262.626 156.526 262.626 156.114V155.853C262.641 155.63 262.708 155.415 262.82 155.222C262.933 155.03 263.089 154.867 263.276 154.746Z" fill="#EBEBEB"/>
<path d="M263.276 158.223L276.287 150.746C276.646 150.536 276.937 150.701 276.937 151.119V151.366C276.925 151.591 276.859 151.81 276.746 152.005C276.633 152.199 276.476 152.365 276.287 152.488L263.276 159.965C262.917 160.175 262.626 160.003 262.626 159.591V159.337C262.638 159.113 262.703 158.895 262.816 158.701C262.93 158.508 263.087 158.344 263.276 158.223Z" fill="#EBEBEB"/>
<path d="M263.276 161.752L276.287 154.275C276.646 154.066 276.937 154.238 276.937 154.649V154.896C276.926 155.121 276.862 155.34 276.748 155.535C276.635 155.731 276.477 155.896 276.287 156.017L263.276 163.495C262.917 163.696 262.626 163.532 262.626 163.121V162.859C262.641 162.637 262.708 162.421 262.82 162.229C262.933 162.037 263.089 161.874 263.276 161.752Z" fill="#EBEBEB"/>
<path d="M178.497 219.538V220.704C178.497 221.28 178.901 221.512 179.402 221.228L194.469 212.524C194.732 212.354 194.951 212.125 195.108 211.855C195.265 211.584 195.356 211.281 195.374 210.969V209.817C195.374 209.241 194.97 209.009 194.469 209.301L179.402 217.997C179.142 218.166 178.925 218.393 178.768 218.661C178.611 218.928 178.518 219.228 178.497 219.538Z" fill="#E0E0E0"/>
<path d="M178.879 193.852L194.514 184.827C195.262 184.416 195.808 184.745 195.808 185.575V203.625C195.782 204.074 195.651 204.511 195.427 204.9C195.202 205.29 194.889 205.621 194.514 205.869L178.879 214.894C178.131 215.305 177.585 214.969 177.585 214.146V196.096C177.608 195.646 177.738 195.209 177.962 194.819C178.187 194.429 178.501 194.098 178.879 193.852Z" fill="#FAFAFA"/>
<path d="M178.296 215.44C178.112 215.442 177.932 215.395 177.772 215.305C177.584 215.18 177.433 215.006 177.334 214.802C177.236 214.598 177.193 214.372 177.211 214.146V196.096C177.237 195.58 177.387 195.078 177.647 194.632C177.907 194.185 178.271 193.808 178.707 193.531L194.342 184.506C194.523 184.363 194.743 184.277 194.973 184.26C195.203 184.243 195.432 184.296 195.632 184.411C195.832 184.526 195.993 184.699 196.093 184.906C196.194 185.114 196.23 185.347 196.197 185.575V203.626C196.17 204.142 196.021 204.644 195.761 205.09C195.501 205.536 195.137 205.914 194.701 206.19L179.066 215.216C178.833 215.356 178.567 215.433 178.296 215.44ZM179.066 194.174C178.745 194.387 178.478 194.671 178.286 195.005C178.094 195.338 177.982 195.712 177.959 196.096V214.146C177.919 214.244 177.915 214.353 177.949 214.453C177.983 214.553 178.053 214.637 178.145 214.69C178.237 214.742 178.344 214.759 178.448 214.737C178.551 214.716 178.644 214.657 178.707 214.573L194.342 205.54C194.662 205.328 194.928 205.044 195.12 204.712C195.312 204.38 195.424 204.008 195.449 203.626V185.575C195.489 185.478 195.493 185.369 195.459 185.269C195.424 185.169 195.355 185.084 195.263 185.032C195.171 184.98 195.063 184.963 194.96 184.984C194.856 185.006 194.764 185.064 194.701 185.149L179.066 194.174Z" fill="#EBEBEB"/>
<path d="M196.354 187.265L192.869 189.277C192.491 189.521 192.176 189.852 191.949 190.242C191.723 190.632 191.593 191.07 191.568 191.52V195.543C191.568 196.365 192.151 196.702 192.869 196.29L196.354 194.279C196.729 194.032 197.042 193.701 197.267 193.311C197.492 192.922 197.622 192.485 197.647 192.036V188.013C197.647 187.183 197.064 186.854 196.354 187.265Z" fill="#1A40D7"/>
<path d="M180.068 195.804L187.904 191.318C188.256 191.108 188.547 191.28 188.547 191.692V191.938C188.536 192.163 188.472 192.381 188.36 192.576C188.248 192.771 188.092 192.937 187.904 193.06L180.068 197.546C179.709 197.756 179.425 197.546 179.425 197.172V196.918C179.436 196.695 179.5 196.477 179.611 196.283C179.723 196.09 179.88 195.925 180.068 195.804Z" fill="#EBEBEB"/>
<path d="M180.068 199.304L187.904 194.817C188.256 194.615 188.547 194.78 188.547 195.199V195.445C188.534 195.669 188.469 195.887 188.358 196.082C188.246 196.277 188.091 196.443 187.904 196.567L180.068 201.054C179.709 201.255 179.425 201.054 179.425 200.68V200.418C179.437 200.195 179.502 199.978 179.614 199.784C179.725 199.591 179.881 199.426 180.068 199.304Z" fill="#EBEBEB"/>
<path d="M180.068 202.811L187.904 198.324C188.256 198.115 188.547 198.287 188.547 198.698V198.945C188.536 199.169 188.472 199.388 188.36 199.583C188.248 199.778 188.092 199.943 187.904 200.066L180.068 204.583C179.709 204.792 179.425 204.583 179.425 204.209V203.947C179.432 203.72 179.494 203.498 179.606 203.3C179.718 203.102 179.877 202.934 180.068 202.811Z" fill="#EBEBEB"/>
<path d="M180.068 206.31L193.079 198.833C193.437 198.623 193.729 198.833 193.729 199.206V199.453C193.718 199.678 193.653 199.898 193.54 200.093C193.427 200.288 193.269 200.453 193.079 200.575L180.068 208.052C179.709 208.262 179.425 208.097 179.425 207.678V207.424C179.437 207.201 179.502 206.984 179.614 206.791C179.725 206.597 179.881 206.432 180.068 206.31Z" fill="#EBEBEB"/>
<path d="M180.068 209.817L193.079 202.34C193.437 202.138 193.729 202.34 193.729 202.713V202.968C193.716 203.193 193.651 203.411 193.538 203.606C193.425 203.801 193.267 203.966 193.079 204.089L180.068 211.567C179.709 211.769 179.425 211.604 179.425 211.193V210.931C179.437 210.708 179.502 210.491 179.614 210.298C179.725 210.104 179.881 209.939 180.068 209.817Z" fill="#EBEBEB"/>
<path d="M205.835 203.753V204.927C205.835 205.495 206.239 205.734 206.732 205.443L221.807 196.739C222.069 196.57 222.288 196.341 222.444 196.07C222.6 195.8 222.689 195.496 222.704 195.184V194.017C222.704 193.441 222.308 193.21 221.807 193.494L206.732 202.197C206.472 202.369 206.255 202.598 206.099 202.869C205.943 203.139 205.853 203.441 205.835 203.753Z" fill="#E0E0E0"/>
<path d="M206.239 178.068L221.866 169.043C222.614 168.631 223.167 168.968 223.167 169.79V187.841C223.143 188.291 223.012 188.729 222.786 189.119C222.56 189.509 222.245 189.839 221.866 190.084L206.239 199.109C205.491 199.528 204.938 199.192 204.938 198.362V180.311C204.964 179.862 205.095 179.424 205.321 179.035C205.547 178.645 205.861 178.314 206.239 178.068Z" fill="#FAFAFA"/>
<path d="M205.633 199.663C205.45 199.664 205.269 199.618 205.11 199.528C204.921 199.401 204.769 199.226 204.669 199.021C204.569 198.816 204.525 198.589 204.541 198.361V180.311C204.568 179.795 204.718 179.293 204.978 178.847C205.238 178.401 205.601 178.023 206.037 177.746L221.657 168.691C221.839 168.549 222.059 168.465 222.289 168.448C222.518 168.432 222.748 168.485 222.948 168.6C223.148 168.714 223.309 168.886 223.411 169.093C223.512 169.3 223.55 169.532 223.519 169.76V187.811C223.495 188.327 223.346 188.83 223.086 189.277C222.826 189.723 222.461 190.1 222.024 190.376L206.396 199.408C206.168 199.558 205.905 199.646 205.633 199.663ZM222.427 169.244C222.286 169.248 222.148 169.293 222.031 169.372L206.403 178.412C206.082 178.622 205.814 178.905 205.62 179.237C205.427 179.57 205.313 179.942 205.289 180.326V198.376C205.276 198.472 205.287 198.569 205.321 198.659C205.355 198.749 205.411 198.829 205.484 198.892C205.575 198.922 205.672 198.93 205.767 198.914C205.863 198.899 205.952 198.86 206.029 198.803L221.657 189.777C221.979 189.565 222.247 189.281 222.44 188.948C222.634 188.614 222.747 188.24 222.771 187.856V169.79C222.783 169.695 222.771 169.598 222.737 169.509C222.703 169.419 222.648 169.338 222.577 169.274C222.53 169.253 222.479 169.243 222.427 169.244Z" fill="#EBEBEB"/>
<path d="M223.684 171.48L220.199 173.492C219.824 173.739 219.511 174.071 219.287 174.46C219.062 174.849 218.932 175.286 218.906 175.735V179.758C218.906 180.588 219.489 180.924 220.199 180.505L223.684 178.494C224.062 178.249 224.377 177.918 224.603 177.529C224.829 177.139 224.96 176.701 224.985 176.251V172.228C224.985 171.405 224.401 171.069 223.684 171.48Z" fill="#1A40D7"/>
<path d="M207.405 180.019L215.234 175.533C215.593 175.331 215.885 175.496 215.885 175.914V176.169C215.872 176.393 215.806 176.612 215.693 176.807C215.58 177.002 215.423 177.167 215.234 177.29L207.405 181.777C207.046 181.978 206.755 181.814 206.755 181.395V181.141C206.767 180.916 206.833 180.697 206.946 180.503C207.059 180.308 207.216 180.142 207.405 180.019Z" fill="#EBEBEB"/>
<path d="M207.405 183.527L215.234 179.04C215.593 178.831 215.885 179.003 215.885 179.414V179.661C215.873 179.886 215.809 180.105 215.696 180.301C215.582 180.496 215.424 180.661 215.234 180.782L207.405 185.269C207.046 185.478 206.755 185.306 206.755 184.895V184.633C206.768 184.41 206.834 184.194 206.947 184.002C207.06 183.809 207.217 183.647 207.405 183.527Z" fill="#EBEBEB"/>
<path d="M207.405 187.026L215.234 182.539C215.593 182.337 215.885 182.502 215.885 182.913V183.167C215.872 183.392 215.806 183.611 215.693 183.806C215.58 184.001 215.423 184.166 215.234 184.289L207.405 188.775C207.046 188.985 206.755 188.82 206.755 188.402V188.132C206.77 187.91 206.836 187.694 206.949 187.502C207.062 187.31 207.218 187.147 207.405 187.026Z" fill="#EBEBEB"/>
<path d="M207.405 190.525L220.416 183.048C220.775 182.846 221.066 183.011 221.066 183.422V183.646C221.054 183.871 220.988 184.09 220.875 184.285C220.762 184.48 220.605 184.645 220.416 184.768L207.405 192.245C207.046 192.447 206.755 192.283 206.755 191.871V191.61C206.773 191.391 206.841 191.18 206.954 190.992C207.067 190.804 207.221 190.645 207.405 190.525Z" fill="#EBEBEB"/>
<path d="M207.405 194.032L220.416 186.555C220.775 186.345 221.066 186.517 221.066 186.929V187.175C221.054 187.4 220.989 187.619 220.876 187.814C220.763 188.009 220.605 188.175 220.416 188.297L207.405 195.774C207.046 195.984 206.755 195.774 206.755 195.4V195.146C206.767 194.922 206.832 194.704 206.945 194.511C207.058 194.317 207.216 194.153 207.405 194.032Z" fill="#EBEBEB"/>
<path d="M135.061 123.012L132.025 121.24V135.275L135.061 137.032V123.012Z" fill="#1A40D7"/>
<path opacity="0.1" d="M135.061 123.012L132.025 121.24V135.275L135.061 137.032V123.012Z" fill="black"/>
</svg>
