<svg width="333" height="333" viewBox="0 0 333 333" fill="none" xmlns="http://www.w3.org/2000/svg">
<path d="M333 254.677H0V254.844H333V254.677Z" fill="#EBEBEB"/>
<path d="M299.634 265.397H285.196V265.563H299.634V265.397Z" fill="#EBEBEB"/>
<path d="M229.548 261.942H206.832V262.108H229.548V261.942Z" fill="#EBEBEB"/>
<path d="M293.78 259.213H264.126V259.379H293.78V259.213Z" fill="#EBEBEB"/>
<path d="M115.228 262.571H107.81V262.737H115.228V262.571Z" fill="#EBEBEB"/>
<path d="M101.881 262.571H76.3137V262.737H101.881V262.571Z" fill="#EBEBEB"/>
<path d="M62.6053 259.759H44.1604V259.925H62.6053V259.759Z" fill="#EBEBEB"/>
<path d="M157.851 224.975H29.2473C27.1514 224.975 25.4458 223.269 25.4458 221.173V40.3996C25.4458 38.3036 27.1514 36.598 29.2473 36.598H157.851C159.946 36.598 161.652 38.3036 161.652 40.3996V221.173C161.652 223.269 159.946 224.975 157.851 224.975ZM29.2473 36.7652C27.2427 36.7652 25.6123 38.3956 25.6123 40.4002V221.174C25.6123 223.179 27.2427 224.809 29.2473 224.809H157.851C159.855 224.809 161.486 223.179 161.486 221.174V40.3996C161.486 38.3956 159.855 36.7645 157.851 36.7645L29.2473 36.7652Z" fill="#EBEBEB"/>
<path d="M301.904 224.975H173.301C171.205 224.975 169.5 223.269 169.5 221.173V40.3996C169.5 38.3036 171.206 36.598 173.301 36.598H301.904C304.001 36.598 305.706 38.3036 305.706 40.3996V221.173C305.707 223.269 304.001 224.975 301.904 224.975ZM173.301 36.7652C171.297 36.7652 169.667 38.3956 169.667 40.4002V221.174C169.667 223.179 171.297 224.809 173.301 224.809H301.904C303.909 224.809 305.539 223.179 305.539 221.174V40.3996C305.539 38.3956 303.909 36.7645 301.904 36.7645L173.301 36.7652Z" fill="#EBEBEB"/>
<path d="M143.904 133.785L144.204 125.033L138.83 123.277C138.609 120.287 138.109 117.334 137.398 114.489L141.952 111.131L138.858 102.91L133.225 103.364C131.883 100.706 130.305 98.1771 128.537 95.8048L131.454 90.9343L125.455 84.5334L120.419 87.1122C118.15 85.1841 115.759 83.4385 113.2 81.8947L114.016 76.3043L106.025 72.6779L102.364 76.9683C99.575 76.0632 96.6852 75.3866 93.6955 74.9377L92.3342 69.4578L83.559 69.1575L81.8261 74.5314C78.8124 74.7745 75.8827 75.252 73.0382 75.964L69.6562 71.4319L61.4365 74.5028L61.8907 80.1365C59.232 81.5018 56.7039 83.0789 54.3316 84.8478L49.4844 81.9307L43.0602 87.906L45.6383 92.965C43.7115 95.2107 41.9646 97.6256 40.4428 100.186L34.8537 99.3473L31.2047 107.337L35.5178 110.998C34.6133 113.788 33.912 116.701 33.4871 119.668L27.9833 121.051L27.6836 129.803L33.0795 131.56C33.3 134.573 33.8008 137.504 34.5128 140.348L29.9593 143.706L33.0529 151.927L38.6859 151.472C40.0286 154.13 41.6063 156.659 43.3746 159.031L40.4561 163.901L46.4561 170.303L51.4918 167.723C53.7375 169.651 56.1518 171.398 58.7112 172.942L57.872 178.531L65.8627 182.157L69.547 177.867C72.3362 178.772 75.226 179.449 78.2163 179.898L79.5776 185.378L88.3529 185.678L90.0865 180.304C93.0994 180.061 96.0292 179.584 98.8737 178.872L102.232 183.402L110.452 180.332L110.021 174.7C112.68 173.335 115.185 171.755 117.58 169.987L122.427 172.906L128.851 166.93L126.274 161.871C128.2 159.625 129.947 157.21 131.469 154.65L137.058 155.489L140.707 147.499L136.393 143.837C137.299 141.048 137.998 138.159 138.424 135.169L143.904 133.785ZM84.7658 162.137C65.5996 161.48 50.5913 145.407 51.248 126.24C51.9053 107.051 67.9786 92.0439 87.1447 92.7006C106.311 93.3573 121.319 109.429 120.662 128.619C120.005 147.785 103.932 162.794 84.7658 162.137Z" fill="#EBEBEB"/>
<path d="M293.677 104.844L295.884 102.782L295.003 101.044C295.678 100.261 296.276 99.4191 296.796 98.552L298.726 98.8437L299.976 96.0851L298.491 94.8224C298.812 93.8467 299.044 92.8457 299.191 91.836L301.09 91.3598L301.188 88.3362L299.332 87.7368C299.248 86.7138 299.091 85.7048 298.843 84.7045L300.406 83.5403L299.342 80.7078L297.403 80.861C296.943 79.9599 296.404 79.0901 295.784 78.2523L296.789 76.584L294.722 74.3708L292.989 75.258C292.194 74.582 291.364 73.9846 290.496 73.4644L290.777 71.5344L288.024 70.2789L286.761 71.7635C285.78 71.4478 284.779 71.216 283.768 71.0688L283.298 69.1754L280.274 69.0662L279.669 70.9283C278.652 71.0062 277.637 71.1687 276.642 71.4225L275.483 69.8554L272.646 70.9136L272.804 72.8584C271.903 73.3179 271.022 73.8574 270.195 74.4774L268.516 73.4724L266.309 75.5337L267.196 77.2779C266.515 78.0665 265.922 78.903 265.402 79.7701L263.473 79.4784L262.222 82.2376L263.707 83.5004C263.386 84.4761 263.154 85.4771 263.007 86.4867L261.107 86.9629L261.009 89.9872L262.866 90.586C262.944 91.6036 263.107 92.6186 263.354 93.6189L261.786 94.7771L262.851 97.6096L264.795 97.4617C265.255 98.3628 265.794 99.232 266.415 100.071L265.41 101.739L267.477 103.953L269.21 103.065C270.004 103.74 270.835 104.338 271.702 104.858L271.416 106.782L274.169 108.038L275.438 106.559C276.419 106.875 277.415 107.101 278.43 107.253L278.901 109.147L281.924 109.256L282.529 107.394C283.547 107.316 284.561 107.153 285.557 106.9L286.715 108.467L289.553 107.409L289.394 105.464C290.295 105.005 291.17 104.471 292.004 103.846L293.677 104.844ZM277.949 92.1024C276.325 90.3635 276.419 87.6362 278.157 86.0125C279.898 84.3868 282.626 84.4801 284.249 86.2197C285.873 87.9586 285.78 90.6859 284.039 92.3116C282.3 93.9353 279.573 93.8414 277.949 92.1024Z" fill="#EBEBEB"/>
<path d="M213.113 194.696L206.226 189.939C206.224 189.934 206.224 189.928 206.222 189.923C205.54 187.42 204.601 185.012 203.452 182.748L205.216 175.823L195.226 165.124L188.194 166.411C186.016 165.112 183.679 164.011 181.231 163.16C181.226 163.159 181.219 163.157 181.214 163.155L176.938 155.955L162.31 155.454L157.553 162.341C157.544 162.343 157.535 162.346 157.526 162.347C155.026 163.029 152.62 163.967 150.36 165.114L143.438 163.35L132.739 173.34L134.024 180.359C134.023 180.361 134.021 180.362 134.02 180.365C132.693 182.567 131.617 184.905 130.767 187.354L123.568 191.628L123.067 206.257L129.96 211.017C130.641 213.537 131.551 215.94 132.722 218.222C132.723 218.224 132.723 218.224 132.723 218.225L130.964 225.129L140.954 235.827L147.942 234.548C150.148 235.852 152.488 236.955 154.966 237.807C154.968 237.808 154.969 237.808 154.972 237.808L159.24 244.997L173.869 245.498L178.622 238.616C181.151 237.936 183.56 236.997 185.849 235.847C185.849 235.847 185.85 235.847 185.851 235.845L192.741 237.601L203.44 227.612L202.155 220.592C203.482 218.389 204.558 216.05 205.408 213.602L205.409 213.6L212.61 209.324L213.113 194.696ZM167.524 216.934C158.43 216.622 151.327 208.987 151.637 199.92C151.949 190.826 159.557 183.722 168.651 184.033C177.744 184.345 184.848 191.953 184.537 201.047C184.227 210.114 176.617 217.245 167.524 216.934Z" fill="#EBEBEB"/>
<path d="M228.803 153.149C228.787 153.149 228.771 153.149 228.755 153.149L217.222 152.754C216.743 152.738 216.306 152.478 216.061 152.066L212.956 146.837C211.305 146.238 209.678 145.483 208.105 144.587L203.105 145.502C202.634 145.591 202.152 145.429 201.825 145.078L193.949 136.645C193.622 136.294 193.496 135.801 193.614 135.337L194.871 130.402C194.107 128.839 193.468 127.169 192.967 125.427L187.951 121.963C187.557 121.692 187.329 121.237 187.345 120.758L187.739 109.225C187.755 108.746 188.015 108.309 188.427 108.064L193.666 104.954C194.287 103.253 195.04 101.634 195.91 100.126L194.992 95.1095C194.906 94.6386 195.065 94.1551 195.415 93.8287L203.85 85.952C204.2 85.6243 204.693 85.4991 205.157 85.617L210.109 86.879C211.711 86.0998 213.375 85.4578 215.07 84.967L218.531 79.9553C218.803 79.561 219.25 79.3173 219.737 79.3492L231.27 79.7448C231.749 79.7608 232.186 80.0199 232.431 80.4322L235.542 85.6709C237.195 86.2763 238.81 87.0296 240.355 87.9167L245.386 86.9949C245.859 86.909 246.341 87.0682 246.668 87.4185L254.544 95.8541C254.871 96.2044 254.997 96.6972 254.879 97.1614L253.616 102.115C254.396 103.718 255.037 105.381 255.529 107.074L260.541 110.535C260.935 110.806 261.163 111.261 261.147 111.74L260.752 123.274C260.736 123.753 260.477 124.19 260.065 124.435L254.824 127.547C254.203 129.247 253.451 130.866 252.583 132.371L253.501 137.39C253.587 137.861 253.428 138.344 253.077 138.671L244.643 146.545C244.293 146.873 243.801 147 243.336 146.88L238.407 145.624C236.782 146.409 235.109 147.05 233.42 147.536L229.962 152.543C229.697 152.923 229.265 153.149 228.803 153.149ZM218.086 149.969L228.082 150.312L231.393 145.518C231.582 145.245 231.863 145.046 232.185 144.96C234.026 144.465 235.853 143.764 237.616 142.878C237.62 142.876 237.622 142.875 237.626 142.873C237.919 142.728 238.262 142.684 238.597 142.771L243.284 143.965L250.595 137.139L249.72 132.362C249.658 132.025 249.722 131.677 249.899 131.382C250.863 129.782 251.681 128.027 252.329 126.165C252.436 125.835 252.662 125.557 252.956 125.384L257.967 122.408L258.309 112.411L253.512 109.098C253.261 108.925 253.073 108.675 252.976 108.386C252.964 108.35 252.954 108.312 252.944 108.274C252.443 106.437 251.745 104.632 250.87 102.909C250.716 102.605 250.678 102.255 250.761 101.925L251.963 97.2107L245.136 89.8987L240.348 90.7751C240.012 90.8371 239.667 90.7738 239.374 90.5993C237.709 89.6056 235.951 88.7845 234.149 88.1578C234.047 88.1225 233.944 88.0752 233.855 88.0212C233.661 87.9013 233.499 87.7368 233.383 87.541L230.405 82.5267L220.409 82.1837L217.095 86.9816C216.898 87.2673 216.603 87.4684 216.268 87.549C214.418 88.0559 212.619 88.7512 210.904 89.6216C210.599 89.7761 210.249 89.8148 209.92 89.7302L205.208 88.5287L197.897 95.3559L198.772 100.133C198.827 100.433 198.782 100.742 198.647 101.015C198.627 101.054 198.606 101.091 198.583 101.128C197.617 102.734 196.798 104.495 196.15 106.362C196.041 106.675 195.825 106.94 195.54 107.109L190.526 110.087L190.184 120.083L194.986 123.4C195.259 123.588 195.457 123.869 195.544 124.19C196.062 126.105 196.758 127.924 197.616 129.596C197.665 129.692 197.703 129.793 197.729 129.898C197.786 130.124 197.785 130.36 197.728 130.586L196.531 135.284L203.357 142.594L208.111 141.724C208.445 141.664 208.788 141.725 209.079 141.897C210.774 142.9 212.541 143.72 214.333 144.338C214.657 144.441 214.937 144.66 215.115 144.96L218.086 149.969ZM224.261 137.339C224.014 137.339 223.769 137.334 223.521 137.325C211.902 136.927 202.773 127.151 203.171 115.532C203.57 103.913 213.362 94.7871 224.965 95.1814C236.584 95.5797 245.713 105.356 245.315 116.976C245.122 122.597 242.75 127.811 238.637 131.656C234.7 135.336 229.62 137.339 224.261 137.339ZM224.236 97.9819C214.447 97.9819 206.32 105.771 205.983 115.628C205.638 125.697 213.548 134.169 223.618 134.514C228.497 134.677 233.149 132.937 236.717 129.601C240.282 126.268 242.337 121.75 242.504 116.879C242.849 106.81 234.938 98.3376 224.869 97.9926C224.657 97.9859 224.445 97.9819 224.236 97.9819Z" fill="#EBEBEB"/>
<path d="M255.37 70.1452L250.593 68.8625L249.31 64.0853L251.181 62.2145L253.154 66.3011L257.241 68.2751L255.37 70.1452Z" fill="#E0E0E0"/>
<path d="M255.667 66.9471C256.537 66.0766 256.537 64.658 255.667 63.7876C254.796 62.9171 253.384 62.9238 252.514 63.7942L254.89 60.2291L258.078 61.8402L258.776 65.1895L255.667 66.9471Z" fill="#E0E0E0"/>
<path d="M250.804 62.5914L254.305 59.0902L259.082 60.3729L260.365 65.1508L256.864 68.652L252.086 67.3686L250.804 62.5914ZM257.161 65.4538C258.031 64.5834 258.031 63.1648 257.161 62.2943C256.29 61.4239 254.878 61.4305 254.008 62.301C253.137 63.1715 253.137 64.5774 254.008 65.4472C254.878 66.3176 256.29 66.3243 257.161 65.4538Z" fill="#F0F0F0"/>
<path d="M60.0872 197.607L62.6506 196.919L63.3392 194.355L62.3356 193.352L61.2766 195.545L59.0835 196.604L60.0872 197.607Z" fill="#E0E0E0"/>
<path d="M59.928 195.891C59.4612 195.424 59.4612 194.663 59.928 194.196C60.3949 193.729 61.1528 193.732 61.6197 194.199L60.3443 192.286L58.634 193.15L58.259 194.947L59.928 195.891Z" fill="#E0E0E0"/>
<path d="M62.5381 193.554L60.6593 191.675L58.0959 192.364L57.4072 194.928L59.286 196.807L61.8494 196.118L62.5381 193.554ZM59.1262 195.09C58.6593 194.623 58.6593 193.862 59.1262 193.394C59.593 192.927 60.3509 192.931 60.8178 193.398C61.2847 193.865 61.2847 194.619 60.8178 195.086C60.3516 195.554 59.5937 195.557 59.1262 195.09Z" fill="#F0F0F0"/>
<path d="M50.8577 57.0508L52.9856 59.1787C53.5397 59.7328 54.4461 59.7328 55.0002 59.1787C55.5544 58.6246 55.5544 57.7182 55.0002 57.1641L52.8724 55.0362C52.3183 54.4821 51.4118 54.4821 50.8577 55.0362C50.3036 55.5903 50.3036 56.4974 50.8577 57.0508Z" fill="#F0F0F0"/>
<path d="M49.3584 51.7515C50.9981 51.1628 52.7756 51.9327 53.3284 53.4718C53.8812 55.0109 53.0001 56.7359 51.3604 57.3253C49.7207 57.914 47.9431 57.1441 47.3904 55.605C46.8376 54.0659 47.7187 52.3409 49.3584 51.7515Z" fill="#E0E0E0"/>
<path d="M47.0397 55.2498L47.3481 56.1085L53.6798 53.8345L53.3714 52.9758L47.0397 55.2498Z" fill="#F0F0F0"/>
<path d="M166.5 284.756C237.817 284.756 295.63 281.379 295.63 277.214C295.63 273.05 237.817 269.673 166.5 269.673C95.1834 269.673 37.3699 273.05 37.3699 277.214C37.3699 281.379 95.1834 284.756 166.5 284.756Z" fill="#F5F5F5"/>
<path d="M57.7528 80.3502C57.0862 77.4178 57.3839 74.9489 58.6466 72.9423C59.9094 70.9369 61.9993 69.6029 64.9157 68.9396C67.906 68.2596 70.3922 68.5387 72.3749 69.7768C74.3576 71.0142 75.6776 73.0788 76.3349 75.9712C76.8124 78.0711 76.8504 79.8733 76.4495 81.3778C76.0479 82.883 75.2647 84.161 74.0992 85.212C72.933 86.2636 71.3532 87.0148 69.3599 87.4684C67.3339 87.9293 65.5837 87.9879 64.1092 87.6449C62.6346 87.3012 61.3259 86.5247 60.1831 85.3145C59.0402 84.1051 58.2297 82.4507 57.7528 80.3502ZM63.3099 79.1134C63.7222 80.9276 64.3556 82.1537 65.2101 82.7924C66.0639 83.4324 67.0709 83.6189 68.2317 83.3552C69.4245 83.0848 70.2597 82.4867 70.7365 81.5623C71.2134 80.6379 71.224 79.17 70.7665 77.1607C70.3822 75.4697 69.7602 74.3116 68.9004 73.6855C68.0405 73.0608 67.0269 72.881 65.8587 73.1467C64.7392 73.4011 63.9307 74.0019 63.4325 74.9483C62.9343 75.8953 62.8937 77.2832 63.3099 79.1134Z" fill="#263238"/>
<path d="M78.983 78.1531C78.5314 76.1684 78.8298 74.3796 79.8774 72.7878C80.9244 71.1961 82.588 70.1411 84.8678 69.6237C87.4738 69.0309 89.6144 69.3386 91.29 70.5481C92.6367 71.5224 93.5131 72.8997 93.918 74.6806C94.3729 76.6833 94.0825 78.4735 93.0449 80.0539C92.008 81.6343 90.317 82.6912 87.972 83.224C85.8807 83.6996 84.0686 83.5537 82.5361 82.7845C80.652 81.8301 79.4678 80.2863 78.983 78.1531ZM83.9807 77.0049C84.2444 78.1644 84.674 78.969 85.2707 79.4185C85.8668 79.8674 86.5201 80.0106 87.2307 79.8487C87.9494 79.6849 88.4775 79.2773 88.8145 78.6246C89.1515 77.9726 89.1828 77.0416 88.9084 75.8334C88.652 74.7059 88.2284 73.9187 87.637 73.4731C87.0456 73.0276 86.4069 72.8824 85.7209 73.0389C84.9936 73.2041 84.4568 73.621 84.1105 74.2883C83.7635 74.955 83.7202 75.8607 83.9807 77.0049Z" fill="#263238"/>
<path d="M98.9576 85.6249L94.873 67.6582L99.5424 66.5959L99.9799 68.52C100.441 67.565 100.909 66.8837 101.383 66.4747C102.023 65.9259 102.784 65.5503 103.667 65.3505C105.407 64.9543 106.904 65.3146 108.159 66.4294C109.414 67.545 110.264 69.0828 110.71 71.0442C111.202 73.2093 111.059 74.9796 110.28 76.3555C109.502 77.7308 108.32 78.5993 106.735 78.9596C105.967 79.1341 105.237 79.1627 104.544 79.0448C103.851 78.9269 103.197 78.6685 102.582 78.2669L103.995 84.48L98.9576 85.6249ZM101.361 73.0661C101.595 74.0958 101.985 74.8104 102.531 75.2107C103.078 75.6109 103.682 75.7348 104.344 75.5849C104.924 75.4531 105.356 75.1034 105.639 74.5367C105.922 73.9692 105.934 73.1141 105.674 71.9699C105.434 70.9156 105.054 70.1884 104.533 69.7874C104.013 69.3852 103.458 69.252 102.87 69.3852C102.233 69.5303 101.758 69.9006 101.446 70.4947C101.135 71.0901 101.106 71.9466 101.361 73.0661Z" fill="#263238"/>
<path d="M112.844 73.4591L117.689 71.8673C118.027 72.4088 118.409 72.7651 118.834 72.9356C119.259 73.1048 119.778 73.1201 120.391 72.9809C121.06 72.8284 121.547 72.568 121.85 72.1984C122.088 71.9213 122.17 71.6243 122.098 71.3052C122.017 70.9463 121.765 70.7112 121.345 70.6013C121.044 70.524 120.29 70.5154 119.084 70.5746C117.283 70.6672 116.017 70.6606 115.284 70.5573C114.551 70.4528 113.885 70.1477 113.284 69.6402C112.683 69.1334 112.294 68.4874 112.116 67.7042C111.921 66.847 112.003 66.0525 112.36 65.3186C112.717 64.5846 113.298 63.9653 114.102 63.4604C114.907 62.9556 116.045 62.536 117.515 62.2017C119.068 61.8487 120.24 61.7075 121.034 61.7754C121.827 61.8447 122.527 62.0718 123.135 62.4574C123.743 62.8437 124.306 63.4238 124.826 64.1997L120.201 65.7408C119.984 65.3512 119.71 65.0915 119.38 64.9609C118.928 64.7878 118.424 64.7645 117.869 64.8917C117.305 65.0195 116.917 65.2127 116.705 65.4711C116.493 65.7295 116.42 66.0019 116.485 66.2876C116.557 66.6059 116.775 66.8091 117.139 66.8977C117.502 66.9876 118.247 66.9716 119.371 66.8537C121.072 66.6652 122.366 66.6452 123.251 66.7964C124.136 66.9469 124.863 67.2839 125.433 67.8067C126.003 68.3296 126.372 68.9623 126.541 69.7055C126.712 70.4568 126.651 71.2386 126.36 72.0512C126.067 72.8644 125.481 73.5916 124.6 74.2343C123.72 74.8757 122.437 75.3885 120.755 75.7721C118.377 76.3129 116.606 76.3575 115.443 75.9093C114.28 75.4604 113.414 74.6439 112.844 73.4591Z" fill="#263238"/>
<path d="M129.104 56.9869L134.57 56.9563L134.594 61.1541L133.586 69.593L130.205 69.6116L129.127 61.1847L129.104 56.9869ZM129.371 70.8983L134.473 70.8697L134.499 75.3812L129.397 75.4098L129.371 70.8983Z" fill="#263238"/>
<path d="M85.701 114.273C85.661 114.273 85.6204 114.266 85.5805 114.25C82.5828 113.089 80.7893 111.955 79.8582 110.593C79.1815 110.728 78.4243 110.639 77.7057 110.297C77.0077 109.965 76.3357 109.385 75.8535 108.551C75.404 108.898 74.8485 108.992 74.2385 108.8C73.5618 108.588 72.8579 108.018 72.2724 107.195C71.9002 107.464 71.5185 107.504 71.2388 107.481C69.2588 107.32 66.5761 103.378 66.3837 99.178C66.375 98.9949 66.5175 98.8383 66.7014 98.831C66.8812 98.8157 67.041 98.9642 67.049 99.1487C67.2315 103.135 69.7856 106.695 71.2934 106.818C71.5378 106.842 71.7423 106.765 71.9141 106.632C71.0097 105.045 70.5402 102.782 71.2328 100.363C71.8056 98.3622 72.3117 97.5796 72.9191 97.7248C74.0666 98.0105 73.9161 102.368 73.3081 105.243C73.1702 105.895 72.9717 106.362 72.7453 106.696C73.2708 107.472 73.8935 107.995 74.4389 108.166C74.9265 108.32 75.2874 108.19 75.5538 107.936C75.0304 106.647 74.9218 104.89 75.6324 102.649C76.5675 99.6988 76.9438 99.6189 77.1689 99.5716C77.3274 99.5376 77.4859 99.5903 77.5984 99.7181C78.2138 100.413 77.4786 104.994 76.7033 107.26C76.6028 107.554 76.4776 107.812 76.3324 108.03C76.746 108.841 77.3554 109.393 77.9927 109.696C78.5042 109.939 79.029 110.028 79.5065 109.983C79.4466 109.857 79.3927 109.729 79.344 109.6C78.8159 108.17 79.0743 106.519 80.1332 104.553C80.8359 103.249 81.4086 102.641 81.9361 102.64C82.0926 102.64 82.3863 102.698 82.5934 103.081C83.1742 104.152 82.754 107.689 81.6058 109.444C81.3354 109.857 80.9617 110.171 80.5282 110.375C81.4206 111.548 83.1149 112.582 85.8222 113.632C85.9934 113.698 86.0786 113.891 86.0127 114.062C85.9607 114.192 85.8342 114.273 85.701 114.273ZM81.9354 103.304C81.9334 103.304 81.5591 103.307 80.7187 104.867C79.7556 106.655 79.5099 108.127 79.9681 109.367C80.024 109.519 80.0906 109.667 80.1679 109.813C80.5235 109.661 80.8279 109.413 81.0477 109.078C81.9801 107.652 82.4269 104.724 82.08 103.579C82.0087 103.345 81.9361 103.304 81.9354 103.304ZM77.1589 100.498C76.9871 100.821 76.698 101.486 76.2664 102.848C75.695 104.652 75.6917 106.101 76.01 107.209C76.032 107.153 76.0527 107.097 76.072 107.042C76.8552 104.752 77.2368 101.598 77.1589 100.498ZM72.7726 98.4001C72.6601 98.5033 72.3364 98.9229 71.8722 100.545C71.2601 102.685 71.6371 104.637 72.3564 106.037C72.4942 105.748 72.5901 105.415 72.6561 105.103C73.3467 101.833 73.1456 98.8736 72.7726 98.4001Z" fill="#263238"/>
<path d="M111.021 149.182C110.005 149.182 108.937 148.95 107.983 148.39C107.825 148.296 107.772 148.093 107.865 147.934C107.957 147.775 108.162 147.723 108.32 147.815C110.696 149.21 113.767 148.236 114.399 147.22C114.472 147.101 114.539 146.95 114.497 146.773C113.557 146.872 112.401 146.623 111.08 145.797C109.385 144.737 109.254 144.422 109.265 144.17C109.271 144.021 109.356 143.891 109.492 143.822C110.155 143.486 113.158 144.87 114.41 145.693C114.574 145.801 114.713 145.918 114.824 146.041C115.378 145.907 115.807 145.62 116.092 145.279C116.288 145.043 116.418 144.788 116.483 144.531C116.439 144.538 116.394 144.543 116.35 144.547C115.285 144.655 114.216 144.198 113.079 143.146C112.297 142.423 111.993 141.925 112.095 141.53C112.127 141.404 112.232 141.181 112.573 141.095C113.494 140.866 115.768 141.835 116.698 142.855C116.907 143.084 117.05 143.354 117.126 143.644C117.995 143.235 118.914 142.32 120.002 140.799C120.109 140.649 120.317 140.615 120.467 140.722C120.617 140.829 120.651 141.037 120.544 141.187C119.286 142.945 118.237 143.941 117.183 144.347C117.142 144.816 116.948 145.293 116.605 145.706C116.267 146.11 115.775 146.458 115.152 146.646C115.219 146.946 115.159 147.263 114.966 147.573C114.403 148.477 112.793 149.182 111.021 149.182ZM110.43 144.563C110.653 144.728 110.974 144.946 111.433 145.233C112.336 145.799 113.141 146.059 113.83 146.114C112.727 145.43 111.283 144.824 110.43 144.563ZM112.754 141.733C112.791 141.837 112.939 142.111 113.53 142.658C114.52 143.573 115.421 143.98 116.282 143.886C116.352 143.879 116.424 143.869 116.495 143.854C116.448 143.652 116.351 143.464 116.206 143.305C115.269 142.277 113.209 141.626 112.754 141.733Z" fill="#263238"/>
<path d="M119.841 148.268L109.464 150.153L100.042 98.7297L80.0193 102.367L47.3926 160.308L50.8957 179.428L92.7452 171.826L95.6103 187.464L115.633 183.827L112.768 168.19L123.145 166.304L119.841 148.268ZM67.3286 157.807L84.6173 127.46L89.4418 153.791L67.3286 157.807Z" fill="#3860FF"/>
<path d="M203.416 95.2326C203.029 91.6802 202.32 88.524 201.287 85.7635C200.256 83.0029 198.703 80.2969 196.632 77.6456C194.561 74.9942 191.74 72.6925 188.171 70.7418C184.601 68.7918 179.89 67.4338 174.037 66.6712C161.854 65.0842 152.358 67.2473 145.544 73.1581C138.729 79.0702 134.246 90.3948 132.092 107.131C131.215 113.939 130.998 120.231 131.441 126.009C131.883 131.787 132.943 136.434 134.623 139.951C136.922 144.892 140.174 148.838 144.38 151.787C148.584 154.736 154.344 156.688 161.662 157.642C174.714 159.342 184.386 156.837 190.679 150.124C196.972 143.413 201.147 132.068 203.203 116.091C204.122 108.963 204.192 102.011 203.416 95.2326Z" fill="#3860FF"/>
<path d="M167.676 150.804C166.075 150.75 164.37 150.605 162.61 150.375C156.513 149.582 151.796 148.038 148.589 145.788C145.424 143.569 143.03 140.649 141.268 136.86L141.235 136.791C139.955 134.112 139.118 130.296 138.748 125.45C138.345 120.197 138.551 114.349 139.359 108.066C141.736 89.6043 146.646 81.9014 150.346 78.6912C154.661 74.9483 160.483 73.2567 168.148 73.5191C169.719 73.573 171.382 73.7135 173.091 73.936C178.01 74.5767 181.902 75.6649 184.659 77.1708C187.329 78.63 189.416 80.3076 190.86 82.1558C192.461 84.2044 193.66 86.2816 194.425 88.3289C195.24 90.5067 195.815 93.0968 196.134 96.0265C196.844 102.226 196.776 108.649 195.939 115.155C194.092 129.5 190.525 139.58 185.337 145.113C181.488 149.219 175.712 151.081 167.678 150.805C167.677 150.804 167.676 150.804 167.676 150.804Z" fill="#263238"/>
<path d="M180.71 95.4291L180.796 92.9063L179.248 92.4001C179.184 91.5383 179.04 90.6872 178.835 89.8667L180.148 88.899L179.256 86.5293L177.632 86.6599C177.245 85.894 176.79 85.1647 176.281 84.4807L177.122 83.0768L175.392 81.232L173.941 81.9752C173.287 81.4198 172.597 80.9163 171.859 80.4714L172.094 78.8597L169.791 77.8141L168.736 79.0508C167.933 78.7897 167.099 78.5946 166.238 78.4654L165.845 76.8857L163.316 76.7991L162.816 78.3482C161.947 78.4181 161.103 78.556 160.284 78.7611L159.309 77.4551L156.939 78.3402L157.07 79.9639C156.304 80.3575 155.575 80.8117 154.891 81.3219L153.494 80.4814L151.642 82.2037L152.385 83.6615C151.83 84.3089 151.327 85.0049 150.888 85.7428L149.277 85.501L148.225 87.8041L149.468 88.8597C149.207 89.6642 149.006 90.5034 148.883 91.3585L147.297 91.7568L147.21 94.2796L148.765 94.7864C148.828 95.6549 148.973 96.4994 149.178 97.3192L147.865 98.2869L148.757 100.657L150.381 100.525C150.768 101.291 151.223 102.02 151.732 102.704L150.891 104.108L152.621 105.954L154.072 105.211C154.719 105.766 155.415 106.27 156.152 106.715L155.911 108.326L158.214 109.372L159.276 108.135C160.08 108.396 160.913 108.591 161.775 108.72L162.167 110.3L164.696 110.387L165.196 108.838C166.064 108.768 166.909 108.63 167.729 108.425L168.697 109.731L171.067 108.846L170.942 107.222C171.709 106.828 172.431 106.373 173.121 105.863L174.519 106.704L176.37 104.982L175.627 103.524C176.182 102.876 176.686 102.18 177.124 101.442L178.735 101.684L179.787 99.3811L178.543 98.3255C178.804 97.5217 179.006 96.6885 179.129 95.8267L180.71 95.4291ZM163.663 103.602C158.139 103.412 153.813 98.7791 154.002 93.2546C154.192 87.7235 158.824 83.3978 164.349 83.5869C169.873 83.7761 174.2 88.4088 174.01 93.9399C173.821 99.4644 169.188 103.791 163.663 103.602Z" fill="#3860FF"/>
<path opacity="0.3" d="M191.223 141.768L191.406 140.068L190.384 139.651C190.381 139.066 190.33 138.487 190.233 137.923L191.165 137.331L190.692 135.686L189.585 135.695C189.362 135.157 189.099 134.641 188.788 134.156L189.42 133.25L188.351 131.919L187.331 132.344C186.924 131.941 186.485 131.567 186.005 131.231L186.253 130.148L184.754 129.326L183.971 130.117C183.433 129.888 182.878 129.721 182.321 129.593L182.132 128.503L180.432 128.313L180.015 129.335C179.43 129.339 178.86 129.397 178.288 129.494L177.696 128.554L176.051 129.035L176.059 130.142C175.529 130.366 175.014 130.629 174.52 130.94L173.614 130.3L172.284 131.369L172.709 132.389C172.313 132.796 171.932 133.235 171.596 133.715L170.52 133.475L169.698 134.974L170.481 135.749C170.26 136.296 170.086 136.843 169.957 137.407L168.868 137.588L168.685 139.288L169.706 139.713C169.702 140.29 169.76 140.868 169.858 141.433L168.918 142.024L169.4 143.67L170.507 143.669C170.731 144.199 170.993 144.714 171.304 145.201L170.665 146.106L171.734 147.444L172.762 147.012C173.169 147.416 173.608 147.789 174.089 148.126L173.841 149.209L175.34 150.032L176.122 149.248C176.661 149.469 177.216 149.636 177.773 149.764L177.961 150.854L179.662 151.044L180.078 150.022C180.655 150.018 181.234 149.961 181.806 149.863L182.398 150.803L184.035 150.321L184.035 149.215C184.565 148.991 185.08 148.728 185.574 148.418L186.471 149.057L187.809 147.989L187.377 146.968C187.78 146.561 188.154 146.122 188.497 145.643L189.572 145.882L190.395 144.383L189.611 143.608C189.832 143.062 189.999 142.514 190.127 141.957L191.223 141.768ZM182.65 141.108C181.86 142.546 180.049 143.077 178.611 142.287C177.173 141.497 176.651 139.687 177.44 138.249C178.23 136.811 180.033 136.288 181.471 137.077C182.909 137.867 183.439 139.67 182.65 141.108Z" fill="#3860FF"/>
<path d="M200.659 112.986L198.674 111.615C198.673 111.614 198.673 111.612 198.673 111.61C198.476 110.889 198.205 110.195 197.874 109.542L198.383 107.546L195.503 104.462L193.476 104.833C192.849 104.458 192.175 104.141 191.47 103.896C191.468 103.895 191.466 103.895 191.464 103.895L190.232 101.819L186.016 101.675L184.645 103.66C184.642 103.661 184.639 103.661 184.637 103.662C183.916 103.859 183.223 104.129 182.571 104.459L180.575 103.951L177.492 106.83L177.862 108.854C177.861 108.854 177.861 108.855 177.861 108.856C177.478 109.49 177.168 110.164 176.923 110.87L174.848 112.102L174.704 116.319L176.691 117.691C176.886 118.417 177.149 119.109 177.486 119.767C177.486 119.768 177.486 119.768 177.486 119.768L176.98 121.758L179.859 124.842L181.873 124.473C182.509 124.849 183.183 125.167 183.898 125.412C183.899 125.413 183.899 125.413 183.9 125.413L185.13 127.485L189.347 127.629L190.716 125.645C191.445 125.45 192.14 125.179 192.8 124.847C192.8 124.847 192.8 124.847 192.8 124.846L194.786 125.352L197.87 122.473L197.5 120.45C197.882 119.815 198.192 119.141 198.437 118.435L200.513 117.202L200.659 112.986ZM187.518 119.396C184.897 119.306 182.85 117.106 182.939 114.493C183.029 111.871 185.222 109.824 187.843 109.913C190.464 110.003 192.511 112.196 192.422 114.817C192.333 117.43 190.139 119.486 187.518 119.396Z" fill="white"/>
<path d="M215.147 79.3366L215.494 78.4994C215.494 78.4994 215.495 78.4988 215.496 78.4988C215.745 78.3702 215.978 78.2157 216.192 78.0426L216.965 78.0719L217.871 76.7718L217.576 76.0565C217.663 75.7968 217.727 75.5244 217.761 75.246C217.761 75.2454 217.761 75.2447 217.761 75.244L218.426 74.628L218.147 73.0682L217.31 72.7212C217.309 72.7206 217.309 72.7192 217.308 72.7185C217.18 72.4695 217.026 72.2364 216.853 72.0226L216.882 71.25L215.582 70.3443L214.868 70.6393H214.868C214.604 70.5487 214.333 70.4881 214.054 70.4535L213.438 69.7888L211.879 70.0679L211.531 70.9057C211.28 71.0349 211.046 71.1861 210.831 71.3619L210.06 71.3326L209.155 72.6326L209.449 73.3433C209.361 73.6063 209.297 73.8787 209.264 74.1604L208.6 74.7758L208.879 76.3356L209.715 76.6826C209.845 76.935 209.999 77.1688 210.173 77.3845L210.144 78.1538L211.444 79.0595L212.158 78.7638C212.421 78.8544 212.693 78.915 212.971 78.9496L213.588 79.615L215.147 79.3366ZM211.757 75.0163C211.584 74.0466 212.231 73.1215 213.197 72.9483C214.167 72.7752 215.091 73.4185 215.265 74.3882C215.439 75.3579 214.794 76.2823 213.825 76.4561C212.859 76.6293 211.931 75.9859 211.757 75.0163Z" fill="#3860FF"/>
<path d="M196.874 74.9177L196.365 74.4881C197.25 73.4412 198.504 72.1145 200.367 71.1388L200.676 71.7295C198.69 72.7692 197.418 74.275 196.874 74.9177Z" fill="#3860FF"/>
<path d="M202.192 71.1301L201.929 70.5174C204.448 69.4385 207.08 69.0176 209.747 69.2653L209.685 69.9287C207.128 69.6849 204.607 70.0938 202.192 71.1301Z" fill="#3860FF"/>
<path d="M200.934 75.7375L200.384 75.3625C201.752 73.3532 204.456 71.6036 206.958 71.1074L207.088 71.7601C204.742 72.2263 202.212 73.8613 200.934 75.7375Z" fill="#3860FF"/>
<path d="M156.739 139.831C156.649 139.831 156.563 139.795 156.499 139.73L155.103 138.291C154.392 138.224 153.688 138.093 153.008 137.901L150.831 138.86C150.728 138.908 150.608 138.896 150.513 138.834L146.866 136.416C146.772 136.353 146.716 136.247 146.717 136.133L146.753 133.76C146.31 133.209 145.915 132.61 145.577 131.977L143.709 131.253C143.603 131.211 143.526 131.12 143.502 131.009L142.633 126.721C142.611 126.61 142.647 126.495 142.728 126.415L144.167 125.019C144.234 124.312 144.364 123.608 144.556 122.922L143.598 120.748C143.552 120.645 143.562 120.525 143.624 120.429L146.041 116.782C146.104 116.688 146.193 116.629 146.324 116.633L148.696 116.67C149.253 116.225 149.852 115.83 150.48 115.494L151.205 113.625C151.246 113.519 151.338 113.442 151.449 113.418L155.737 112.549C155.848 112.527 155.963 112.562 156.042 112.643L157.437 114.081C158.145 114.148 158.85 114.279 159.536 114.471L161.71 113.512C161.813 113.467 161.933 113.477 162.028 113.54L165.674 115.957C165.769 116.02 165.825 116.126 165.823 116.24L165.788 118.614C166.231 119.166 166.625 119.765 166.962 120.395L168.832 121.121C168.938 121.162 169.015 121.253 169.038 121.364L169.907 125.652C169.93 125.763 169.894 125.879 169.813 125.958L168.373 127.354C168.307 128.054 168.176 128.757 167.983 129.448L168.943 131.625C168.989 131.729 168.978 131.849 168.916 131.944L166.5 135.592C166.438 135.686 166.338 135.733 166.218 135.741L163.845 135.705C163.292 136.146 162.693 136.539 162.063 136.876L161.337 138.75C161.296 138.856 161.203 138.933 161.092 138.956L156.805 139.826C156.783 139.829 156.761 139.831 156.739 139.831ZM152.984 137.214C153.016 137.214 153.048 137.219 153.078 137.228C153.792 137.437 154.533 137.576 155.283 137.638C155.364 137.645 155.439 137.68 155.494 137.738L156.85 139.136L160.781 138.339L161.487 136.519C161.516 136.444 161.572 136.381 161.644 136.344C162.312 135.996 162.942 135.582 163.518 135.111C163.579 135.062 163.648 135.028 163.734 135.037L166.045 135.072L168.261 131.729L167.326 129.608C167.295 129.537 167.289 129.456 167.311 129.38C167.522 128.654 167.66 127.912 167.722 127.175C167.728 127.095 167.764 127.02 167.821 126.964L169.219 125.608L168.423 121.677L166.607 120.973C166.529 120.943 166.466 120.886 166.429 120.812C166.083 120.146 165.668 119.518 165.196 118.943C165.146 118.882 165.119 118.805 165.12 118.726L165.155 116.413L161.812 114.197L159.697 115.129C159.625 115.161 159.545 115.166 159.47 115.145C158.748 114.935 158.003 114.796 157.257 114.734C157.176 114.728 157.102 114.692 157.046 114.635L155.692 113.239L151.761 114.036L151.057 115.852C151.028 115.927 150.972 115.99 150.9 116.027C150.236 116.373 149.605 116.788 149.024 117.262C148.964 117.311 148.882 117.346 148.808 117.338L146.497 117.302L144.281 120.645L145.215 122.762C145.255 122.854 145.252 122.958 145.208 123.046C145.02 123.711 144.882 124.454 144.82 125.199C144.813 125.279 144.778 125.354 144.72 125.41L143.323 126.766L144.119 130.696L145.935 131.4C146.016 131.431 146.081 131.493 146.117 131.571C146.462 132.232 146.876 132.859 147.345 133.43C147.395 133.491 147.423 133.569 147.421 133.648L147.386 135.96L150.729 138.176L152.85 137.241C152.892 137.224 152.938 137.214 152.984 137.214ZM156.26 135.059C154.576 135.059 152.875 134.583 151.369 133.585C149.394 132.276 148.046 130.275 147.574 127.953C147.102 125.63 147.563 123.262 148.872 121.286H148.873C151.58 117.207 157.1 116.086 161.176 118.788C165.253 121.494 166.372 127.013 163.67 131.092C161.964 133.665 159.138 135.059 156.26 135.059ZM149.428 121.654C148.217 123.481 147.79 125.671 148.227 127.82C148.663 129.969 149.91 131.819 151.738 133.029C155.512 135.53 160.615 134.495 163.114 130.724C165.614 126.952 164.579 121.846 160.808 119.344C157.037 116.844 151.932 117.881 149.428 121.654Z" fill="white"/>
<path d="M283.6 154.279L273.147 152.868L280.06 101.048L259.893 98.3269L210.973 143.366L208.403 162.633L250.556 168.322L248.454 184.08L268.621 186.802L270.723 171.043L281.176 172.453L283.6 154.279ZM230.708 147.141L256.52 123.612L252.981 150.146L230.708 147.141Z" fill="#3860FF"/>
<path d="M262.493 186.307C262.473 186.307 262.453 186.305 262.433 186.302C262.253 186.269 262.132 186.096 262.165 185.915L277.701 100.713C277.733 100.533 277.908 100.42 278.088 100.445C278.269 100.479 278.389 100.653 278.355 100.833L262.82 186.034C262.791 186.195 262.651 186.307 262.493 186.307Z" fill="#263238"/>
<path d="M276.277 102.144C276.267 102.445 276.014 102.681 275.713 102.671C275.412 102.661 275.177 102.408 275.187 102.107C275.197 101.806 275.45 101.57 275.751 101.58C276.052 101.59 276.288 101.843 276.277 102.144Z" fill="#263238"/>
<path d="M274.058 113.667C274.048 113.968 273.795 114.204 273.494 114.194C273.193 114.184 272.957 113.931 272.967 113.63C272.977 113.328 273.23 113.093 273.531 113.103C273.832 113.113 274.068 113.365 274.058 113.667Z" fill="#263238"/>
<path d="M271.839 125.189C271.828 125.49 271.575 125.725 271.274 125.715C270.973 125.705 270.738 125.452 270.748 125.151C270.758 124.85 271.011 124.615 271.312 124.625C271.613 124.635 271.849 124.888 271.839 125.189Z" fill="#263238"/>
<path d="M267.474 137.184C267.464 137.485 267.211 137.721 266.91 137.711C266.609 137.7 266.373 137.448 266.383 137.147C266.393 136.846 266.646 136.61 266.947 136.62C267.248 136.63 267.485 136.882 267.474 137.184Z" fill="#263238"/>
<path d="M267.4 148.234C267.389 148.535 267.136 148.77 266.835 148.76C266.534 148.75 266.299 148.497 266.309 148.196C266.319 147.895 266.572 147.66 266.873 147.669C267.174 147.679 267.41 147.933 267.4 148.234Z" fill="#263238"/>
<path d="M265.181 159.756C265.17 160.057 264.917 160.293 264.616 160.283C264.315 160.273 264.08 160.02 264.09 159.719C264.1 159.418 264.353 159.182 264.654 159.192C264.955 159.202 265.191 159.454 265.181 159.756Z" fill="#263238"/>
<path d="M262.961 171.279C262.95 171.58 262.698 171.815 262.397 171.805C262.095 171.795 261.86 171.542 261.87 171.241C261.88 170.94 262.133 170.704 262.434 170.714C262.736 170.724 262.971 170.977 262.961 171.279Z" fill="#263238"/>
<path d="M260.742 182.8C260.731 183.101 260.479 183.337 260.178 183.327C259.876 183.317 259.641 183.064 259.651 182.763C259.661 182.462 259.914 182.226 260.215 182.236C260.516 182.246 260.752 182.499 260.742 182.8Z" fill="#263238"/>
<path d="M266.929 137.498C266.776 137.498 266.637 137.392 266.604 137.235C266.565 137.055 266.68 136.878 266.859 136.839L268.514 136.484C268.696 136.448 268.871 136.559 268.909 136.74C268.948 136.92 268.833 137.097 268.654 137.136L266.999 137.491C266.975 137.496 266.952 137.498 266.929 137.498Z" fill="#263238"/>
<path d="M272.451 131.363C272.451 131.363 270.96 135.245 270.459 137.597C269.957 139.949 269.927 145.205 269.927 145.205" fill="#263238"/>
<path d="M269.927 145.538H269.925C269.741 145.537 269.592 145.387 269.594 145.203C269.595 144.988 269.629 139.886 270.133 137.527C270.634 135.177 272.078 131.403 272.14 131.243C272.206 131.071 272.397 130.986 272.57 131.051C272.742 131.117 272.828 131.311 272.762 131.482C272.747 131.521 271.275 135.367 270.784 137.666C270.295 139.959 270.26 145.155 270.26 145.207C270.258 145.391 270.11 145.538 269.927 145.538Z" fill="#263238"/>
<path d="M148.153 203.024C149.078 188.104 147.376 160.982 175.422 164.572C205.481 168.42 196.881 203.57 196.881 203.57L148.153 203.024Z" fill="#263238"/>
<path d="M167.508 194.056C174.267 194.056 179.746 188.577 179.746 181.818C179.746 175.059 174.267 169.58 167.508 169.58C160.75 169.58 155.271 175.059 155.271 181.818C155.271 188.577 160.75 194.056 167.508 194.056Z" fill="white"/>
<path d="M169.115 169.6C163.318 168.61 157.12 172.883 156.51 177.212L179.491 179.325C178.682 174.39 173.715 170.385 169.115 169.6Z" fill="#263238"/>
<path d="M176.873 181.514C176.709 184.713 174.965 187.224 172.979 187.122C170.992 187.02 169.515 184.344 169.679 181.144C169.843 177.945 171.587 175.434 173.573 175.536C175.56 175.638 177.038 178.314 176.873 181.514Z" fill="#263238"/>
<path d="M167.508 194.722C160.393 194.722 154.604 188.934 154.604 181.818C154.604 174.703 160.393 168.914 167.508 168.914C174.624 168.914 180.412 174.703 180.412 181.818C180.412 188.934 174.623 194.722 167.508 194.722ZM167.508 170.246C161.127 170.246 155.936 175.437 155.936 181.818C155.936 188.199 161.127 193.39 167.508 193.39C173.889 193.39 179.08 188.199 179.08 181.818C179.08 175.437 173.888 170.246 167.508 170.246Z" fill="#3860FF"/>
<path opacity="0.3" d="M193.463 202.649C193.437 202.649 193.411 202.645 193.384 202.639C193.206 202.596 193.095 202.416 193.138 202.237C193.16 202.147 195.282 193.117 193.079 183.987C193.035 183.808 193.145 183.628 193.324 183.584C193.501 183.544 193.683 183.651 193.726 183.83C195.969 193.121 193.808 202.301 193.786 202.393C193.749 202.547 193.613 202.649 193.463 202.649Z" fill="white"/>
<path opacity="0.3" d="M191.607 178.994C191.48 178.994 191.36 178.922 191.304 178.799C190.447 176.93 189.385 175.215 188.146 173.7C188.029 173.557 188.05 173.348 188.193 173.231C188.335 173.114 188.544 173.135 188.662 173.278C189.936 174.837 191.029 176.601 191.909 178.522C191.986 178.689 191.912 178.887 191.745 178.963C191.7 178.984 191.653 178.994 191.607 178.994Z" fill="white"/>
<path d="M85.7374 273.005C85.6548 273.005 85.5722 273.005 85.4897 273.002C83.6515 272.951 82.2023 271.42 82.2522 269.582C82.3022 267.743 83.8167 266.321 85.6721 266.345C85.6928 266.345 85.7141 266.345 85.7361 266.345C87.6602 266.345 92.2888 264.008 101.972 248.743C102.492 247.924 103.344 247.371 104.305 247.231C105.267 247.095 106.24 247.38 106.972 248.017C118.921 258.435 131.584 264.92 131.71 264.985C133.349 265.817 134.004 267.822 133.171 269.461C132.339 271.101 130.335 271.757 128.696 270.924C128.194 270.668 117.125 265.009 105.521 255.508C97.4051 267.709 91.3824 273.005 85.7374 273.005Z" fill="#263238"/>
<path d="M106.34 247.419C106.245 247.419 106.151 247.412 106.055 247.399C104.963 247.243 104.204 246.231 104.36 245.138C104.834 241.823 104.247 229.403 100.048 219.746C99.6648 218.866 99.9618 217.839 100.755 217.298C109.878 211.081 129.31 210.337 130.134 210.309C131.23 210.285 132.161 211.133 132.2 212.236C132.238 213.338 131.375 214.264 130.273 214.302C130.093 214.309 113.103 214.96 104.373 219.765C108.092 229.38 108.935 241.368 108.315 245.703C108.173 246.7 107.318 247.419 106.34 247.419Z" fill="#263238"/>
<path d="M109.697 244.832C108.368 241.698 102.379 242.054 98.8621 244.74C96.9827 246.176 94.4392 250.495 94.1715 252.06C93.9044 253.626 94.9887 255.044 96.8508 254.883C99.1472 254.684 102.299 251.347 102.299 251.347C100.202 253.404 102.908 254.855 106.946 251.881C109.186 250.231 111.184 248.342 109.697 244.832Z" fill="#3860FF"/>
<path d="M224.246 203.903C224.216 203.903 224.185 203.899 224.154 203.89C223.978 203.839 223.875 203.654 223.926 203.478C224.813 200.388 225.782 198.5 227.056 197.45C226.861 196.787 226.883 196.025 227.158 195.28C227.426 194.555 227.944 193.834 228.731 193.279C228.346 192.862 228.202 192.316 228.339 191.692C228.49 190.999 228.994 190.247 229.761 189.59C229.459 189.243 229.386 188.866 229.384 188.586C229.367 186.6 233.051 183.574 237.217 183.006C237.399 182.972 237.567 183.107 237.592 183.291C237.617 183.472 237.489 183.64 237.307 183.666C233.352 184.206 230.036 187.068 230.05 188.581C230.052 188.826 230.142 189.023 230.291 189.182C231.79 188.138 234.003 187.467 236.472 187.941C238.516 188.332 239.348 188.764 239.252 189.385C239.07 190.552 234.717 190.793 231.799 190.446C231.138 190.368 230.654 190.211 230.301 190.016C229.575 190.609 229.11 191.275 228.989 191.834C228.881 192.333 229.042 192.681 229.319 192.924C230.555 192.286 232.295 192.02 234.591 192.527C237.613 193.194 237.725 193.562 237.793 193.781C237.841 193.938 237.802 194.099 237.686 194.222C237.049 194.897 232.42 194.577 230.095 194.007C229.792 193.933 229.525 193.832 229.294 193.707C228.523 194.192 228.028 194.848 227.783 195.51C227.587 196.042 227.543 196.571 227.633 197.044C227.752 196.973 227.875 196.908 228 196.848C229.378 196.194 231.045 196.304 233.098 197.181C234.46 197.765 235.116 198.28 235.164 198.806C235.179 198.961 235.148 199.259 234.785 199.5C233.769 200.174 230.209 200.072 228.359 199.087C227.923 198.854 227.577 198.511 227.335 198.097C226.246 199.091 225.368 200.872 224.567 203.662C224.524 203.809 224.39 203.903 224.246 203.903ZM227.859 197.689C228.043 198.03 228.317 198.311 228.671 198.499C230.174 199.299 233.13 199.482 234.24 199.035C234.466 198.943 234.5 198.866 234.5 198.866C234.5 198.864 234.464 198.491 232.835 197.795C230.968 196.996 229.479 196.884 228.285 197.45C228.14 197.519 227.998 197.598 227.859 197.689ZM230.079 193.315C230.137 193.331 230.195 193.347 230.251 193.361C232.603 193.937 235.778 194.035 236.867 193.856C236.53 193.714 235.841 193.486 234.446 193.178C232.599 192.771 231.155 192.898 230.079 193.315ZM230.92 189.57C231.22 189.682 231.56 189.748 231.877 189.785C235.196 190.178 238.125 189.714 238.564 189.301C238.45 189.198 238.004 188.913 236.347 188.596C234.16 188.18 232.25 188.728 230.92 189.57Z" fill="#263238"/>
<path d="M137.547 271.893C137.986 271.753 137.838 271.329 137.349 271.329H128.332C111.162 269.511 99.1652 271.948 106.725 272.523C114.284 273.097 106.193 272.977 100.672 275.065C95.1519 277.153 141.734 277.679 145.97 275.065C149.877 272.653 131.463 273.843 137.547 271.893Z" fill="#263238"/>
<path d="M202.11 274.551L123.654 271.95L120.398 195.878L213.046 197.95L202.11 274.551Z" fill="#3860FF"/>
<path d="M148.153 273.095C147.981 273.095 147.835 272.964 147.821 272.79L141.532 196.385C141.517 196.202 141.653 196.041 141.837 196.026C142.026 196.016 142.182 196.148 142.196 196.331L148.485 272.735C148.5 272.918 148.364 273.079 148.18 273.094C148.171 273.095 148.162 273.095 148.153 273.095Z" fill="#263238"/>
<path d="M202.11 274.551L223.197 271.34L229.839 200.605L213.046 197.95L202.11 274.551Z" fill="#3860FF"/>
<path opacity="0.2" d="M202.11 274.551L223.197 271.34L229.839 200.605L213.046 197.95L202.11 274.551Z" fill="black"/>
<path d="M130.359 257.286L128.425 212.091C128.223 207.373 132.05 203.467 136.771 203.573L195.418 204.884C200.316 204.993 204.017 209.358 203.324 214.208L196.822 259.757C196.233 263.885 192.63 266.907 188.463 266.768L138.252 265.104C133.982 264.962 130.542 261.555 130.359 257.286Z" fill="#263238"/>
<path d="M136.695 217.441L145.768 217.73L145.694 220.07L140.013 219.889L139.958 221.631L145.227 221.799L145.156 224.033L139.887 223.865L139.818 226.025L145.663 226.211L145.584 228.692L136.346 228.399L136.695 217.441Z" fill="white"/>
<path d="M147.452 228.752L147.801 217.795L153.444 217.974C154.49 218.008 155.287 218.123 155.834 218.32C156.381 218.517 156.816 218.864 157.14 219.36C157.464 219.857 157.614 220.454 157.592 221.152C157.572 221.76 157.426 222.28 157.153 222.713C156.88 223.146 156.511 223.492 156.049 223.751C155.755 223.917 155.354 224.048 154.846 224.147C155.245 224.295 155.535 224.439 155.715 224.579C155.836 224.672 156.01 224.87 156.238 225.172C156.465 225.474 156.616 225.705 156.69 225.868L158.229 229.095L154.403 228.973L152.7 225.568C152.485 225.127 152.29 224.839 152.114 224.704C151.875 224.527 151.602 224.433 151.293 224.423L150.994 224.413L150.852 228.861L147.452 228.752ZM151.061 222.343L152.488 222.388C152.643 222.393 152.943 222.353 153.39 222.268C153.616 222.23 153.802 222.121 153.95 221.941C154.098 221.761 154.176 221.552 154.183 221.312C154.194 220.959 154.091 220.684 153.873 220.487C153.654 220.291 153.237 220.183 152.619 220.163L151.131 220.116L151.061 222.343Z" fill="white"/>
<path d="M159.358 229.131L159.707 218.174L165.35 218.353C166.396 218.387 167.193 218.502 167.74 218.699C168.287 218.896 168.722 219.243 169.046 219.739C169.37 220.236 169.52 220.834 169.498 221.531C169.478 222.139 169.332 222.659 169.059 223.092C168.785 223.525 168.417 223.871 167.955 224.13C167.661 224.295 167.26 224.427 166.752 224.526C167.151 224.674 167.441 224.818 167.621 224.957C167.743 225.051 167.916 225.249 168.144 225.551C168.371 225.853 168.523 226.084 168.597 226.247L170.136 229.474L166.309 229.352L164.606 225.946C164.391 225.506 164.196 225.218 164.02 225.083C163.781 224.906 163.508 224.812 163.199 224.802L162.9 224.792L162.758 229.239L159.358 229.131ZM162.967 222.722L164.394 222.767C164.549 222.772 164.849 222.732 165.296 222.646C165.522 222.608 165.708 222.499 165.856 222.319C166.004 222.14 166.082 221.93 166.089 221.691C166.1 221.337 165.997 221.062 165.779 220.866C165.56 220.669 165.142 220.561 164.525 220.541L163.037 220.494L162.967 222.722Z" fill="white"/>
<path d="M170.706 224.015C170.764 222.226 171.306 220.85 172.334 219.885C173.362 218.92 174.766 218.466 176.545 218.523C178.368 218.581 179.758 219.115 180.713 220.125C181.669 221.135 182.118 222.523 182.062 224.287C182.022 225.568 181.773 226.611 181.316 227.417C180.858 228.223 180.216 228.841 179.386 229.271C178.557 229.701 177.535 229.897 176.319 229.858C175.083 229.819 174.067 229.59 173.27 229.17C172.473 228.75 171.836 228.107 171.36 227.239C170.884 226.37 170.666 225.296 170.706 224.015ZM174.092 224.138C174.056 225.244 174.237 226.045 174.633 226.541C175.028 227.037 175.58 227.297 176.288 227.32C177.015 227.343 177.586 227.124 177.999 226.664C178.413 226.203 178.639 225.36 178.678 224.134C178.711 223.103 178.527 222.342 178.126 221.853C177.725 221.364 177.169 221.108 176.456 221.085C175.773 221.063 175.217 221.288 174.788 221.758C174.359 222.228 174.127 223.021 174.092 224.138Z" fill="white"/>
<path d="M183.754 229.906L184.102 218.949L189.745 219.129C190.792 219.163 191.589 219.278 192.136 219.475C192.683 219.672 193.118 220.018 193.442 220.515C193.765 221.012 193.916 221.609 193.893 222.307C193.874 222.915 193.727 223.435 193.454 223.868C193.181 224.301 192.813 224.647 192.351 224.906C192.056 225.071 191.655 225.203 191.148 225.302C191.547 225.45 191.837 225.593 192.017 225.733C192.138 225.827 192.312 226.025 192.539 226.327C192.766 226.628 192.918 226.86 192.992 227.023L194.531 230.25L190.705 230.128L189.002 226.722C188.786 226.282 188.591 225.994 188.416 225.859C188.177 225.681 187.903 225.587 187.594 225.577L187.295 225.568L187.154 230.015L183.754 229.906ZM187.363 223.498L188.79 223.543C188.944 223.548 189.245 223.508 189.692 223.422C189.917 223.384 190.104 223.275 190.252 223.095C190.399 222.915 190.477 222.706 190.485 222.467C190.496 222.113 190.393 221.838 190.174 221.641C189.956 221.445 189.538 221.337 188.92 221.317L187.433 221.27L187.363 223.498Z" fill="white"/>
<path d="M189.143 248.523C188.906 248.523 188.67 248.427 188.497 248.239L182.795 241.999L176.644 247.62C176.287 247.946 175.735 247.92 175.409 247.564L169.707 241.325L163.555 246.945C163.199 247.271 162.646 247.245 162.321 246.89L156.619 240.65L150.467 246.271C150.297 246.427 150.066 246.509 149.838 246.499C149.607 246.489 149.389 246.387 149.232 246.216L143.531 239.976L137.379 245.596C137.023 245.922 136.47 245.896 136.144 245.541C135.819 245.185 135.844 244.631 136.2 244.306L142.997 238.095C143.353 237.768 143.906 237.794 144.232 238.15L149.934 244.39L156.086 238.769C156.256 238.613 156.486 238.531 156.714 238.541C156.946 238.551 157.164 238.653 157.32 238.824L163.022 245.064L169.174 239.444C169.529 239.117 170.083 239.143 170.409 239.499L176.11 245.739L182.262 240.118C182.618 239.791 183.171 239.817 183.497 240.174L189.788 247.059C190.114 247.415 190.089 247.969 189.733 248.294C189.565 248.448 189.354 248.523 189.143 248.523Z" fill="white"/>
<path d="M83.7494 276.168L79.5816 274.18L75.8633 256.087L77.8813 253.865L83.7494 276.168Z" fill="#3860FF"/>
<path d="M83.7495 276.168L89.2806 272.937L84.5387 258.03L77.8813 253.865L83.7495 276.168Z" fill="#3860FF"/>
<path opacity="0.2" d="M83.7495 276.168L89.2806 272.937L84.5387 258.03L77.8813 253.865L83.7495 276.168Z" fill="black"/>
<path d="M174.458 279.457C174.301 279.457 174.147 279.454 173.998 279.45C172.16 279.4 170.71 277.869 170.76 276.03C170.811 274.192 172.329 272.747 174.18 272.793C179.31 272.961 190.168 269.809 196.371 263.788C196.754 263.416 197.221 263.141 197.733 262.988C208.248 259.833 212.162 266.208 212.323 266.481L206.591 269.871C206.591 269.871 206.613 269.917 206.668 269.992C206.604 269.905 205.115 267.968 200.373 269.167C192.589 276.271 180.641 279.457 174.458 279.457Z" fill="#263238"/>
<path d="M174.089 283.884L161.959 283.119L161.002 260.758L177.304 261.367L174.089 283.884Z" fill="#3860FF"/>
<path d="M174.089 283.884L176.924 281.062L178.682 267.119L177.304 261.367L174.089 283.884Z" fill="#3860FF"/>
<path opacity="0.2" d="M174.089 283.884L176.924 281.062L178.682 267.119L177.304 261.367L174.089 283.884Z" fill="black"/>
<path d="M244.362 275.416C243.941 275.416 243.516 275.283 243.155 275.009C236.231 269.747 226.874 260.406 223.283 251.394C223.231 251.263 223.193 251.126 223.169 250.986C221.418 240.575 219.745 218.658 219.675 217.729C219.591 216.63 220.415 215.67 221.516 215.586C222.612 215.506 223.575 216.327 223.659 217.428C223.676 217.652 225.366 239.783 227.074 250.11C230.656 258.872 240.365 267.87 245.572 271.827C246.451 272.495 246.622 273.748 245.954 274.626C245.561 275.144 244.965 275.416 244.362 275.416Z" fill="#263238"/>
<path d="M253.598 276.425C252.054 276.425 250.302 275.725 248.394 274.344C247.5 273.697 247.3 272.448 247.947 271.554C248.594 270.66 249.843 270.46 250.737 271.107C252.386 272.301 253.288 272.429 253.599 272.429C254.702 272.429 255.597 273.324 255.597 274.427C255.596 275.531 254.702 276.425 253.598 276.425Z" fill="#263238"/>
<path d="M248.953 274.287C251.091 267.937 259.856 269.191 262.874 270.134C265.892 271.077 268.612 272.264 270.247 273.333C271.882 274.402 271.908 276.187 269.728 277.207C267.04 278.464 260.297 277.348 260.297 277.348C263.787 278.877 260.29 281.326 254.166 278.92C252.172 278.137 248.199 276.614 248.953 274.287Z" fill="#3860FF"/>
<path d="M227.68 220.47C226.887 225.866 222.419 229.845 218.783 229.311C215.148 228.776 214.997 223.957 215.79 218.561C216.584 213.165 218.021 209.237 221.656 209.771C225.291 210.306 228.473 215.075 227.68 220.47Z" fill="#263238"/>
<path d="M139.777 198.93C140.078 198.93 140.322 198.686 140.322 198.385C140.322 198.084 140.078 197.839 139.777 197.839C139.475 197.839 139.231 198.084 139.231 198.385C139.231 198.686 139.475 198.93 139.777 198.93Z" fill="#263238"/>
<path d="M145.326 202.316C145.326 202.617 145.082 202.862 144.781 202.862C144.48 202.862 144.235 202.617 144.235 202.316C144.235 202.015 144.479 201.771 144.781 201.771C145.083 201.771 145.326 202.015 145.326 202.316Z" fill="#263238"/>
<path d="M145.937 266.855C145.937 267.157 145.693 267.4 145.392 267.4C145.09 267.4 144.845 267.156 144.845 266.855C144.845 266.553 145.09 266.309 145.392 266.309C145.693 266.309 145.937 266.553 145.937 266.855Z" fill="#263238"/>
<path d="M150.941 270.786C150.941 271.088 150.697 271.332 150.395 271.332C150.094 271.332 149.85 271.087 149.85 270.786C149.85 270.485 150.094 270.241 150.395 270.241C150.697 270.24 150.941 270.485 150.941 270.786Z" fill="#263238"/>
<path d="M54.9516 277.335C53.3665 277.335 51.2233 276.375 50.0678 274.705C49.9633 274.554 50.0006 274.347 50.1517 274.242C50.3029 274.137 50.5101 274.175 50.6153 274.327C51.858 276.121 54.5973 277.078 55.8134 276.511C55.9413 276.451 56.0452 276.376 56.1244 276.285C55.0375 275.783 54.0439 274.8 53.7761 273.3C53.6249 272.457 53.5051 271.316 54.2017 271.158C55.1567 270.943 56.4062 273.253 56.887 275.004C56.9762 275.328 57.0042 275.628 56.9736 275.899C57.3945 276.014 57.8087 276.044 58.1637 275.992C58.4521 275.95 58.8617 275.832 59.0795 275.496C58.2703 274.949 57.7262 273.985 57.5443 272.706C57.2859 270.886 57.4797 270.568 57.6815 270.413C57.8127 270.312 57.9792 270.293 58.1397 270.361C58.8517 270.664 59.7148 273.247 59.88 274.709C59.898 274.87 59.898 275.025 59.882 275.171C60.1544 275.279 60.4548 275.338 60.7804 275.345C61.3579 275.378 61.9286 275.195 62.3855 274.926C62.2909 274.867 62.2017 274.801 62.1178 274.73C61.4265 274.139 61.1481 273.195 61.2653 271.845C61.3559 270.802 61.5936 270.231 62.0132 270.052C62.1604 269.986 62.4601 269.926 62.8177 270.211C63.537 270.786 64.2083 272.607 63.9672 273.912C63.9173 274.182 63.8007 274.441 63.6329 274.678C64.855 274.889 66.5746 274.546 68.0578 274.18C68.2356 274.136 68.4168 274.244 68.4608 274.423C68.5047 274.602 68.3962 274.782 68.2177 274.826C66.4128 275.272 64.4701 275.635 63.0975 275.237C62.4874 275.722 61.6283 276.016 60.7678 276.01C60.3755 276.002 60.0099 275.932 59.6762 275.805C59.4138 276.252 58.9256 276.555 58.2616 276.652C57.8194 276.718 57.2986 276.675 56.7711 276.525C56.6213 276.774 56.3948 276.975 56.0965 277.115C55.7768 277.263 55.3852 277.334 54.9516 277.335ZM54.3762 271.823C54.3376 271.925 54.2676 272.262 54.4328 273.184C54.6519 274.409 55.4451 275.224 56.3236 275.653C56.3196 275.512 56.2936 275.354 56.2463 275.182C55.7228 273.278 54.7285 271.966 54.3762 271.823ZM58.0865 271.242C58.0825 271.492 58.1051 271.913 58.2044 272.613C58.3395 273.564 58.6899 274.294 59.216 274.76C59.0602 273.422 58.4668 271.873 58.0865 271.242ZM62.2763 270.663H62.2749C62.2736 270.664 62.0252 270.79 61.928 271.902C61.8307 273.023 62.0345 273.782 62.55 274.222C62.6672 274.322 62.8004 274.406 62.9489 274.475C63.1374 274.266 63.2659 274.033 63.3106 273.79C63.4891 272.825 63.0295 271.412 62.514 270.84C62.3808 270.691 62.2949 270.663 62.2763 270.663Z" fill="#263238"/>
<path d="M152.429 282.369L154.234 279.239L152.429 276.109H150.497L151.589 279.239L150.497 282.369H152.429Z" fill="#263238"/>
<path d="M150.624 280.871C149.725 280.871 148.993 280.138 148.993 279.239C148.993 278.34 149.725 277.614 150.624 277.614L147.556 277L146.742 279.478L148.111 281.569L150.624 280.871Z" fill="#263238"/>
<path d="M150.887 276.109H147.27L145.466 279.239L147.27 282.369H150.887L152.692 279.239L150.887 276.109ZM149.082 280.871C148.183 280.871 147.45 280.138 147.45 279.239C147.45 278.34 148.183 277.614 149.082 277.614C149.981 277.614 150.707 278.34 150.707 279.239C150.707 280.138 149.981 280.871 149.082 280.871Z" fill="#3860FF"/>
<path d="M278.314 275.901L276.974 273.576L278.314 271.251H279.749L278.939 273.576L279.749 275.901H278.314Z" fill="#3860FF"/>
<path d="M279.655 274.788C280.323 274.788 280.867 274.244 280.867 273.576C280.867 272.908 280.323 272.369 279.655 272.369L281.934 271.913L282.539 273.753L281.522 275.306L279.655 274.788Z" fill="#3860FF"/>
<path d="M279.46 271.251H282.146L283.487 273.576L282.146 275.901H279.46L278.12 273.576L279.46 271.251ZM280.801 274.788C281.469 274.788 282.013 274.244 282.013 273.576C282.013 272.908 281.469 272.369 280.801 272.369C280.133 272.369 279.594 272.908 279.594 273.576C279.594 274.244 280.133 274.788 280.801 274.788Z" fill="#263238"/>
<path d="M228.403 278.986H231.412C232.196 278.986 232.837 278.345 232.837 277.562C232.837 276.778 232.196 276.137 231.412 276.137H228.403C227.619 276.137 226.979 276.778 226.979 277.562C226.979 278.345 227.619 278.986 228.403 278.986Z" fill="#263238"/>
<path d="M223.596 276.299C224.339 274.723 226.14 274.011 227.62 274.708C229.099 275.406 229.696 277.248 228.953 278.824C228.211 280.4 226.409 281.112 224.93 280.415C223.45 279.717 222.853 277.875 223.596 276.299Z" fill="#3860FF"/>
<path d="M224.443 280.402L225.268 280.791L228.138 274.706L227.312 274.316L224.443 280.402Z" fill="#263238"/>
</svg>
