<svg xmlns="http://www.w3.org/2000/svg" width="32" height="32" viewBox="0 0 32 32">
    <path d="M15.518.567c-.227.22-.704.675-1.062 1.014-3.156 2.995-5.212 5.227-6.59 7.153-1.29 1.807-2.11 3.297-2.791 5.086-.645 1.687-.894 3.051-.846 4.582.045 1.342.268 2.37.768 3.54.424.99.916 1.714 1.728 2.548.611.622 1.304 1.122 2.195 1.572l.551.276.451-.447c.246-.246.954-.965 1.572-1.595l1.122-1.15-.336-.332c-.182-.183-.354-.332-.383-.332-.03 0-.59.544-1.249 1.21s-1.21 1.212-1.229 1.212c-.015 0-.164-.086-.324-.194l-.298-.194.887-.898c.488-.492 1.061-1.073 1.277-1.296l.392-.399-.328-.328-.332-.324L9.4 22.583c-.711.722-1.311 1.315-1.333 1.315-.041 0-.496-.462-.496-.503 0-.015.496-.533 1.103-1.148a63.552 63.552 0 0 0 1.274-1.322l.168-.198-.32-.324c-.18-.179-.325-.343-.325-.361 0-.023.108-.146.239-.276l.242-.239.682.667c.376.365 1.091 1.07 1.594 1.561a190.61 190.61 0 0 0 1.8 1.748l.883.853v.656c0 .361-.011.745-.023.85l-.026.197h-.715l.011-.697.011-.7-.503-.5-.499-.499-.108.093c-.056.049-.723.712-1.475 1.468-1.35 1.36-1.368 1.382-1.275 1.423.205.093 1.025.313 1.487.399.738.134 1.107.168 2.139.194l.938.022v.227c0 .127-.026.563-.055.973-.027.41-.079 1.114-.108 1.565-.034.45-.068.879-.079.95-.007.07-.026.309-.04.529l-.027.402h1.423c1.327 0 1.42-.004 1.42-.067 0-.034-.015-.239-.037-.455a120.69 120.69 0 0 1-.205-2.738c-.03-.473-.064-.905-.075-.961-.007-.056-.018-1.397-.018-2.98l-.004-2.877 1.341-1.297 1.345-1.3v-3.007l.302-.272c.164-.149.317-.279.335-.286.026-.008.037.462.026 1.482l-.01 1.494.42-.417.417-.42V14.94l-.398-.38-.395-.384-.86.827c-.474.455-1.13 1.088-1.458 1.405-.938.917-1.073 1.043-1.087 1.032-.008-.007 0-.238.01-.518l.027-.503.954-.905c2.31-2.198 4.068-3.923 4.046-3.976-.011-.03-.019-.398-.019-.82v-.76l-2 1.953c-1.103 1.073-2.229 2.172-2.504 2.44-.276.272-.51.492-.526.492-.022 0-2.008-1.945-3.968-3.882l-.745-.738-.01.533-.012.53.179.163c.097.093.503.484.898.868l.715.7v1.014l-.212-.186c-.12-.105-.675-.649-1.23-1.211l-1.017-1.021v-1.058l.004-1.058-.682-.67c-.376-.373-.72-.716-.764-.768l-.085-.093.238-.235.238-.239.481.459c.458.443 2.444 2.403 4.825 4.765l1.144 1.136.477-.462c.26-.257 1.106-1.077 1.874-1.822.767-.749 1.743-1.702 2.168-2.12.425-.417.786-.752.808-.749.045.02.451.522.451.563 0 .015-.015.037-.037.049-.022.014-.037.35-.037.886v.865l.39-.392.396-.39.108.13c.06.07.156.197.212.275l.105.146-.72.693-.719.693.455.454.458.455.16-.138c.086-.075.34-.31.567-.522l.41-.384.149.261c.085.142.16.283.171.31.015.033-.253.316-.69.733l-.707.682v.414l-.335.328a4.158 4.158 0 0 1-.354.331c-.012 0-.019-.372-.019-.83v-.828l-.387-.387-.388-.388-.5.488-.495.489.477.476.473.477v2.523l.924-.89c1.442-1.402 2.523-2.434 2.541-2.434.026 0 .298.615.298.675 0 .044-.98 1.006-2.403 2.362-.45.428-.823.793-.83.808-.008.015.059.019.148.011s.37-.003.619.008l.462.022.313.32.317.321-.16.026c-.09.015-.701.022-1.36.019l-1.204-.008-.343.336c-.19.186-.775.756-1.296 1.27-.522.51-1.193 1.17-1.49 1.46l-.54.526.465.47.466.465 1.035-1.01 1.032-1.01.257.24.261.234-1.01 1.01-1.005 1.01.331.346c.261.272.347.339.391.313.071-.041 2.713-2.586 2.713-2.612 0-.011-.283-.302-.634-.648-.346-.347-.633-.649-.633-.667 0-.026.779-.038 2.254-.038h2.254l-.022.101c-.105.477-.354 1.248-.41 1.267-.022.007-.205-.138-.406-.324l-.373-.336h-.79c-.435 0-.793.015-.793.034s.07.097.16.171a154.9 154.9 0 0 1 2.18 2.087l.42.417.16-.227c.694-.976 1.22-2.407 1.446-3.916.03-.216.049-.674.049-1.304-.004-.812-.015-1.047-.086-1.46-.242-1.483-.741-2.951-1.557-4.594a36.626 36.626 0 0 0-.686-1.304c-.86-1.49-2.32-3.42-3.763-4.974l-.465-.503c-.697-.745-2.687-2.739-3.242-3.245-.238-.216-1.3-1.211-1.688-1.58-.13-.123-.257-.227-.279-.23-.026-.005-.231.17-.462.39zm-.626 3.353c-.011.012-.12-.078-.242-.197l-.224-.22.231-.238.235-.235.011.436c.004.238 0 .443-.01.454zm2.321-.763.116.119-.127.104a.767.767 0 0 1-.145.1c-.015 0-.023-.1-.023-.223s.015-.223.03-.223.082.056.15.123zm.89.927.232.235-.626.648c-.503.526-.63.637-.649.585-.014-.037-.026-.257-.026-.492v-.424l.384-.391c.212-.217.399-.392.421-.392.019 0 .138.105.265.231zm-3.721.738.529.5v1.221c0 .67-.011 1.222-.03 1.222-.015 0-.142-.115-.283-.257l-.257-.26.026-.667.026-.671-.6-.57a11.635 11.635 0 0 1-.596-.592c0-.012.112-.142.246-.291.29-.317.175-.361.939.365zm-1.062.514.365.365-.011.466-.011.462-.585-.574a12.326 12.326 0 0 1-.589-.596c0-.033.414-.488.44-.488.015 0 .19.164.39.365zm5.957-.078c.12.12.216.235.216.264 0 .027-.544.59-1.21 1.249l-1.211 1.2V6.915l.976-.935c.536-.514.987-.935.995-.935.01 0 .115.096.234.212zm-7.015 1.438c.257.25.961.924 1.56 1.494l1.089 1.04v.48c0 .272-.015.477-.034.47-.033-.012-.723-.66-1.661-1.558-.92-.883-1.92-1.878-1.92-1.915 0-.048.414-.47.463-.47.018 0 .246.206.503.46zm8.252-.164c.213.216.216.224.157.31-.034.044-.667.696-1.412 1.445a124.24 124.24 0 0 0-1.405 1.43c-.07.094-.086.105.578-.335.942-.622 1.076-.73 2.175-1.721.254-.227.473-.417.492-.417.015 0 .123.104.239.23l.208.235-.365.35c-.92.88-2.045 1.882-2.187 1.946-.086.037-.551.275-1.036.529-.816.428-.883.454-.901.383a8.388 8.388 0 0 1-.023-.767v-.69l.328-.338c.611-.634 2.85-2.81 2.891-2.81.026 0 .142.1.261.22zm-10.1 2.947.287.28v1.032l-.764-.742c-.421-.406-.764-.752-.764-.775 0-.018.097-.16.212-.309l.213-.268.264.25c.142.141.392.38.552.532zm-1.692 1.014c.693.652 1.878 1.784 2.742 2.619a302.17 302.17 0 0 0 3.007 2.872l.44.406v1.08l-.38-.375-1.67-1.617a506.236 506.236 0 0 1-2.086-2.03 206.62 206.62 0 0 0-2.16-2.087 14.61 14.61 0 0 1-.478-.474l-.085-.1.197-.265a2.26 2.26 0 0 1 .212-.26c.008 0 .127.104.261.23zm-.428 2.667.92.906-.011.51-.011.51-1.036-1.02a48.007 48.007 0 0 0-1.107-1.073c-.096-.068-.093-.13.02-.31a1.21 1.21 0 0 0 .092-.164c0-.048.16-.283.186-.275a30 30 0 0 1 .947.916zm-.734 1.602c.529.51 1.296 1.248 1.706 1.64l.745.711.019-1.535.019-1.535.328.313.324.313v1.569l.003 1.568.455.421.454.421.02-1.516.018-1.517.328.317.324.317-.008 1.498-.01 1.501.744.734c.41.402.999.976 1.308 1.27l.563.54.007.492c0 .272-.007.496-.022.496-.019 0-.56-.514-1.204-1.14a844.05 844.05 0 0 0-2.258-2.18l-1.084-1.043-1.319-.004c-.726 0-1.594-.01-1.933-.026l-.615-.022.335-.324c.41-.395.34-.384 1.736-.358.552.011 1.003.008 1.003-.007s-.071-.093-.157-.168c-.09-.078-.507-.477-.928-.883l-.77-.738h-1.8l.026-.171c.011-.093.045-.25.067-.343l.045-.175h.454c.25 0 .455-.007.455-.015s-.157-.167-.35-.354l-.354-.339.156-.324c.086-.179.168-.328.183-.328.014 0 .458.418.987.924zm18.52 1.096c.142.488.19.715.231 1.073l.06.51.019.16h-1.248c-.69 0-1.252-.015-1.252-.03 0-.018.212-.23.477-.473.26-.242.722-.682 1.024-.976.306-.294.566-.533.581-.533.019 0 .067.123.108.269zm-19.452 1.34c.19.19.347.359.347.373 0 .02-.313.03-.693.03h-.693l.019-.16c.014-.086.033-.253.048-.373l.022-.212h.608l.342.343zm7.623.932.663.645-.01.726-.012.727-.864-.876-.868-.875v-1.368l.216.19c.115.105.51.477.875.831zm3.715 1.185-.894.898v-1.338l.7-.663c.384-.369.782-.745.887-.838l.182-.171.012.607.007.607-.894.898zM7.254 18.56l.63.022.361.35.366.347H7.139c-1.148 0-1.468-.011-1.472-.049 0-.022-.011-.085-.018-.137-.045-.235-.075-.522-.06-.54.026-.027.924-.023 1.665.007zm19.12.13c-.014.09-.033.257-.048.373l-.022.216h-2.843l.373-.373.372-.372h2.187l-.018.156zM7.069 20.74c-.346.353-.66.677-.693.715-.067.07-.07.067-.149-.112a8.92 8.92 0 0 1-.358-1.107l-.022-.138h1.848l-.626.641zm2.18.037v.495l-.928.932c-.51.51-.946.935-.965.942-.034.011-.455-.432-.455-.48 0-.023 2.31-2.381 2.333-2.381.007 0 .015.223.015.492zm3.956 4.668c-.007.447-.022.615-.056.615-.074 0-.704-.071-.834-.094-.067-.01-.123-.037-.123-.055 0-.026.995-1.08 1.02-1.08 0 0 0 .275-.007.614z"/>
    <path d="m22.045 23.283-1.34 1.319.316.32c.171.175.328.317.346.317.015 0 .459-.425.98-.943.526-.514.965-.942.98-.95.019-.003.153.127.306.295.23.253.264.309.216.346-.03.022-.172.134-.313.25-.406.331-.924.66-1.472.942-.276.142-.503.269-.503.28 0 .044.86.86.91.86.092 0 1.15-.57 1.553-.838.38-.253.704-.521 1.375-1.151l.26-.242-.205-.194c-.111-.108-.603-.585-1.095-1.054-.488-.474-.905-.865-.931-.868-.023-.004-.645.584-1.383 1.311zm-4.265 1.792v2.183l.346-.018c.186-.015.432-.023.54-.026h.194v-3.298l-.514-.514c-.28-.28-.526-.51-.54-.51-.015 0-.026.983-.026 2.183zm1.788.782v1.29l.179-.027c.499-.07 1.576-.342 1.881-.476l.108-.045-.685-.641c-.373-.35-.85-.808-1.055-1.013-.205-.209-.383-.377-.398-.377-.019 0-.03.582-.03 1.29z"/>
</svg>
