<svg width="315" height="315" viewBox="0 0 315 315" fill="none" xmlns="http://www.w3.org/2000/svg">
<g clip-path="url(#clip0_597_228)">
<path d="M76.01 187.74C77.3 187.19 78.6999 186.97 80.0899 187.09C82.5699 187.11 85.03 187.59 87.32 188.51C92.18 190.54 97.3699 191.6 102.63 191.65C116.66 191.65 127.96 183.46 138.89 175.53L139.99 174.1C140.88 172.94 141.75 171.79 142.63 170.62C145.09 163.97 147.68 157.03 149.98 150.88C155.85 135.16 161.93 118.89 167.6 102.78C168.63 98.92 170.87 95.49 173.98 92.99C177.09 90.49 180.93 89.05 184.91 88.87H185.98C191.9 85.94 198.39 84.33 204.99 84.14C206.61 84.14 208.22 84.26 209.82 84.5L209.93 84.43C213.5 82.83 216.6 80.34 218.92 77.19C221.25 74.04 222.73 70.35 223.21 66.47C223 64.16 221.92 62.02 220.18 60.47C218.38 58.32 215.82 56.95 213.03 56.61C210.76 56.61 209.12 58.16 208.32 61.09C207.33 64.72 205.99 66.56 204.34 66.56C202.97 66.37 201.74 65.64 200.9 64.54C199.94 63.42 199.44 61.97 199.51 60.49C199.57 59.01 200.2 57.62 201.26 56.58C203.3 54.52 205.72 52.89 208.38 51.77C211.05 50.65 213.91 50.07 216.8 50.06H217.97C219.75 50.21 221.49 50.71 223.07 51.54C224.65 52.37 226.05 53.51 227.18 54.89C229.02 57.34 230.32 60.15 230.99 63.13C231.66 66.11 231.7 69.21 231.09 72.21C230.91 73.93 230.64 75.64 230.37 77.3C229.6 81.42 229.21 85.6 229.2 89.79C229.24 91.59 229.3 93.21 229.39 94.8C231.37 96.58 233.24 98.46 235.11 100.52C238.29 103.77 240.64 107.72 241.99 112.05C243.56 119.56 243.74 127.28 242.54 134.86C241.6 154.01 234.65 172.37 222.69 187.36C210.5 201.8 195.19 213.3 177.92 220.98C165.69 226.91 152.27 230.03 138.67 230.09C119.04 229.76 99.92 223.71 83.67 212.69L82.8 212.16C80.45 210.96 78.35 209.34 76.6 207.37C74.92 206.07 73.77 204.19 73.39 202.1C72.31 200.33 71.68 198.31 71.55 196.24C71.43 194.16 71.81 192.09 72.67 190.2C73.56 189.12 74.7 188.27 75.99 187.72L76.01 187.74Z" fill="#00FF75"/>
<path d="M14.31 250.39C14.31 278.05 36.73 300.47 64.39 300.47H103.74V314.78H64.39L61.08 314.7C27.06 312.98 0 284.85 0 250.4V221.78H14.31V250.4V250.39ZM314.78 250.39C314.78 285.95 285.95 314.78 250.39 314.78H218.2V300.47H250.39C278.05 300.47 300.47 278.05 300.47 250.39V221.77H314.78V250.39ZM103.73 14.31H64.38C36.72 14.31 14.3 36.73 14.3 64.39V107.31H0V64.39C0 29.94 27.05 1.81 61.08 0.08L64.39 0H103.74V14.31H103.73ZM250.39 0C285.95 0 314.78 28.83 314.78 64.39V107.31H300.47V64.39C300.47 36.73 278.05 14.31 250.39 14.31H218.2V0H250.39Z" fill="#00FF75"/>
</g>
<defs>
<clipPath id="clip0_597_228">
<rect width="314.78" height="314.78" fill="white"/>
</clipPath>
</defs>
</svg>
