<svg xmlns="http://www.w3.org/2000/svg"  viewBox="0 0 48 48" width="96px" height="96px"><path fill="#ff651f" d="M41,13l1,4l-4.09,16.35c-0.59,2.35-2.01,4.41-4.01,5.79l-8.19,5.68c-0.51,0.36-1.11,0.53-1.71,0.53	c-0.6,0-1.2-0.17-1.71-0.53l-8.19-5.68c-2-1.38-3.42-3.44-4.01-5.79L6,17l1-4l-1-2l3.25-3.25c1.05-1.05,2.6-1.44,4.02-0.99	c0.04,0.01,0.07,0.02,0.1,0.03L14,7l4-4h12l4,4l0.65-0.22c0.83-0.28,1.7-0.27,2.5,0c0.58,0.19,1.13,0.51,1.58,0.95	c0.01,0.01,0.01,0.01,0.02,0.02L42,11L41,13z"/><path fill="#f4592b" d="M38.73,7.73L33,11l-9,2l-9-3l-2.07-2.07c-0.56-0.56-1.41-0.74-2.15-0.44L8.67,8.33l0.58-0.58	c1.05-1.05,2.6-1.44,4.02-0.99c0.04,0.01,0.07,0.02,0.1,0.03L14,7l4-4h12l4,4l0.65-0.22c0.83-0.28,1.7-0.27,2.5,0	C37.73,6.97,38.28,7.29,38.73,7.73z"/><path fill="#fff" d="M32.51,23.49c-0.3,0.3-0.38,0.77-0.19,1.15l0.34,0.68c0.22,0.45,0.34,0.94,0.34,1.44	c0,0.8-0.29,1.57-0.83,2.16l-0.66,0.74c-0.32,0.21-0.72,0.23-1.04,0.05l-5.23-2.88c-0.59-0.4-0.6-1.27-0.01-1.66l3.91-2.66	c0.48-0.28,0.63-0.89,0.35-1.37l-1.9-3.16C27.28,17.46,27.45,17.24,28,17l6-3h-5l-3,0.75c-0.55,0.14-0.87,0.7-0.72,1.24l1.46,5.09	c0.14,0.51-0.14,1.05-0.65,1.22l-1.47,0.49c-0.21,0.07-0.41,0.11-0.62,0.11c-0.21,0-0.42-0.04-0.63-0.11l-1.46-0.49	c-0.51-0.17-0.79-0.71-0.65-1.22l1.46-5.09c0.15-0.54-0.17-1.1-0.72-1.24L19,14h-5l6,3c0.55,0.24,0.72,0.46,0.41,0.98l-1.9,3.16	c-0.28,0.48-0.13,1.09,0.35,1.37l3.91,2.66c0.59,0.39,0.58,1.26-0.01,1.66l-5.23,2.88c-0.32,0.18-0.72,0.16-1.04-0.05l-0.66-0.74	C15.29,28.33,15,27.56,15,26.76c0-0.5,0.12-0.99,0.34-1.44l0.34-0.68c0.19-0.38,0.11-0.85-0.19-1.15l-4.09-4.83	c-0.83-0.99-0.94-2.41-0.26-3.51l3.4-5.54c0.27-0.36,0.75-0.49,1.17-0.33l2.62,1.05c0.48,0.19,0.99,0.29,1.49,0.29	c0.61,0,1.23-0.14,1.79-0.42c0.75-0.38,1.57-0.57,2.39-0.57s1.64,0.19,2.39,0.57c1.03,0.51,2.22,0.56,3.28,0.13l2.62-1.05	c0.42-0.16,0.9-0.03,1.17,0.33l3.4,5.54c0.68,1.1,0.57,2.52-0.26,3.51L32.51,23.49z"/><path fill="#fff" d="M29.51,32.49l-4.8,3.8c-0.19,0.19-0.45,0.29-0.71,0.29s-0.52-0.1-0.71-0.29l-4.8-3.8	c-0.24-0.24-0.17-0.65,0.13-0.8l4.93-2.47c0.14-0.07,0.29-0.1,0.45-0.1s0.31,0.03,0.45,0.1l4.93,2.47	C29.68,31.84,29.75,32.25,29.51,32.49z"/><path fill="#ed4d01" d="M41,13l1,4l-4.09,16.35c-0.59,2.35-2.01,4.41-4.01,5.79l-8.19,5.68c-0.51,0.36-1.11,0.53-1.71,0.53	V10.36L25,12h7v-2l5.15-3.22c0.59,0.19,1.15,0.52,1.6,0.97L42,11L41,13z"/><path fill="#f5f5f5" d="M32.51,23.49c-0.3,0.3-0.38,0.77-0.19,1.15l0.34,0.68c0.22,0.45,0.34,0.94,0.34,1.44	c0,0.8-0.29,1.57-0.83,2.16l-0.66,0.74c-0.32,0.21-0.72,0.23-1.04,0.05l-5.23-2.88c-0.59-0.4-0.6-1.27-0.01-1.66l3.91-2.66	c0.48-0.28,0.63-0.89,0.35-1.37l-1.9-3.16C27.28,17.46,27.45,17.24,28,17l6-3h-5l-3,0.75c-0.55,0.14-0.87,0.7-0.72,1.24l1.46,5.09	c0.14,0.51-0.14,1.05-0.65,1.22l-1.47,0.49c-0.21,0.07-0.41,0.11-0.62,0.11V9.63c0.82,0,1.64,0.19,2.39,0.57	c1.03,0.51,2.22,0.56,3.28,0.13l2.62-1.05c0.42-0.16,0.9-0.03,1.17,0.33l3.4,5.54c0.68,1.1,0.57,2.52-0.26,3.51L32.51,23.49z"/><path fill="#f5f5f5" d="M29.51,32.49l-4.8,3.8c-0.19,0.19-0.45,0.29-0.71,0.29v-7.46c0.16,0,0.31,0.03,0.45,0.1l4.93,2.47	C29.68,31.84,29.75,32.25,29.51,32.49z"/></svg>