<svg width="32" height="32" viewBox="0 0 32 32" fill="none" xmlns="http://www.w3.org/2000/svg">
<path d="M23 7H9C7.89543 7 7 7.89543 7 9V23C7 24.1046 7.89543 25 9 25H23C24.1046 25 25 24.1046 25 23V9C25 7.89543 24.1046 7 23 7Z" stroke="black" stroke-width="2"/>
<path d="M19 12H13C12.4477 12 12 12.4477 12 13V19C12 19.5523 12.4477 20 13 20H19C19.5523 20 20 19.5523 20 19V13C20 12.4477 19.5523 12 19 12Z" stroke="black" stroke-width="2"/>
<path d="M7 11H5" stroke="black" stroke-width="2" stroke-linecap="round"/>
<path d="M7 16H5" stroke="black" stroke-width="2" stroke-linecap="round"/>
<path d="M7 21H5" stroke="black" stroke-width="2" stroke-linecap="round"/>
<path d="M21 7L21 5" stroke="black" stroke-width="2" stroke-linecap="round"/>
<path d="M16 7L16 5" stroke="black" stroke-width="2" stroke-linecap="round"/>
<path d="M11 7L11 5" stroke="black" stroke-width="2" stroke-linecap="round"/>
<path d="M25 21L27 21" stroke="black" stroke-width="2" stroke-linecap="round"/>
<path d="M25 16L27 16" stroke="black" stroke-width="2" stroke-linecap="round"/>
<path d="M25 11L27 11" stroke="black" stroke-width="2" stroke-linecap="round"/>
<path d="M11 25L11 27" stroke="black" stroke-width="2" stroke-linecap="round"/>
<path d="M16 25L16 27" stroke="black" stroke-width="2" stroke-linecap="round"/>
<path d="M21 25L21 27" stroke="black" stroke-width="2" stroke-linecap="round"/>
</svg>
