<svg width="32" height="32" fill="none" xmlns="http://www.w3.org/2000/svg"><path d="M6 21c1.67 1.77 5.491 3 9.757 3 2.788 0 5.386-.525 7.317-1.383L25 21.65" stroke="#F90" stroke-width="2" stroke-linecap="round" stroke-linejoin="round"/><path d="m23 20 3 1.074L25.4 24" stroke="#F90" stroke-width="2" stroke-linecap="round" stroke-linejoin="round"/><path d="M24.564 9.44C23.677 8.76 21 8.633 21 10.796c0 2.396 4 .77 4 3.294 0 1.898-2.67 2.501-4 1.264M14 9v7l2-4 2 4V9" stroke="#252F3E" stroke-width="2" stroke-linecap="round" stroke-linejoin="round"/><path d="M7.053 8.597H8.21a2.526 2.526 0 0 1 2.526 2.526v4.842" stroke="#252F3E" stroke-width="2" stroke-linecap="round"/><circle cx="8.632" cy="13.86" stroke="#252F3E" stroke-width="2" r="2.105"/></svg>