<svg xmlns="http://www.w3.org/2000/svg" id="a" width="100" height="100"><defs><style>.b{fill:#1cc19c}</style></defs><rect width="12.78" height="12.78" x="1" y="43.61" class="b" rx="5.18" ry="5.18"/><rect width="12.78" height="12.78" x="86.22" y="43.61" class="b" rx="5.18" ry="5.18"/><path d="M79.83 31.95v-6.51a5.27 5.27 0 0 0-5.27-5.27h-8.09c-1.4 0-2.74-.55-3.72-1.54l-4.81-4.81a5.26 5.26 0 0 1-1.54-3.72V6.27A5.27 5.27 0 0 0 51.13 1h-2.25a5.27 5.27 0 0 0-5.27 5.27v3.83c0 1.4-.55 2.74-1.54 3.72l-4.81 4.81a5.26 5.26 0 0 1-3.72 1.54h-8.09a5.27 5.27 0 0 0-5.27 5.27v6.51a5.27 5.27 0 0 0 5.27 5.27h8.45c1.16 0 2.28.46 3.1 1.29a4.4 4.4 0 0 1 1.29 3.1v14.84a5.27 5.27 0 0 0 5.27 5.27H58.4c1.16 0 2.28.46 3.1 1.29a4.4 4.4 0 0 1 1.29 3.1v10.03c0 1.4-.55 2.74-1.54 3.72l-4.81 4.81a5.26 5.26 0 0 1-3.72 1.54h-5.41c-1.4 0-2.74-.55-3.72-1.54l-4.81-4.81a5.26 5.26 0 0 1-1.54-3.72v-8.09a5.27 5.27 0 0 0-5.27-5.27h-6.51a5.27 5.27 0 0 0-5.27 5.27v6.51a5.27 5.27 0 0 0 5.27 5.27h8.09c1.4 0 2.74.55 3.72 1.54l4.81 4.81a5.26 5.26 0 0 1 1.54 3.72v3.83A5.27 5.27 0 0 0 48.89 99h2.25a5.27 5.27 0 0 0 5.27-5.27V89.9c0-1.4.55-2.74 1.54-3.72l4.81-4.81a5.26 5.26 0 0 1 3.72-1.54h8.09a5.27 5.27 0 0 0 5.27-5.27v-6.51a5.27 5.27 0 0 0-5.27-5.27h-8.45c-1.16 0-2.28-.46-3.1-1.29a4.4 4.4 0 0 1-1.29-3.1V43.55a5.27 5.27 0 0 0-5.27-5.27H41.62c-1.16 0-2.28-.46-3.1-1.29a4.4 4.4 0 0 1-1.29-3.1V23.86c0-1.4.55-2.74 1.54-3.72l4.81-4.81a5.26 5.26 0 0 1 3.72-1.54h5.41c1.4 0 2.74.55 3.72 1.54l4.81 4.81a5.26 5.26 0 0 1 1.54 3.72v8.09a5.27 5.27 0 0 0 5.27 5.27h6.51a5.27 5.27 0 0 0 5.27-5.27Z" class="b"/></svg>
