<svg width="64" height="31" viewBox="0 0 64 31" fill="none" xmlns="http://www.w3.org/2000/svg"><path d="M30.824 24.312C26.912 24.312 24.968 21.408 24.968 17.592C24.968 13.44 27.416 10.848 30.824 10.848C34.592 10.848 36.752 13.608 36.584 18.216H27.296C27.296 20.808 28.736 22.512 30.776 22.512C32.696 22.512 33.656 21.6 34.112 20.136H36.392C35.864 22.584 33.848 24.312 30.824 24.312ZM30.824 12.672C28.736 12.672 27.416 13.896 27.32 16.392H34.232C34.256 14.28 33.08 12.672 30.824 12.672ZM48.8596 11.088L44.6116 17.352L49.1236 24H46.6276L43.3876 19.2L40.1476 24H37.6516L42.1396 17.376L37.9156 11.088H40.3876L43.3876 15.528L46.4116 11.088H48.8596ZM54.7273 24.312C52.3992 24.312 50.5272 22.968 50.5272 20.64C50.5272 17.568 53.7912 16.632 59.0713 16.056V15.504C59.0713 13.272 57.8473 12.6 56.1673 12.6C54.1752 12.6 53.2393 13.584 53.0952 15.168H50.8392C51.0552 12.384 53.5033 10.824 56.1913 10.824C59.7673 10.824 61.3033 12.408 61.2552 15.984L61.2313 19.128C61.2073 21.288 61.3273 23.136 61.3993 24H59.2873L59.2633 22.104C58.4713 23.448 57.1273 24.312 54.7273 24.312ZM59.2393 18.168V17.808C55.3033 18.192 52.9032 18.744 52.9032 20.592C52.9032 21.816 53.7912 22.536 55.3513 22.536C57.3192 22.536 59.2393 21.6 59.2393 18.168Z" fill="black"></path><path fill-rule="evenodd" clip-rule="evenodd" d="M0 4H22V6.01493L12.6111 17.5L22 28.9851V31H0V4ZM11.1383 15.6416L18.7678 6.01493H3.50885L11.1383 15.6416ZM2.47519 8.42738V16.4925H8.86709L2.47519 8.42738ZM8.86709 18.5075H2.47519V26.5726L8.86709 18.5075ZM3.50885 28.9851L11.1383 19.3584L18.7678 28.9851H3.50885Z" fill="#1F40ED"></path></svg>