<svg width="32" height="32" viewBox="0 0 32 32" fill="none" xmlns="http://www.w3.org/2000/svg">
<path d="M6.51543 9.51483C6.02712 9.02652 5.2046 9.17616 5.06233 9.85191C4.65752 11.7746 5.20384 13.8601 6.70007 15.3563C8.51185 17.1681 11.1877 17.587 13.3922 16.611L20.9571 25.1216C22.0384 26.338 23.9207 26.3934 25.0715 25.2425C26.2224 24.0916 26.1671 22.2094 24.9506 21.1281L16.44 13.5631C17.4161 11.3586 16.9971 8.68282 15.1854 6.87104C13.6891 5.37481 11.6036 4.82849 9.68094 5.2333C9.00519 5.37557 8.85555 6.19809 9.34386 6.6864L11.6365 8.97902C12.4175 9.76007 12.4175 11.0264 11.6365 11.8074C10.8554 12.5885 9.5891 12.5885 8.80805 11.8074L6.51543 9.51483Z" stroke="black" stroke-width="2" stroke-linejoin="round"/>
</svg>
