<svg width="32" height="32" fill="none" xmlns="http://www.w3.org/2000/svg"><path d="M11.946 5H19l-7.322 22.216a1.15 1.15 0 0 1-.41.568c-.19.14-.42.216-.656.216H5.123a1.11 1.11 0 0 1-.513-.127 1.132 1.132 0 0 1-.4-.352 1.165 1.165 0 0 1-.151-1.038l6.822-20.7a1.15 1.15 0 0 1 .41-.567c.19-.14.42-.216.655-.216Z" fill="#0A5FAB"/><path d="M22.334 20H11.502c-.1 0-.2.031-.282.09a.52.52 0 0 0-.185.241.545.545 0 0 0 .125.576l6.96 6.786c.203.197.47.307.747.307H25l-2.666-8Z" fill="#0078D4"/><path d="M21.035 5.782a1.149 1.149 0 0 0-.415-.566A1.128 1.128 0 0 0 19.957 5H12c.238 0 .47.076.663.216.193.14.338.338.414.566l6.906 20.7a1.16 1.16 0 0 1-.558 1.391 1.12 1.12 0 0 1-.52.127h7.959a1.127 1.127 0 0 0 .923-.48 1.159 1.159 0 0 0 .153-1.038l-6.905-20.7Z" fill="#2C9DE3"/></svg>