<?xml version="1.0" encoding="utf-8"?><!-- Uploaded to: SVG Repo, www.svgrepo.com, Generator: SVG Repo Mixer Tools -->
<svg width="800px" height="800px" viewBox="0 0 1024 1024" xmlns="http://www.w3.org/2000/svg">
   <circle cx="512.25" cy="512.25" r="512" style="fill:#76b900"/>
   <path d="M430.58 436.9v-33.66c3.26-.23 6.56-.41 9.92-.51 92-2.89 152.41 79.09 152.41 79.09S527.7 572.4 457.78 572.4a84.86 84.86 0 0 1-27.2-4.35V466c35.83 4.33 43 20.15 64.57 56.06l47.91-40.4s-35-45.87-93.91-45.87a170.07 170.07 0 0 0-18.56 1.1m0-111.17V376c3.3-.27 6.61-.47 9.92-.59 128-4.31 211.37 105 211.37 105s-95.79 116.42-195.57 116.42a146.92 146.92 0 0 1-25.74-2.27v31.08A169.64 169.64 0 0 0 452 627c92.85 0 160-47.42 225-103.54 10.77 8.64 54.9 29.63 64 38.83-61.83 51.76-205.91 93.48-287.59 93.48-7.87 0-15.44-.47-22.86-1.19v43.67h352.93V325.73zm0 242.31v26.52C344.69 579.26 320.85 490 320.85 490s41.24-45.69 109.73-53.08V466h-.14c-35.93-4.31-64 29.25-64 29.25s15.74 56.53 64.16 72.8M278 486.11s50.9-75.11 152.54-82.87V376C318 385 220.52 480.36 220.52 480.36S275.73 640 430.58 654.6v-29C316.95 611.34 278 486.11 278 486.11" style="fill:#fff"/>
</svg>