<svg width="32" height="32" viewBox="0 0 32 32" fill="none" xmlns="http://www.w3.org/2000/svg">
<path d="M21 20L23.5 27L26 20" stroke="black" stroke-width="2" stroke-linecap="round" stroke-linejoin="round"/>
<path d="M11 21C10.609 20.3986 10 20 9 20C7.067 20 6 21.567 6 23.5C6 25.433 7.067 27 9 27C10 27 10.7037 26.4812 11 26" stroke="black" stroke-width="2" stroke-linecap="round"/>
<path d="M18.01 20.45C17.0115 19.7553 14 19.6248 14 21.8374C14 24.288 18.5 22.6248 18.5 25.2074C18.5 27.1484 15.4962 27.766 14 26.5" stroke="black" stroke-width="2" stroke-linecap="round" stroke-linejoin="round"/>
<path d="M18 5H9C7.89543 5 7 5.89543 7 7V15M18 5L25 12M18 5V12H25M25 12V15" stroke="black" stroke-width="2" stroke-linecap="round" stroke-linejoin="round"/>
</svg>
