<svg xmlns="http://www.w3.org/2000/svg" xmlns:xlink="http://www.w3.org/1999/xlink" viewBox="0 0 85 85" fill="#fff" fill-rule="evenodd" stroke="#000" stroke-linecap="round" stroke-linejoin="round"><use xlink:href="#A" x="2.5" y="2.5"/><symbol id="A" overflow="visible"><g stroke="none"><path d="M30.904 72.366l-8.268-2.304-7.813-8.891 8.711.722 7.37 10.474z" fill="#b8852e"/><path d="M30.904 72.365l5.913-12.36-5.528-.78-7.755 2.665 7.37 10.474z" fill="#d9a741"/><path d="M11.79 66.511l-4.641-1.303-5.119-5.831 5.434.85 4.326 6.284z" fill="#b8852e"/><path d="M11.791 66.512l3.335-6.959-3.114-.442-4.548 1.117 4.327 6.284z" fill="#d9a741"/><path d="M0 59.576l4.746.966L28 40.361 4.746 17.76 0 20.146v39.43z" fill="#876929"/><path d="M23.102 21.74v37.102L4.746 60.542V17.76l18.356 3.98z" fill="#d9a741"/><path d="M10.612 61.798l8.14 1.641 22.484-25.988-22.484-26.756-8.14 4.108v46.995z" fill="#876929"/><path d="M65.236 25.429v32.04l-46.484 5.97V10.695l46.484 14.734z" fill="#d9a741"/><path d="M56.828 80l-11.743-3.282-11.102-12.639 12.385 1.036L56.828 80z" fill="#b8852e"/><path d="M56.828 80l8.408-17.562-7.86-1.117-11.009 3.794L56.828 80z" fill="#d9a741"/><path d="M28 65.173l11.977 2.304 16.245-33.739L39.977 0 28 6.04v59.133z" fill="#876929"/><path d="M39.977 67.478L80 59.482V19.971L39.977 0v67.478z" fill="#d9a741"/></g></symbol></svg>