<svg height="1em" style="flex:none;line-height:1" viewBox="0 0 24 24" width="1em" xmlns="http://www.w3.org/2000/svg"><title>Volcengine</title><path d="M19.44 10.153l-2.936 11.586a.215.215 0 00.214.261h5.87a.215.215 0 00.214-.261l-2.95-11.586a.214.214 0 00-.412 0zM3.28 12.778l-2.275 8.96A.214.214 0 001.22 22h4.532a.212.212 0 00.214-.165.214.214 0 000-.097l-2.276-8.96a.214.214 0 00-.41 0z" fill="#00E5E5"></path><path d="M7.29 5.359L3.148 21.738a.215.215 0 00.203.261h8.29a.214.214 0 00.215-.261L7.7 5.358a.214.214 0 00-.41 0z" fill="#006EFF"></path><path d="M14.44.15a.214.214 0 00-.41 0L8.366 21.739a.214.214 0 00.214.261H19.9a.216.216 0 00.171-.078.214.214 0 00.044-.183L14.439.15z" fill="#006EFF"></path><path d="M10.278 7.741L6.685 21.736a.214.214 0 00.214.264h7.17a.215.215 0 00.214-.264L10.688 7.741a.214.214 0 00-.41 0z" fill="#00E5E5"></path></svg>