<svg width="32" height="32" viewBox="0 0 32 32" fill="none" xmlns="http://www.w3.org/2000/svg">
<ellipse cx="15.9562" cy="16.0002" rx="4.3478" ry="4.34782" stroke="black" stroke-width="2"/>
<path d="M23.5651 23.6086C21.603 25.621 18.8688 26.8695 15.8445 26.8695C10.2386 26.8695 5.62933 22.5797 5.08691 17.0869" stroke="black" stroke-width="2" stroke-linecap="round"/>
<path d="M8.34766 8.23751C10.314 6.3155 13.0074 5.13037 15.9785 5.13037C21.6311 5.13037 26.2789 9.42024 26.8258 14.913" stroke="black" stroke-width="2" stroke-linecap="round"/>
<path d="M9.5217 9.47815C9.5217 10.7268 8.50948 11.739 7.26085 11.739C6.01222 11.739 5 10.7268 5 9.47815C5 8.22951 6.01222 7.21729 7.26085 7.21729C8.50948 7.21729 9.5217 8.22951 9.5217 9.47815Z" fill="black" stroke="black" stroke-width="2"/>
<path d="M28.0002 21.4347C28.0002 22.6833 26.988 23.6956 25.7394 23.6956C24.4907 23.6956 23.4785 22.6833 23.4785 21.4347C23.4785 20.186 24.4907 19.1738 25.7394 19.1738C26.988 19.1738 28.0002 20.186 28.0002 21.4347Z" fill="black" stroke="black" stroke-width="2"/>
</svg>
