<?xml version="1.0" encoding="UTF-8"?><!DOCTYPE svg PUBLIC "-//W3C//DTD SVG 1.1//EN" "http://www.w3.org/Graphics/SVG/1.1/DTD/svg11.dtd"><svg xmlns="http://www.w3.org/2000/svg" xmlns:xlink="http://www.w3.org/1999/xlink" version="1.1" id="mdi-text-to-speech" width="24" height="24" viewBox="0 0 24 24"><path d="M8,7A2,2 0 0,1 10,9V14A2,2 0 0,1 8,16A2,2 0 0,1 6,14V9A2,2 0 0,1 8,7M14,14C14,16.97 11.84,19.44 9,19.92V22H7V19.92C4.16,19.44 2,16.97 2,14H4A4,4 0 0,0 8,18A4,4 0 0,0 12,14H14M21.41,9.41L17.17,13.66L18.18,10H14A2,2 0 0,1 12,8V4A2,2 0 0,1 14,2H20A2,2 0 0,1 22,4V8C22,8.55 21.78,9.05 21.41,9.41Z" /></svg>