<svg width="32" height="32" fill="none" xmlns="http://www.w3.org/2000/svg"><path d="M7 27.5c0-1.273.388-2.388.97-3-.582-.612-.97-1.727-.97-3 0-1.293.4-2.422.996-3.028A4.818 4.818 0 0 1 7 15.5c0-2.485 1.79-4.5 4-4.5l.1.001a5.002 5.002 0 0 1 9.8 0L21 11c2.21 0 4 2.015 4 4.5 0 1.139-.376 2.18-.996 2.972.595.606.996 1.735.996 3.028 0 1.273-.389 2.388-.97 3 .581.612.97 1.727.97 3" stroke="#000" stroke-width="2" stroke-linecap="round" stroke-linejoin="round"/><path d="M9.5 11C9.167 8.5 9 4 11 4c1.5 0 1.667 2.667 2 4m9.5 3c.333-2.5.5-7-1.5-7-1.5 0-1.667 2.667-2 4" stroke="#000" stroke-width="2" stroke-linecap="round"/><circle cx="11" cy="15" r="1" fill="#000"/><circle cx="21" cy="15" r="1" fill="#000"/><path d="M13 17c0-2 2-2.5 3-2.5s3 .5 3 2.5-2 2.5-3 2.5-3-.5-3-2.5Z" stroke="#000" stroke-width="2" stroke-linecap="round"/></svg>