<svg width="32" height="32" viewBox="0 0 32 32" fill="none" xmlns="http://www.w3.org/2000/svg">
<path d="M8 24C8 21.7909 9.79086 20 12 20H16V24C16 26.2091 14.2091 28 12 28C9.79086 28 8 26.2091 8 24Z" fill="#66BB6A"/>
<path d="M8 16C8 13.7909 9.79086 12 12 12H16V20H12C9.79086 20 8 18.2091 8 16Z" fill="#7C4DFF"/>
<path d="M8 8C8 5.79086 9.79086 4 12 4H16V12H12C9.79086 12 8 10.2091 8 8Z" fill="#E64A19"/>
<path d="M16 4H20C22.2091 4 24 5.79086 24 8C24 10.2091 22.2091 12 20 12H16V4Z" fill="#FF7043"/>
<rect x="16" y="12" width="8" height="8" rx="4" fill="#2BB6F6"/>
</svg>
