<svg width="209" height="104" viewBox="0 0 209 104" fill="none" xmlns="http://www.w3.org/2000/svg">
<path fill-rule="evenodd" clip-rule="evenodd" d="M10.3657 1.829C9.45566 2.835 8.71066 4.629 8.71066 5.816C8.71066 8.357 9.87366 8.974 49.6137 27.513C78.4757 40.977 79.8437 41.342 80.5167 35.757C80.7987 33.416 79.6227 32.589 65.5167 25.225C27.9357 5.603 16.5747 0 14.3757 0C13.0807 0 11.2757 0.823 10.3657 1.829ZM167.211 12.95C130.325 31.998 128.26 33.196 127.893 35.758C127.668 37.329 128.3 38.311 130.047 39.107C132.103 40.044 133.422 39.812 137.866 37.733C149.153 32.451 187.423 14.731 191.711 12.801C197.551 10.173 199.711 8.202 199.711 5.5C199.711 2.865 196.786 -0.00799954 194.132 0.0200005C193.076 0.0310005 180.961 5.849 167.211 12.95ZM100.211 38.718C96.7557 39.557 91.5557 44.128 90.1047 47.6C85.7277 58.074 92.7307 67.988 104.511 67.996C112.992 68.002 118.47 64.064 120.754 56.317C121.875 52.517 121.769 51.692 119.599 47.317C116.058 40.174 108.328 36.746 100.211 38.718ZM2.99066 46.966C-0.157341 48.31 -1.00634 52.541 1.34166 55.18C3.19366 57.261 3.51766 57.274 37.4407 56.616C56.2667 56.251 72.3367 55.697 73.1517 55.384C75.6317 54.433 76.1267 50.963 74.0657 48.982C72.3877 47.37 69.0067 47.143 38.7107 46.609C18.4177 46.251 4.33566 46.392 2.99066 46.966ZM156.211 46.959C145.211 47.257 135.649 47.864 134.961 48.309C133.323 49.369 133.356 53.461 135.015 54.837C135.856 55.535 148.543 56.165 170.789 56.614C202.652 57.256 205.39 57.178 206.985 55.583C209.38 53.188 209.146 49.418 206.488 47.557C204.099 45.883 198.486 45.816 156.211 46.959ZM43.8687 78.493C27.1807 86.393 12.6687 93.633 11.6187 94.583C7.82366 98.017 10.4867 104.019 15.7897 103.984C17.1207 103.975 25.4107 100.119 34.2107 95.415C43.0107 90.711 56.7357 83.453 64.7107 79.286C78.0457 72.318 81.7107 69.859 81.7107 67.88C81.7107 66.325 78.4717 64.003 76.3897 64.065C75.1907 64.101 60.5567 70.593 43.8687 78.493ZM128.751 65.452C126.041 68.717 128.167 70.467 146.72 80.248C172.061 93.608 189.791 102.603 192.363 103.403C195.667 104.431 200.214 100.139 199.372 96.786C198.852 94.713 196.509 93.15 186.971 88.512C165.418 78.032 133.901 64 131.916 64C130.838 64 129.414 64.653 128.751 65.452Z" fill="black"/>
</svg>
