<svg width="32px" height="32px" viewBox="0 0 32 32" id="icon" xmlns="http://www.w3.org/2000/svg">
    <defs>
      <style>
        .cls-1 {
          fill: none;
        }
      </style>
    </defs>
    <path d="M28.5039,8.1362l-12-7a1,1,0,0,0-1.0078,0l-12,7A1,1,0,0,0,3,9V23a1,1,0,0,0,.4961.8638l12,7a1,1,0,0,0,1.0078,0l12-7A1,1,0,0,0,29,23V9A1,1,0,0,0,28.5039,8.1362ZM16,3.1577,26.0156,9,16,14.8423,5.9844,9ZM5,10.7412l10,5.833V28.2588L5,22.4258ZM17,28.2588V16.5742l10-5.833V22.4258Z"/>
    <rect id="_Transparent_Rectangle_" data-name="&lt;Transparent Rectangle&gt;" class="cls-1" width="32" height="32"/>
  </svg>