<svg width="32" height="32" viewBox="0 0 32 32" fill="none" xmlns="http://www.w3.org/2000/svg">
<rect width="32" height="32" fill="white"/>
<path d="M29.1162 14.1797C28.628 14.1797 28.2323 14.5754 28.2323 15.0635C28.2323 22.3365 22.3365 28.2323 15.0635 28.2323C14.5754 28.2323 14.1797 28.628 14.1797 29.1162C14.1797 29.6043 14.5754 30 15.0635 30C23.3127 30 30 23.3127 30 15.0635C30 14.5754 29.6043 14.1797 29.1162 14.1797Z" fill="#005EB8"/>
<path d="M23.7818 19.8438C24.6317 18.4572 25.4537 16.6085 25.292 14.0204C24.957 8.6591 20.1011 4.59194 15.5159 5.03271C13.7208 5.20526 11.8777 6.66844 12.0414 9.28926C12.1126 10.4282 12.67 11.1004 13.5759 11.6171C14.4382 12.1091 15.546 12.4207 16.8019 12.7739C18.3188 13.2005 20.0785 13.6798 21.4309 14.6764C23.0518 15.8709 24.1598 17.2556 23.7818 19.8438Z" fill="#003B5C"/>
<path d="M6.53071 10.4688C5.68077 11.8553 4.85879 13.704 5.02051 16.2921C5.3555 21.6534 10.2114 25.7205 14.7966 25.2798C16.5917 25.1072 18.4348 23.6441 18.2711 21.0232C18.1999 19.8843 17.6425 19.2121 16.7366 18.6954C15.8743 18.2034 14.7665 17.8918 13.5106 17.5386C11.9937 17.112 10.234 16.6327 8.88162 15.6361C7.26073 14.4416 6.1527 13.0569 6.53071 10.4688Z" fill="#005EB8"/>
</svg>
