<svg xmlns="http://www.w3.org/2000/svg" version="1.1" width="32" height="32" viewBox="0 0 767 344">
<path d="M0 0 C57.41749404 12.86837849 57.41749404 12.86837849 116.03834534 13.89251709 C116.73089417 13.83724854 117.42344299 13.78197998 118.13697815 13.72503662 C134.72479665 12.29756224 150.35505607 7.51102595 166.10084534 2.33001709 C203.23092174 -9.82137319 241.0322289 -11.99052287 278.03834534 1.89251709 C278.67208069 2.12809326 279.30581604 2.36366943 279.95875549 2.60638428 C290.71008241 6.65304664 300.39663563 11.66053985 310.03834534 17.89251709 C310.61794006 18.25168213 311.19753479 18.61084717 311.79469299 18.980896 C313.24442426 19.89805561 314.646688 20.88942569 316.03834534 21.89251709 C316.03834534 22.55251709 316.03834534 23.21251709 316.03834534 23.89251709 C316.62100159 24.15548584 317.20365784 24.41845459 317.80397034 24.68939209 C325.76816584 28.97780505 329.91511655 36.77883164 334.10865784 44.42376709 C346.46749776 66.63965748 367.22023056 75.3848452 390.56568909 82.68255615 C391.38166565 82.94004639 392.19764221 83.19753662 393.03834534 83.46282959 C393.78084534 83.68986572 394.52334534 83.91690186 395.28834534 84.15081787 C397.03834534 84.89251709 397.03834534 84.89251709 398.03834534 86.89251709 C393.6256361 103.26535629 382.5105066 115.99367143 368.44459534 124.99798584 C359.25245632 130.1105861 349.88497823 133.48409844 339.29615784 133.78704834 C337.00301512 133.74143604 337.00301512 133.74143604 335.03834534 134.89251709 C333.03707851 134.56687589 331.03743405 134.23127277 329.03834534 133.89251709 C325.61891498 133.63114955 322.19510958 133.49744579 318.76881409 133.35736084 C317.77440811 133.3143837 316.78000214 133.27140656 315.75546265 133.22712708 C313.65004567 133.13712208 311.54454818 133.04898341 309.4389801 132.96258545 C306.27457848 132.83202773 303.11058215 132.69378364 299.94654846 132.55462646 C240.66710777 130.01641555 192.82620968 143.53432819 148.16334534 184.14251709 C147.36154846 184.89017334 146.55975159 185.63782959 145.73365784 186.40814209 C143.65609649 188.32311168 141.55383249 190.16856522 139.40943909 192.00579834 C134.53882789 196.2527058 129.97701582 200.80334229 125.41993713 205.3805542 C123.97809312 206.82776094 122.53097418 208.26953735 121.08326721 209.71087646 C93.13743841 236.99998804 93.13743841 236.99998804 78.35084534 270.95501709 C79.11776483 275.34737417 79.68867856 276.16294983 83.03834534 278.89251709 C85.75790699 280.14551261 85.75790699 280.14551261 88.80006409 281.04095459 C89.91961487 281.40704834 91.03916565 281.77314209 92.19264221 282.15032959 C94.52810968 282.88879692 96.86404003 283.6258021 99.20045471 284.36126709 C111.76903629 288.47645236 120.62066084 294.11589157 126.85084534 305.95501709 C128.67807866 309.60357036 129.41744239 312.87029608 130.03834534 316.89251709 C119.61546587 316.96216088 109.19264217 317.01540129 98.76957703 317.04795361 C93.92923233 317.06358051 89.08904735 317.08476429 84.24879456 317.11883545 C79.57388244 317.15153519 74.89912353 317.16939247 70.22410583 317.17714882 C68.44439789 317.18267331 66.66469791 317.19346121 64.88505554 317.20970726 C62.38388735 317.23162294 59.88334476 317.23447817 57.38209534 317.23309326 C56.28912392 317.249272 56.28912392 317.249272 55.17407227 317.26577759 C46.78584399 317.21582696 40.41808613 314.18007005 34.33522034 308.44329834 C13.36347146 285.15324389 7.73020649 250.24740658 9.1787262 219.95697021 C9.37492213 216.91180933 9.60356656 213.87145082 9.85084534 210.83001709 C9.93705139 209.75179687 10.02325745 208.67357666 10.11207581 207.56268311 C10.90940943 198.23719622 12.27817226 189.08062053 14.03834534 179.89251709 C8.6461462 188.28985487 3.43540718 196.5859956 -0.80540466 205.63470459 C-1.96165466 207.89251709 -1.96165466 207.89251709 -3.96165466 209.89251709 C-5.94127846 210.13861275 -5.94127846 210.13861275 -8.41615295 210.13302612 C-9.8212336 210.13715012 -9.8212336 210.13715012 -11.25469971 210.14135742 C-12.80081184 210.13057159 -12.80081184 210.13057159 -14.37815857 210.11956787 C-15.46109695 210.11985992 -16.54403534 210.12015198 -17.65979004 210.12045288 C-21.25267954 210.11905537 -24.84536372 210.10347427 -28.43821716 210.08782959 C-30.92400499 210.08410096 -33.40979429 210.08125328 -35.89558411 210.07925415 C-41.77814552 210.07238835 -47.66063068 210.05661256 -53.5431608 210.03655517 C-60.89618725 210.01202695 -68.24922279 210.00126964 -75.60227966 209.99017334 C-88.72210903 209.9687024 -101.84187716 209.93493477 -114.96165466 209.89251709 C-114.65046525 208.46571694 -114.33764711 207.03927197 -114.02415466 205.61297607 C-113.85013123 204.81858627 -113.67610779 204.02419647 -113.49681091 203.20573425 C-112.77481288 200.08489201 -111.86288806 197.02836378 -110.96165466 193.95501709 C-109.35565068 188.18502319 -108.36694686 182.46913398 -107.71165466 176.51751709 C-107.63173279 175.79314453 -107.55181091 175.06877197 -107.46946716 174.32244873 C-106.4391406 164.99611375 -106.4391406 164.99611375 -107.96165466 155.89251709 C-108.30196716 156.94568115 -108.64227966 157.99884521 -108.99290466 159.08392334 C-114.08029721 174.3997466 -120.78576721 187.32006549 -130.96165466 199.89251709 C-131.4966156 200.5692749 -132.03157654 201.24603271 -132.58274841 201.94329834 C-136.27303401 206.4536474 -140.4668661 210.19856566 -144.96165466 213.89251709 C-145.9606781 214.71751709 -146.95970154 215.54251709 -147.98899841 216.39251709 C-167.85573673 232.53897978 -190.37384924 244.22768112 -213.25950623 255.49066162 C-224.64953602 260.80352148 -224.64953602 260.80352148 -233.96165466 268.89251709 C-234.32231776 270.94615315 -234.32231776 270.94615315 -234.14915466 273.08001709 C-234.08727966 274.33814209 -234.02540466 275.59626709 -233.96165466 276.89251709 C-229.45365927 279.33434793 -224.95223382 281.29709012 -220.13108826 283.0145874 C-206.56183572 287.86366907 -198.54449993 293.7485733 -191.72337341 306.64251709 C-190.58795813 309.99635914 -190.37369456 313.37739208 -189.96165466 316.89251709 C-199.34143999 316.98542171 -208.72106558 317.05638539 -218.10121155 317.09976578 C-222.45736508 317.12059201 -226.81320253 317.14881808 -231.16917419 317.1942749 C-235.37726423 317.23791096 -239.5850513 317.26169149 -243.79335022 317.27202606 C-245.39445257 317.27938572 -246.99553936 317.29375729 -248.59651184 317.31543732 C-258.39240251 317.44274962 -265.69724872 317.38652216 -273.52415466 310.70501709 C-274.32852966 309.77689209 -275.13290466 308.84876709 -275.96165466 307.89251709 C-276.50563904 307.27763428 -277.04962341 306.66275146 -277.61009216 306.02923584 C-287.46744659 294.25636931 -293.51709226 278.31934845 -292.96165466 262.89251709 C-291.02553247 251.95534999 -285.51485178 243.83287087 -279.15696716 234.99017334 C-261.75810033 210.75233209 -250.46553178 185.47896191 -245.96165466 155.89251709 C-247.55672366 157.48758609 -248.71299321 159.39906867 -249.99436951 161.24676514 C-273.72036284 195.23350377 -307.49075985 219.02879482 -347.96165466 228.89251709 C-350.29277472 229.29090841 -352.61334373 229.603541 -354.96165466 229.89251709 C-354.23148684 225.81590729 -352.27716479 222.33315652 -350.40306091 218.68939209 C-349.67044399 217.24393943 -348.93886681 215.79795941 -348.20823669 214.35150146 C-347.83370361 213.61085449 -347.45917053 212.87020752 -347.07328796 212.1071167 C-343.92283221 205.83076813 -340.90916269 199.48710757 -337.89915466 193.14251709 C-337.53781433 192.38148682 -337.176474 191.62045654 -336.80418396 190.83636475 C-329.47608396 175.35437317 -322.88896987 159.60342685 -316.38777161 143.7611084 C-312.79983594 135.03646923 -309.00135839 126.41748011 -304.96165466 117.89251709 C-304.58267029 117.09072021 -304.20368591 116.28892334 -303.81321716 115.46282959 C-295.14104422 97.26827068 -285.07767909 80.01172709 -272.96165466 63.89251709 C-272.3828656 63.11263428 -271.80407654 62.33275146 -271.20774841 61.52923584 C-255.45861104 40.77073428 -237.41370169 23.23466775 -214.96165466 9.89251709 C-214.10265564 9.38059814 -214.10265564 9.38059814 -213.2263031 8.8583374 C-196.71478692 -0.81891129 -178.55289575 -6.86546705 -159.96165466 -11.10748291 C-158.06673279 -11.55220947 -158.06673279 -11.55220947 -156.13352966 -12.00592041 C-104.4374423 -22.92915226 -50.62056773 -11.2904614 0 0 Z M280.03834534 65.89251709 C280.73830627 66.59247803 281.43826721 67.29243896 282.15943909 68.01361084 C288.45240784 74.30657959 294.74537659 80.59954834 301.03834534 86.89251709 C306.64834534 84.91251709 312.25834534 82.93251709 318.03834534 80.89251709 C317.31701942 77.61527051 317.31701942 77.61527051 314.08131409 76.20892334 C312.80219138 75.61120245 311.51652422 75.02735718 310.22584534 74.45501709 C309.54949036 74.14934814 308.87313538 73.8436792 308.17628479 73.52874756 C298.96482834 69.439342 290.18223969 66.34136197 280.03834534 65.89251709 Z " fill="#006EFD" transform="translate(361.96165466308594,19.10748291015625)"/>
<path d="M0 0 C-3.47848182 1.16839206 -5.96188873 0.82631818 -9.53125 0.109375 C-10.63766846 -0.10436768 -11.74408691 -0.31811035 -12.8840332 -0.53833008 C-14.67393677 -0.89060669 -14.67393677 -0.89060669 -16.5 -1.25 C-72.1338029 -11.62876733 -111.45821252 -4.69195825 -160.64453125 22.55859375 C-177.50049679 31.8583011 -195.18057784 38.04205346 -214 42 C-214.71720215 42.16371094 -215.4344043 42.32742187 -216.17333984 42.49609375 C-260.03283821 52.27632743 -306.77609491 40.81144601 -349.79296875 32.37109375 C-377.53613524 26.93294272 -405.67283755 21.77028314 -434 21 C-434.78197754 20.97808594 -435.56395508 20.95617187 -436.36962891 20.93359375 C-473.77238177 20.05473525 -509.04160212 26.87801487 -542 45 C-542.63099609 45.34643555 -543.26199219 45.69287109 -543.91210938 46.04980469 C-558.4639348 54.15640264 -571.018945 64.48604266 -583 76 C-583.53463867 76.51272461 -584.06927734 77.02544922 -584.62011719 77.55371094 C-586.25557572 79.13120874 -587.88001527 80.71912539 -589.5 82.3125 C-589.99258301 82.79195068 -590.48516602 83.27140137 -590.99267578 83.76538086 C-594.18759739 86.95312907 -596.61905582 90.19835093 -599 94 C-599.66 93.67 -600.32 93.34 -601 93 C-595.52748636 82.25090221 -590.00166143 71.84233549 -583 62 C-582.22168722 60.87306448 -581.44438882 59.74542787 -580.66796875 58.6171875 C-574.9099538 50.32220834 -568.65493752 42.58791907 -562 35 C-560.80503906 33.61941406 -560.80503906 33.61941406 -559.5859375 32.2109375 C-555.02895793 27.02756898 -550.32934073 22.37704869 -545 18 C-543.95572073 17.10808279 -542.91145069 16.21615478 -541.8671875 15.32421875 C-516.19147402 -6.25578533 -485.88033536 -18.55785644 -453 -24 C-451.9797876 -24.176521 -450.9595752 -24.35304199 -449.90844727 -24.53491211 C-444.94937224 -25.12502004 -440.06409438 -25.18109654 -435.07421875 -25.203125 C-434.0225351 -25.21018463 -432.97085144 -25.21724426 -431.88729858 -25.22451782 C-389.76180741 -25.44286499 -389.76180741 -25.44286499 -369 -22 C-367.12553203 -21.71722141 -365.2510423 -21.4345754 -363.37609863 -21.15496826 C-341.67726688 -17.89680078 -320.20772569 -13.5069064 -298.74707031 -8.95898438 C-268.03063647 -2.50177712 -237.42284703 1.70119061 -206 1 C-205.25621094 0.99129883 -204.51242187 0.98259766 -203.74609375 0.97363281 C-176.78665222 0.60829459 -150.8782015 -8.04139352 -126.45800781 -18.83911133 C-82.42362351 -38.09255092 -36.93957846 -29.09765678 0 0 Z " fill="#FCFDFE" transform="translate(670,57)"/>
<path d="M0 0 C0.99 0.33 1.98 0.66 3 1 C3.09796875 2.07894531 3.1959375 3.15789062 3.296875 4.26953125 C6.75816159 39.96631577 17.60530857 87.08110998 46.3125 111.203125 C51.44397993 114.63405635 57.14801686 116.84516465 62.85205078 119.13671875 C77.78593332 125.13878839 90.48387494 130.8276924 98.23828125 145.71484375 C99.36182722 149.08548166 99.58625901 152.47237241 100 156 C90.52437173 156.09301515 81.0489026 156.16392386 71.57291603 156.20724869 C67.17198083 156.22805106 62.77135987 156.25623277 58.37060547 156.30175781 C54.11711957 156.34547994 49.86393436 156.36919228 45.61024094 156.37950897 C43.99404548 156.38685336 42.37786497 156.40119438 40.76179886 156.42292023 C31.80201133 156.5384928 24.10933001 156.31568526 16 152 C15.04609375 151.55398438 14.0921875 151.10796875 13.109375 150.6484375 C-0.85679852 143.11040345 -14.30926076 133.14020542 -25.296875 121.69921875 C-27.88173912 119.12028322 -30.68682198 116.80997874 -33.49609375 114.48046875 C-33.99238281 113.99191406 -34.48867188 113.50335938 -35 113 C-35 112.34 -35 111.68 -35 111 C-35.54269531 110.80277344 -36.08539062 110.60554688 -36.64453125 110.40234375 C-40.00533995 108.40146427 -42.2231194 105.53866804 -44.6875 102.5625 C-45.21786865 101.93069824 -45.7482373 101.29889648 -46.29467773 100.64794922 C-47.36911853 99.3653588 -48.44052474 98.08021979 -49.50878906 96.79248047 C-50.79318555 95.2485972 -52.09425724 93.71861407 -53.3984375 92.19140625 C-59.40454393 85.06864105 -64.73171762 77.49243619 -69.85839844 69.71972656 C-70.85627083 68.21651589 -71.89739799 66.74220121 -72.9453125 65.2734375 C-74 63 -74 63 -73.43359375 60.97265625 C-65.29118407 49.76852304 -54.60437343 39.836778 -43.80859375 31.24609375 C-40.86114223 28.88895241 -37.9964999 26.44888756 -35.125 24 C-29.01831989 18.91371631 -22.63860552 14.36068743 -16 10 C-15.31196289 9.54463867 -14.62392578 9.08927734 -13.91503906 8.62011719 C-11.74379025 7.19102661 -9.56179666 5.78016261 -7.375 4.375 C-6.68760742 3.92447266 -6.00021484 3.47394531 -5.29199219 3.00976562 C-3.57657686 1.92553407 -1.79186749 0.95258529 0 0 Z " fill="#006FFD" transform="translate(585,180)"/>
<path d="M0 0 C1.54001349 0.0424837 3.0801461 0.08083285 4.62036133 0.11523438 C7.83330396 0.19506831 11.04359632 0.30227915 14.25488281 0.43261719 C19.18721196 0.6320441 24.11985617 0.76351235 29.0546875 0.8828125 C37.10081133 1.08369972 45.14401352 1.33721325 53.1875 1.625 C51.49955726 6.09900191 49.1569035 9.78168514 46.4375 13.6875 C38.73488827 24.84807859 38.73488827 24.84807859 34.5 37.5625 C35.41571082 41.64157546 37.02792142 42.91197519 40.1875 45.625 C42.71561189 46.85721226 45.14113285 47.92694204 47.75 48.9375 C61.78561801 54.75471443 72.66935595 62.2917792 79.25390625 76.28125 C80.35337256 79.04141647 80.95364537 81.66284135 81.1875 84.625 C78.24929823 86.09410088 75.6505588 85.74681554 72.37036133 85.74194336 C71.66930267 85.74197357 70.96824402 85.74200378 70.24594116 85.74203491 C67.92039732 85.73963802 65.59503535 85.72848199 63.26953125 85.71484375 C62.07732247 85.70815265 62.07732247 85.70815265 60.86102867 85.70132637 C56.6513305 85.67563068 52.4417724 85.64175863 48.23217773 85.6027832 C44.7528666 85.57223728 41.27412024 85.55850602 37.79467773 85.55981445 C33.59032924 85.56134105 29.38711222 85.53369917 25.18305016 85.48538399 C23.58401511 85.47177541 21.98486027 85.46823352 20.38578224 85.47514153 C6.30697526 85.52206099 6.30697526 85.52206099 1.65112305 81.69750977 C-0.8125 78.625 -0.8125 78.625 -0.8125 76.625 C-1.4725 76.625 -2.1325 76.625 -2.8125 76.625 C-4.22688406 75.05213316 -5.56854401 73.41360004 -6.875 71.75 C-9.84985323 68.02195941 -12.87068545 64.42341723 -16.125 60.9375 C-21.71256963 54.80888049 -26.64933914 48.16029864 -31.49853516 41.43945312 C-32.71620438 39.75797456 -33.97184863 38.10417433 -35.23046875 36.453125 C-36.8125 33.625 -36.8125 33.625 -36.57983398 31.21875 C-35.7689645 28.47784085 -34.74337811 26.63846239 -33.1171875 24.296875 C-32.56546875 23.49636719 -32.01375 22.69585937 -31.4453125 21.87109375 C-30.57519531 20.63552734 -30.57519531 20.63552734 -29.6875 19.375 C-29.130625 18.56675781 -28.57375 17.75851562 -28 16.92578125 C-26.86478157 15.29096208 -25.70806916 13.67087173 -24.53100586 12.06591797 C-22.76904814 9.65637688 -22.76904814 9.65637688 -21.37719727 7.03173828 C-16.20307482 -1.47801149 -8.94951047 -0.4391924 0 0 Z " fill="#006EFD" transform="translate(260.8125,246.375)"/>
<path d="M0 0 C0.66 0.33 1.32 0.66 2 1 C-1.9419417 5.88049925 -6.11950075 10.0580583 -11 14 C-11.66 13.67 -12.32 13.34 -13 13 C-8.71 8.71 -4.42 4.42 0 0 Z " fill="#006CEE" transform="translate(118,50)"/>
<path d="M0 0 C2.3125 -0.1875 2.3125 -0.1875 5 0 C6.375 1.25 6.375 1.25 8 3 C10.28558849 4.43298694 12.63164878 5.70410971 15 7 C14.01 7.495 14.01 7.495 13 8 C10.56442428 7.09176973 8.23804483 6.13171929 5.875 5.0625 C5.21628906 4.77181641 4.55757812 4.48113281 3.87890625 4.18164062 C2.24950495 3.46139802 0.62433868 2.73158857 -1 2 C-0.67 1.34 -0.34 0.68 0 0 Z " fill="#0852F7" transform="translate(634,34)"/>
<path d="M0 0 C0.66 0 1.32 0 2 0 C2.33 1.98 2.66 3.96 3 6 C0.69 6 -1.62 6 -4 6 C-4 5.01 -4 4.02 -4 3 C-2.02 3.495 -2.02 3.495 0 4 C0 2.68 0 1.36 0 0 Z " fill="#0061EB" transform="translate(489,330)"/>
<path d="M0 0 C0.66 0 1.32 0 2 0 C1.44271087 3.34373475 0.64826111 6.03312999 -1 9 C-1.66 9 -2.32 9 -3 9 C-2.01 6.03 -1.02 3.06 0 0 Z " fill="#0273F0" transform="translate(22,216)"/>
<path d="M0 0 C1.98 1.32 3.96 2.64 6 4 C2.67465243 5.10844919 0.37817425 4.84454356 -3 4 C-2.01 3.67 -1.02 3.34 0 3 C0 2.01 0 1.02 0 0 Z " fill="#E2F2FD" transform="translate(664,53)"/>
<path d="M0 0 C0.66 0.33 1.32 0.66 2 1 C0.87548273 3.9719385 -0.22293791 6.33440687 -2 9 C-2.66 8.67 -3.32 8.34 -4 8 C-2.68 5.36 -1.36 2.72 0 0 Z " fill="#D6E8FD" transform="translate(73,142)"/>
<path d="M0 0 C2.31 0 4.62 0 7 0 C7 0.33 7 0.66 7 1 C4.69 1 2.38 1 0 1 C0 0.67 0 0.34 0 0 Z " fill="#003CFF" transform="translate(432,337)"/>
<path d="M0 0 C1.98 0 3.96 0 6 0 C6 0.33 6 0.66 6 1 C4.02 1 2.04 1 0 1 C0 0.67 0 0.34 0 0 Z " fill="#0040FF" transform="translate(257,2)"/>
<path d="M0 0 C1.65 0 3.3 0 5 0 C5 0.33 5 0.66 5 1 C3.35 1 1.7 1 0 1 C0 0.67 0 0.34 0 0 Z " fill="#0050F4" transform="translate(232,2)"/>
<path d="M0 0 C4 1 4 1 4 1 Z " fill="#005FFF" transform="translate(675,153)"/>
<path d="M0 0 C4 1 4 1 4 1 Z " fill="#0060FF" transform="translate(264,2)"/>
<path d="M0 0 C3 1 3 1 3 1 Z " fill="#0080E9" transform="translate(140,337)"/>
<path d="M0 0 C3 1 3 1 3 1 Z " fill="#002AFF" transform="translate(124,337)"/>
<path d="M0 0 C3 1 3 1 3 1 Z " fill="#002AFF" transform="translate(104,337)"/>
<path d="" fill="#0080FF" transform="translate(0,0)"/>
<path d="M0 0 C3 1 3 1 3 1 Z " fill="#0055FF" transform="translate(651,152)"/>
<path d="M0 0 C2 1 2 1 2 1 Z " fill="#0040FF" transform="translate(660,337)"/>
<path d="M0 0 C2 1 2 1 2 1 Z " fill="#0040FF" transform="translate(656,337)"/>
<path d="M0 0 C2 1 2 1 2 1 Z " fill="#002AFF" transform="translate(632,337)"/>
<path d="M0 0 C2 1 2 1 2 1 Z " fill="#0000FF" transform="translate(621,337)"/>
<path d="M0 0 C2 1 2 1 2 1 Z " fill="#0080DF" transform="translate(613,337)"/>
<path d="M0 0 C2 1 2 1 2 1 Z " fill="#0040FF" transform="translate(456,337)"/>
<path d="M0 0 C2 1 2 1 2 1 Z " fill="#0000FF" transform="translate(448,337)"/>
<path d="M0 0 C2 1 2 1 2 1 Z " fill="#0073E5" transform="translate(421,337)"/>
<path d="M0 0 C2 1 2 1 2 1 Z " fill="#0040FF" transform="translate(413,337)"/>
<path d="M0 0 C2 1 2 1 2 1 Z " fill="#0080FF" transform="translate(144,337)"/>
<path d="M0 0 C2 1 2 1 2 1 Z " fill="#0080DF" transform="translate(136,337)"/>
<path d="M0 0 C2 1 2 1 2 1 Z " fill="#0040FF" transform="translate(112,337)"/>
<path d="M0 0 C2 1 2 1 2 1 Z " fill="#0040FF" transform="translate(109,337)"/>
<path d="M0 0 C2 1 2 1 2 1 Z " fill="#0040FF" transform="translate(96,336)"/>
<path d="" fill="#0000FF" transform="translate(0,0)"/>
<path d="" fill="#0040FF" transform="translate(0,0)"/>
<path d="M0 0 C2 1 2 1 2 1 Z " fill="#006AFF" transform="translate(672,153)"/>
<path d="M0 0 C2 1 2 1 2 1 Z " fill="#0000FF" transform="translate(608,153)"/>
<path d="M0 0 C2 1 2 1 2 1 Z " fill="#0073FF" transform="translate(648,152)"/>
<path d="M0 0 C2 1 2 1 2 1 Z " fill="#002AFF" transform="translate(626,152)"/>
<path d="M0 0 C2 1 2 1 2 1 Z " fill="#0040FF" transform="translate(619,152)"/>
<path d="" fill="#002AD4" transform="translate(0,0)"/>
<path d="" fill="#0000FF" transform="translate(0,0)"/>
<path d="M0 0 C2 1 2 1 2 1 Z " fill="#0000FF" transform="translate(401,26)"/>
<path d="M0 0 C2 1 2 1 2 1 Z " fill="#0040FF" transform="translate(569,10)"/>
<path d="M0 0 C2 1 2 1 2 1 Z " fill="#0000FF" transform="translate(219,3)"/>
<path d="" fill="#0000FF" transform="translate(0,0)"/>
<path d="" fill="#0000FF" transform="translate(0,0)"/>
<path d="" fill="#0000FF" transform="translate(0,0)"/>
<path d="" fill="#0000FF" transform="translate(0,0)"/>
<path d="" fill="#0000FF" transform="translate(0,0)"/>
<path d="" fill="#0000FF" transform="translate(0,0)"/>
<path d="" fill="#0000FF" transform="translate(0,0)"/>
<path d="" fill="#0055FF" transform="translate(0,0)"/>
<path d="" fill="#0000FF" transform="translate(0,0)"/>
<path d="" fill="#0000FF" transform="translate(0,0)"/>
<path d="" fill="#0000FF" transform="translate(0,0)"/>
<path d="" fill="#0080FF" transform="translate(0,0)"/>
<path d="" fill="#0000FF" transform="translate(0,0)"/>
<path d="" fill="#0000FF" transform="translate(0,0)"/>
<path d="" fill="#0080FF" transform="translate(0,0)"/>
<path d="" fill="#0080FF" transform="translate(0,0)"/>
<path d="" fill="#0055FF" transform="translate(0,0)"/>
<path d="" fill="#0000FF" transform="translate(0,0)"/>
<path d="" fill="#0080FF" transform="translate(0,0)"/>
<path d="" fill="#0000FF" transform="translate(0,0)"/>
<path d="" fill="#0000FF" transform="translate(0,0)"/>
<path d="" fill="#0000FF" transform="translate(0,0)"/>
<path d="" fill="#0000FF" transform="translate(0,0)"/>
<path d="" fill="#0000FF" transform="translate(0,0)"/>
<path d="" fill="#0080FF" transform="translate(0,0)"/>
<path d="" fill="#0000FF" transform="translate(0,0)"/>
<path d="" fill="#0080FF" transform="translate(0,0)"/>
<path d="" fill="#0000FF" transform="translate(0,0)"/>
<path d="" fill="#0080FF" transform="translate(0,0)"/>
<path d="" fill="#0080FF" transform="translate(0,0)"/>
<path d="" fill="#0000FF" transform="translate(0,0)"/>
<path d="" fill="#0040BF" transform="translate(0,0)"/>
<path d="" fill="#0080FF" transform="translate(0,0)"/>
<path d="" fill="#0000FF" transform="translate(0,0)"/>
<path d="" fill="#0000FF" transform="translate(0,0)"/>
<path d="" fill="#0055AA" transform="translate(0,0)"/>
<path d="" fill="#0000FF" transform="translate(0,0)"/>
<path d="" fill="#0000FF" transform="translate(0,0)"/>
<path d="" fill="#0080FF" transform="translate(0,0)"/>
<path d="" fill="#0000FF" transform="translate(0,0)"/>
<path d="" fill="#0000FF" transform="translate(0,0)"/>
<path d="" fill="#0000FF" transform="translate(0,0)"/>
<path d="" fill="#0066CC" transform="translate(0,0)"/>
<path d="" fill="#0055AA" transform="translate(0,0)"/>
<path d="" fill="#0000FF" transform="translate(0,0)"/>
<path d="" fill="#0000FF" transform="translate(0,0)"/>
<path d="" fill="#0000FF" transform="translate(0,0)"/>
<path d="" fill="#0000FF" transform="translate(0,0)"/>
<path d="" fill="#0080FF" transform="translate(0,0)"/>
<path d="" fill="#0080FF" transform="translate(0,0)"/>
<path d="" fill="#0000FF" transform="translate(0,0)"/>
<path d="" fill="#0000FF" transform="translate(0,0)"/>
<path d="" fill="#0000FF" transform="translate(0,0)"/>
<path d="" fill="#0000FF" transform="translate(0,0)"/>
<path d="" fill="#0080FF" transform="translate(0,0)"/>
<path d="" fill="#0000FF" transform="translate(0,0)"/>
<path d="" fill="#0080FF" transform="translate(0,0)"/>
<path d="" fill="#0000FF" transform="translate(0,0)"/>
<path d="" fill="#0000FF" transform="translate(0,0)"/>
<path d="" fill="#0080FF" transform="translate(0,0)"/>
<path d="" fill="#0055AA" transform="translate(0,0)"/>
<path d="" fill="#0040BF" transform="translate(0,0)"/>
<path d="" fill="#0055AA" transform="translate(0,0)"/>
<path d="" fill="#0000FF" transform="translate(0,0)"/>
<path d="" fill="#0000FF" transform="translate(0,0)"/>
<path d="" fill="#0000FF" transform="translate(0,0)"/>
<path d="" fill="#0000FF" transform="translate(0,0)"/>
<path d="" fill="#0000FF" transform="translate(0,0)"/>
<path d="" fill="#0000FF" transform="translate(0,0)"/>
<path d="" fill="#0000FF" transform="translate(0,0)"/>
<path d="" fill="#0000FF" transform="translate(0,0)"/>
<path d="" fill="#0055FF" transform="translate(0,0)"/>
<path d="" fill="#0080FF" transform="translate(0,0)"/>
<path d="" fill="#0000FF" transform="translate(0,0)"/>
<path d="" fill="#0000FF" transform="translate(0,0)"/>
<path d="" fill="#0000FF" transform="translate(0,0)"/>
<path d="" fill="#0000FF" transform="translate(0,0)"/>
<path d="" fill="#0080FF" transform="translate(0,0)"/>
<path d="" fill="#0080FF" transform="translate(0,0)"/>
<path d="" fill="#0000FF" transform="translate(0,0)"/>
<path d="" fill="#0000FF" transform="translate(0,0)"/>
<path d="" fill="#0000FF" transform="translate(0,0)"/>
<path d="" fill="#0000FF" transform="translate(0,0)"/>
<path d="" fill="#0066FF" transform="translate(0,0)"/>
<path d="" fill="#0080FF" transform="translate(0,0)"/>
<path d="" fill="#0000FF" transform="translate(0,0)"/>
<path d="" fill="#0000FF" transform="translate(0,0)"/>
<path d="" fill="#0055FF" transform="translate(0,0)"/>
<path d="" fill="#0000FF" transform="translate(0,0)"/>
<path d="" fill="#0000FF" transform="translate(0,0)"/>
<path d="" fill="#0000FF" transform="translate(0,0)"/>
<path d="" fill="#0000FF" transform="translate(0,0)"/>
<path d="" fill="#0000FF" transform="translate(0,0)"/>
<path d="" fill="#0000FF" transform="translate(0,0)"/>
<path d="" fill="#0080FF" transform="translate(0,0)"/>
<path d="" fill="#0000FF" transform="translate(0,0)"/>
<path d="" fill="#0000FF" transform="translate(0,0)"/>
<path d="" fill="#0000FF" transform="translate(0,0)"/>
<path d="" fill="#008080" transform="translate(0,0)"/>
<path d="" fill="#0000FF" transform="translate(0,0)"/>
<path d="" fill="#008080" transform="translate(0,0)"/>
<path d="" fill="#0000FF" transform="translate(0,0)"/>
<path d="" fill="#0000FF" transform="translate(0,0)"/>
<path d="" fill="#0000FF" transform="translate(0,0)"/>
<path d="" fill="#0080FF" transform="translate(0,0)"/>
<path d="" fill="#0080FF" transform="translate(0,0)"/>
<path d="" fill="#0000FF" transform="translate(0,0)"/>
<path d="" fill="#0080FF" transform="translate(0,0)"/>
<path d="" fill="#0000FF" transform="translate(0,0)"/>
<path d="" fill="#0000FF" transform="translate(0,0)"/>
<path d="" fill="#0000FF" transform="translate(0,0)"/>
<path d="" fill="#0000FF" transform="translate(0,0)"/>
<path d="" fill="#0000FF" transform="translate(0,0)"/>
<path d="" fill="#0000FF" transform="translate(0,0)"/>
<path d="" fill="#0000FF" transform="translate(0,0)"/>
<path d="" fill="#0066CC" transform="translate(0,0)"/>
<path d="" fill="#0000FF" transform="translate(0,0)"/>
<path d="" fill="#0080FF" transform="translate(0,0)"/>
<path d="" fill="#0000FF" transform="translate(0,0)"/>
<path d="" fill="#0000FF" transform="translate(0,0)"/>
<path d="" fill="#0000FF" transform="translate(0,0)"/>
<path d="" fill="#0000FF" transform="translate(0,0)"/>
<path d="" fill="#0000FF" transform="translate(0,0)"/>
<path d="" fill="#0000FF" transform="translate(0,0)"/>
<path d="" fill="#0080FF" transform="translate(0,0)"/>
<path d="" fill="#0080BF" transform="translate(0,0)"/>
</svg>