<svg width="32" height="32" fill="none" xmlns="http://www.w3.org/2000/svg"><path d="M18.64 25.698V29H8l1.61-6.25a9.81 9.81 0 0 0-.045-4.5C9.027 15.808 8 15.394 8 10.824c.01-2.35.916-4.601 2.517-6.256C12.12 2.913 14.285 1.989 16.54 2c2.254.01 4.412.955 5.999 2.625 1.587 1.67 2.472 3.93 2.462 6.28V12l2 4h-2v4.208a3.821 3.821 0 0 1-1.08 2.373 3.531 3.531 0 0 1-2.306 1.054c-.165.01-.375.004-.606-.012-1.242-.085-2.367.83-2.367 2.075Z" fill="#000" stroke="#000" stroke-width="2" stroke-linecap="round" stroke-linejoin="round"/><path d="M21 13h-2l-1-2m3-1-1-2h-4m-3 1 2 4m-1 6 3-3h4" stroke="#fff" stroke-width="2" stroke-linecap="round" stroke-linejoin="round"/></svg>