<?xml version="1.0" encoding="UTF-8"?>
<svg version="1.1" xmlns="http://www.w3.org/2000/svg" width="500" height="500">
<path d="M0 0 C3.96 0 7.92 0 12 0 C11.67 16.17 11.34 32.34 11 49 C7.04 49 3.08 49 -1 49 C-4 43.25 -4 43.25 -4 41 C-4.66 41 -5.32 41 -6 41 C-7.44526736 39.26451831 -8.8087222 37.46024037 -10.125 35.625 C-10.84945313 34.62726563 -11.57390625 33.62953125 -12.3203125 32.6015625 C-14 30 -14 30 -14 28 C-14.66 28 -15.32 28 -16 28 C-16.99 26.35 -17.98 24.7 -19 23 C-19.33 31.58 -19.66 40.16 -20 49 C-23.96 49 -27.92 49 -32 49 C-32 33.16 -32 17.32 -32 1 C-21 1 -21 1 -18.30859375 3.16796875 C-17.69113281 4.16441406 -17.07367188 5.16085938 -16.4375 6.1875 C-15.37015625 7.80978516 -15.37015625 7.80978516 -14.28125 9.46484375 C-13.91773438 10.03960449 -13.55421875 10.61436523 -13.1796875 11.20654297 C-11.10918628 14.35428757 -8.76071529 17.28677823 -6.4375 20.25 C-5.58118994 21.35872574 -4.72564447 22.46804269 -3.87109375 23.578125 C-3.25363281 24.37734375 -2.63617188 25.1765625 -2 26 C-1.97494385 25.2479126 -1.9498877 24.4958252 -1.92407227 23.72094727 C-1.80849486 20.33460804 -1.68559655 16.94857387 -1.5625 13.5625 C-1.52318359 12.37849609 -1.48386719 11.19449219 -1.44335938 9.97460938 C-1.40146484 8.84990234 -1.35957031 7.72519531 -1.31640625 6.56640625 C-1.27974854 5.52427979 -1.24309082 4.48215332 -1.20532227 3.40844727 C-1 1 -1 1 0 0 Z " fill="#15171C" transform="translate(280,202)"/>
<path d="M0 0 C0 3.3 0 6.6 0 10 C-0.99 10.33 -1.98 10.66 -3 11 C-3.54785156 10.69835937 -4.09570312 10.39671875 -4.66015625 10.0859375 C-8.15633732 8.46333593 -11.65617253 8.63145829 -15.4375 8.625 C-16.18837891 8.60050781 -16.93925781 8.57601562 -17.71289062 8.55078125 C-21.64625503 8.53002471 -23.55244312 8.71465289 -26.953125 10.8828125 C-30.27821905 14.32212734 -31.10034384 17.31664247 -31.25 22 C-31.13164959 26.1896046 -30.29653442 29.33302717 -27.6875 32.6875 C-23.68317251 35.80197694 -19.97661658 36.31103854 -15 36 C-13.32546201 35.708776 -11.65449105 35.38929201 -10 35 C-10 32.36 -10 29.72 -10 27 C-13.63 27 -17.26 27 -21 27 C-21 24.03 -21 21.06 -21 18 C-13.74 18 -6.48 18 1 18 C1.13457737 21.93863115 1.23392846 25.87269827 1.3125 29.8125 C1.35439453 30.93205078 1.39628906 32.05160156 1.43945312 33.20507812 C1.45556641 34.27822266 1.47167969 35.35136719 1.48828125 36.45703125 C1.51446533 37.44678955 1.54064941 38.43654785 1.56762695 39.45629883 C1 42 1 42 -1.34692383 43.7722168 C-10.2994257 47.91523068 -20.62751772 48.6751186 -30.125 45.6875 C-33.09220062 44.51609119 -35.71551939 43.28448061 -38 41 C-38 40.34 -38 39.68 -38 39 C-38.66 39 -39.32 39 -40 39 C-44.7038372 32.32358591 -45.55839822 25.55820996 -44.74609375 17.47265625 C-43.18792469 9.26068417 -39.82218179 4.18116597 -33.1953125 -0.8359375 C-24.38799226 -5.50601122 -8.76254677 -4.38127338 0 0 Z " fill="#17191C" transform="translate(189,205)"/>
<path d="M0 0 C11.88 0.33 23.76 0.66 36 1 C36 4.3 36 7.6 36 11 C28.08 11 20.16 11 12 11 C12 13.97 12 16.94 12 20 C18.6 20 25.2 20 32 20 C32 23.3 32 26.6 32 30 C25.4 30 18.8 30 12 30 C12 32.97 12 35.94 12 39 C12.88300781 38.9278125 13.76601562 38.855625 14.67578125 38.78125 C22.1452645 38.20358857 29.5090079 37.89877038 37 38 C37 41.63 37 45.26 37 49 C24.46 49 11.92 49 -1 49 C-1.02303659 43.30740303 -1.04292597 37.61496983 -1.05493164 31.92236328 C-1.05994013 29.98843841 -1.06674882 28.05451729 -1.07543945 26.12060547 C-1.08765831 23.3303942 -1.09326329 20.54023328 -1.09765625 17.75 C-1.10281754 16.89446533 -1.10797882 16.03893066 -1.11329651 15.1574707 C-1.11337204 14.33722412 -1.11344757 13.51697754 -1.11352539 12.671875 C-1.115746 11.9612793 -1.11796661 11.25068359 -1.12025452 10.51855469 C-0.952088 6.99655331 -0.43734819 3.49878553 0 0 Z " fill="#0F1115" transform="translate(202,202)"/>
<path d="M0 0 C4.62 0 9.24 0 14 0 C17.22901162 5.97965115 19.48373978 12.06531949 21.7109375 18.48046875 C22.8606306 21.61947931 24.13719663 24.60388151 25.5625 27.625 C28.21394293 33.26245278 30.13154262 39.06490008 32 45 C32.33 45.99 32.66 46.98 33 48 C28.71 48 24.42 48 20 48 C16 39.25 16 39.25 16 37 C7.585 37.495 7.585 37.495 -1 38 C-2.98 42.95 -2.98 42.95 -5 48 C-9.62 48 -14.24 48 -19 48 C-18.01 47.505 -18.01 47.505 -17 47 C-16.26210241 45.0945659 -16.26210241 45.0945659 -15.6875 42.75 C-12.50562463 31.54148425 -7.76939468 20.96712967 -2.796875 10.45703125 C-2.43078125 9.66683594 -2.0646875 8.87664062 -1.6875 8.0625 C-1.36136719 7.37285156 -1.03523438 6.68320313 -0.69921875 5.97265625 C0.22272599 3.7204576 0.22272599 3.7204576 0 0 Z M7 14 C5.35 18.62 3.7 23.24 2 28 C5.63 28 9.26 28 13 28 C11.35 23.38 9.7 18.76 8 14 C7.67 14 7.34 14 7 14 Z " fill="#15171A" transform="translate(109,203)"/>
<path d="M0 0 C0 3.63 0 7.26 0 11 C-0.804375 10.690625 -1.60875 10.38125 -2.4375 10.0625 C-9.36965182 7.99501612 -15.10485192 7.29602036 -22 10 C-24.63080352 11.49315875 -25.75165312 12.56539296 -27.25 15.1875 C-28.61084405 20.2906652 -28.54979855 24.38114871 -26.875 29.3125 C-24.04072411 33.3749621 -20.8480979 34.41196885 -16.25 35.875 C-12.20166908 36.03070504 -9.07523123 34.99504849 -5.26953125 33.69140625 C-3 33 -3 33 0 33 C0 36.63 0 40.26 0 44 C-8.12910852 47.90197209 -17.76814766 48.71408615 -26.4375 45.875 C-30.47168207 44.05395453 -34.05680165 41.30190065 -37 38 C-37 37.34 -37 36.68 -37 36 C-37.66 36 -38.32 36 -39 36 C-41.30675162 31.39572376 -41.36668333 27.22324255 -41.375 22.1875 C-41.41173828 21.03411133 -41.41173828 21.03411133 -41.44921875 19.85742188 C-41.48310973 13.16395339 -39.72619932 7.91169329 -35.10546875 2.9765625 C-23.96903248 -4.8711095 -12.50563762 -4.41375445 0 0 Z " fill="#131418" transform="translate(408,205)"/>
<path d="M0 0 C0.19406478 1.64507218 0.38007935 3.29109594 0.5625 4.9375 C0.71912109 6.31228516 0.71912109 6.31228516 0.87890625 7.71484375 C0.93884766 8.84599609 0.93884766 8.84599609 1 10 C0.67 10.33 0.34 10.66 0 11 C-4.29 11 -8.58 11 -13 11 C-13 23.54 -13 36.08 -13 49 C-19.435 49.495 -19.435 49.495 -26 50 C-25.67 37.13 -25.34 24.26 -25 11 C-29.62 11 -34.24 11 -39 11 C-39 7.7 -39 4.4 -39 1 C-33.76726191 0.85724064 -28.53451442 0.71483282 -23.30175781 0.57275391 C-21.52083069 0.52434855 -19.73990619 0.47584634 -17.95898438 0.42724609 C-15.40235057 0.35749384 -12.84570758 0.28808744 -10.2890625 0.21875 C-9.49005524 0.19687622 -8.69104797 0.17500244 -7.86782837 0.15246582 C-2.22774341 0 -2.22774341 0 0 0 Z " fill="#25262A" transform="translate(338,202)"/>
<path d="M0 0 C0 16.17 0 32.34 0 49 C-4.62 49 -9.24 49 -14 49 C-13.67 33.16 -13.34 17.32 -13 1 C-1 0 -1 0 0 0 Z " fill="#1F2023" transform="translate(359,202)"/>
<path d="M0 0 C3.96 0 7.92 0 12 0 C11.67 16.17 11.34 32.34 11 49 C7.04 49 3.08 49 -1 49 C-4 43.25 -4 43.25 -4 41 C-4.66 41 -5.32 41 -6 41 C-7.125 35.375 -7.125 35.375 -6 32 C-5.34 32 -4.68 32 -4 32 C-4 30.68 -4 29.36 -4 28 C-3.01 28 -2.02 28 -1 28 C-0.67 18.76 -0.34 9.52 0 0 Z " fill="#15171B" transform="translate(280,202)"/>
<path d="M0 0 C6.0546875 -0.1953125 6.0546875 -0.1953125 8 0 C10.46333053 2.46333053 11.10930717 4.60639147 12.3125 7.875 C14.40230323 13.47890688 16.6690425 18.96949023 19.08203125 24.44140625 C20 27 20 27 20 31 C17.36 31 14.72 31 12 31 C11.71125 30.030625 11.4225 29.06125 11.125 28.0625 C9.36392516 24.81121448 9.36392516 24.81121448 6.57421875 24.37890625 C4.03985402 24.14590242 1.5445623 24.00954808 -1 24 C-1.66 26.31 -2.32 28.62 -3 31 C-5.64 31 -8.28 31 -11 31 C-11.260583 26.89767901 -10.46709915 24.17943961 -8.8125 20.4375 C-8.36003906 19.39722656 -7.90757812 18.35695313 -7.44140625 17.28515625 C-6.96574219 16.20105469 -6.49007812 15.11695313 -6 14 C-5.07910615 11.79342609 -4.1622558 9.5851591 -3.25 7.375 C-1.12307692 2.24615385 -1.12307692 2.24615385 0 0 Z M4 10 C3.34 12.31 2.68 14.62 2 17 C3.65 17 5.3 17 7 17 C6.34 14.69 5.68 12.38 5 10 C4.67 10 4.34 10 4 10 Z " fill="#1999F0" transform="translate(244,264)"/>
<path d="M0 0 C2.01822917 0.06510417 4.03645833 0.13020833 6.0546875 0.1953125 C7.49718961 3.67242561 8.9327535 7.15236411 10.3671875 10.6328125 C10.97336914 12.09364258 10.97336914 12.09364258 11.59179688 13.58398438 C13.98230651 19.39506065 16.14197287 25.20956801 18.0546875 31.1953125 C15.0846875 31.1953125 12.1146875 31.1953125 9.0546875 31.1953125 C8.3946875 29.2153125 7.7346875 27.2353125 7.0546875 25.1953125 C3.4246875 25.1953125 -0.2053125 25.1953125 -3.9453125 25.1953125 C-4.6053125 27.1753125 -5.2653125 29.1553125 -5.9453125 31.1953125 C-8.5853125 31.1953125 -11.2253125 31.1953125 -13.9453125 31.1953125 C-13.52062889 25.95754796 -11.49793772 21.89307634 -9.28125 17.22265625 C-7.47108275 13.12066907 -6.14901025 8.9129447 -4.83984375 4.62890625 C-3.808543 1.8232278 -3.12246963 0.31350097 0 0 Z M1.0546875 10.1953125 C0.3946875 12.5053125 -0.2653125 14.8153125 -0.9453125 17.1953125 C0.7046875 17.1953125 2.3546875 17.1953125 4.0546875 17.1953125 C3.48016004 13.26455606 3.48016004 13.26455606 1.0546875 10.1953125 Z " fill="#4EB0EE" transform="translate(325.9453125,263.8046875)"/>
<path d="M0 0 C3.06398451 -0.13530844 6.12197126 -0.2342407 9.1875 -0.3125 C10.05181641 -0.35439453 10.91613281 -0.39628906 11.80664062 -0.43945312 C16.43332616 -0.52808695 18.32773888 -0.54142413 22.05078125 2.45703125 C22.69402344 3.29621094 23.33726562 4.13539063 24 5 C24.33 5.33 24.66 5.66 25 6 C25.55065056 10.87461149 25.72054129 14.78253367 23.1875 19.0625 C19.82749319 22.03850603 17.12983156 22.11856924 12.8125 22.0625 C11.91144531 22.05347656 11.01039063 22.04445313 10.08203125 22.03515625 C9.39496094 22.02355469 8.70789063 22.01195312 8 22 C8 24.97 8 27.94 8 31 C5.36 31 2.72 31 0 31 C-1.44823511 28.10352978 -1.00519634 25.68835083 -0.87890625 22.4609375 C-0.83056641 21.15898437 -0.78222656 19.85703125 -0.73242188 18.515625 C-0.67589606 17.13541196 -0.61925392 15.75520368 -0.5625 14.375 C-0.50927707 12.98699781 -0.45653668 11.59897703 -0.40429688 10.2109375 C-0.27428837 6.80707859 -0.13931117 3.40348883 0 0 Z M8 7 C8 9.64 8 12.28 8 15 C11.41656024 15.16677282 11.41656024 15.16677282 15 15 C15.66 14.34 16.32 13.68 17 13 C16.67801034 9.90073181 16.67801034 9.90073181 16 7 C13.36 7 10.72 7 8 7 Z " fill="#229FEF" transform="translate(158,264)"/>
<path d="M0 0 C8.25 0 16.5 0 25 0 C25 5.23427259 24.74992762 5.95425439 21.8125 9.875 C21.17699219 10.73996094 20.54148437 11.60492188 19.88671875 12.49609375 C19.26410156 13.32238281 18.64148438 14.14867187 18 15 C14.4489899 19.69133406 14.4489899 19.69133406 12 25 C12.66 24.67 13.32 24.34 14 24 C15.87379605 23.92966231 17.75001102 23.9156978 19.625 23.9375 C21.12933594 23.95103516 21.12933594 23.95103516 22.6640625 23.96484375 C23.43492187 23.97644531 24.20578125 23.98804688 25 24 C25 26.31 25 28.62 25 31 C16.75 31 8.5 31 0 31 C0 29.02 0 27.04 0 25 C0.66 25 1.32 25 2 25 C2.24621094 24.12859375 2.49242187 23.2571875 2.74609375 22.359375 C4.08323433 18.7770046 5.75317547 16.28439376 8.0625 13.25 C10.7636604 9.76904933 10.7636604 9.76904933 13 6 C12.01 6.495 12.01 6.495 11 7 C9.50243129 7.09499503 8.00057068 7.12987198 6.5 7.125 C5.7059375 7.12757813 4.911875 7.13015625 4.09375 7.1328125 C2 7 2 7 0 6 C0 4.02 0 2.04 0 0 Z " fill="#28A6F3" transform="translate(276,264)"/>
<path d="M0 0 C1.134375 0.020625 2.26875 0.04125 3.4375 0.0625 C3.4375 1.0525 3.4375 2.0425 3.4375 3.0625 C4.0975 3.0625 4.7575 3.0625 5.4375 3.0625 C5.7675 14.6125 6.0975 26.1625 6.4375 38.0625 C2.8075 37.7325 -0.8225 37.4025 -4.5625 37.0625 C-4.5871501 31.95386104 -4.60533607 26.84525641 -4.61743164 21.73657227 C-4.62247204 19.99730832 -4.6293043 18.25804864 -4.63793945 16.51879883 C-4.65001792 14.02424063 -4.65573108 11.52973827 -4.66015625 9.03515625 C-4.66531754 8.25286148 -4.67047882 7.47056671 -4.67579651 6.66456604 C-4.67599226 4.79682886 -4.62449694 2.92920796 -4.5625 1.0625 C-3.5625 0.0625 -3.5625 0.0625 0 0 Z " fill="#06070C" transform="translate(318.5625,212.9375)"/>
<path d="M0 0 C2.64 0 5.28 0 8 0 C8 7.92 8 15.84 8 24 C12.62 24 17.24 24 22 24 C22 26.31 22 28.62 22 31 C14.74 31 7.48 31 0 31 C0 20.77 0 10.54 0 0 Z " fill="#049EFA" transform="translate(199,264)"/>
<path d="M0 0 C7.26 0 14.52 0 22 0 C21.896875 3.09375 21.79375 6.1875 21.6875 9.375 C21.65015747 10.83558838 21.65015747 10.83558838 21.61206055 12.32568359 C21.57894775 13.09219238 21.54583496 13.85870117 21.51171875 14.6484375 C21.48553467 15.43395996 21.45935059 16.21948242 21.43237305 17.02880859 C21 19 21 19 18 21 C17.34 21.99 16.68 22.98 16 24 C13.53044939 25.0701386 12.39109091 25.12291429 9.8125 24.3125 C8 23 8 23 7.25 20.875 C7.12625 19.946875 7.12625 19.946875 7 19 C8.32 18.67 9.64 18.34 11 18 C11 15.03 11 12.06 11 9 C7.37 9 3.74 9 0 9 C0 6.03 0 3.06 0 0 Z " fill="#0B0C10" transform="translate(168,223)"/>
<path d="M0 0 C0.33 0 0.66 0 1 0 C1 9.24 1 18.48 1 28 C-0.32 27.67 -1.64 27.34 -3 27 C-3.2165625 28.3303125 -3.2165625 28.3303125 -3.4375 29.6875 C-3.91019978 32.47117646 -4.43070185 35.23483757 -5 38 C-10.80205656 32.35475578 -10.80205656 32.35475578 -13 29 C-13 28.34 -13 27.68 -13 27 C-13.66 27 -14.32 27 -15 27 C-15.99 25.35 -16.98 23.7 -18 22 C-18.33 29.92 -18.66 37.84 -19 46 C-19.33 46 -19.66 46 -20 46 C-20.02465881 42.03069011 -20.04284023 38.06140966 -20.05493164 34.09204102 C-20.05997057 32.74079614 -20.06680177 31.38955674 -20.07543945 30.03833008 C-20.08752419 28.09979566 -20.09269828 26.161222 -20.09765625 24.22265625 C-20.10289307 23.05484619 -20.10812988 21.88703613 -20.11352539 20.68383789 C-20 18 -20 18 -19 17 C-19.061875 16.2575 -19.12375 15.515 -19.1875 14.75 C-18.93990754 11.11864399 -17.31706096 9.71310085 -15 7 C-14.32453125 7.88042969 -13.6490625 8.76085937 -12.953125 9.66796875 C-12.05210954 10.84116596 -11.1510664 12.01434192 -10.25 13.1875 C-9.58484375 14.0547168 -9.58484375 14.0547168 -8.90625 14.93945312 C-8.46796875 15.50986328 -8.0296875 16.08027344 -7.578125 16.66796875 C-7.18012695 17.18641357 -6.78212891 17.7048584 -6.37207031 18.23901367 C-4.60292443 20.50962742 -2.79816318 22.75229603 -1 25 C-0.67 16.75 -0.34 8.5 0 0 Z " fill="#323337" transform="translate(279,203)"/>
<path d="M0 0 C0 3.3 0 6.6 0 10 C-3 11 -3 11 -4.87597656 10.07470703 C-5.5769043 9.72005371 -6.27783203 9.36540039 -7 9 C-9.41492452 8.72692179 -9.41492452 8.72692179 -11.984375 8.8046875 C-13.38623047 8.81435547 -13.38623047 8.81435547 -14.81640625 8.82421875 C-16.26853516 8.84935547 -16.26853516 8.84935547 -17.75 8.875 C-18.73355469 8.88402344 -19.71710938 8.89304688 -20.73046875 8.90234375 C-23.15389407 8.92587215 -25.57682222 8.95874632 -28 9 C-28 6 -28 6 -26 4 C-25.71125 2.989375 -25.4225 1.97875 -25.125 0.9375 C-24.75375 -0.031875 -24.3825 -1.00125 -24 -2 C-16.72191402 -4.73125569 -6.68413467 -3.34206734 0 0 Z " fill="#090A0E" transform="translate(189,205)"/>
<path d="M0 0 C0 3.63 0 7.26 0 11 C-7.23679253 14.47366042 -14.0496402 14.54254424 -22 14 C-22.66 13.67 -23.32 13.34 -24 13 C-23.649375 12.13375 -23.29875 11.2675 -22.9375 10.375 C-21.931041 6.75174758 -22.13936481 4.6146678 -23 1 C-22.39414062 1.17917969 -21.78828125 1.35835937 -21.1640625 1.54296875 C-15.05914333 3.092679 -11.03864795 2.9083291 -5.12890625 0.7265625 C-3 0 -3 0 0 0 Z " fill="#242529" transform="translate(408,238)"/>
<path d="M0 0 C2.95839355 -0.02689449 5.91654427 -0.04678741 8.875 -0.0625 C9.71675781 -0.07087891 10.55851563 -0.07925781 11.42578125 -0.08789062 C12.23144531 -0.09111328 13.03710938 -0.09433594 13.8671875 -0.09765625 C14.98262939 -0.10551147 14.98262939 -0.10551147 16.12060547 -0.11352539 C18 0 18 0 20 1 C20 1.66 20 2.32 20 3 C20.99 3 21.98 3 23 3 C23.05416188 4.60379341 23.09286638 6.20811406 23.125 7.8125 C23.14820313 8.70582031 23.17140625 9.59914063 23.1953125 10.51953125 C23 13 23 13 21 16 C19.0546875 16.51171875 19.0546875 16.51171875 16.875 16.6875 C15.59625 16.790625 14.3175 16.89375 13 17 C13.515625 16.525625 14.03125 16.05125 14.5625 15.5625 C16.79779911 11.57783637 15.71918772 8.4458877 15 4 C11.7 4 8.4 4 5 4 C4.02779664 13.0222359 4.02779664 13.0222359 5 22 C4.67 22.66 4.34 23.32 4 24 C3.34 24 2.68 24 2 24 C0.15467286 18.52940419 -0.25309068 13.81180072 -0.125 8.0625 C-0.11597656 7.28326172 -0.10695312 6.50402344 -0.09765625 5.70117188 C-0.07433691 3.80064553 -0.03847586 1.90027992 0 0 Z " fill="#099EFB" transform="translate(159,266)"/>
<path d="M0 0 C1.24518286 2.49036572 1 4.22621061 1 7 C1.29749946 8.67343448 1.62127066 10.34305915 2 12 C2.66 11.67 3.32 11.34 4 11 C5.87379605 10.92966231 7.75001102 10.9156978 9.625 10.9375 C11.12933594 10.95103516 11.12933594 10.95103516 12.6640625 10.96484375 C13.43492187 10.97644531 14.20578125 10.98804688 15 11 C15 13.31 15 15.62 15 18 C6.75 18 -1.5 18 -10 18 C-10 16.02 -10 14.04 -10 12 C-9.34 12 -8.68 12 -8 12 C-7.7525 11.113125 -7.505 10.22625 -7.25 9.3125 C-5.74346596 5.3201848 -3.91875337 1.95937668 0 0 Z " fill="#2E98E0" transform="translate(286,277)"/>
<path d="M0 0 C0.66 0 1.32 0 2 0 C2 1.32 2 2.64 2 4 C2.66 4 3.32 4 4 4 C4 4.99 4 5.98 4 7 C4.99 7.33 5.98 7.66 7 8 C6.43370306 11.28452224 5.71347836 13.01011587 3 15 C-0.13671875 15.29296875 -0.13671875 15.29296875 -3.6875 15.1875 C-5.45673828 15.14689453 -5.45673828 15.14689453 -7.26171875 15.10546875 C-8.16535156 15.07066406 -9.06898438 15.03585937 -10 15 C-10.33 16.98 -10.66 18.96 -11 21 C-12.65 21 -14.3 21 -16 21 C-15.67 18.36 -15.34 15.72 -15 13 C-14.34 13 -13.68 13 -13 13 C-13 12.34 -13 11.68 -13 11 C-8.65164473 9.80045372 -4.49153715 10 0 10 C-0.350625 9.236875 -0.70125 8.47375 -1.0625 7.6875 C-2 5 -2 5 -1 2 C-0.67 1.34 -0.34 0.68 0 0 Z " fill="#049DFB" transform="translate(331,272)"/>
<path d="M0 0 C-0.99 0.66 -1.98 1.32 -3 2 C-4.22844823 4.4060889 -4.22844823 4.4060889 -5.1875 7.125 C-5.785625 8.73375 -6.38375 10.3425 -7 12 C-11.62 12 -16.24 12 -21 12 C-20.34 11.67 -19.68 11.34 -19 11 C-18.1625428 8.72102817 -18.1625428 8.72102817 -17.5 6.0625 C-16.21722114 1.21722114 -16.21722114 1.21722114 -14 -1 C-13.67 -1 -13.34 -1 -13 -1 C-11.948125 -1.20625 -10.89625 -1.4125 -9.8125 -1.625 C-5.84812891 -2.01493814 -3.63450543 -1.50699006 0 0 Z " fill="#181A1D" transform="translate(111,239)"/>
<path d="M0 0 C2.64 0 5.28 0 8 0 C8 7.92 8 15.84 8 24 C12.62 24 17.24 24 22 24 C22 26.31 22 28.62 22 31 C14.74 31 7.48 31 0 31 C0 20.77 0 10.54 0 0 Z M2 1 C2 10.24 2 19.48 2 29 C7.94 29 13.88 29 20 29 C20 27.68 20 26.36 20 25 C15.71 25 11.42 25 7 25 C7 17.08 7 9.16 7 1 C5.35 1 3.7 1 2 1 Z " fill="#3394D9" transform="translate(199,264)"/>
<path d="M0 0 C2.05078125 0.03255208 4.1015625 0.06510417 6.15234375 0.09765625 C7.18274542 2.38544663 8.20186393 4.67716761 9.21484375 6.97265625 C9.50939453 7.62363281 9.80394531 8.27460938 10.10742188 8.9453125 C10.84895888 10.63776166 11.50673376 12.366342 12.15234375 14.09765625 C11.82234375 14.75765625 11.49234375 15.41765625 11.15234375 16.09765625 C10.49234375 15.76765625 9.83234375 15.43765625 9.15234375 15.09765625 C9.15234375 14.10765625 9.15234375 13.11765625 9.15234375 12.09765625 C8.49234375 12.09765625 7.83234375 12.09765625 7.15234375 12.09765625 C7.15234375 10.77765625 7.15234375 9.45765625 7.15234375 8.09765625 C6.49234375 8.09765625 5.83234375 8.09765625 5.15234375 8.09765625 C5.04921875 8.73703125 4.94609375 9.37640625 4.83984375 10.03515625 C4.61296875 10.71578125 4.38609375 11.39640625 4.15234375 12.09765625 C3.16234375 12.42765625 2.17234375 12.75765625 1.15234375 13.09765625 C0.11143715 14.73908588 -0.89269951 16.4047784 -1.84765625 18.09765625 C-2.17765625 18.09765625 -2.50765625 18.09765625 -2.84765625 18.09765625 C-3.50765625 15.12765625 -4.16765625 12.15765625 -4.84765625 9.09765625 C-4.18765625 9.09765625 -3.52765625 9.09765625 -2.84765625 9.09765625 C-2.86828125 7.79828125 -2.88890625 6.49890625 -2.91015625 5.16015625 C-2.93165079 3.80599992 -2.91913824 2.45009542 -2.84765625 1.09765625 C-1.84765625 0.09765625 -1.84765625 0.09765625 0 0 Z " fill="#23A0EC" transform="translate(325.84765625,263.90234375)"/>
<path d="M0 0 C6.875 3.75 6.875 3.75 8 6 C8.22858114 8.0374763 8.41024278 10.08040303 8.5625 12.125 C8.68818359 13.76855469 8.68818359 13.76855469 8.81640625 15.4453125 C8.87699219 16.28835938 8.93757813 17.13140625 9 18 C7.68 18 6.36 18 5 18 C4.67 16.02 4.34 14.04 4 12 C2.60974609 12.01740234 2.60974609 12.01740234 1.19140625 12.03515625 C-0.00613281 12.04417969 -1.20367187 12.05320312 -2.4375 12.0625 C-3.63246094 12.07410156 -4.82742187 12.08570313 -6.05859375 12.09765625 C-9 12 -9 12 -10 11 C-10.99 11.33 -11.98 11.66 -13 12 C-13.625 10.1875 -13.625 10.1875 -14 8 C-13.34 7.01 -12.68 6.02 -12 5 C-11.01 5 -10.02 5 -9 5 C-8.67 5.66 -8.34 6.32 -8 7 C-5.36 7 -2.72 7 0 7 C0 4.69 0 2.38 0 0 Z " fill="#059EFC" transform="translate(252,275)"/>
<path d="M0 0 C1.80030122 2.70045182 2.93377066 5.06677881 4.125 8.0625 C4.47820312 8.94035156 4.83140625 9.81820312 5.1953125 10.72265625 C6 13 6 13 6 15 C1.71 15 -2.58 15 -7 15 C-10.22265625 8.1640625 -10.22265625 8.1640625 -11 6 C-10.67 5.34 -10.34 4.68 -10 4 C-8.66666667 3.66666667 -7.33333333 3.33333333 -6 3 C-5.67 2.34 -5.34 1.68 -5 1 C-4.34 1.33 -3.68 1.66 -3 2 C-3.33 2.99 -3.66 3.98 -4 5 C-3.01 5 -2.02 5 -1 5 C-0.67 3.35 -0.34 1.7 0 0 Z " fill="#252629" transform="translate(136,236)"/>
<path d="M0 0 C0.33 0.66 0.66 1.32 1 2 C3.8159849 2.46898963 3.8159849 2.46898963 7.0625 2.625 C8.71958984 2.73714844 8.71958984 2.73714844 10.41015625 2.8515625 C11.26480469 2.90054687 12.11945313 2.94953125 13 3 C13.33 4.98 13.66 6.96 14 9 C14.99 8.67 15.98 8.34 17 8 C17 5.36 17 2.72 17 0 C20.36338044 3.36338044 21 6.28835716 21 11 C18.36 11 15.72 11 13 11 C12.71125 10.030625 12.4225 9.06125 12.125 8.0625 C10.36392516 4.81121448 10.36392516 4.81121448 7.57421875 4.37890625 C5.03985402 4.14590242 2.5445623 4.00954808 0 4 C-0.66 6.31 -1.32 8.62 -2 11 C-4.64 11 -7.28 11 -10 11 C-10.4025937 7.47730515 -10.13372795 6.20059192 -8.125 3.1875 C-7.073125 2.1046875 -7.073125 2.1046875 -6 1 C-5.34 1 -4.68 1 -4 1 C-4 1.66 -4 2.32 -4 3 C-2.68 2.01 -1.36 1.02 0 0 Z " fill="#0A99F3" transform="translate(243,284)"/>
<path d="M0 0 C2.10546875 0.23046875 2.10546875 0.23046875 6.10546875 2.23046875 C6.10546875 5.53046875 6.10546875 8.83046875 6.10546875 12.23046875 C5.11546875 12.56046875 4.12546875 12.89046875 3.10546875 13.23046875 C2.27789062 12.78574219 2.27789062 12.78574219 1.43359375 12.33203125 C-1.97225666 10.72053827 -5.44089072 10.76251358 -9.14453125 10.60546875 C-9.88960937 10.56679687 -10.6346875 10.528125 -11.40234375 10.48828125 C-13.23268365 10.39441767 -15.06357268 10.31137157 -16.89453125 10.23046875 C-16.89453125 9.90046875 -16.89453125 9.57046875 -16.89453125 9.23046875 C-10.95453125 8.73546875 -10.95453125 8.73546875 -4.89453125 8.23046875 C-4.56453125 6.91046875 -4.23453125 5.59046875 -3.89453125 4.23046875 C-5.24897426 2.45855966 -5.24897426 2.45855966 -6.89453125 1.23046875 C-5.03663049 -0.62743201 -2.46980966 0.05097168 0 0 Z " fill="#2B2C2F" transform="translate(182.89453125,202.76953125)"/>
<path d="M0 0 C5.77843501 -0.09705875 11.27629051 0.16746044 17 1 C17 1.66 17 2.32 17 3 C11.555 3.495 11.555 3.495 6 4 C4.20234361 9.71020264 3.93734572 13.97395091 4.80859375 19.8984375 C5 22 5 22 4 24 C3.34 24 2.68 24 2 24 C0.15467286 18.52940419 -0.25309068 13.81180072 -0.125 8.0625 C-0.11597656 7.28326172 -0.10695312 6.50402344 -0.09765625 5.70117188 C-0.07433691 3.80064553 -0.03847586 1.90027992 0 0 Z " fill="#02A0FC" transform="translate(159,266)"/>
<path d="M0 0 C2 3 2 3 2 7 C6.8333472 7.08333357 11.23692563 6.95261487 16 6 C16 7.32 16 8.64 16 10 C8.41 10 0.82 10 -7 10 C-7 9.01 -7 8.02 -7 7 C-6.34 7 -5.68 7 -5 7 C-5 6.01 -5 5.02 -5 4 C-4.34 4 -3.68 4 -3 4 C-2.67 3.01 -2.34 2.02 -2 1 C-1.34 0.67 -0.68 0.34 0 0 Z " fill="#059DFB" transform="translate(284,283)"/>
<path d="M0 0 C2.31 0.33 4.62 0.66 7 1 C7.28875 2.134375 7.5775 3.26875 7.875 4.4375 C8.24625 5.613125 8.6175 6.78875 9 8 C9.66 8.33 10.32 8.66 11 9 C10.67 10.98 10.34 12.96 10 15 C9.01 15 8.02 15 7 15 C6.67 13.68 6.34 12.36 6 11 C5.34 12.32 4.68 13.64 4 15 C3.01 15 2.02 15 1 15 C0.7834375 13.63875 0.7834375 13.63875 0.5625 12.25 C0.13590527 9.78523044 -0.35074221 7.41152893 -1 5 C-0.01 4.67 0.98 4.34 2 4 C1.34 2.68 0.68 1.36 0 0 Z " fill="#05070B" transform="translate(125,226)"/>
<path d="M0 0 C3.0525 -0.061875 6.105 -0.12375 9.25 -0.1875 C10.68327637 -0.22846802 10.68327637 -0.22846802 12.14550781 -0.27026367 C18.37609258 -0.33156756 18.37609258 -0.33156756 21.609375 1.38671875 C23 3 23 3 23 5 C22.34 5 21.68 5 21 5 C21 4.34 21 3.68 21 3 C14.4 2.67 7.8 2.34 1 2 C1.144375 4.784375 1.28875 7.56875 1.4375 10.4375 C1.48060303 11.31591553 1.52370605 12.19433105 1.56811523 13.09936523 C1.42687477 16.85970733 1.42687477 16.85970733 3 20 C3.04080783 21.99958364 3.04254356 24.00045254 3 26 C3.66 26 4.32 26 5 26 C5.33 25.34 5.66 24.68 6 24 C6 25.65 6 27.3 6 29 C4.02 29 2.04 29 0 29 C0 19.43 0 9.86 0 0 Z " fill="#289FEA" transform="translate(158,264)"/>
<path d="M0 0 C2.25597827 2.25597827 2.96574192 4.04603867 4.125 7 C4.47820312 7.886875 4.83140625 8.77375 5.1953125 9.6875 C6 12 6 12 6 14 C3.03 14 0.06 14 -3 14 C-3.66 12.02 -4.32 10.04 -5 8 C-8.96 7.67 -12.92 7.34 -17 7 C-17 6.67 -17 6.34 -17 6 C-12.05 5.67 -7.1 5.34 -2 5 C-1.34 3.35 -0.68 1.7 0 0 Z " fill="#299FEE" transform="translate(338,281)"/>
<path d="M0 0 C0.33 0 0.66 0 1 0 C1 9.24 1 18.48 1 28 C-0.32 27.67 -1.64 27.34 -3 27 C-3.2165625 28.3303125 -3.2165625 28.3303125 -3.4375 29.6875 C-3.91019978 32.47117646 -4.43070185 35.23483757 -5 38 C-7.96404505 35.19195732 -10.44499019 32.81684226 -12 29 C-10.7934375 28.7834375 -10.7934375 28.7834375 -9.5625 28.5625 C-7.07896294 28.25864751 -7.07896294 28.25864751 -6 27 C-6.1018371 25.08575543 -6.1018371 25.08575543 -6.4375 22.9375 C-6.623125 21.638125 -6.80875 20.33875 -7 19 C-5 21 -3 23 -1 25 C-0.67 16.75 -0.34 8.5 0 0 Z " fill="#68696C" transform="translate(279,203)"/>
<path d="M0 0 C0.66 0 1.32 0 2 0 C2 10.89 2 21.78 2 33 C1.01 33.495 1.01 33.495 0 34 C-0.91945252 26.98735023 -1.15199618 20.13100009 -1.125 13.0625 C-1.12886719 12.02287109 -1.13273438 10.98324219 -1.13671875 9.91210938 C-1.13542969 8.92146484 -1.13414062 7.93082031 -1.1328125 6.91015625 C-1.13112061 5.56642944 -1.13112061 5.56642944 -1.12939453 4.19555664 C-1 2 -1 2 0 0 Z " fill="#49494B" transform="translate(202,208)"/>
<path d="M0 0 C3.63 0 7.26 0 11 0 C11 3.63 11 7.26 11 11 C-1.54 11 -14.08 11 -27 11 C-26.67 8.69 -26.34 6.38 -26 4 C-25.67 4 -25.34 4 -25 4 C-25 5.98 -25 7.96 -25 10 C-15.43 9.67 -5.86 9.34 4 9 C4.99 7.02 5.98 5.04 7 3 C7.66 3 8.32 3 9 3 C9.33 2.34 9.66 1.68 10 1 C6.7 1 3.4 1 0 1 C0 0.67 0 0.34 0 0 Z " fill="#535456" transform="translate(228,240)"/>
<path d="M0 0 C0.66 0 1.32 0 2 0 C2 0.66 2 1.32 2 2 C2.66 2.33 3.32 2.66 4 3 C3.67 3.99 3.34 4.98 3 6 C3.66 6.33 4.32 6.66 5 7 C4.34 7 3.68 7 3 7 C2.34 8.32 1.68 9.64 1 11 C-2.71599191 11.20086443 -3.77208445 11.1519437 -7 9 C-7.6875 5.375 -7.6875 5.375 -8 2 C-7.01 1.67 -6.02 1.34 -5 1 C-4.01 1.99 -3.02 2.98 -2 4 C-1.34 2.68 -0.68 1.36 0 0 Z " fill="#101216" transform="translate(383,239)"/>
<path d="M0 0 C-0.99 0.33 -1.98 0.66 -3 1 C-4.24498609 3.32269959 -4.24498609 3.32269959 -5.1875 6.0625 C-5.53167969 6.98160156 -5.87585938 7.90070313 -6.23046875 8.84765625 C-6.48441406 9.55792969 -6.73835938 10.26820313 -7 11 C-10.3 11 -13.6 11 -17 11 C-17 10.67 -17 10.34 -17 10 C-15.35 9.67 -13.7 9.34 -12 9 C-11.979375 8.278125 -11.95875 7.55625 -11.9375 6.8125 C-10.72279704 3.16839113 -8.92141492 2.01898608 -5.88671875 -0.1796875 C-3.52298592 -1.20739743 -2.38111663 -0.85152515 0 0 Z " fill="#292A2C" transform="translate(111,240)"/>
<path d="M0 0 C3.36338044 3.36338044 4 6.28835716 4 11 C1.36 11 -1.28 11 -4 11 C-5.485 8.03 -5.485 8.03 -7 5 C-8.98 5 -10.96 5 -13 5 C-13.33 4.34 -13.66 3.68 -14 3 C-10.7 3 -7.4 3 -4 3 C-3.67 4.98 -3.34 6.96 -3 9 C-2.01 8.67 -1.02 8.34 0 8 C0 5.36 0 2.72 0 0 Z " fill="#4FABE8" transform="translate(260,284)"/>
<path d="M0 0 C0.66 0 1.32 0 2 0 C2 1.32 2 2.64 2 4 C2.66 4 3.32 4 4 4 C4 4.99 4 5.98 4 7 C4.99 7.33 5.98 7.66 7 8 C6.67 8.99 6.34 9.98 6 11 C1.74433453 12.16063604 -1.6835078 11.76173392 -6 11 C-6 10.67 -6 10.34 -6 10 C-4.02 10 -2.04 10 0 10 C-0.350625 9.236875 -0.70125 8.47375 -1.0625 7.6875 C-2 5 -2 5 -1 2 C-0.67 1.34 -0.34 0.68 0 0 Z " fill="#1594EA" transform="translate(331,272)"/>
<path d="M0 0 C0.99 0.33 1.98 0.66 3 1 C2.7451971 2.96048352 2.47063056 4.91840673 2.1875 6.875 C2.03667969 7.96554687 1.88585937 9.05609375 1.73046875 10.1796875 C1 13 1 13 -2 15 C-2.66 12.03 -3.32 9.06 -4 6 C-3.34 6 -2.68 6 -2 6 C-1.855625 5.195625 -1.71125 4.39125 -1.5625 3.5625 C-1 1 -1 1 0 0 Z " fill="#199EF4" transform="translate(325,267)"/>
<path d="M0 0 C0.66 0 1.32 0 2 0 C4 3 4 3 3.875 5.4375 C2.81664802 8.53695936 1.55232776 9.97315149 -1 12 C-1.99 12 -2.98 12 -4 12 C-3.45660208 7.43545749 -2.20536179 4.0271824 0 0 Z " fill="#1E1F22" transform="translate(107,212)"/>
<path d="M0 0 C0.33 0 0.66 0 1 0 C1.14500644 3.60374463 1.23396763 7.20674242 1.3125 10.8125 C1.3753418 12.34874023 1.3753418 12.34874023 1.43945312 13.91601562 C1.48500406 16.69462278 1.47812685 19.26168974 1 22 C-1.375 24.21875 -1.375 24.21875 -4 25 C-6.3125 24.6875 -6.3125 24.6875 -8 24 C-7.34 23.67 -6.68 23.34 -6 23 C-5.690625 22.360625 -5.38125 21.72125 -5.0625 21.0625 C-4 19 -4 19 -1 17 C-0.61615491 14.06402461 -0.396157 11.31972627 -0.3125 8.375 C-0.27833984 7.57320312 -0.24417969 6.77140625 -0.20898438 5.9453125 C-0.12643122 3.96403682 -0.06154084 1.98203963 0 0 Z " fill="#4F4F51" transform="translate(189,225)"/>
<path d="M0 0 C0 0.66 0 1.32 0 2 C-1.65 2.66 -3.3 3.32 -5 4 C-5 4.99 -5 5.98 -5 7 C-5.66 7 -6.32 7 -7 7 C-7.33 8.65 -7.66 10.3 -8 12 C-10 10 -10 10 -10.3125 7.6875 C-9.93591575 4.44887541 -8.89724594 2.62695592 -7 0 C-4.3333581 -1.33332095 -2.83319697 -0.67102033 0 0 Z " fill="#059EFB" transform="translate(252,267)"/>
<path d="M0 0 C2.24658203 -0.34057617 2.24658203 -0.34057617 5.0078125 -0.29296875 C5.99394531 -0.28330078 6.98007813 -0.27363281 7.99609375 -0.26367188 C9.02863281 -0.23853516 10.06117188 -0.21339844 11.125 -0.1875 C12.68541016 -0.16719727 12.68541016 -0.16719727 14.27734375 -0.14648438 C16.85207627 -0.11105228 19.4257833 -0.06165221 22 0 C21.67 0.99 21.34 1.98 21 3 C13.41 3 5.82 3 -2 3 C-1.34 2.01 -0.68 1.02 0 0 Z " fill="#010104" transform="translate(216,241)"/>
<path d="M0 0 C0.99 0.33 1.98 0.66 3 1 C2.91291331 2.45945288 2.80473093 3.91765868 2.6875 5.375 C2.62949219 6.18710937 2.57148438 6.99921875 2.51171875 7.8359375 C2 10 2 10 -1 12 C-1.66 11.34 -2.32 10.68 -3 10 C-2.96712417 7.27130593 -2.43602229 4.7033382 -2 2 C-1.34 2 -0.68 2 0 2 C0 1.34 0 0.68 0 0 Z " fill="#1BA1F7" transform="translate(289,274)"/>
<path d="M0 0 C0.66 0 1.32 0 2 0 C2 3.63 2 7.26 2 11 C1.154375 10.690625 0.30875 10.38125 -0.5625 10.0625 C-4.0497854 8.98461179 -7.38177535 8.43418696 -11 8 C-11 7.67 -11 7.34 -11 7 C-9.741875 6.71125 -8.48375 6.4225 -7.1875 6.125 C-4.1460601 5.42696461 -2.69330122 4.79553415 0 3 C0 2.01 0 1.02 0 0 Z " fill="#4A4A4D" transform="translate(406,205)"/>
<path d="M0 0 C2.24956302 2.24956302 3.00510965 4.06323263 4.1875 7 C4.55230469 7.886875 4.91710937 8.77375 5.29296875 9.6875 C6 12 6 12 5 14 C4.34 13.67 3.68 13.34 3 13 C3 12.01 3 11.02 3 10 C2.34 10 1.68 10 1 10 C1 8.68 1 7.36 1 6 C0.34 6 -0.32 6 -1 6 C-1.33 7.32 -1.66 8.64 -2 10 C-2.66 10 -3.32 10 -4 10 C-4.33 8.35 -4.66 6.7 -5 5 C-3.35 5 -1.7 5 0 5 C0 3.35 0 1.7 0 0 Z " fill="#3DAFF4" transform="translate(332,266)"/>
<path d="M0 0 C4.84455959 2.37823834 4.84455959 2.37823834 7 4 C7.9375 6.75 7.9375 6.75 8 9 C7.01 9 6.02 9 5 9 C4.67 9.66 4.34 10.32 4 11 C1 9 1 9 0 7 C-0.04022391 4.6670134 -0.04320247 2.33293334 0 0 Z " fill="#15A1F5" transform="translate(252,275)"/>
<path d="M0 0 C2.97 0 5.94 0 9 0 C10.15926382 4.25063401 9.90949326 7.70057734 9 12 C8.01 12.495 8.01 12.495 7 13 C6.67 10.03 6.34 7.06 6 4 C3.03 4 0.06 4 -3 4 C-3 3.67 -3 3.34 -3 3 C0.63 3 4.26 3 8 3 C8 2.34 8 1.68 8 1 C5.36 1 2.72 1 0 1 C0 0.67 0 0.34 0 0 Z " fill="#1199EE" transform="translate(168,266)"/>
<path d="M0 0 C6.0546875 -0.1953125 6.0546875 -0.1953125 8 0 C10 2 10 2 10 5 C9.34 5 8.68 5 8 5 C7.67 4.34 7.34 3.68 7 3 C4.12133744 2.86521065 4.12133744 2.86521065 1 4 C-0.74719343 6.50431059 -1.90004088 9.15951732 -3 12 C-3.88336837 9.5332355 -4.1312406 8.36140628 -3.22265625 5.859375 C-2.83980469 5.16328125 -2.45695313 4.4671875 -2.0625 3.75 C-1.68222656 3.04359375 -1.30195313 2.3371875 -0.91015625 1.609375 C-0.60980469 1.07828125 -0.30945313 0.5471875 0 0 Z " fill="#4CA6E6" transform="translate(244,264)"/>
<path d="M0 0 C1.51400391 0.01740234 1.51400391 0.01740234 3.05859375 0.03515625 C4.07050781 0.04417969 5.08242187 0.05320312 6.125 0.0625 C7.29869141 0.07990234 7.29869141 0.07990234 8.49609375 0.09765625 C8.49609375 0.42765625 8.49609375 0.75765625 8.49609375 1.09765625 C5.19609375 1.09765625 1.89609375 1.09765625 -1.50390625 1.09765625 C-1.50390625 4.06765625 -1.50390625 7.03765625 -1.50390625 10.09765625 C-4.14390625 10.09765625 -6.78390625 10.09765625 -9.50390625 10.09765625 C-9.83390625 9.43765625 -10.16390625 8.77765625 -10.50390625 8.09765625 C-8.19390625 8.09765625 -5.88390625 8.09765625 -3.50390625 8.09765625 C-3.52453125 6.96328125 -3.54515625 5.82890625 -3.56640625 4.66015625 C-3.48703508 0.13599981 -3.48703508 0.13599981 0 0 Z " fill="#5FB4E9" transform="translate(167.50390625,284.90234375)"/>
<path d="M0 0 C1.97303774 1.97303774 2.77145934 3.54291869 4 6 C4.66 6.66 5.32 7.32 6 8 C4.33333333 9.66666667 2.66666667 11.33333333 1 13 C-1.32845886 9.36178302 -1.23553948 6.23971058 -1 2 C-0.67 1.34 -0.34 0.68 0 0 Z " fill="#242629" transform="translate(379,231)"/>
<path d="M0 0 C0.99 0 1.98 0 3 0 C3 0.66 3 1.32 3 2 C4.98 1.67 6.96 1.34 9 1 C7.50163895 4.11198065 5.80066242 7.0534615 4 10 C2.95550089 6.86650268 3.06576355 6.01031744 4 3 C0.45481116 4.39759905 0.45481116 4.39759905 -3 6 C-1.125 1.125 -1.125 1.125 0 0 Z " fill="#4FACEA" transform="translate(288,272)"/>
<path d="M0 0 C0.66 0 1.32 0 2 0 C1.34 2.31 0.68 4.62 0 7 C-2.64 7 -5.28 7 -8 7 C-8 5.35 -8 3.7 -8 2 C-7.34 1.67 -6.68 1.34 -6 1 C-6 2.32 -6 3.64 -6 5 C-4.35 5 -2.7 5 -1 5 C-0.67 3.35 -0.34 1.7 0 0 Z " fill="#5FB2E5" transform="translate(241,288)"/>
<path d="M0 0 C1.98 0.66 3.96 1.32 6 2 C5.375 3.875 5.375 3.875 4 6 C0.875 7.25 0.875 7.25 -2 8 C-1.67 6.68 -1.34 5.36 -1 4 C-0.34 4 0.32 4 1 4 C0.67 2.68 0.34 1.36 0 0 Z " fill="#08080C" transform="translate(401,204)"/>
<path d="M0 0 C4.875 2.625 4.875 2.625 6 6 C5.34 6.66 4.68 7.32 4 8 C3.01 8 2.02 8 1 8 C0.67 5.36 0.34 2.72 0 0 Z " fill="#121316" transform="translate(146,233)"/>
<path d="M0 0 C0.33 1.32 0.66 2.64 1 4 C-2 5 -2 5 -4.6875 3.6875 C-5.450625 3.130625 -6.21375 2.57375 -7 2 C-7 1.34 -7 0.68 -7 0 C-4.3333581 -1.33332095 -2.83319697 -0.67102033 0 0 Z " fill="#282929" transform="translate(188,211)"/>
<path d="M0 0 C0.66 0.33 1.32 0.66 2 1 C2 2.65 2 4.3 2 6 C-2.95 6 -7.9 6 -13 6 C-13 5.67 -13 5.34 -13 5 C-7.06 4.505 -7.06 4.505 -1 4 C-0.67 2.68 -0.34 1.36 0 0 Z " fill="#656568" transform="translate(179,207)"/>
<path d="M0 0 C1.32 0.33 2.64 0.66 4 1 C4 1.99 4 2.98 4 4 C6.31 4 8.62 4 11 4 C11 4.33 11 4.66 11 5 C7.37 5 3.74 5 0 5 C0 3.35 0 1.7 0 0 Z " fill="#2E2E30" transform="translate(168,227)"/>
<path d="M0 0 C0.33 0.66 0.66 1.32 1 2 C0.32453125 2.26554688 -0.3509375 2.53109375 -1.046875 2.8046875 C-2.38492187 3.33449219 -2.38492187 3.33449219 -3.75 3.875 C-4.63171875 4.22304687 -5.5134375 4.57109375 -6.421875 4.9296875 C-8.6740248 5.8646709 -10.83649459 6.87780794 -13 8 C-9.67635324 2.65326391 -5.80054339 1.52450179 0 0 Z " fill="#3F3F42" transform="translate(386,202)"/>
<path d="M0 0 C0.33 0 0.66 0 1 0 C1.63019694 9.01531729 1.63019694 9.01531729 -1 13.125 C-1.66 13.74375 -2.32 14.3625 -3 15 C-3.99 14.67 -4.98 14.34 -6 14 C-5.67 13.34 -5.34 12.68 -5 12 C-4.01 12 -3.02 12 -2 12 C-1.34 8.04 -0.68 4.08 0 0 Z " fill="#60AADE" transform="translate(182,270)"/>
<path d="M0 0 C0.66 0 1.32 0 2 0 C2.125 2.375 2.125 2.375 2 5 C0 7 0 7 -2.625 7.125 C-3.40875 7.08375 -4.1925 7.0425 -5 7 C-4.360625 6.21625 -3.72125 5.4325 -3.0625 4.625 C-1.01857687 2.20460719 -1.01857687 2.20460719 0 0 Z " fill="#02A1FE" transform="translate(177,276)"/>
<path d="M0 0 C2 1 2 1 3.125 3.375 C4 6 4 6 4 9 C0.125 7.25 0.125 7.25 -1 5 C-0.72057545 3.32345271 -0.39171753 1.65391846 0 0 Z " fill="#40A9EB" transform="translate(254,270)"/>
<path d="M0 0 C2.97 0 5.94 0 9 0 C9.66 1.32 10.32 2.64 11 4 C10.01 4.33 9.02 4.66 8 5 C7.608125 4.525625 7.21625 4.05125 6.8125 3.5625 C4.59191626 1.64820367 2.86624291 1.38733012 0 1 C0 0.67 0 0.34 0 0 Z " fill="#28282A" transform="translate(250,203)"/>
<path d="M0 0 C0.99 0.33 1.98 0.66 3 1 C3.33 1.99 3.66 2.98 4 4 C1.11788698 4.96070434 -0.69850044 5.10581883 -3.6875 5.0625 C-4.89986328 5.04896484 -4.89986328 5.04896484 -6.13671875 5.03515625 C-7.05904297 5.01775391 -7.05904297 5.01775391 -8 5 C-8 4.67 -8 4.34 -8 4 C-5.36 3.67 -2.72 3.34 0 3 C0 2.01 0 1.02 0 0 Z " fill="#33A0E4" transform="translate(286,266)"/>
<path d="M0 0 C2.02855159 2.02855159 3.00835839 3.33019566 4 6 C3.625 8.75 3.625 8.75 3 11 C0.60236815 8.60236815 0.65719414 7.66726502 0.375 4.375 C0.30023438 3.55773437 0.22546875 2.74046875 0.1484375 1.8984375 C0.09945313 1.27195312 0.05046875 0.64546875 0 0 Z " fill="#55AFE9" transform="translate(338,281)"/>
<path d="M0 0 C0.66 0 1.32 0 2 0 C2.99 2.97 3.98 5.94 5 9 C4.01 8.67 3.02 8.34 2 8 C2 7.01 2 6.02 2 5 C1.34 5 0.68 5 0 5 C0 3.35 0 1.7 0 0 Z " fill="#48A4E4" transform="translate(333,271)"/>
<path d="M0 0 C1.98 0 3.96 0 6 0 C6.33 0.99 6.66 1.98 7 3 C5.02 3.99 5.02 3.99 3 5 C3 4.34 3 3.68 3 3 C2.01 3.33 1.02 3.66 0 4 C0 2.68 0 1.36 0 0 Z " fill="#04060A" transform="translate(267,228)"/>
<path d="M0 0 C4.875 4.75 4.875 4.75 6 7 C4.35 7.33 2.7 7.66 1 8 C0.67 5.36 0.34 2.72 0 0 Z " fill="#353539" transform="translate(272,222)"/>
<path d="M0 0 C0.33 0 0.66 0 1 0 C0.50769231 6.4 0.50769231 6.4 -2.0625 9.4375 C-2.701875 9.953125 -3.34125 10.46875 -4 11 C-3.52269162 9.5410574 -3.04308958 8.08286504 -2.5625 6.625 C-2.29566406 5.81289063 -2.02882812 5.00078125 -1.75390625 4.1640625 C-1 2 -1 2 0 0 Z " fill="#61B3EA" transform="translate(239,276)"/>
<path d="M0 0 C0.99 0 1.98 0 3 0 C2.34 2.31 1.68 4.62 1 7 C2.65 7 4.3 7 6 7 C6 7.33 6 7.66 6 8 C4.02 8 2.04 8 0 8 C0 5.36 0 2.72 0 0 Z " fill="#77C0F0" transform="translate(245,274)"/>
<path d="M0 0 C1.32 0.33 2.64 0.66 4 1 C3.01 1 2.02 1 1 1 C1 1.66 1 2.32 1 3 C3.31 2.01 5.62 1.02 8 0 C8 0.99 8 1.98 8 3 C5.29120665 4.35439668 2.99066732 4.06501451 0 4 C0 2.68 0 1.36 0 0 Z " fill="#089BF2" transform="translate(278,266)"/>
<path d="M0 0 C0.33 0.66 0.66 1.32 1 2 C1.94875 1.79375 2.8975 1.5875 3.875 1.375 C5.421875 1.189375 5.421875 1.189375 7 1 C7.66 1.66 8.32 2.32 9 3 C5.30581799 4.231394 2.7943739 3.64432764 -1 3 C-0.67 2.01 -0.34 1.02 0 0 Z " fill="#34A7EF" transform="translate(287,287)"/>
<path d="M0 0 C0.33 0 0.66 0 1 0 C1.05422947 1.4370809 1.09289723 2.87475462 1.125 4.3125 C1.14820313 5.11300781 1.17140625 5.91351563 1.1953125 6.73828125 C1 9 1 9 -1 12 C-1.66 11.67 -2.32 11.34 -3 11 C-2.67 9.68 -2.34 8.36 -2 7 C-1.34 7 -0.68 7 0 7 C0 4.69 0 2.38 0 0 Z " fill="#1093EC" transform="translate(181,270)"/>
<path d="M0 0 C0.8125 1.6875 0.8125 1.6875 1 4 C-1.4375 6.75 -1.4375 6.75 -4 9 C-2.94124926 5.59687262 -1.99097846 2.98646769 0 0 Z " fill="#464E4F" transform="translate(150,209)"/>
<path d="M0 0 C0.66 0 1.32 0 2 0 C2 1.32 2 2.64 2 4 C2.66 4 3.32 4 4 4 C4 4.66 4 5.32 4 6 C3.34 6 2.68 6 2 6 C1.67 6.66 1.34 7.32 1 8 C0.67 5.36 0.34 2.72 0 0 Z " fill="#059EFD" transform="translate(331,272)"/>
</svg>
