<?xml version="1.0" encoding="UTF-8"?>
<svg version="1.1" xmlns="http://www.w3.org/2000/svg" width="500" height="500">
<path d="M0 0 C1.41345703 -0.01836914 1.41345703 -0.01836914 2.85546875 -0.03710938 C7.89270661 -0.04770665 12.03250328 0.18493847 16.75 2.1875 C16.75 6.1475 16.75 10.1075 16.75 14.1875 C15.76 14.1875 14.77 14.1875 13.75 14.1875 C13.75 13.5275 13.75 12.8675 13.75 12.1875 C7.09144275 10.94728018 0.4996699 10.44479146 -6.25 11.1875 C-9.57275289 13.25278902 -9.57275289 13.25278902 -11.25 16.1875 C-11.91 17.1775 -12.57 18.1675 -13.25 19.1875 C-13.5674994 21.79463564 -13.5674994 21.79463564 -13.5 24.625 C-13.50515625 25.57246094 -13.5103125 26.51992187 -13.515625 27.49609375 C-13.23956043 30.2932774 -12.81001116 31.86515329 -11.25 34.1875 C-8.09467023 36.70722377 -4.77794455 38.17096892 -0.72265625 38.21484375 C1.46739335 37.96919838 3.59526916 37.64637786 5.75 37.1875 C6.08 34.5475 6.41 31.9075 6.75 29.1875 C3.12 29.1875 -0.51 29.1875 -4.25 29.1875 C-4.25 26.2175 -4.25 23.2475 -4.25 20.1875 C3.34 20.1875 10.93 20.1875 18.75 20.1875 C18.75 28.1075 18.75 36.0275 18.75 44.1875 C8.80208321 49.1614584 -1.54689118 51.55116786 -12.4453125 48.20703125 C-16.78056182 46.15315949 -19.39881495 44.74726108 -21.25 40.1875 C-21.91 40.1875 -22.57 40.1875 -23.25 40.1875 C-27.11483128 32.23353919 -29.03531786 24.9359157 -26.34375 16.26953125 C-25.3922375 13.86016567 -24.38182857 11.51684362 -23.25 9.1875 C-22.59 9.1875 -21.93 9.1875 -21.25 9.1875 C-21.064375 8.61 -20.87875 8.0325 -20.6875 7.4375 C-16.03679798 0.15814031 -7.72099548 0.00519582 0 0 Z " fill="#DEE4E0" transform="translate(172.25,202.8125)"/>
<path d="M0 0 C11 0 11 0 13.60546875 2.1171875 C14.12753906 3.02726563 14.64960938 3.93734375 15.1875 4.875 C16.01314453 6.23238281 16.01314453 6.23238281 16.85546875 7.6171875 C18 10 18 10 18 12 C18.66 12 19.32 12 20 12 C20.66 13.65 21.32 15.3 22 17 C22.66 17 23.32 17 24 17 C25.2890625 18.4609375 25.2890625 18.4609375 26.625 20.375 C27.07101562 21.00148437 27.51703125 21.62796875 27.9765625 22.2734375 C29 24 29 24 29 26 C29.66 26 30.32 26 31 26 C31.33 17.42 31.66 8.84 32 0 C35.63 0 39.26 0 43 0 C43 15.51 43 31.02 43 47 C32 47 32 47 28.8125 44.125 C27 41 27 41 27 39 C26.34 39 25.68 39 25 39 C23.4921875 37.3203125 23.4921875 37.3203125 21.875 35.125 C21.33617187 34.40570313 20.79734375 33.68640625 20.2421875 32.9453125 C19 31 19 31 19 29 C18.34 29 17.68 29 17 29 C14.525 25.04 14.525 25.04 12 21 C11.67 29.58 11.34 38.16 11 47 C7.37 47 3.74 47 0 47 C0 31.49 0 15.98 0 0 Z " fill="#E5EBE6" transform="translate(249,203)"/>
<path d="M0 0 C11.55 0 23.1 0 35 0 C35 3.3 35 6.6 35 10 C27.08 10 19.16 10 11 10 C11 12.97 11 15.94 11 19 C17.93 19 24.86 19 32 19 C32 22.3 32 25.6 32 29 C25.07 29 18.14 29 11 29 C11 31.97 11 34.94 11 38 C18.92 38 26.84 38 35 38 C35 40.97 35 43.94 35 47 C23.45 47 11.9 47 0 47 C-1.62068966 6.48275862 -1.62068966 6.48275862 0 0 Z " fill="#E0E8E3" transform="translate(203,203)"/>
<path d="M0 0 C4.29 0 8.58 0 13 0 C13.391875 1.093125 13.78375 2.18625 14.1875 3.3125 C15.43747877 6.66338205 16.85493463 9.88826775 18.375 13.125 C20.86392828 18.51394081 22.85258219 24.01586985 24.796875 29.62109375 C26.15995934 33.44923647 27.6904462 37.18419555 29.30078125 40.9140625 C30 43 30 43 30 47 C26.04 47 22.08 47 18 47 C17.01 44.03 16.02 41.06 15 38 C6.585 38.495 6.585 38.495 -2 39 C-2.99 41.64 -3.98 44.28 -5 47 C-9.29 47 -13.58 47 -18 47 C-15.47191206 39.28267891 -12.74972528 31.64054098 -10 24 C-9.34 24 -8.68 24 -8 24 C-7.88527344 23.319375 -7.77054688 22.63875 -7.65234375 21.9375 C-6.88921042 18.50111518 -5.76394799 15.30843839 -4.5625 12 C-4.13066406 10.80375 -3.69882813 9.6075 -3.25390625 8.375 C-2.21085379 5.56753169 -1.1123034 2.78075851 0 0 Z M6 15 C4.35 19.29 2.7 23.58 1 28 C4.3 28 7.6 28 11 28 C10.25107424 25.00429695 9.42395057 22.16646256 8.4375 19.25 C8.16808594 18.45078125 7.89867187 17.6515625 7.62109375 16.828125 C7.41613281 16.22484375 7.21117187 15.6215625 7 15 C6.67 15 6.34 15 6 15 Z " fill="#DEE5E0" transform="translate(112,203)"/>
<path d="M0 0 C0.81984375 0.00128906 1.6396875 0.00257813 2.484375 0.00390625 C7.15310313 0.07146019 10.98960156 0.6009715 15.375 2.375 C15.375 6.335 15.375 10.295 15.375 14.375 C11.375 13.375 11.375 13.375 9.49609375 12.33203125 C6.72319573 11.08090783 4.47079883 11.07397528 1.4375 11.0625 C0.41785156 11.04574219 -0.60179687 11.02898437 -1.65234375 11.01171875 C-5.08278245 11.4309445 -6.89646596 12.27284247 -9.625 14.375 C-13.06351231 19.15129218 -12.32417159 25.80281427 -11.625 31.375 C-9.00063054 35.16575588 -7.04315824 36.53071373 -2.625 37.375 C2.54401748 37.77261673 6.61075178 37.55294204 11.375 35.375 C12.695 35.375 14.015 35.375 15.375 35.375 C15.375 39.005 15.375 42.635 15.375 46.375 C7.36830375 50.14285706 -1.65303283 51.09507916 -10.125 48.0625 C-16.13443396 45.16509434 -16.13443396 45.16509434 -18.625 43.375 C-18.625 42.715 -18.625 42.055 -18.625 41.375 C-19.285 41.375 -19.945 41.375 -20.625 41.375 C-26.17440246 33.97579672 -26.25870238 27.43694403 -25.625 18.375 C-24.87315523 15.18403091 -23.86515059 12.42370354 -22.625 9.375 C-21.965 9.375 -21.305 9.375 -20.625 9.375 C-20.295 8.385 -19.965 7.395 -19.625 6.375 C-18.965 6.375 -18.305 6.375 -17.625 6.375 C-17.625 5.715 -17.625 5.055 -17.625 4.375 C-11.474361 0.7977318 -7.06353472 -0.21302724 0 0 Z " fill="#DDE3DE" transform="translate(393.625,202.625)"/>
<path d="M0 0 C13.2 0 26.4 0 40 0 C40 3.3 40 6.6 40 10 C35.38 10 30.76 10 26 10 C26 22.21 26 34.42 26 47 C22.04 47 18.08 47 14 47 C14 34.79 14 22.58 14 10 C9.38 10 4.76 10 0 10 C0 6.7 0 3.4 0 0 Z " fill="#DAE1DB" transform="translate(300,203)"/>
<path d="M0 0 C7.59 0 15.18 0 23 0 C23 7.92 23 15.84 23 24 C16.26740899 27.3662955 12.27388272 28.1970563 4.875 28.25 C4.14667969 28.270625 3.41835937 28.29125 2.66796875 28.3125 C0.5546875 28.328125 0.5546875 28.328125 -3 28 C-3.66 27.01 -4.32 26.02 -5 25 C-4.34 23.02 -3.68 21.04 -3 19 C1.29 18.34 5.58 17.68 10 17 C10.33 14.36 10.66 11.72 11 9 C7.37 9 3.74 9 0 9 C0 6.03 0 3.06 0 0 Z " fill="#E4EAE5" transform="translate(168,223)"/>
<path d="M0 0 C3.63 0 7.26 0 11 0 C11 15.51 11 31.02 11 47 C7.04 47 3.08 47 -1 47 C-1.02464347 40.46720661 -1.04283291 33.93444002 -1.05493164 27.40161133 C-1.05997317 25.17732268 -1.06680623 22.95303737 -1.07543945 20.72875977 C-1.08751298 17.53921691 -1.09322996 14.34971771 -1.09765625 11.16015625 C-1.10281754 10.15912369 -1.10797882 9.15809113 -1.11329651 8.12672424 C-1.11337204 7.20584518 -1.11344757 6.28496613 -1.11352539 5.33618164 C-1.115746 4.52121719 -1.11796661 3.70625275 -1.12025452 2.86659241 C-1 1 -1 1 0 0 Z " fill="#E0E6E1" transform="translate(348,203)"/>
<path d="M0 0 C3.361875 -0.12375 6.72375 -0.2475 10.1875 -0.375 C11.23832764 -0.42962402 12.28915527 -0.48424805 13.37182617 -0.54052734 C20.06589994 -0.65991537 20.06589994 -0.65991537 22.75415039 1.23925781 C25.92654724 4.90371622 27.0858702 8.19126896 27 13 C25.02061533 16.74669241 23.52983947 18.64677369 20 21 C17.30078125 21.1953125 17.30078125 21.1953125 14.3125 21.125 C12.82169922 21.09792969 12.82169922 21.09792969 11.30078125 21.0703125 C10.54152344 21.04710937 9.78226563 21.02390625 9 21 C9 23.97 9 26.94 9 30 C6.03 30 3.06 30 0 30 C0 20.1 0 10.2 0 0 Z M9 6 C9 8.97 9 11.94 9 15 C14.01535052 14.67039784 14.01535052 14.67039784 18 12 C17.67958603 9.39719432 17.67958603 9.39719432 17 7 C14.36 6.67 11.72 6.34 9 6 Z " fill="#1891D7" transform="translate(158,264)"/>
<path d="M0 0 C3.3 0 6.6 0 10 0 C10.38671875 1.03898437 10.7734375 2.07796875 11.171875 3.1484375 C11.69776469 4.5573484 12.22381734 5.96619849 12.75 7.375 C13.02150879 8.10364258 13.29301758 8.83228516 13.57275391 9.58300781 C15.38720139 14.4308338 17.29055116 19.22843602 19.3359375 23.984375 C20 26 20 26 20 30 C18.72125 30.061875 17.4425 30.12375 16.125 30.1875 C15.04605469 30.23970703 15.04605469 30.23970703 13.9453125 30.29296875 C13.30335938 30.19628906 12.66140625 30.09960938 12 30 C10 27 10 27 10 24 C6.7 24 3.4 24 0 24 C-0.66 25.98 -1.32 27.96 -2 30 C-4.97 30 -7.94 30 -11 30 C-9.24564613 23.76229737 -7.20894111 17.68954064 -4.9375 11.625 C-4.6801709 10.93535156 -4.4228418 10.24570312 -4.15771484 9.53515625 C-2.91398873 6.24856778 -1.57457893 3.14915786 0 0 Z M4 11 C3.34 12.98 2.68 14.96 2 17 C3.65 17 5.3 17 7 17 C6.67 15.02 6.34 13.04 6 11 C5.34 11 4.68 11 4 11 Z " fill="#0597F6" transform="translate(244,264)"/>
<path d="M0 0 C0.8420709 2.09779066 1.5983686 4.23027965 2.3125 6.375 C4.21271266 11.96314423 6.3968597 17.28342388 8.984375 22.59765625 C10.02652519 25.06274227 10.56789422 27.3650941 11 30 C8.03 30 5.06 30 2 30 C1.34 28.02 0.68 26.04 0 24 C-3.07293733 24.07086438 -6.01484133 24.23760336 -9 25 C-10.01187895 26.65948148 -11.0126546 28.32580562 -12 30 C-14.78739091 30.47016232 -17.15071946 30.23354759 -20 30 C-18.55019059 24.73490269 -16.87957078 19.58663005 -15.0625 14.4375 C-14.81048828 13.70853516 -14.55847656 12.97957031 -14.29882812 12.22851562 C-12.81079338 8.00036576 -11.32851532 3.84917838 -9 0 C-3.10344828 -1.55172414 -3.10344828 -1.55172414 0 0 Z M-5 10 C-5.66 12.31 -6.32 14.62 -7 17 C-5.35 17 -3.7 17 -2 17 C-2.66 14.69 -3.32 12.38 -4 10 C-4.33 10 -4.66 10 -5 10 Z " fill="#0696F3" transform="translate(334,264)"/>
<path d="M0 0 C8.25 0 16.5 0 25 0 C23.87527538 6.74834774 23.87527538 6.74834774 21.75 9.578125 C21.3065625 10.18140625 20.863125 10.7846875 20.40625 11.40625 C19.71015625 12.31890625 19.71015625 12.31890625 19 13.25 C15.73635435 17.45820108 15.73635435 17.45820108 13 22 C17.29 22.33 21.58 22.66 26 23 C26 25.31 26 27.62 26 30 C17.09 30 8.18 30 -1 30 C-0.0515655 25.25782752 1.42711396 22.17301554 3.9375 18.1875 C4.29779297 17.59001953 4.65808594 16.99253906 5.02929688 16.37695312 C5.95906384 14.87870985 6.97351929 13.43371436 8 12 C8.66 12 9.32 12 10 12 C10.66 10.35 11.32 8.7 12 7 C11.21753906 7.01160156 10.43507813 7.02320313 9.62890625 7.03515625 C8.61699219 7.04417969 7.60507812 7.05320312 6.5625 7.0625 C5.55316406 7.07410156 4.54382813 7.08570313 3.50390625 7.09765625 C1 7 1 7 0 6 C0 4.02 0 2.04 0 0 Z " fill="#0786D6" transform="translate(277,264)"/>
<path d="M0 0 C2.97 0 5.94 0 9 0 C9 7.59 9 15.18 9 23 C12.4340625 22.9690625 12.4340625 22.9690625 15.9375 22.9375 C18.29166332 22.91629132 20.64686445 22.92728259 23 23 C24 24 24 24 24.125 26.5 C24 29 24 29 23 30 C21.29227642 30.08713831 19.58101351 30.10700007 17.87109375 30.09765625 C16.93966553 30.09515869 16.0082373 30.09266113 15.04858398 30.09008789 C13.26109741 30.07643188 13.26109741 30.07643188 11.4375 30.0625 C7.663125 30.041875 3.88875 30.02125 0 30 C0 20.1 0 10.2 0 0 Z " fill="#0697F4" transform="translate(199,264)"/>
<path d="M0 0 C3.04190863 -0.05421223 6.08283999 -0.09377548 9.125 -0.125 C9.9809375 -0.14175781 10.836875 -0.15851563 11.71875 -0.17578125 C16.56587293 -0.21306681 20.44707905 0.10419357 25 2 C25 5.96 25 9.92 25 14 C21 13 21 13 19.12109375 11.95703125 C16.34819573 10.70590783 14.09579883 10.69897528 11.0625 10.6875 C10.04285156 10.67074219 9.02320313 10.65398437 7.97265625 10.63671875 C3.64178306 11.16598446 1.04327042 12.95672958 -2 16 C-2.66 14.35 -3.32 12.7 -4 11 C-3.278125 10.608125 -2.55625 10.21625 -1.8125 9.8125 C1.12325423 8.07654242 1.12325423 8.07654242 3.5 5.375 C6 3 6 3 11 2 C7.04 2 3.08 2 -1 2 C-0.67 1.34 -0.34 0.68 0 0 Z " fill="#CBD0CC" transform="translate(384,203)"/>
<path d="M0 0 C2.52142586 2.52142586 3.20289248 4.84521359 4.4375 8.1875 C5.80828875 11.86186274 7.17789281 15.49749956 8.8125 19.0625 C10 22 10 22 10 26 C8.72125 26.061875 7.4425 26.12375 6.125 26.1875 C5.04605469 26.23970703 5.04605469 26.23970703 3.9453125 26.29296875 C3.30335938 26.19628906 2.66140625 26.09960938 2 26 C0 23 0 23 0 20 C-3.3 20 -6.6 20 -10 20 C-10 19.67 -10 19.34 -10 19 C-7.03 18.67 -4.06 18.34 -1 18 C-1.99 17.67 -2.98 17.34 -4 17 C-4 16.34 -4 15.68 -4 15 C-5.65 15 -7.3 15 -9 15 C-9.33 11.7 -9.66 8.4 -10 5 C-8.35 5 -6.7 5 -5 5 C-4.67 5.66 -4.34 6.32 -4 7 C-4.66 7 -5.32 7 -6 7 C-6.33 8.65 -6.66 10.3 -7 12 C-6.01 12 -5.02 12 -4 12 C-3.67 10.68 -3.34 9.36 -3 8 C-2.67 8 -2.34 8 -2 8 C-2 9.65 -2 11.3 -2 13 C0.49497561 8.17638048 1.07844633 5.39223163 0 0 Z " fill="#0D80C9" transform="translate(254,268)"/>
<path d="M0 0 C6.625 -0.25 6.625 -0.25 10 2 C10.639375 1.79375 11.27875 1.5875 11.9375 1.375 C12.618125 1.25125 13.29875 1.1275 14 1 C16 2.8125 16 2.8125 18 5 C20.13309192 6.23512079 20.13309192 6.23512079 22 7 C20.35 7 18.7 7 17 7 C17.33 7.66 17.66 8.32 18 9 C18 11 18 13 18 15 C18.33 15.66 18.66 16.32 19 17 C13.59305933 16.56744475 10.24633878 15.41778487 6 12 C6 11.34 6 10.68 6 10 C5.34 10 4.68 10 4 10 C1.1605948 6.32547562 0 4.73113419 0 0 Z " fill="#D9DFDA" transform="translate(369,234)"/>
<path d="M0 0 C3.361875 -0.12375 6.72375 -0.2475 10.1875 -0.375 C11.23832764 -0.42962402 12.28915527 -0.48424805 13.37182617 -0.54052734 C20.06589994 -0.65991537 20.06589994 -0.65991537 22.75415039 1.23925781 C25.92654724 4.90371622 27.0858702 8.19126896 27 13 C25.02061533 16.74669241 23.52983947 18.64677369 20 21 C17.30078125 21.1953125 17.30078125 21.1953125 14.3125 21.125 C12.82169922 21.09792969 12.82169922 21.09792969 11.30078125 21.0703125 C10.54152344 21.04710937 9.78226563 21.02390625 9 21 C9 20.67 9 20.34 9 20 C10.2375 19.87625 11.475 19.7525 12.75 19.625 C15.90709245 19.24012477 18.22124263 18.60312925 21 17 C21.66 17 22.32 17 23 17 C23.7306539 13.01322664 23.7306539 13.01322664 24 9 C22.72780266 6.97022023 22.72780266 6.97022023 21 6 C21 7.98 21 9.96 21 12 C20.34 12 19.68 12 19 12 C18.67 13.32 18.34 14.64 18 16 C15.03 16 12.06 16 9 16 C9 15.67 9 15.34 9 15 C11.31 14.34 13.62 13.68 16 13 C16.5534764 10.92446352 17 9.15634036 17 7 C14.36 6.67 11.72 6.34 9 6 C9 5.67 9 5.34 9 5 C15.625 3.75 15.625 3.75 19 6 C19 5.01 19 4.02 19 3 C13.06 2.34 7.12 1.68 1 1 C1 9.91 1 18.82 1 28 C0.67 28 0.34 28 0 28 C0 18.76 0 9.52 0 0 Z " fill="#096CA9" transform="translate(158,264)"/>
<path d="M0 0 C2.1875 0.3125 2.1875 0.3125 4 1 C4 3.31 4 5.62 4 8 C5.65 8 7.3 8 9 8 C11.77471079 14.24309927 12.37634203 19.19796625 12 26 C10.68 25.67 9.36 25.34 8 25 C7.67 23.68 7.34 22.36 7 21 C6.34 21 5.68 21 5 21 C5 20.34 5 19.68 5 19 C4.01 19.33 3.02 19.66 2 20 C1.34 19.34 0.68 18.68 0 18 C1.65 17.34 3.3 16.68 5 16 C5 15.34 5 14.68 5 14 C4.01 14 3.02 14 2 14 C1.67 11.69 1.34 9.38 1 7 C0.34 7 -0.32 7 -1 7 C-1.66 5.68 -2.32 4.36 -3 3 C-1.75 1.4375 -1.75 1.4375 0 0 Z " fill="#128FE4" transform="translate(329,266)"/>
<path d="M0 0 C2.55028983 1.27514492 2.93081711 2.40341297 4 5 C4 5.99 4 6.98 4 8 C4.268125 7.030625 4.53625 6.06125 4.8125 5.0625 C5.4003125 3.5465625 5.4003125 3.5465625 6 2 C9 1 9 1 11.04296875 1.77734375 C11.75066406 2.16019531 12.45835937 2.54304687 13.1875 2.9375 C13.90292969 3.31777344 14.61835938 3.69804687 15.35546875 4.08984375 C15.89816406 4.39019531 16.44085938 4.69054687 17 5 C15.68 5.33 14.36 5.66 13 6 C12.61936779 8.3260857 12.28730055 10.66055264 12 13 C13.94090826 14.94090826 17.47293902 14.39919435 20.0625 14.5625 C21.35285156 14.64628906 22.64320313 14.73007813 23.97265625 14.81640625 C24.97167969 14.87699219 25.97070312 14.93757812 27 15 C27 15.33 27 15.66 27 16 C8.40473644 17.0381971 8.40473644 17.0381971 1 11 C-0.2578125 8.828125 -0.2578125 8.828125 -1 7 C-1.66 7 -2.32 7 -3 7 C-3.33 5.68 -3.66 4.36 -4 3 C-3.01 2.67 -2.02 2.34 -1 2 C-0.67 1.34 -0.34 0.68 0 0 Z " fill="#C9CECA" transform="translate(152,236)"/>
<path d="M0 0 C8.25 0 16.5 0 25 0 C24 6 24 6 22 9 C19.03 8.505 19.03 8.505 16 8 C16 7.34 16 6.68 16 6 C10.72 6 5.44 6 0 6 C0 4.02 0 2.04 0 0 Z " fill="#0C96E7" transform="translate(277,264)"/>
<path d="M0 0 C0.8515625 2.28515625 0.8515625 2.28515625 1.625 5.0625 C2.01558594 6.44115234 2.01558594 6.44115234 2.4140625 7.84765625 C2.60742188 8.55792969 2.80078125 9.26820313 3 10 C1.68 10 0.36 10 -1 10 C-1 7.69 -1 5.38 -1 3 C-2.65 3.33 -4.3 3.66 -6 4 C-6 4.66 -6 5.32 -6 6 C-6 6.99 -6 7.98 -6 9 C-5.34 9.33 -4.68 9.66 -4 10 C-4.99 12.31 -5.98 14.62 -7 17 C-3.535 16.505 -3.535 16.505 0 16 C0 16.66 0 17.32 0 18 C-2.70879335 19.35439668 -5.00933268 19.06501451 -8 19 C-9 14.25 -9 14.25 -9 12 C-9.66 12 -10.32 12 -11 12 C-11 12.66 -11 13.32 -11 14 C-11.99 14 -12.98 14 -14 14 C-13.36382503 9.069644 -11.83852212 4.1057195 -9 0 C-5.44927724 -1.10194844 -3.38252658 -1.69126329 0 0 Z " fill="#0D82CB" transform="translate(334,264)"/>
<path d="M0 0 C2.97 0 5.94 0 9 0 C9 7.59 9 15.18 9 23 C12.4340625 22.9690625 12.4340625 22.9690625 15.9375 22.9375 C18.29166332 22.91629132 20.64686445 22.92728259 23 23 C24 24 24 24 24.125 26.5 C24 29 24 29 23 30 C21.29227642 30.08713831 19.58101351 30.10700007 17.87109375 30.09765625 C16.93966553 30.09515869 16.0082373 30.09266113 15.04858398 30.09008789 C13.26109741 30.07643188 13.26109741 30.07643188 11.4375 30.0625 C7.663125 30.041875 3.88875 30.02125 0 30 C0 20.1 0 10.2 0 0 Z M1 1 C1 10.24 1 19.48 1 29 C7.93 29 14.86 29 22 29 C22 27.68 22 26.36 22 25 C15.07 24.505 15.07 24.505 8 24 C8 16.41 8 8.82 8 1 C5.69 1 3.38 1 1 1 Z " fill="#0E5C89" transform="translate(199,264)"/>
<path d="M0 0 C1.89551022 -0.05441656 3.7914792 -0.09298035 5.6875 -0.125 C6.74324219 -0.14820313 7.79898438 -0.17140625 8.88671875 -0.1953125 C12.02251859 0.00141271 14.17645373 0.66942346 17 2 C17 2.99 17 3.98 17 5 C16.319375 4.814375 15.63875 4.62875 14.9375 4.4375 C11.42767809 3.91476057 8.47811937 4.38621423 5 5 C5 7.97 5 10.94 5 14 C3.68 14.33 2.36 14.66 1 15 C-0.09506492 11.71480525 -0.09960608 9.26336585 -0.0625 5.8125 C-0.05347656 4.72582031 -0.04445312 3.63914062 -0.03515625 2.51953125 C-0.02355469 1.68808594 -0.01195312 0.85664063 0 0 Z " fill="#0296FB" transform="translate(160,265)"/>
<path d="M0 0 C2.97 0.495 2.97 0.495 6 1 C6 4.96 6 8.92 6 13 C5.01 13 4.02 13 3 13 C3 12.34 3 11.68 3 11 C-2.94 10.34 -8.88 9.68 -15 9 C-15 8.67 -15 8.34 -15 8 C-14.40832031 7.98582031 -13.81664062 7.97164062 -13.20703125 7.95703125 C-8.74434335 7.68766836 -6.56924796 7.46251397 -3 4.5625 C-1.01298758 2.19078303 -1.01298758 2.19078303 0 0 Z " fill="#C8CDCA" transform="translate(183,204)"/>
<path d="M0 0 C0.33 0.66 0.66 1.32 1 2 C1.99 2 2.98 2 4 2 C4 3.65 4 5.3 4 7 C5.32 7.33 6.64 7.66 8 8 C8 10.64 8 13.28 8 16 C6.68 15.67 5.36 15.34 4 15 C3.67 13.68 3.34 12.36 3 11 C2.34 11 1.68 11 1 11 C1 10.34 1 9.68 1 9 C0.01 9.33 -0.98 9.66 -2 10 C-2.66 9.34 -3.32 8.68 -4 8 C-2.35 7.34 -0.7 6.68 1 6 C1 5.34 1 4.68 1 4 C0.34 4 -0.32 4 -1 4 C-0.67 2.68 -0.34 1.36 0 0 Z " fill="#0497F8" transform="translate(333,276)"/>
<path d="M0 0 C0.99 0.33 1.98 0.66 3 1 C3.81846842 3.86463946 4.05231071 5.75007107 3.4375 8.6875 C2 11 2 11 -0.6875 12.3125 C-4.21690329 13.04501766 -7.40513476 13.14379461 -11 13 C-11 12.34 -11 11.68 -11 11 C-8.36 10.67 -5.72 10.34 -3 10 C-2.67 8.68 -2.34 7.36 -2 6 C-1.34 6 -0.68 6 0 6 C-0.185625 5.38125 -0.37125 4.7625 -0.5625 4.125 C-1 2 -1 2 0 0 Z " fill="#0296FB" transform="translate(179,270)"/>
<path d="M0 0 C4.95 0 9.9 0 15 0 C15 0.66 15 1.32 15 2 C17.475 2.495 17.475 2.495 20 3 C19.34 4.32 18.68 5.64 18 7 C17.67 6.01 17.34 5.02 17 4 C12.96340307 5.30916657 11.48079333 6.65632203 9 10 C6.8125 10.75 6.8125 10.75 5 11 C5.66 9.35 6.32 7.7 7 6 C7.66 6 8.32 6 9 6 C9.66 4.35 10.32 2.7 11 1 C7.37 1 3.74 1 0 1 C0 0.67 0 0.34 0 0 Z " fill="#0B66A4" transform="translate(278,270)"/>
<path d="M0 0 C2.18975773 3.28463659 2.99806563 6.20696275 4 10 C1.03 10 -1.94 10 -5 10 C-5.66 8.02 -6.32 6.04 -7 4 C-8.45922693 4.11409593 -9.91740598 4.24165544 -11.375 4.375 C-12.18710937 4.44460938 -12.99921875 4.51421875 -13.8359375 4.5859375 C-16.20334191 4.82892588 -16.20334191 4.82892588 -18 7 C-17.67 5.68 -17.34 4.36 -17 3 C-13.04 3 -9.08 3 -5 3 C-4.34 4.32 -3.68 5.64 -3 7 C-2.01 7.33 -1.02 7.66 0 8 C0 5.36 0 2.72 0 0 Z " fill="#0E72A3" transform="translate(341,284)"/>
<path d="M0 0 C4.29 0.33 8.58 0.66 13 1 C13 2.32 13 3.64 13 5 C6.4 5 -0.2 5 -7 5 C-7 4.67 -7 4.34 -7 4 C-6.28972656 3.95101563 -5.57945312 3.90203125 -4.84765625 3.8515625 C-3.46900391 3.73941406 -3.46900391 3.73941406 -2.0625 3.625 C-1.14597656 3.55539062 -0.22945312 3.48578125 0.71484375 3.4140625 C1.84599609 3.20910156 1.84599609 3.20910156 3 3 C3.33 2.34 3.66 1.68 4 1 C2.68 0.67 1.36 0.34 0 0 Z " fill="#079AEB" transform="translate(208,288)"/>
<path d="M0 0 C2.97 0.495 2.97 0.495 6 1 C8.2007722 8.21364221 8.2007722 8.21364221 7.25 11.9375 C6 14 6 14 4 15 C3.01 12.69 2.02 10.38 1 8 C-0.32 8 -1.64 8 -3 8 C-3 7.34 -3 6.68 -3 6 C-1.35 5.67 0.3 5.34 2 5 C2 5.66 2 6.32 2 7 C2.66 6.67 3.32 6.34 4 6 C4 5.01 4 4.02 4 3 C3.01 3 2.02 3 1 3 C0.67 2.01 0.34 1.02 0 0 Z " fill="#0B98F3" transform="translate(248,266)"/>
<path d="M0 0 C1.81242052 -0.02687279 3.62495233 -0.04633715 5.4375 -0.0625 C6.44683594 -0.07410156 7.45617187 -0.08570313 8.49609375 -0.09765625 C11 0 11 0 12 1 C12.04080783 2.99958364 12.04254356 5.00045254 12 7 C10.35 6.67 8.7 6.34 7 6 C7 5.34 7 4.68 7 4 C5.824375 3.7834375 5.824375 3.7834375 4.625 3.5625 C2 3 2 3 0 2 C0 1.34 0 0.68 0 0 Z " fill="#0496F9" transform="translate(286,266)"/>
<path d="M0 0 C2.57061106 1.90001687 3.0489541 3.17297117 3.9375 6.3125 C4.01471727 10.86831879 2.8875418 12.55099174 0 16 C-3.42094242 18.28062828 -4.68187222 18.21925007 -8.6875 18.125 C-10.17830078 18.09792969 -10.17830078 18.09792969 -11.69921875 18.0703125 C-12.45847656 18.04710937 -13.21773437 18.02390625 -14 18 C-14 17.67 -14 17.34 -14 17 C-12.7625 16.87625 -11.525 16.7525 -10.25 16.625 C-7.09290755 16.24012477 -4.77875737 15.60312925 -2 14 C-1.34 14 -0.68 14 0 14 C0.77916092 8.97874074 1.13016601 5.02296004 0 0 Z " fill="#10699C" transform="translate(181,267)"/>
<path d="M0 0 C0.33 0.66 0.66 1.32 1 2 C-0.20850753 5.07620099 -1.52221785 8.0444357 -3 11 C4.26 11 11.52 11 19 11 C19 11.33 19 11.66 19 12 C11.08 12 3.16 12 -5 12 C-2.75 3 -2.75 3 0 0 Z " fill="#0D9BDD" transform="translate(282,281)"/>
<path d="M0 0 C1.89551022 -0.05441656 3.7914792 -0.09298035 5.6875 -0.125 C6.74324219 -0.14820313 7.79898438 -0.17140625 8.88671875 -0.1953125 C12.02251859 0.00141271 14.17645373 0.66942346 17 2 C17 2.99 17 3.98 17 5 C15.9171875 4.7525 15.9171875 4.7525 14.8125 4.5 C12.13572455 4.02412881 9.71050513 3.922557 7 4 C7.33 3.34 7.66 2.68 8 2 C5.69 1.67 3.38 1.34 1 1 C1 4.3 1 7.6 1 11 C0.67 11 0.34 11 0 11 C0 7.37 0 3.74 0 0 Z " fill="#0895EF" transform="translate(160,265)"/>
<path d="M0 0 C8.25 0 16.5 0 25 0 C24.67 1.98 24.34 3.96 24 6 C23.01 6.495 23.01 6.495 22 7 C22 5.02 22 3.04 22 1 C15.07 1 8.14 1 1 1 C1 2.65 1 4.3 1 6 C0.67 6 0.34 6 0 6 C0 4.02 0 2.04 0 0 Z " fill="#1170A1" transform="translate(277,264)"/>
<path d="M0 0 C0.33 0 0.66 0 1 0 C1.33 2.31 1.66 4.62 2 7 C3.32 7 4.64 7 6 7 C6 6.01 6 5.02 6 4 C6.66 4 7.32 4 8 4 C7.34 5.98 6.68 7.96 6 10 C3.03 10 0.06 10 -3 10 C-2.01 6.7 -1.02 3.4 0 0 Z " fill="#1072A4" transform="translate(236,284)"/>
<path d="M0 0 C1.65 0 3.3 0 5 0 C4.67 3.3 4.34 6.6 4 10 C2.68 10 1.36 10 0 10 C0 6.7 0 3.4 0 0 Z " fill="#0196FC" transform="translate(161,282)"/>
<path d="M0 0 C3.184499 1.5922495 3.54842508 4.86094144 4.625 8.0625 C4.85445312 8.72572266 5.08390625 9.38894531 5.3203125 10.07226562 C5.88675776 11.71259669 6.44422923 13.35602157 7 15 C6.01 15.495 6.01 15.495 5 16 C5 14.68 5 13.36 5 12 C4.401875 11.938125 3.80375 11.87625 3.1875 11.8125 C0.12856542 10.6763243 -0.55041099 8.82669858 -2 6 C-1.34 5.67 -0.68 5.34 0 5 C0 3.35 0 1.7 0 0 Z " fill="#ABB0AF" transform="translate(131,221)"/>
<path d="M0 0 C-0.28875 0.70125 -0.5775 1.4025 -0.875 2.125 C-2.02133588 5.05452503 -3.02625654 8.00921653 -4 11 C-4.99 11 -5.98 11 -7 11 C-7.48798077 4.65625 -7.48798077 4.65625 -5.1875 1.5625 C-3 0 -3 0 0 0 Z " fill="#0D84CB" transform="translate(294,277)"/>
<path d="M0 0 C2.1875 0.3125 2.1875 0.3125 4 1 C4 3.64 4 6.28 4 9 C-0.67692308 7.52307692 -0.67692308 7.52307692 -2.3125 4.875 C-2.539375 4.25625 -2.76625 3.6375 -3 3 C-1.75 1.4375 -1.75 1.4375 0 0 Z " fill="#0397FA" transform="translate(329,266)"/>
<path d="M0 0 C2.5654594 2.5654594 2.54046087 4.47686668 3 8 C1.02 8.99 -0.96 9.98 -3 11 C-3.33 9.68 -3.66 8.36 -4 7 C-3.34 7 -2.68 7 -2 7 C-2.33 6.01 -2.66 5.02 -3 4 C-2.34 3.34 -1.68 2.68 -1 2 C-0.67 1.34 -0.34 0.68 0 0 Z " fill="#F4FBF3" transform="translate(129,218)"/>
<path d="M0 0 C2 2 2 2 2 6 C1.34 6 0.68 6 0 6 C-0.33 7.65 -0.66 9.3 -1 11 C-1.66 11 -2.32 11 -3 11 C-3 12.32 -3 13.64 -3 15 C-1.02 15 0.96 15 3 15 C3 15.33 3 15.66 3 16 C0.36 16 -2.28 16 -5 16 C-3.50723624 10.60308488 -1.80304155 5.30094216 0 0 Z " fill="#137CAF" transform="translate(319,278)"/>
<path d="M0 0 C3.3 0 6.6 0 10 0 C10 0.99 10 1.98 10 3 C8.906875 2.95875 7.81375 2.9175 6.6875 2.875 C2.91107771 2.67925334 2.91107771 2.67925334 0 5 C-0.66 5.99 -1.32 6.98 -2 8 C-1.47731534 5.23723823 -0.89130413 2.6739124 0 0 Z " fill="#0F699F" transform="translate(244,264)"/>
<path d="M0 0 C1.65 0 3.3 0 5 0 C5.33 0.66 5.66 1.32 6 2 C5.34 2 4.68 2 4 2 C3.67 3.65 3.34 5.3 3 7 C4.32 7.66 5.64 8.32 7 9 C5.02 9.33 3.04 9.66 1 10 C0.67 6.7 0.34 3.4 0 0 Z " fill="#096BAE" transform="translate(244,273)"/>
<path d="M0 0 C2 2 2 2 2 5 C1.01 5.495 1.01 5.495 0 6 C-0.33 6.99 -0.66 7.98 -1 9 C-0.34 9.33 0.32 9.66 1 10 C0.34 10.66 -0.32 11.32 -1 12 C-1.99 12 -2.98 12 -4 12 C-2.87204037 7.89100419 -1.66489182 3.92438786 0 0 Z " fill="#0E6FAB" transform="translate(241,272)"/>
<path d="M0 0 C0 3.3 0 6.6 0 10 C-1.65 9.67 -3.3 9.34 -5 9 C-4.34 8.01 -3.68 7.02 -3 6 C-3.33 5.01 -3.66 4.02 -4 3 C-1.125 0 -1.125 0 0 0 Z " fill="#E9EDEB" transform="translate(408,206)"/>
<path d="M0 0 C4.75 0.75 4.75 0.75 7 3 C7 3.99 7 4.98 7 6 C5.02 6 3.04 6 1 6 C0.67 4.02 0.34 2.04 0 0 Z " fill="#0A9AEF" transform="translate(256,287)"/>
<path d="M0 0 C2.67166939 1.97471216 3.04708506 3.18834025 3.875 6.5 C4 10 4 10 2.5625 11.9375 C2.046875 12.288125 1.53125 12.63875 1 13 C1.020625 11.96875 1.04125 10.9375 1.0625 9.875 C1.00723339 6.44847031 0.65449285 3.35427586 0 0 Z " fill="#1477A9" transform="translate(181,267)"/>
<path d="M0 0 C0.99 0.33 1.98 0.66 3 1 C3 3.64 3 6.28 3 9 C2.34 9 1.68 9 1 9 C1 8.01 1 7.02 1 6 C0.34 5.67 -0.32 5.34 -1 5 C-1.33 4.01 -1.66 3.02 -2 2 C-1.34 1.34 -0.68 0.68 0 0 Z " fill="#F3FBF3" transform="translate(155,235)"/>
<path d="M0 0 C1.37478516 0.01740234 1.37478516 0.01740234 2.77734375 0.03515625 C3.69644531 0.04417969 4.61554688 0.05320313 5.5625 0.0625 C6.27277344 0.07410156 6.98304688 0.08570313 7.71484375 0.09765625 C7.38484375 0.75765625 7.05484375 1.41765625 6.71484375 2.09765625 C5.05355912 2.45685293 3.38584352 2.78677257 1.71484375 3.09765625 C-0.51923738 4.08849592 -0.51923738 4.08849592 -2.28515625 5.09765625 C-2.84765625 3.16015625 -2.84765625 3.16015625 -3.28515625 1.09765625 C-2.28515625 0.09765625 -2.28515625 0.09765625 0 0 Z " fill="#F7FDF7" transform="translate(388.28515625,203.90234375)"/>
<path d="M0 0 C0.66 0 1.32 0 2 0 C2.125 5.75 2.125 5.75 1 8 C-1.97 8 -4.94 8 -8 8 C-8 7.67 -8 7.34 -8 7 C-5.69 6.34 -3.38 5.68 -1 5 C-0.67 3.35 -0.34 1.7 0 0 Z " fill="#0E76AD" transform="translate(175,272)"/>
<path d="M0 0 C0.5775 0.680625 1.155 1.36125 1.75 2.0625 C0.1 1.7325 -1.55 1.4025 -3.25 1.0625 C-3.25 1.7225 -3.25 2.3825 -3.25 3.0625 C-4.57 2.7325 -5.89 2.4025 -7.25 2.0625 C-6.25 -0.9375 -6.25 -0.9375 -4.4375 -1.875 C-2.25 -1.9375 -2.25 -1.9375 0 0 Z " fill="#B5B9B7" transform="translate(384.25,236.9375)"/>
<path d="M0 0 C2.64 0 5.28 0 8 0 C8.33 0.66 8.66 1.32 9 2 C7.02 2.99 5.04 3.98 3 5 C1 2 1 2 0 0 Z " fill="#F8FCF7" transform="translate(175,204)"/>
<path d="M0 0 C1.66905241 3.33810482 2.8741386 6.46157845 4 10 C2.68 9.67 1.36 9.34 0 9 C0 6.03 0 3.06 0 0 Z " fill="#0F73B0" transform="translate(337,274)"/>
<path d="M0 0 C1.2380014 3.57644848 0.74926071 6.33694766 0 10 C-0.99 10 -1.98 10 -3 10 C-2.39009109 6.44219804 -1.4216319 3.3171411 0 0 Z " fill="#1069A2" transform="translate(323,268)"/>
<path d="M0 0 C0.33 1.98 0.66 3.96 1 6 C-0.875 5.75 -0.875 5.75 -3 5 C-4.25 2.9375 -4.25 2.9375 -5 1 C-2 0 -2 0 0 0 Z " fill="#F4FCF6" transform="translate(166,204)"/>
<path d="M0 0 C0.33 0.66 0.66 1.32 1 2 C0.06421005 4.35981813 -0.93347808 6.69631264 -2 9 C-2.66 8.01 -3.32 7.02 -4 6 C-2.68 4.02 -1.36 2.04 0 0 Z " fill="#0F6BA6" transform="translate(282,281)"/>
<path d="M0 0 C0.33 0 0.66 0 1 0 C1 3.63 1 7.26 1 11 C0.01 11.495 0.01 11.495 -1 12 C-2.45606519 7.47907032 -1.27032841 4.48351204 0 0 Z " fill="#BCC1BF" transform="translate(213,232)"/>
<path d="M0 0 C0.66 0 1.32 0 2 0 C2 1.32 2 2.64 2 4 C2.99 4.66 3.98 5.32 5 6 C4.01 6.66 3.02 7.32 2 8 C1.71125 7.195625 1.4225 6.39125 1.125 5.5625 C0.26737432 2.8673532 0.26737432 2.8673532 -2 2 C-1.34 1.34 -0.68 0.68 0 0 Z " fill="#C4C8C7" transform="translate(268,229)"/>
<path d="M0 0 C0.66 0 1.32 0 2 0 C2 1.65 2 3.3 2 5 C1.34 5 0.68 5 0 5 C0.33 5.99 0.66 6.98 1 8 C0.01 7.67 -0.98 7.34 -2 7 C-1.34 4.69 -0.68 2.38 0 0 Z " fill="#F7FEF8" transform="translate(165,242)"/>
</svg>
