<svg height="-352" viewBox="-.36 95.21 250.83 59.8" width="2500" xmlns="http://www.w3.org/2000/svg"><path d="m78.4 129.28c-3.97-2.43-5.1-6.09-4.32-10.35.81-4.4 3.95-6.75 8.04-7.75 4.23-1.04 8.44-.86 12.3 1.5.63.39.93.03 1.31-.29 1.5-1.26 3.27-1.72 5.19-1.83.79-.05 1.04.24 1.01 1.01-.05 1.31-.04 2.63 0 3.95.02.65-.19.93-.87.89-.89-.04-1.79.03-2.67-.02-.82-.04-1.08.1-.88 1.04.83 3.9-.06 7.37-3.1 10.06-2.76 2.44-6.13 3.15-9.72 3.04-.51-.02-1.03-.02-1.52-.13-1.22-.25-1.96.14-2.19 1.41-.28 1.54.16 2.62 1.37 3.07.84.31 1.74.35 2.63.39 2.97.13 5.95-.18 8.91.21 2.93.39 5.69 1.16 6.85 4.25 1.27 3.38.81 6.62-1.48 9.47-2.73 3.39-6.52 4.78-10.66 5.33-3.53.48-7.04.27-10.39-1.11-3.89-1.6-5.75-4.95-4.84-8.72.51-2.11 1.85-3.58 3.69-4.65.38-.22.93-.32.28-.96-2.91-2.83-2.85-6.16.1-8.95.28-.26.6-.53.96-.86zm8.07 21.5c.95.04 1.87-.13 2.78-.33 1.89-.42 3.51-1.3 4.49-3.06 1.82-3.25.24-6.2-3.37-6.58-2.88-.3-5.76.24-8.63-.13-.53-.07-.75.34-.95.71-1.16 2.24-1.08 4.53 0 6.73 1.15 2.34 3.46 2.48 5.68 2.66zm-5-30.61c-.03 1.67.08 3.19.74 4.61.76 1.62 2.17 2.42 4.03 2.31 1.62-.1 2.9-1.12 3.36-2.84.66-2.46.69-4.95.01-7.42-.49-1.76-1.7-2.64-3.56-2.7-2.08-.07-3.37.7-4.04 2.42-.47 1.21-.6 2.47-.54 3.62zm32.94 6.56c0 2.59.05 5.18-.02 7.77-.03 1.03.31 1.46 1.32 1.52.65.04 1.61-.09 1.82.57.26.81.11 1.76.06 2.65-.03.48-.81.39-.81.39l-11.47.01s-.95-.21-.88-.88c.03-.29.04-.6 0-.89-.19-1.24.21-1.92 1.58-1.9.99.01 1.28-.52 1.28-1.53-.05-8.75-.05-17.49 0-26.24.01-1.15-.36-1.62-1.44-1.67-.17-.01-.34-.04-.5-.07-1.43-.22-2.12-1.57-1.53-2.91.15-.35.43-.36.72-.4 2.94-.41 5.88-.81 8.82-1.23.82-.12 1 .27.99 1.01-.02 3.35 0 6.71.02 10.06 0 .35-.23.84.18 1.03.38.17.69-.25.99-.45 2.56-1.74 5.33-2.73 8.49-2.56 3.51.19 5.65 1.95 6.35 5.46.42 2.09.52 4.21.51 6.33-.02 3.86.05 7.73-.04 11.59-.02 1.12.37 1.5 1.39 1.6.61.05 1.55-.13 1.74.47.26.85.12 1.84.1 2.77-.01.41-.69.37-.69.37l-11.47.01s-.81-.29-.8-.85c.01-.38.04-.77-.01-1.15-.13-1.01.32-1.52 1.31-1.56 1.06-.05 1.38-.55 1.35-1.63-.14-4.84.16-9.68-.18-14.51-.26-3.66-2.11-4.95-5.67-3.99-.25.07-.49.15-.73.22-2.57.8-2.79 1.09-2.79 3.71.01 2.3.01 4.59.01 6.88zm-110.86-4.17c0-4.75-.02-9.51.02-14.26.01-.92-.17-1.47-1.19-1.45-.16 0-.33-.07-.5-.1-1.56-.27-2.24-1.47-1.69-2.92.14-.37.41-.38.7-.42 2.98-.41 5.97-.81 8.94-1.24.85-.12.88.33.88.96-.01 3.01-.01 6.03 0 9.04 0 .4-.18.96.27 1.16.36.16.66-.3.96-.52 4.73-3.51 12.46-2.61 14.89 4.48 1.89 5.51 1.91 11.06-.96 16.28-2.37 4.31-6.19 6.49-11.15 6.59-3.38.07-6.68-.3-9.91-1.37-.93-.31-1.3-.78-1.28-1.83.05-4.81.02-9.6.02-14.4zm7.15 3.89c0 2.76.02 5.52-.01 8.28-.01.76.18 1.29.91 1.64 1.9.9 4.3.5 5.76-1.01.97-1 1.56-2.21 1.96-3.52 1.03-3.36.97-6.78.61-10.22a9.991 9.991 0 0 0 -.93-3.29c-1.47-3.06-4.67-3.85-7.44-1.86-.6.43-.88.93-.87 1.7.04 2.76.01 5.52.01 8.28z" fill="#4280f6"/><path d="m181.46 137.2c-1.62 1.46-3.41 2.56-5.62 2.96-4.4.8-8.7-1.39-10.49-5.49-2.31-5.31-2.3-10.67-.1-15.98 2.31-5.58 8.29-8.65 14.24-7.46 1.71.34 1.9.18 1.9-1.55 0-.68-.05-1.36.01-2.04.09-1.02-.25-1.54-1.34-1.43-.64.06-1.26-.1-1.88-.21-1.32-.24-1.6-.62-1.37-1.97.07-.41.25-.57.65-.62 2.63-.33 5.27-.66 7.9-1.02 1.04-.14 1.17.37 1.17 1.25-.02 10.23-.02 20.45-.01 30.68v1.02c.02.99.35 1.6 1.52 1.47.52-.06 1.35-.27 1.25.73-.08.8.58 1.93-.94 2.18-1.29.22-2.51.69-3.86.65-2.04-.06-2.3-.23-2.76-2.19-.09-.3.06-.67-.27-.98zm-.07-12.46c0-2.8-.04-5.6.02-8.39.02-.9-.28-1.47-1.05-1.81-3.18-1.4-7.54-.8-9.3 2.87-.83 1.74-1.31 3.54-1.49 5.46-.28 2.93-.38 5.83.61 8.65.73 2.09 1.81 3.9 4.11 4.67 2.49.83 4.55-.04 6.5-1.48.54-.4.62-.95.61-1.57-.02-2.8-.01-5.6-.01-8.4zm28.79 2.53c0 3.24.04 5.83-.02 8.41-.02 1 .19 1.49 1.31 1.41.55-.04 1.46-.46 1.52.73.05 1.02.1 1.89-1.33 2.08-1.29.17-2.56.51-3.89.48-1.88-.05-2.15-.26-2.42-2.15-.04-.27.14-.65-.22-.79-.34-.13-.5.24-.72.42-3.61 3-8.15 3.4-11.64 1.08-1.61-1.07-2.49-2.63-2.67-4.43-.51-5.13.77-7.91 6.3-10.22 2.44-1.02 5.07-1.27 7.68-1.49.77-.07 1.03-.28 1.02-1.05-.03-1.48-.05-2.94-.64-4.36s-1.67-1.92-3.08-2.03c-3.04-.24-5.88.5-8.63 1.71-.51.23-1.19.75-1.48-.13-.26-.77-1.35-1.61.05-2.47 3.27-2 6.7-3.44 10.61-3.42 1.44.01 2.88.27 4.21.81 2.67 1.08 3.44 3.4 3.8 5.99.46 3.37.1 6.73.24 9.42zm-5.09 2.9c0-1.23-.01-2.46 0-3.69 0-.52-.06-.98-.75-.84-1.45.3-2.93.28-4.37.69-3.71 1.04-5.46 4.48-3.97 8.03.51 1.22 1.48 1.98 2.79 2.16 2.01.28 3.86-.29 5.6-1.28.54-.31.73-.76.72-1.37-.05-1.23-.02-2.47-.02-3.7zm43.06-2.89c0 2.72.01 5.43-.01 8.15 0 .66.02 1.21.91 1.12.54-.06.99.12.86.75-.15.71.56 1.7-.58 2.09-1.55.52-3.16.59-4.77.4-.99-.12-1.12-1.01-1.18-1.73-.08-1.15-.16-1.45-1.24-.54-3.41 2.87-8.05 3.17-11.43.88-1.75-1.18-2.49-2.91-2.7-4.94-.64-6.24 3.16-8.74 7.83-10.17 2.04-.62 4.14-.8 6.24-.99.81-.07 1-.36.98-1.09-.04-1.31.04-2.62-.42-3.89-.57-1.57-1.53-2.34-3.18-2.45-3.03-.21-5.88.46-8.64 1.66-.6.26-1.25.81-1.68-.2-.34-.8-1.08-1.61.16-2.36 4.12-2.5 8.44-4.16 13.36-3.07 3.21.71 4.89 2.91 5.26 6.34.18 1.69.22 3.37.22 5.07.01 1.66.01 3.32.01 4.97zm-5.09 2.54c0-1.27-.03-2.54.01-3.81.02-.74-.27-1.02-.98-.92-1.21.17-2.43.28-3.62.55-3.72.83-5.47 3.48-4.82 7.21.29 1.66 1.57 2.94 3.21 3.16 2.02.27 3.85-.34 5.57-1.34.49-.29.64-.73.63-1.29-.02-1.18 0-2.37 0-3.56z" fill="#c8dbfb"/><path d="m139.13 125.77c0-2.89-.05-5.77.02-8.66.03-1.04-.33-1.39-1.31-1.24a.7.7 0 0 1 -.25 0c-.57-.18-1.44.48-1.68-.58-.35-1.48-.02-2.3 1.21-2.7 1.3-.43 2.16-1.26 2.76-2.46.78-1.56 1.44-3.17 1.91-4.84.18-.63.47-.86 1.15-.88 3.28-.09 3.27-.11 3.32 3.17.01 1.06.09 2.12.09 3.18-.01.67.27.89.91.88 1.61-.02 3.23.03 4.84-.02.77-.02 1.01.23 1.03 1.01.08 3.27.1 3.27-3.09 3.27-.93 0-1.87.03-2.8-.01-.67-.02-.89.26-.88.91.04 5.43.04 10.86.12 16.29.02 1.7.75 2.26 2.46 2.1 1.1-.1 2.19-.26 3.23-.65.59-.22.89-.09 1.14.53.93 2.29.92 2.37-1.32 3.52-2.54 1.3-5.22 1.99-8.1 1.79-2.27-.16-3.68-1.27-4.35-3.45-.3-.98-.41-1.99-.41-3.01zm-97.67-8.99c.57-.84 1.11-1.74 1.76-2.55 1.68-2.09 3.68-3.62 6.54-3.66 1.08-.01 1.63.28 1.57 1.52-.1 2.08-.05 4.16-.02 6.24.01.74-.17.96-.96.76-2.36-.59-4.71-.42-7.03.28-.8.24-1.16.62-1.15 1.52.05 4.5.04 9 0 13.5-.01.89.29 1.16 1.15 1.2 1.23.06 2.44.32 3.67.39.75.05.91.38.89 1.04-.06 2.86.29 2.28-2.25 2.3-4.2.04-8.41-.02-12.61.03-.91.01-1.39-.18-1.22-1.18.02-.12 0-.25 0-.38.02-2.1-.24-1.88 1.77-2.04 1.33-.11 1.6-.67 1.58-1.9-.07-5.35-.04-10.7-.02-16.05 0-.78-.17-1.2-1-1.46-2.21-.68-2.7-1.69-2.22-3.99.11-.52.45-.56.82-.62 2.22-.34 4.44-.7 6.67-.99.99-.13 1.82.7 1.84 1.76.03 1.4.03 2.8.04 4.2-.01.02.06.04.18.08zm25.24 6.59c0 3.69.04 7.38-.03 11.07-.02 1.04.31 1.48 1.32 1.49.29 0 .59.12.88.13.93.01 1.18.47 1.16 1.37-.05 2.19 0 2.19-2.24 2.19-3.48 0-6.96-.04-10.44.03-1.09.02-1.47-.33-1.3-1.36.02-.12.02-.26 0-.38-.28-1.39.39-1.96 1.7-1.9 1.36.06 1.76-.51 1.74-1.88-.09-5.17-.08-10.35 0-15.53.02-1.22-.32-1.87-1.52-2.17-.57-.14-1.47-.11-1.57-.85-.15-1.04-.05-2.11.01-3.17.02-.34.44-.35.73-.39 2.81-.39 5.63-.77 8.44-1.18.92-.14 1.15.2 1.14 1.09-.04 3.8-.02 7.62-.02 11.44z" fill="#4280f6"/><path d="m214.26 125.64c0-3.18-.03-6.37.02-9.55.02-.94-.26-1.36-1.22-1.22-.21.03-.43.04-.63 0-.51-.12-1.35.39-1.44-.55-.08-.85-.43-1.87.93-2.24 2.08-.57 2.72-2.39 3.35-4.17.31-.88.62-1.76.87-2.66.18-.64.52-.85 1.19-.84 2.46.05 2-.15 2.04 2.04.02 1.1.08 2.21-.02 3.31-.11 1.16.46 1.52 1.46 1.53 1.78.01 3.57.04 5.35-.01.82-.02 1.12.23 1.11 1.08-.05 2.86.19 2.49-2.42 2.51-1.53.01-3.06.02-4.59-.01-.65-.01-.9.22-.9.89.02 5.52 0 11.04.03 16.56 0 .67.14 1.34.25 2.01.17 1.04 1.17 1.62 2.59 1.42 1.29-.19 2.57-.49 3.86-.69.43-.07 1.05-.47 1.19.4.12.75 1.05 1.61-.09 2.24-2.09 1.16-4.28 2.07-6.71 2.16-1.05.04-2.13.2-3.16-.14-1.92-.65-3.03-2.28-3.05-4.51-.02-3.19-.01-6.37-.01-9.56z" fill="#c8dbfb"/><path d="m62 95.21c.19 2.16 1.85 3.24 2.82 4.74.25.38.48.11.67-.16.21-.31.6-1.21 1.15-1.28-.35 1.38-.04 3.15.16 4.45.49 3.05-1.22 5.64-4.07 6.18-3.38.65-6.22-2.21-5.6-5.62.23-1.24 1.37-2.5.77-3.7-.85-1.7.54-.52.79-.22 1.04 1.2 1.21.09 1.45-.55.24-.63.31-1.31.47-1.97.19-.77.55-1.4 1.39-1.87z" fill="#4280f6"/></svg>