<svg width="362" height="246" viewBox="0 0 362 246" fill="none" xmlns="http://www.w3.org/2000/svg">
<path d="M255.407 36.2761C207.644 -11.661 130.191 -11.661 82.427 36.2761L4.35891 114.626C-0.255949 119.262 -0.255949 126.728 4.35891 131.364L82.427 209.714C130.191 257.651 207.644 257.651 255.407 209.793C303.248 161.934 303.248 84.2132 255.407 36.2761ZM236.948 186.767C201.875 221.973 144.958 221.973 109.885 186.767L52.4304 129.164C49.0461 125.785 49.0461 120.284 52.4304 116.826L109.808 59.3016C144.881 24.0953 201.798 24.0953 236.871 59.3016C272.021 94.5078 272.021 151.561 236.948 186.767Z" fill="#00B3FF"/>
<path d="M357.699 114.704L323.318 79.5765C321.241 77.4547 317.78 79.4193 318.472 82.327C324.395 109.125 324.395 137.101 318.472 163.899C317.857 166.806 321.318 168.692 323.318 166.649L357.699 131.521C362.237 126.806 362.237 119.341 357.699 114.704Z" fill="#00B3FF"/>
<path d="M173.799 184.646C207.059 184.646 234.023 157.097 234.023 123.113C234.023 89.13 207.059 61.5811 173.799 61.5811C140.538 61.5811 113.575 89.13 113.575 123.113C113.575 157.097 140.538 184.646 173.799 184.646Z" fill="#00B3FF"/>
</svg>
