<svg width="32" height="32" viewBox="0 0 32 32" fill="none" xmlns="http://www.w3.org/2000/svg">
<circle cx="16" cy="16" r="3" fill="#424143" stroke="#424143" stroke-width="2"/>
<circle cx="26" cy="6" r="2" fill="#424143" stroke="#424143" stroke-width="2"/>
<path d="M18.5 13.5L24.5 7.5" stroke="#424143" stroke-width="2" stroke-linecap="round" stroke-linejoin="round"/>
<path d="M16 27C22.0751 27 27 22.0751 27 16C27 14.3968 26.657 12.8736 26.0404 11.5L22.5247 15C22.5743 15.3261 22.6 15.6601 22.6 16C22.6 19.6451 19.6451 22.6 16 22.6C12.3549 22.6 9.4 19.6451 9.4 16C9.4 12.3549 12.3549 9.4 16 9.4C16.3399 9.4 16.6739 9.4257 17 9.47527L20.4094 5.9194C19.0595 5.3281 17.5681 5 16 5C9.92487 5 5 9.92487 5 16C5 22.0751 9.92487 27 16 27Z" fill="#94D609"/>
<path d="M17 9.47527L16.8497 10.4639C17.1714 10.5128 17.4967 10.4022 17.7218 10.1674L17 9.47527ZM20.4094 5.9194L21.1312 6.61149C21.3573 6.37567 21.454 6.04428 21.3901 5.72389C21.3262 5.4035 21.1099 5.13451 20.8106 5.00343L20.4094 5.9194ZM22.5247 15L21.8192 14.2913C21.5934 14.5162 21.4882 14.8352 21.5361 15.1503L22.5247 15ZM26.0404 11.5L26.9527 11.0905C26.8182 10.7909 26.5452 10.5764 26.2223 10.5167C25.8993 10.457 25.5676 10.5596 25.3349 10.7913L26.0404 11.5ZM26 16C26 21.5228 21.5228 26 16 26V28C22.6274 28 28 22.6274 28 16H26ZM16 26C10.4772 26 6 21.5228 6 16H4C4 22.6274 9.37258 28 16 28V26ZM6 16C6 10.4772 10.4772 6 16 6V4C9.37258 4 4 9.37258 4 16H6ZM21.6 16C21.6 19.0928 19.0928 21.6 16 21.6V23.6C20.1974 23.6 23.6 20.1974 23.6 16H21.6ZM16 21.6C12.9072 21.6 10.4 19.0928 10.4 16H8.4C8.4 20.1974 11.8026 23.6 16 23.6V21.6ZM10.4 16C10.4 12.9072 12.9072 10.4 16 10.4V8.4C11.8026 8.4 8.4 11.8026 8.4 16H10.4ZM16 10.4C16.2895 10.4 16.5732 10.4219 16.8497 10.4639L17.1503 8.48662C16.7746 8.42952 16.3904 8.4 16 8.4V10.4ZM16 6C17.4274 6 18.7824 6.29844 20.0082 6.83538L20.8106 5.00343C19.3366 4.35776 17.7088 4 16 4V6ZM17.7218 10.1674L21.1312 6.61149L19.6876 5.22732L16.2782 8.78318L17.7218 10.1674ZM21.5361 15.1503C21.5781 15.4268 21.6 15.7105 21.6 16H23.6C23.6 15.6096 23.5705 15.2254 23.5134 14.8497L21.5361 15.1503ZM25.1281 11.9095C25.688 13.1569 26 14.5407 26 16H28C28 14.2529 27.626 12.5904 26.9527 11.0905L25.1281 11.9095ZM23.2303 15.7087L26.7459 12.2087L25.3349 10.7913L21.8192 14.2913L23.2303 15.7087Z" fill="#94D609"/>
</svg>
