<svg xmlns="http://www.w3.org/2000/svg" viewBox="0 0 32 32" width="64" height="64"><path d="M32 16.77c0-2.678-1.664-5.03-4.166-5.937a9.14 9.14 0 0 0 .162-1.718c0-5-4.057-9.048-9.035-9.048-2.92 0-5.626 1.393-7.33 3.746a4.78 4.78 0 0 0-2.935-1c-2.65 0-4.8 2.15-4.8 4.8 0 .582.108 1.15.298 1.677A6.36 6.36 0 0 0 0 15.243a6.31 6.31 0 0 0 4.179 5.951 9.02 9.02 0 0 0-.162 1.718 9.03 9.03 0 0 0 9.021 9.021c2.92 0 5.626-1.407 7.317-3.76.84.663 1.866 1.028 2.935 1.028 2.65 0 4.8-2.15 4.8-4.8 0-.582-.108-1.15-.298-1.677A6.37 6.37 0 0 0 32 16.771" fill="#fff"/><path d="M12.578 13.795l7.006 3.192 7.06-6.194a7.4 7.4 0 0 0 .149-1.555 7.91 7.91 0 0 0-7.899-7.899 7.89 7.89 0 0 0-6.505 3.435l-1.177 6.1z" fill="#fed10a"/><path d="M5.33 21.207a7.66 7.66 0 0 0-.15 1.582c0 4.37 3.557 7.912 7.926 7.912a7.92 7.92 0 0 0 6.546-3.462l1.163-6.073-1.555-2.975-7.033-3.205z" fill="#24bbb1"/><path d="M5.288 9.09l4.8 1.136 1.055-5.45c-.65-.5-1.46-.77-2.3-.77A3.79 3.79 0 0 0 5.058 7.79c0 .446.08.893.23 1.298" fill="#ef5098"/><path d="M4.87 10.238c-2.137.703-3.638 2.76-3.638 5.018 0 2.205 1.366 4.166 3.408 4.95l6.735-6.086-1.23-2.637z" fill="#17a8e0"/><path d="M20.87 27.24a3.8 3.8 0 0 0 2.286.784 3.79 3.79 0 0 0 3.787-3.787 3.82 3.82 0 0 0-.23-1.312l-4.788-1.123z" fill="#93c83e"/><path d="M21.843 20.544l5.275 1.23a5.33 5.33 0 0 0 3.638-5.031 5.29 5.29 0 0 0-3.408-4.937l-6.898 6.046z" fill="#0779a1"/></svg>