<svg fill="#000000" height="200px" width="200px" version="1.1" id="Layer_1" xmlns="http://www.w3.org/2000/svg" xmlns:xlink="http://www.w3.org/1999/xlink" viewBox="0 0 512 512" xml:space="preserve" stroke="#000000" stroke-width="0.00512"><g id="SVGRepo_bgCarrier" stroke-width="0"></g><g id="SVGRepo_tracerCarrier" stroke-linecap="round" stroke-linejoin="round"></g><g id="SVGRepo_iconCarrier"> <g> <g> <path d="M469.056,297.773h-43.217c-9.425,0-17.067,7.641-17.067,17.067v63.243c0,11.25-9.152,20.403-20.403,20.403 s-20.403-9.152-20.403-20.403V235.55c19.267-27.92,30.092-61.164,30.092-93.49C398.058,63.728,334.331,0,255.999,0 s-142.06,63.728-142.06,142.06c0,32.327,10.825,65.57,30.092,93.49v144.222c0,11.25-9.152,20.403-20.403,20.403 c-11.25,0-20.403-9.152-20.403-20.403v-63.243c0-9.425-7.641-17.067-17.067-17.067H42.942c-9.425,0-17.067,7.641-17.067,17.067 c0,9.425,7.641,17.067,17.067,17.067h26.151v46.177c0,30.071,24.465,54.536,54.536,54.536c30.071,0,54.536-24.464,54.536-54.536 V271.981c8.363,6.505,17.178,11.933,26.332,16.211v116.185c0,40.522-32.968,73.489-73.49,73.489 c-9.425,0-17.067,7.641-17.067,17.067S121.581,512,131.006,512c59.343,0,107.624-48.279,107.624-107.622V298.542 c5.734,0.85,11.533,1.282,17.37,1.282c5.838,0,11.636-0.432,17.37-1.282v105.836c0,59.343,48.28,107.622,107.624,107.622 c9.425,0,17.067-7.641,17.067-17.067s-7.641-17.067-17.067-17.067c-40.522,0-73.49-32.967-73.49-73.489V288.192 c9.152-4.278,17.968-9.706,26.332-16.211v106.103c0,30.071,24.464,54.536,54.536,54.536s54.536-24.465,54.536-54.536v-46.177 h26.151c9.425,0,17.067-7.641,17.067-17.067S478.481,297.773,469.056,297.773z M255.999,265.69 c-59.175,0-107.926-63.631-107.926-123.631c0-59.51,48.415-107.926,107.926-107.926S363.925,82.549,363.925,142.06 C363.925,202.198,315.048,265.69,255.999,265.69z"></path> </g> </g> <g> <g> <circle cx="209.669" cy="204.174" r="22.577"></circle> </g> </g> <g> <g> <circle cx="303.012" cy="204.174" r="22.577"></circle> </g> </g> </g></svg>