<svg width="24" height="24" viewBox="0 0 24 24" fill="none" xmlns="http://www.w3.org/2000/svg">
<path d="M19.7238 3.86898C19.7238 4.57597 19.1502 5.1491 18.4427 5.1491C17.7352 5.1491 17.1616 4.57597 17.1616 3.86898C17.1616 3.16199 17.7352 2.58887 18.4427 2.58887C19.1502 2.58887 19.7238 3.16199 19.7238 3.86898Z" fill="url(#paint0_linear_8609_1645)"/>
<path d="M19.7238 3.86898C19.7238 4.57597 19.1502 5.1491 18.4427 5.1491C17.7352 5.1491 17.1616 4.57597 17.1616 3.86898C17.1616 3.16199 17.7352 2.58887 18.4427 2.58887C19.1502 2.58887 19.7238 3.16199 19.7238 3.86898Z" fill="#010101"/>
<path d="M15.3681 5.1491C15.3681 5.85609 14.7945 6.42921 14.087 6.42921C13.3794 6.42921 12.8059 5.85609 12.8059 5.1491C12.8059 4.44211 13.3794 3.86898 14.087 3.86898C14.7945 3.86898 15.3681 4.44211 15.3681 5.1491Z" fill="url(#paint1_linear_8609_1645)"/>
<path d="M15.3681 5.1491C15.3681 5.85609 14.7945 6.42921 14.087 6.42921C13.3794 6.42921 12.8059 5.85609 12.8059 5.1491C12.8059 4.44211 13.3794 3.86898 14.087 3.86898C14.7945 3.86898 15.3681 4.44211 15.3681 5.1491Z" fill="#010101"/>
<path fill-rule="evenodd" clip-rule="evenodd" d="M8.05175 11.2368C8.05175 13.4605 9.14375 15.4293 10.8211 16.6371C11.8241 15.7389 12.4551 14.4345 12.4551 12.9828V9.39673C12.4551 8.85661 12.8197 8.38448 13.3426 8.24757L19.8924 6.53265C20.6459 6.33534 21.3826 6.90341 21.3826 7.6818L21.3826 12.0452C21.3826 17.2179 17.1861 21.4111 12.0095 21.4111L11.9942 21.4111C6.81758 21.4111 2.62109 17.2179 2.62109 12.0452V9.03388C2.62109 8.49175 2.9884 8.01839 3.51385 7.88336L6.56677 7.09882C7.31904 6.9055 8.05175 7.47318 8.05175 8.24934V11.2368ZM3.9798 12.0452C3.9798 13.8476 4.57565 15.5108 5.58124 16.849C6.04996 17.4728 6.7655 17.8884 7.54573 17.8884V17.8884C8.28848 17.8884 8.9927 17.7236 9.62376 17.4286C7.83439 15.9596 6.69304 13.7314 6.69304 11.2368V8.46821L3.9798 9.16546V12.0452Z" fill="url(#paint2_linear_8609_1645)"/>
<path fill-rule="evenodd" clip-rule="evenodd" d="M8.05175 11.2368C8.05175 13.4605 9.14375 15.4293 10.8211 16.6371C11.8241 15.7389 12.4551 14.4345 12.4551 12.9828V9.39673C12.4551 8.85661 12.8197 8.38448 13.3426 8.24757L19.8924 6.53265C20.6459 6.33534 21.3826 6.90341 21.3826 7.6818L21.3826 12.0452C21.3826 17.2179 17.1861 21.4111 12.0095 21.4111L11.9942 21.4111C6.81758 21.4111 2.62109 17.2179 2.62109 12.0452V9.03388C2.62109 8.49175 2.9884 8.01839 3.51385 7.88336L6.56677 7.09882C7.31904 6.9055 8.05175 7.47318 8.05175 8.24934V11.2368ZM3.9798 12.0452C3.9798 13.8476 4.57565 15.5108 5.58124 16.849C6.04996 17.4728 6.7655 17.8884 7.54573 17.8884V17.8884C8.28848 17.8884 8.9927 17.7236 9.62376 17.4286C7.83439 15.9596 6.69304 13.7314 6.69304 11.2368V8.46821L3.9798 9.16546V12.0452Z" fill="#010101"/>
<defs>
<linearGradient id="paint0_linear_8609_1645" x1="14.3898" y1="8.36821" x2="13.1876" y2="19.4461" gradientUnits="userSpaceOnUse">
<stop stop-color="white"/>
<stop offset="1" stop-color="#2E2E2E"/>
</linearGradient>
<linearGradient id="paint1_linear_8609_1645" x1="14.3898" y1="8.36821" x2="13.1876" y2="19.4461" gradientUnits="userSpaceOnUse">
<stop stop-color="white"/>
<stop offset="1" stop-color="#2E2E2E"/>
</linearGradient>
<linearGradient id="paint2_linear_8609_1645" x1="14.3898" y1="8.36821" x2="13.1876" y2="19.4461" gradientUnits="userSpaceOnUse">
<stop stop-color="white"/>
<stop offset="1" stop-color="#2E2E2E"/>
</linearGradient>
</defs>
</svg>
