<svg width="32" height="32" viewBox="0 0 32 32" fill="none" xmlns="http://www.w3.org/2000/svg">
<path d="M5 10C5 10.7956 5.31607 11.5587 5.87868 12.1213C6.44129 12.6839 7.20435 13 8 13C8.79565 13 9.55871 12.6839 10.1213 12.1213C10.6839 11.5587 11 10.7956 11 10C11 9.20435 10.6839 8.44129 10.1213 7.87868C9.55871 7.31607 8.79565 7 8 7C7.20435 7 6.44129 7.31607 5.87868 7.87868C5.31607 8.44129 5 9.20435 5 10Z" stroke="black" stroke-width="2" stroke-linecap="round" stroke-linejoin="round"/>
<path d="M20 19.5C20 20.163 20.2634 20.7989 20.7322 21.2678C21.2011 21.7366 21.837 22 22.5 22C23.163 22 23.7989 21.7366 24.2678 21.2678C24.7366 20.7989 25 20.163 25 19.5C25 18.837 24.7366 18.2011 24.2678 17.7322C23.7989 17.2634 23.163 17 22.5 17C21.837 17 21.2011 17.2634 20.7322 17.7322C20.2634 18.2011 20 18.837 20 19.5Z" stroke="black" stroke-width="2" stroke-linecap="round" stroke-linejoin="round"/>
<path d="M19 8.5C19 9.42826 19.3687 10.3185 20.0251 10.9749C20.6815 11.6313 21.5717 12 22.5 12C23.4283 12 24.3185 11.6313 24.9749 10.9749C25.6313 10.3185 26 9.42826 26 8.5C26 7.57174 25.6313 6.6815 24.9749 6.02513C24.3185 5.36875 23.4283 5 22.5 5C21.5717 5 20.6815 5.36875 20.0251 6.02513C19.3687 6.6815 19 7.57174 19 8.5Z" stroke="black" stroke-width="2" stroke-linecap="round" stroke-linejoin="round"/>
<path d="M5 23C5 24.0609 5.42143 25.0783 6.17157 25.8284C6.92172 26.5786 7.93913 27 9 27C10.0609 27 11.0783 26.5786 11.8284 25.8284C12.5786 25.0783 13 24.0609 13 23C13 21.9391 12.5786 20.9217 11.8284 20.1716C11.0783 19.4214 10.0609 19 9 19C7.93913 19 6.92172 19.4214 6.17157 20.1716C5.42143 20.9217 5 21.9391 5 23Z" stroke="black" stroke-width="2" stroke-linecap="round" stroke-linejoin="round"/>
<path d="M13 22L20 20" stroke="black" stroke-width="2" stroke-linecap="round" stroke-linejoin="round"/>
<path d="M10.5 12L20 18" stroke="black" stroke-width="2" stroke-linecap="round" stroke-linejoin="round"/>
<path d="M11 9.5L18.5 8.5" stroke="black" stroke-width="2" stroke-linecap="round" stroke-linejoin="round"/>
</svg>
