<svg width="186" height="201" viewBox="0 0 186 201" fill="none" xmlns="http://www.w3.org/2000/svg">
<path fill-rule="evenodd" clip-rule="evenodd" d="M128.655 152.647C155.75 147.407 176.278 123.511 176.278 94.9006C176.278 62.4635 149.902 36.0776 117.465 36.0776H68.5354C36.1076 36.0776 9.72168 62.4728 9.72168 94.9006C9.72168 123.501 30.2472 147.402 57.3405 152.645L65.6671 136.453C58.5526 135.942 51.9256 133.639 46.2369 129.993C34.6481 122.604 26.9472 109.635 26.9472 94.9006C26.9472 77.1031 38.1822 61.8824 53.933 55.9577C58.5213 54.1503 63.4934 53.1464 68.6835 53.1464H117.325C136.127 53.1464 152.063 65.6519 157.253 82.782C158.423 86.6177 159.053 90.6869 159.053 94.9006C159.053 96.6214 158.948 98.3181 158.744 99.9846C156.412 120.353 140.29 135.03 120.332 136.462L128.655 152.647ZM87.0772 136.489L78.9482 151.404L81.2582 153.714H104.741L107.051 151.404L98.9222 136.489H87.0772Z" fill="#985AE5"/>
<path d="M97.4464 118.474H117.66C130.904 118.474 141.689 107.699 141.689 94.446C141.689 81.1927 130.914 70.4175 117.66 70.4175H69.0187C55.7748 70.4175 44.9902 81.1927 44.9902 94.446C44.9902 107.699 55.7655 118.474 69.0187 118.474H97.4464ZM79.3021 150.949L93.3535 165L107.405 150.949L93.3535 125.166L79.3021 150.949Z" fill="#EEBEFF"/>
</svg>
