<svg xmlns="http://www.w3.org/2000/svg"  viewBox="0 0 48 48" width="96px" height="96px" fill-rule="evenodd" clip-rule="evenodd" baseProfile="basic"><linearGradient id="pg10I3OeSC0NOv22QZ6aWa" x1="-209.942" x2="-179.36" y1="-3.055" y2="27.526" gradientTransform="translate(208.979 6.006)" gradientUnits="userSpaceOnUse"><stop offset="0" stop-color="#55adfd"/><stop offset="1" stop-color="#438ffd"/></linearGradient><path fill="url(#pg10I3OeSC0NOv22QZ6aWa)" d="M39.001,13.999v27c0,1.105-0.896,2-2,2h-26	c-1.105,0-2-0.895-2-2v-34c0-1.104,0.895-2,2-2h19l2,7L39.001,13.999z"/><path fill="#fff" fill-rule="evenodd" d="M15.999,18.001v2.999	h17.002v-2.999H15.999z" clip-rule="evenodd"/><path fill="#fff" fill-rule="evenodd" d="M16.001,24.001v2.999	h17.002v-2.999H16.001z" clip-rule="evenodd"/><path fill="#fff" fill-rule="evenodd" d="M15.999,30.001v2.999	h12.001v-2.999H15.999z" clip-rule="evenodd"/><linearGradient id="pg10I3OeSC0NOv22QZ6aWb" x1="-197.862" x2="-203.384" y1="-4.632" y2=".89" gradientTransform="translate(234.385 12.109)" gradientUnits="userSpaceOnUse"><stop offset="0" stop-color="#427fdb"/><stop offset="1" stop-color="#0c52bb"/></linearGradient><path fill="url(#pg10I3OeSC0NOv22QZ6aWb)" d="M30.001,13.999l0.001-9l8.999,8.999L30.001,13.999z"/></svg>