<svg id="uuid-6b8380c3-0ee5-4c44-92a2-f185c82db6ba" xmlns="http://www.w3.org/2000/svg" width="18" height="18" viewBox="0 0 18 18"><defs><linearGradient id="uuid-05876c72-8f26-40da-996e-a488172ec072" x1="-603.563" y1="-218.378" x2="-606.6" y2="-206.22" gradientTransform="translate(617.126 -205.758) scale(1 -1)" gradientUnits="userSpaceOnUse"><stop offset="0" stop-color="#712575" /><stop offset=".09" stop-color="#9a2884" /><stop offset=".18" stop-color="#bf2c92" /><stop offset=".27" stop-color="#da2e9c" /><stop offset=".34" stop-color="#eb30a2" /><stop offset=".4" stop-color="#f131a5" /><stop offset=".5" stop-color="#ec30a3" /><stop offset=".61" stop-color="#df2f9e" /><stop offset=".72" stop-color="#c92d96" /><stop offset=".83" stop-color="#aa2a8a" /><stop offset=".95" stop-color="#83267c" /><stop offset="1" stop-color="#712575" /></linearGradient><linearGradient id="uuid-c4a2f627-d730-447e-9152-62009c64c361" x1="-602.412" y1="-206.025" x2="-602.412" y2="-223.175" gradientTransform="translate(617.126 -205.758) scale(1 -1)" gradientUnits="userSpaceOnUse"><stop offset="0" stop-color="#da7ed0" /><stop offset=".08" stop-color="#b17bd5" /><stop offset=".19" stop-color="#8778db" /><stop offset=".3" stop-color="#6276e1" /><stop offset=".41" stop-color="#4574e5" /><stop offset=".54" stop-color="#2e72e8" /><stop offset=".67" stop-color="#1d71eb" /><stop offset=".81" stop-color="#1471ec" /><stop offset="1" stop-color="#1171ed" /></linearGradient><linearGradient id="uuid-5a4cf215-4932-4f12-8af1-1b6833df259c" x1="-603.438" y1="-206.414" x2="-614.807" y2="-224.644" gradientTransform="translate(617.126 -205.758) scale(1 -1)" gradientUnits="userSpaceOnUse"><stop offset="0" stop-color="#da7ed0" /><stop offset=".05" stop-color="#b77bd4" /><stop offset=".11" stop-color="#9079da" /><stop offset=".18" stop-color="#6e77df" /><stop offset=".25" stop-color="#5175e3" /><stop offset=".33" stop-color="#3973e7" /><stop offset=".42" stop-color="#2772e9" /><stop offset=".54" stop-color="#1a71eb" /><stop offset=".68" stop-color="#1371ec" /><stop offset="1" stop-color="#1171ed" /></linearGradient></defs><path d="m12.061.012c.534,0,1.008.401,1.178.984s1.166,4.19,1.166,4.19v7.166h-3.607l.073-12.352h1.19v.012Z" fill="url(#uuid-05876c72-8f26-40da-996e-a488172ec072)" fill-rule="evenodd" stroke-width="0" /><path d="m17.356,5.611c0-.255-.206-.449-.449-.449h-2.126c-1.494,0-2.709,1.215-2.709,2.709v4.494h2.575c1.494,0,2.709-1.215,2.709-2.709v-4.045Z" fill="url(#uuid-c4a2f627-d730-447e-9152-62009c64c361)" stroke-width="0" /><path d="m12.061.012c-.413,0-.741.328-.741.741l-.073,13.64c0,1.992-1.615,3.607-3.607,3.607H1.093c-.316,0-.522-.304-.425-.595L5.915,2.429C6.425.984,7.785.012,9.316.012h2.757-.012Z" fill="url(#uuid-5a4cf215-4932-4f12-8af1-1b6833df259c)" fill-rule="evenodd" stroke-width="0" /></svg>