<svg xmlns="http://www.w3.org/2000/svg" xml:space="preserve" viewBox="0 0 1000 1000"><path fill="#0a0f13" d="M1 921V81l3-6 9-23Q35 14 78 3l4-2h838l4 2q58 16 74 73l3 5v839l-2 4a101 101 0 0 1-73 74l-6 3H82l-4-2a99 99 0 0 1-74-73zm816-348 35 67 17 27 2-1 16-42q1-2-1-4l-14-22-40-72q-18-32-47-52a72 72 0 0 0-72-7q-28 13-47 39-22 31-38 65-13 32-40 54-72 54-155 22c-57-23-87-69-89-129q-3-97 80-148 56-34 119-11 26 10 49 28 18 14 40 21c19 5 38 1 56-4q21-8 42-12 43-10 76 22 15 17 28 36 17 28 43 48 14 11 30 16v-38l-3-3q-16-10-28-27l-28-41c-32-45-80-64-135-46l-38 11q-30 9-56-9l-17-12q-43-32-97-37-63-6-115 32a197 197 0 0 0-62 251q26 53 78 80 73 33 150 10 58-17 88-69l26-50q14-28 37-51 34-29 68-1l10 10q18 22 32 49M540 775q-13-10-28-18c-19-11-41-14-63-17q-35-5-67-19-54-26-80-83c-23-49-28-101-23-154q5-33 2-66-9-63-71-75c-25-5-48 0-71 7-15 5-15 5-20 20l-2 4-9 33 7-3 27-13q27-13 55-11 32 3 44 32 6 17 6 35l-4 68q-6 82 34 154 41 76 125 97l55 11q29 6 53 23 19 17 31 39 14 24 33 43 10 12 24 7l43-12v-2l-10-3q-18-5-33-19-17-16-27-38-13-23-31-40m137 48q30 5 58-2 8-2 15-6a333 333 0 0 0 60-59l4-21q5-42-9-83-8-31-31-55a44 44 0 0 0-62-3q-12 10-21 22l-47 72q-14 22-21 49a68 68 0 0 0 54 86M569 573a95 95 0 0 0-46-158 96 96 0 0 0-119 107 96 96 0 0 0 165 51M226 789l6 6 28 25 4-7q16-32 7-65c-4-22-15-41-25-60q-22-39-31-84-4-34-3-69 0-23-5-44-14-42-56-34-29 7-51 26l-2 5v36l1 10 4-4 18-19q13-13 31-18 17-4 23 12 3 3 3 8l2 41q-4 64 22 122l19 44c10 22 15 44 5 69m81-551h-33l-70-4q-5-2-9 3l-12 15-19 26 10-1 21-3 74 3c51 2 101-5 148-29a161 161 0 0 0 92-151h-40v6q0 28-12 54-23 49-77 67-34 12-73 14m472-4c-11-28-25-52-51-69q-64-43-140-60l-33-6-1 1 14 16q23 20 50 30l70 32q39 20 54 62l10 28q12 30 38 48l36 21q23 18 45 38l21 16v-3l-24-63-3-4q-21-18-47-31-15-8-25-23zm-177 78q22 8 45 8 25 0 40-19c12-15 12-38 1-57q-20-33-56-50-22-13-47-9-39 8-50 45-10 35 20 59 20 17 47 23M441 867q19 10 31 28l4 4h39c-8-33-52-69-88-73-40-5-79 19-92 38l29 12q6 3 11-2c20-13 42-18 66-7M294 185q36-7 67-25 25-13 42-35l11-18-1-1q-93 21-167 82 25 2 48-3"/><path d="m920 1001 6-3q26-6 45-25 21-21 28-49l2-4v81zM1 921l3 5q16 57 74 73l4 2H1zM1001 81l-3-5a99 99 0 0 0-74-73l-4-2h81zM82 1l-4 2Q35 14 13 52L4 75l-3 6V1zm919 914"/><path fill="#0fd1c1" d="M816 573a236 236 0 0 0-41-59q-34-28-68 1-23 23-37 51l-26 50q-30 52-88 69-76 23-150-10-53-27-78-80-26-50-21-106 9-92 83-145 52-38 115-32 54 5 97 37l17 12q26 18 56 9l38-11c55-18 103 1 135 46l28 41q12 16 28 27l3 3v38q-16-5-30-16-26-20-43-48-13-19-28-36a79 79 0 0 0-76-22q-21 4-42 12c-18 5-37 9-56 4q-22-7-40-21-23-18-49-28-63-23-119 11-83 51-80 148c2 60 32 106 89 129q84 32 155-22 27-22 40-54 16-34 38-65 19-26 47-39 39-17 72 7 29 20 47 52l40 72 14 22q2 2 1 4l-16 42-2 1-17-27z"/><path fill="#0fd1c1" d="M540 775q19 17 31 40 10 22 27 38 15 14 33 19l10 3v2l-43 12q-14 5-24-7-19-19-33-43-12-22-31-39-24-17-53-23l-55-11q-83-22-125-97-40-72-34-154l4-68q0-17-6-35-12-29-44-32-28-2-55 11l-27 13-7 3 9-33 2-4c5-15 5-15 20-20 23-7 46-12 71-7q62 12 71 75 4 33-2 66c-5 53 0 105 23 154q26 57 80 83 32 14 67 19c22 3 44 6 63 17q15 8 28 18m137 48c-41-8-64-45-54-86q7-27 21-49l47-72q9-12 21-22c19-16 44-15 62 3q23 24 31 55 14 41 9 83l-4 21-3 5q-25 30-57 54-7 4-15 6-28 7-58 2m26-168-28 49q-12 21-14 44 0 30 29 37 23 4 44-4 32-11 40-44 6-24 1-50-3-27-15-52-18-28-40-4v1z"/><path fill="#0fd1c1" d="M569 573a96 96 0 0 1-165-51 96 96 0 0 1 119-107 95 95 0 0 1 46 158m-13-44q9-21 1-42a61 61 0 0 0-118 31c3 23 22 43 45 48 31 8 61-8 72-37M226 788c10-24 5-46-5-68l-19-44q-26-58-22-122l-2-41q0-5-3-8-6-17-23-12-18 5-31 18l-18 19-4 4-1-10 2-41q22-19 51-26 42-8 56 34 6 21 5 44-1 35 3 69 9 45 31 84c10 19 21 38 25 60q9 33-7 65l-4 7-28-25zm82-550q37-2 72-14a130 130 0 0 0 89-121v-6h40q1 18-2 38-19 77-90 113c-47 24-97 31-148 29l-74-3-21 3-10 1 19-26 12-15q4-4 9-3l70 4zm471-4 14 33q10 15 25 23 26 12 47 31l3 4 24 66-21-16q-22-20-45-38l-36-21q-27-18-38-48l-10-28q-15-42-54-62l-70-32q-27-10-50-30l-14-16 1-1 33 6q76 16 140 60c26 17 40 41 51 69m-177 78q-27-6-47-23-30-24-20-59 11-37 50-45 25-4 47 9 35 17 56 50c11 19 11 42-1 57a49 49 0 0 1-40 19q-23 0-45-8m1-35q10 5 21 7 12 3 23 3 17-3 16-21-1-10-8-17-17-18-39-29-9-5-20-5c-20 0-33 21-23 39 6 12 17 17 30 23M440 867c-23-11-45-6-65 7q-5 5-11 2l-29-12c13-19 52-43 92-38 36 4 80 40 88 73h-39l-4-4q-11-18-32-28"/><path fill="#0fd1c1" d="M293 185q-22 5-47 3 75-61 167-82l1 1-11 18q-16 22-42 35-31 18-68 25"/><path fill="#0a0f13" d="m703 655 17-24q22-24 40 4 12 25 15 52 5 26-1 50-8 32-40 44-21 8-44 4-29-7-29-37 3-24 14-44zM556 529a62 62 0 0 1-72 37c-23-5-42-25-46-49a61 61 0 0 1 119-30q8 21-1 42m46-252c-12-6-23-11-29-23-10-18 3-39 23-39q11 0 20 5 22 11 39 29 7 7 8 17 1 18-16 21-12 0-23-3-11-2-22-7"/></svg>