<svg width="32" height="32" viewBox="0 0 32 32" fill="none" xmlns="http://www.w3.org/2000/svg">
<path d="M27 9.58333C27 12.1146 22.0751 14.1667 16 14.1667C9.92487 14.1667 5 12.1146 5 9.58333M27 9.58333C27 7.05203 22.0751 5 16 5C9.92487 5 5 7.05203 5 9.58333M27 9.58333V16M5 9.58333V22.4167C5 24.948 9.92487 27 16 27M16 20.5833C9.92487 20.5833 5 18.5313 5 16" stroke="black" stroke-width="2" stroke-linecap="round"/>
<path d="M23.5 27L23.5 19M23.5 27L27 22.9472M23.5 27L20 22.9472" stroke="black" stroke-width="2" stroke-linecap="round" stroke-linejoin="round"/>
</svg>
