<svg xmlns="http://www.w3.org/2000/svg" class="icon icon-tabler icon-tabler-database-export" width="24" height="24" viewBox="0 0 24 24" stroke-width="2" stroke="currentColor" fill="none" stroke-linecap="round" stroke-linejoin="round">
   <path stroke="none" d="M0 0h24v24H0z" fill="none"></path>
   <path d="M4 6c0 1.657 3.582 3 8 3s8 -1.343 8 -3s-3.582 -3 -8 -3s-8 1.343 -8 3"></path>
   <path d="M4 6v6c0 1.657 3.582 3 8 3c1.118 0 2.183 -.086 3.15 -.241"></path>
   <path d="M20 12v-6"></path>
   <path d="M4 12v6c0 1.657 3.582 3 8 3c.157 0 .312 -.002 .466 -.005"></path>
   <path d="M16 19h6"></path>
   <path d="M19 16l3 3l-3 3"></path>
</svg>