<svg width="32" height="32" viewBox="0 0 32 32" fill="none" xmlns="http://www.w3.org/2000/svg">
<path d="M14.3678 16.6754C15.6892 17.4234 16.3504 17.7966 17.0768 17.7975C17.8032 17.7975 18.4644 17.4251 19.7876 16.6804L28.2064 11.9403C28.3932 11.8348 28.5482 11.6831 28.6561 11.5005C28.7639 11.3178 28.8207 11.1105 28.8207 10.8996C28.8207 10.6886 28.7639 10.4813 28.6561 10.2987C28.5482 10.116 28.3932 9.96427 28.2064 9.85882L19.785 5.1162C18.4627 4.37151 17.8016 4 17.0768 4C16.3512 4 15.6901 4.37317 14.3694 5.11869L7.13312 9.20037L7.01782 9.26506C5.80387 9.96247 4.79556 10.956 4.09135 12.1486C3.38714 13.3411 3.01111 14.692 3 16.0692V16.3296C3.01135 17.7052 3.3867 19.0544 4.08948 20.2458C4.79227 21.4372 5.79852 22.4302 7.01019 23.128C7.03732 23.1446 7.067 23.1612 7.12549 23.1944L11.6502 25.7535C14.2982 27.2512 15.6223 27.9992 17.0768 28C18.5305 28 19.8554 27.2528 22.5043 25.7568L27.2867 23.0559C28.6107 22.3087 29.2727 21.9347 29.6364 21.3185C30 20.7032 30 19.9552 30 18.4592V15.5617C29.9997 15.3612 29.9456 15.1643 29.8431 14.9907C29.7405 14.8171 29.5932 14.6729 29.4157 14.5725C29.2383 14.4722 29.037 14.4192 28.8321 14.4189C28.6271 14.4186 28.4257 14.4709 28.2479 14.5707L18.4288 20.0995C17.7685 20.471 17.4388 20.6568 17.076 20.6568C16.714 20.6568 16.3843 20.4719 15.724 20.1003L9.08015 16.3645C8.74618 16.1771 8.5792 16.0825 8.44527 16.0659C8.29694 16.0472 8.14645 16.077 8.01721 16.1506C7.88797 16.2243 7.78723 16.3376 7.7307 16.4731C7.67984 16.5958 7.68069 16.7841 7.68323 17.1614C7.68408 17.4375 7.68492 17.576 7.71204 17.7037C7.77053 17.9882 7.92396 18.2461 8.14689 18.4368C8.24691 18.5231 8.36982 18.5919 8.61479 18.7304L15.7198 22.7474C16.3818 23.1222 16.7132 23.3088 17.0768 23.3088C17.4396 23.3088 17.771 23.1222 18.4331 22.7482L27.1426 17.8306C27.3681 17.7029 27.4808 17.6399 27.5656 17.6872C27.6503 17.7353 27.6503 17.863 27.6503 18.1184V19.4303C27.6503 19.8043 27.6503 19.9909 27.5596 20.1451C27.4689 20.2994 27.3037 20.3922 26.9722 20.5797L19.791 24.6348C18.4661 25.3828 17.8041 25.7568 17.0768 25.756C16.3495 25.756 15.6875 25.3812 14.3635 24.6323L7.64678 20.8318L7.59931 20.8052C6.90785 20.4087 6.33373 19.843 5.93336 19.1637C5.53299 18.4845 5.32015 17.715 5.31576 16.9309L5.31491 16.877V15.6704C5.31491 14.7888 5.79469 13.9745 6.57367 13.5317C6.91251 13.3394 7.29722 13.2379 7.68894 13.2376C8.08067 13.2374 8.46552 13.3382 8.80466 13.53L14.3678 16.6754Z" fill="#4285FD"/>
</svg>
