<svg width="32" height="32" viewBox="0 0 32 32" fill="none" xmlns="http://www.w3.org/2000/svg">
<circle cx="19.25" cy="13.25" r="1.25" fill="black"/>
<path d="M15.221 7.55121L10.827 24.7611C10.5157 25.9803 8.8952 26.2323 8.2283 25.1653C7.75236 24.4038 7.5 23.5238 7.5 22.6259V20C7.5 17.7909 5.70914 16 3.5 16C3.22697 16 3.00858 15.7732 3.01891 15.5004L3.03784 15C3.54847 8.28755 9.15672 3 16 3C23.1797 3 29 8.8203 29 16C29 19.7112 27.4448 23.0593 24.9506 25.4279C24.5239 25.8332 23.8449 25.725 23.5205 25.234L21.5723 22.2851C21.3795 21.9932 21.2145 21.6792 21.1483 21.3356C20.8998 20.044 21.3021 18.6979 22.2481 17.7519L24 16C25.608 14.392 24.9616 11.6539 22.8043 10.9348L19.518 9.83932C18.8662 9.62206 18.3274 9.15477 18.0201 8.54025L17.4083 7.31663C16.9222 6.34444 15.4899 6.49805 15.221 7.55121Z" fill="black" stroke="black"/>
</svg>
