<svg width="247" height="247" viewBox="0 0 247 247" fill="none" xmlns="http://www.w3.org/2000/svg">
<rect x="1.25506" y="1.25506" width="244.791" height="244.791" rx="77.2891" fill="url(#paint0_linear_4808_63)"/>
<rect x="1.25506" y="1.25506" width="244.791" height="244.791" rx="77.2891" stroke="#660DCA" stroke-width="1.48988"/>
<path fill-rule="evenodd" clip-rule="evenodd" d="M139.462 60.7396C140.348 61.231 141.043 62.0051 141.438 62.9382C141.833 63.8712 141.903 64.9096 141.639 65.8876L129.593 110.051H173.543C174.427 110.05 175.292 110.308 176.032 110.793C176.771 111.278 177.353 111.968 177.705 112.779C178.057 113.591 178.164 114.487 178.013 115.358C177.862 116.23 177.46 117.038 176.855 117.683L113.355 185.717C112.66 186.449 111.741 186.929 110.743 187.08C109.746 187.232 108.726 187.047 107.845 186.555C106.964 186.063 106.272 185.291 105.878 184.361C105.484 183.432 105.412 182.398 105.671 181.423L117.709 137.268H73.7589C72.8745 137.269 72.0093 137.011 71.2697 136.526C70.5302 136.041 69.9485 135.35 69.5964 134.539C69.2444 133.728 69.1373 132.832 69.2883 131.96C69.4393 131.089 69.8419 130.281 70.4464 129.635L133.947 61.6019C134.639 60.8647 135.557 60.3797 136.556 60.2235C137.555 60.0673 138.578 60.2489 139.462 60.7396Z" fill="white"/>
<defs>
<linearGradient id="paint0_linear_4808_63" x1="123.651" y1="2" x2="186.945" y2="245.888" gradientUnits="userSpaceOnUse">
<stop offset="0.67169" stop-color="#8A22FF"/>
<stop offset="1" stop-color="#7F28E0"/>
</linearGradient>
</defs>
</svg>
