<svg width="32" height="32" viewBox="0 0 32 32" fill="none" xmlns="http://www.w3.org/2000/svg">
<path d="M14 27V20H16C17.933 20 19.5 21.567 19.5 23.5C19.5 25.433 17.933 27 16 27H14Z" stroke="black" stroke-width="2" stroke-linecap="round" stroke-linejoin="round"/>
<path d="M23 27V20H27M23 24H26" stroke="black" stroke-width="2" stroke-linecap="round" stroke-linejoin="round"/>
<path d="M6 27V20H9C10.1046 20 11 20.8954 11 22C11 23.1046 10.1046 24 9 24H6" stroke="black" stroke-width="2" stroke-linecap="round" stroke-linejoin="round"/>
<path d="M18 5H9C7.89543 5 7 5.89543 7 7V15M18 5L25 12M18 5V12H25M25 12V15" stroke="black" stroke-width="2" stroke-linecap="round" stroke-linejoin="round"/>
</svg>
