<svg width="32" height="32" viewBox="0 0 32 32" fill="none" xmlns="http://www.w3.org/2000/svg">
<path d="M26.2866 9.22667L26.8999 7.73333C26.8999 7.73333 26.1333 6.9 25.1866 5.96C24.2399 5.02 22.2466 5.56 22.2466 5.56L19.9999 3H11.9999L9.73325 5.58C9.73325 5.58 7.73325 5.03333 6.79325 5.97333C5.85325 6.91333 5.07992 7.75333 5.07992 7.75333L5.69326 9.24667L4.91992 11.4533C4.91992 11.4533 7.20659 20.12 7.46659 21.1533C7.99992 23.2267 8.35326 24.0333 9.84659 25.1C11.3399 26.1667 14.0466 27.9733 14.5133 28.2533C14.9415 28.6183 15.4515 28.8745 15.9999 29C16.4933 29 17.0466 28.5267 17.4999 28.2533C17.9533 27.98 20.6533 26.14 22.1666 25.1C23.6799 24.06 23.9999 23.2467 24.5333 21.1533L27.0799 11.4533L26.2866 9.22667Z" fill="#FF6520" stroke="#FF6520" stroke-width="2" stroke-linecap="round" stroke-linejoin="round"/>
<path d="M12.4735 21.0133C11.7428 20.2529 11.1071 19.4067 10.5801 18.4933C10.4452 18.1438 10.3942 17.7674 10.4312 17.3946C10.4683 17.0217 10.5924 16.6628 10.7935 16.3466C10.8686 16.1363 10.8707 15.9067 10.7993 15.695C10.728 15.4833 10.5873 15.3019 10.4001 15.18C10.2068 14.9666 8.5868 13.2533 8.21346 12.8533C7.84013 12.4533 7.4668 12.2866 7.4668 11.52C7.4668 10.7533 10.3801 7.22665 10.3801 7.22665C10.3801 7.22665 12.8468 7.69998 13.1801 7.69998C13.7659 7.59152 14.3397 7.42629 14.8935 7.20665C15.2496 7.07842 15.6223 7.00208 16.0001 6.97998L14.8935 7.19998C15.2499 7.07402 15.6226 6.99993 16.0001 6.97998C16.3777 6.99993 16.7503 7.07402 17.1068 7.19998C17.6605 7.41963 18.2344 7.58485 18.8201 7.69331C19.1535 7.69331 21.6201 7.21998 21.6201 7.21998C21.6201 7.21998 24.5335 10.7466 24.5335 11.5133C24.5335 12.28 24.1601 12.46 23.7868 12.8466C23.4135 13.2333 21.7868 14.96 21.6001 15.1733C21.4129 15.2952 21.2723 15.4767 21.2009 15.6884C21.1295 15.9 21.1316 16.1296 21.2068 16.34C21.4079 16.6561 21.532 17.0151 21.569 17.3879C21.6061 17.7608 21.5551 18.1371 21.4201 18.4866C20.8932 19.4001 20.2574 20.2463 19.5268 21.0066" fill="white"/>
<path d="M21.46 9.87996C20.6375 9.74822 19.8011 9.72803 18.9733 9.81996C18.3639 9.94895 17.7696 10.1411 17.2 10.3933C17.1266 10.5266 17.0466 10.5266 17.1266 11.02C17.2066 11.5133 17.6733 13.82 17.7133 14.2333C17.7533 14.6466 17.8533 14.9 17.4 15.0266C16.926 15.1471 16.4451 15.2384 15.96 15.3C15.4749 15.2378 14.9941 15.1465 14.52 15.0266C14.0866 14.9266 14.1666 14.6466 14.2066 14.2333C14.2466 13.82 14.7 11.5133 14.8 11.02C14.9 10.5266 14.8 10.5266 14.72 10.3933C14.1516 10.1379 13.5569 9.94565 12.9466 9.81996C12.1193 9.71801 11.2814 9.73823 10.46 9.87996M16 19.1666V15.3333V19.1666ZM19.4266 20.72C19.6066 20.84 19.5066 21.0533 19.3333 21.1533C19.16 21.2533 16.9466 22.9866 16.7466 23.1866C16.5466 23.3866 16.22 23.68 16 23.68C15.78 23.68 15.4666 23.36 15.2533 23.1866C15.04 23.0133 12.8266 21.2733 12.6666 21.1533C12.5066 21.0333 12.3933 20.82 12.5733 20.72C12.7533 20.62 13.32 20.3266 14.0866 19.9133C14.6912 19.5865 15.3338 19.3357 16 19.1666C16.6661 19.3357 17.3087 19.5865 17.9133 19.9133L19.4266 20.72Z" fill="white"/>
<path d="M21.46 9.87996C20.6375 9.74822 19.8011 9.72803 18.9733 9.81996C18.3639 9.94895 17.7696 10.1411 17.2 10.3933C17.1266 10.5266 17.0466 10.5266 17.1266 11.02C17.2066 11.5133 17.6733 13.82 17.7133 14.2333C17.7533 14.6466 17.8533 14.9 17.4 15.0266C16.926 15.1471 16.4451 15.2384 15.96 15.3C15.4749 15.2378 14.9941 15.1465 14.52 15.0266C14.0866 14.9266 14.1666 14.6466 14.2066 14.2333C14.2466 13.82 14.7 11.5133 14.8 11.02C14.9 10.5266 14.8 10.5266 14.72 10.3933C14.1516 10.1379 13.5569 9.94565 12.9466 9.81996C12.1193 9.71801 11.2814 9.73823 10.46 9.87996M16 19.1666V15.3333M16 19.1666C15.3338 19.3357 14.6912 19.5865 14.0866 19.9133C13.32 20.3266 12.7533 20.62 12.5733 20.72C12.3933 20.82 12.5066 21.0333 12.6666 21.1533C12.8266 21.2733 15.04 23.0133 15.2533 23.1866C15.4666 23.36 15.78 23.68 16 23.68C16.22 23.68 16.5466 23.3866 16.7466 23.1866C16.9466 22.9866 19.16 21.2533 19.3333 21.1533C19.5066 21.0533 19.6066 20.84 19.4266 20.72L17.9133 19.9133C17.3087 19.5865 16.6661 19.3357 16 19.1666Z" stroke="#FF6520" stroke-width="1.5" stroke-linecap="round" stroke-linejoin="round"/>
<path d="M18.839 21.7606C18.9867 21.672 19.1161 21.4053 18.9627 21.299L17.6582 20.6046C17.143 20.3149 16.5426 20.0811 15.9749 19.9313C15.4073 20.0811 14.8069 20.336 14.2917 20.6256C13.6383 20.9919 13.1932 21.2524 13.0398 21.341C12.8864 21.4297 13.0212 21.6543 13.1575 21.7606C13.2939 21.867 15.1801 23.4091 15.3619 23.5627C15.5438 23.7163 15.8108 23.9999 15.9983 23.9999C16.1858 23.9999 16.4641 23.74 16.6346 23.5627C16.805 23.3855 18.6913 21.8493 18.839 21.7606Z" fill="white"/>
<path d="M18.839 21.7606C18.9867 21.672 19.1161 21.4053 18.9627 21.299L17.6582 20.6046C17.143 20.3149 16.5426 20.0811 15.9749 19.9313C15.4073 20.0811 14.8069 20.336 14.2917 20.6256C13.6383 20.9919 13.1932 21.2524 13.0398 21.341C12.8864 21.4297 13.0212 21.6543 13.1575 21.7606C13.2939 21.867 15.1801 23.4091 15.3619 23.5627C15.5438 23.7163 15.8108 23.9999 15.9983 23.9999C16.1858 23.9999 16.4641 23.74 16.6346 23.5627C16.805 23.3855 18.6913 21.8493 18.839 21.7606Z" fill="white"/>
</svg>
