<svg width="32" height="32" viewBox="0 0 32 32" fill="none" xmlns="http://www.w3.org/2000/svg">
<path d="M5 14L14.3448 18.2476C15.3965 18.7257 16.6035 18.7257 17.6552 18.2476L27 14" stroke="#D82B1F" stroke-width="2" stroke-linecap="round" stroke-linejoin="round"/>
<path d="M5 18L14.3448 22.2476C15.3965 22.7257 16.6035 22.7257 17.6552 22.2476L27 18" stroke="#D82B1F" stroke-width="2" stroke-linecap="round" stroke-linejoin="round"/>
<path d="M14.3448 16.2476L5 12L14.3448 7.75233C15.3965 7.27429 16.6035 7.27429 17.6552 7.75233L27 12L17.6552 16.2476C16.6035 16.7256 15.3965 16.7256 14.3448 16.2476Z" fill="#D82B1F" stroke="#D82B1F" stroke-width="2" stroke-linecap="round" stroke-linejoin="round"/>
<path d="M5 12L14.3448 16.2476C15.3965 16.7257 16.6035 16.7257 17.6552 16.2476L27 12" stroke="#A41E11" stroke-width="2" stroke-linecap="round" stroke-linejoin="round"/>
<path d="M5 16L14.3448 20.2476C15.3965 20.7257 16.6035 20.7257 17.6552 20.2476L27 16" stroke="#A41E11" stroke-width="2" stroke-linecap="round" stroke-linejoin="round"/>
<path d="M5 20L14.3448 24.2476C15.3965 24.7257 16.6035 24.7257 17.6552 24.2476L27 20" stroke="#A41E11" stroke-width="2" stroke-linecap="round" stroke-linejoin="round"/>
<path d="M14.8 10.8257C14.8 11.2675 13.7255 11.7473 12.4 11.7473C11.0745 11.7473 10 11.2675 10 10.8257C10 10.3838 11.0745 9.92261 12.4 9.92261C13.7255 9.92261 14.8 10.3838 14.8 10.8257Z" fill="white"/>
<path d="M15.5992 8.82033L14.5843 9.18122C14.5035 9.20994 14.5183 9.32837 14.6037 9.33626L16.1374 9.478C16.163 9.48036 16.1858 9.49484 16.1989 9.51692L16.6877 10.3429C16.7214 10.3998 16.8057 10.3936 16.8306 10.3322L17.1187 9.62285C17.1299 9.59533 17.1554 9.57627 17.185 9.57334L18.4686 9.44639C18.5526 9.43808 18.5681 9.32208 18.4892 9.29202L17.5949 8.95149C17.5526 8.93541 17.5321 8.88756 17.5495 8.84587L17.7896 8.27159C17.816 8.20836 17.7559 8.14334 17.6908 8.16472L16.6275 8.51401C16.6098 8.51981 16.5907 8.51928 16.5734 8.51253L15.4638 8.07934C15.3944 8.05225 15.3289 8.12638 15.3643 8.19192L15.6428 8.7069C15.6661 8.75007 15.6455 8.80389 15.5992 8.82033Z" fill="white"/>
<path d="M20.7336 9.65148L18.0589 10.7187C17.9919 10.7455 17.9917 10.8401 18.0585 10.8672L20.4599 11.8397C20.4789 11.8474 20.5002 11.8475 20.5192 11.84L23.2273 10.7728C23.2947 10.7462 23.2949 10.6509 23.2276 10.624L20.793 9.6515C20.7739 9.64389 20.7527 9.64389 20.7336 9.65148Z" fill="#A41E11"/>
<path d="M17.855 11.819L13.8573 12.4291C13.7777 12.4412 13.7639 12.5502 13.8381 12.5818L16.7834 13.8355C16.8209 13.8515 16.8644 13.8367 16.8844 13.8012L17.9367 11.9374C17.9695 11.8793 17.921 11.8089 17.855 11.819Z" fill="white"/>
</svg>
