<svg  xmlns="http://www.w3.org/2000/svg"  width="24"  height="24"  viewBox="0 0 24 24"  fill="none"  stroke="currentColor"  stroke-width="2"  stroke-linecap="round"  stroke-linejoin="round"  class="icon icon-tabler icons-tabler-outline icon-tabler-timezone"><path stroke="none" d="M0 0h24v24H0z" fill="none"/><path d="M20.884 10.554a9 9 0 1 0 -10.337 10.328" /><path d="M3.6 9h16.8" /><path d="M3.6 15h6.9" /><path d="M11.5 3a17 17 0 0 0 -1.502 14.954" /><path d="M12.5 3a17 17 0 0 1 2.52 7.603" /><path d="M18 18m-4 0a4 4 0 1 0 8 0a4 4 0 1 0 -8 0" /><path d="M18 16.5v1.5l.5 .5" /></svg>