<?xml version="1.0" ?>
<!-- Uploaded to: SVG Repo, www.svgrepo.com, Generator: SVG Repo Mixer Tools -->
<svg width="24" height="24" viewBox="0 0 74.665566 74.665566" id="svg2" version="1.1" xmlns="http://www.w3.org/2000/svg" xmlns:svg="http://www.w3.org/2000/svg">
<defs id="defs6">
<clipPath clipPathUnits="userSpaceOnUse" id="clipPath42">
<path d="M 0,64 H 64 V 0 H 0 Z" id="path40"/>
</clipPath>
</defs>
<g id="g34" transform="matrix(1.3333333,0,0,-1.3333333,-5.3342789,79.999031)">
<g id="g36">
<g clip-path="url(#clipPath42)" id="g38">
<g id="g44" transform="translate(55.3975,14.9321)">
<path d="m 0,0 -17.697,-4.301 -3.174,-0.771 -0.003,-0.001 -15.48,-3.762 c -1.826,-0.442 -3.668,0.68 -4.111,2.505 l -4.302,17.698 -0.77,3.174 -0.002,0.002 -3.762,15.481 c -0.441,1.824 0.68,3.667 2.506,4.111 l 17.697,4.301 3.174,0.771 0.003,0.001 15.481,3.762 c 0.268,0.065 0.537,0.096 0.801,0.096 1.535,0 2.931,-1.045 3.309,-2.602 l 4.302,-17.697 0.77,-3.174 c 0.001,-0.001 0.001,-0.002 0.002,-0.003 L 2.506,4.111 C 2.947,2.287 1.826,0.444 0,0 m -4.688,-5.043 h -7.586 l 10.308,2.504 0.596,0.144 c -0.343,-1.514 -1.701,-2.648 -3.318,-2.648 m -40.821,3.401 v 7.586 l 2.505,-10.308 0.144,-0.595 c -1.515,0.343 -2.649,1.7 -2.649,3.317 m 3.402,40.821 h 7.586 l -10.308,-2.504 -0.596,-0.145 c 0.343,1.515 1.701,2.649 3.318,2.649 M -1.286,35.777 V 28.191 L -3.791,38.5 -3.935,39.095 c 1.515,-0.343 2.649,-1.7 2.649,-3.318 M 4.45,4.581 c 0,0 0,10e-4 0,10e-4 L 0.714,19.959 v 15.818 c 0,2.9 -2.298,5.266 -5.168,5.39 -0.797,2.756 -3.64,4.43 -6.458,3.748 l -15.377,-3.736 h -15.818 c -2.9,0 -5.266,-2.298 -5.39,-5.168 -2.755,-0.797 -4.429,-3.638 -3.748,-6.457 l 3.736,-15.378 V -1.642 c 0,-2.902 2.303,-5.271 5.177,-5.39 0.678,-2.337 2.818,-3.9 5.176,-3.9 0.42,0 0.847,0.05 1.273,0.153 l 15.377,3.736 h 15.818 c 2.899,0 5.266,2.298 5.39,5.168 2.756,0.796 4.429,3.638 3.748,6.456" id="path46" style="fill:#231f20;fill-opacity:1;fill-rule:nonzero;stroke:none"/>
</g>
<g id="g48" transform="translate(17.8979,18.9194)">
<path d="M 0,0 7.895,19.981 24.079,5.851 c 0.416,-0.365 1.047,-0.321 1.411,0.095 0.363,0.416 0.32,1.048 -0.096,1.411 l -6.279,5.482 2.797,5.061 11.814,-9.729 c 0.186,-0.153 0.411,-0.228 0.635,-0.228 0.288,0 0.575,0.124 0.772,0.364 0.351,0.426 0.29,1.057 -0.136,1.408 L 22.254,20.209 c -0.23,0.188 -0.531,0.265 -0.823,0.21 -0.292,-0.055 -0.544,-0.238 -0.688,-0.498 l -3.169,-5.735 -9.43,8.233 C 7.899,22.633 7.567,22.715 7.25,22.638 6.934,22.561 6.675,22.336 6.556,22.034 L -1.86,0.735 c -0.203,-0.513 0.048,-1.094 0.562,-1.297 0.121,-0.048 0.245,-0.071 0.367,-0.071 0.399,0 0.776,0.24 0.931,0.633" id="path50" style="fill:#231f20;fill-opacity:1;fill-rule:nonzero;stroke:none"/>
</g>
<g id="g52" transform="translate(43.1772,23.2866)">
<path d="m 0,0 -25.666,-6.236 c -0.537,-0.131 -0.866,-0.671 -0.735,-1.208 0.111,-0.457 0.52,-0.764 0.97,-0.764 0.078,0 0.158,0.009 0.238,0.028 l 25.666,6.237 c 0.536,0.13 0.865,0.671 0.735,1.208 C 1.077,-0.199 0.538,0.134 0,0" id="path54" style="fill:#231f20;fill-opacity:1;fill-rule:nonzero;stroke:none"/>
</g>
<g id="g56" transform="translate(52.8022,25.6255)">
<path d="m 0,0 -6.417,-1.559 c -0.536,-0.13 -0.865,-0.671 -0.735,-1.208 0.111,-0.457 0.52,-0.764 0.971,-0.764 0.078,0 0.158,0.009 0.237,0.029 l 6.417,1.559 c 0.536,0.13 0.865,0.671 0.735,1.208 C 1.077,-0.199 0.538,0.132 0,0" id="path58" style="fill:#231f20;fill-opacity:1;fill-rule:nonzero;stroke:none"/>
</g>
<g id="g60" transform="translate(33.3896,44.9058)">
<path d="m 0,0 c 0.094,0.022 0.189,0.033 0.284,0.034 0.128,0 0.253,-0.025 0.371,-0.063 0.028,-0.009 0.053,-0.024 0.079,-0.035 0.081,-0.033 0.159,-0.075 0.23,-0.125 0.077,-0.053 0.14,-0.118 0.201,-0.185 0.036,-0.04 0.078,-0.073 0.109,-0.118 0.082,-0.121 0.148,-0.254 0.184,-0.401 0.038,-0.16 0.043,-0.32 0.018,-0.474 C 1.468,-1.411 1.441,-1.448 1.43,-1.491 1.399,-1.596 1.373,-1.703 1.316,-1.796 1.3,-1.823 1.271,-1.84 1.253,-1.865 1.182,-1.964 1.106,-2.062 1.006,-2.135 1.001,-2.139 0.995,-2.14 0.99,-2.143 0.868,-2.23 0.73,-2.299 0.576,-2.337 0.498,-2.356 0.422,-2.342 0.345,-2.346 0.262,-2.349 0.178,-2.368 0.098,-2.355 -0.365,-2.279 -0.763,-1.937 -0.88,-1.455 -1.036,-0.815 -0.636,-0.161 0,0 m 0.293,-4.371 c 0.249,0 0.5,0.029 0.752,0.09 0.001,0 0.002,0 0.003,0 1.713,0.417 2.769,2.148 2.353,3.858 -0.414,1.72 -2.153,2.782 -3.88,2.365 -1.707,-0.431 -2.758,-2.167 -2.345,-3.87 0.355,-1.46 1.671,-2.443 3.117,-2.443" id="path62" style="fill:#231f20;fill-opacity:1;fill-rule:nonzero;stroke:none"/>
</g>
</g>
</g>
</g>
</svg>
