<svg width="32" height="32" viewBox="0 0 32 32" fill="none" xmlns="http://www.w3.org/2000/svg">
<path d="M5 24V11.5V9H27V24H5Z" fill="#0D416D"/>
<mask id="mask0_119_15692" style="mask-type:alpha" maskUnits="userSpaceOnUse" x="4" y="2" width="24" height="28">
<path d="M6.98089 5.78309L5 7.8V11L6.97419 9.99496C7.05451 9.95406 7.14 9.92422 7.22833 9.90623L12.2346 8.88678C12.3003 8.8734 12.3671 8.86667 12.4342 8.86667H19.5659C19.6329 8.86667 19.6998 8.8734 19.7654 8.88678L24.7716 9.90623C24.8599 9.92422 24.9454 9.95406 25.0257 9.99495L27 11L26.9999 7.8L25.0191 5.78309C24.9433 5.70598 24.8556 5.64166 24.7593 5.59263L19.8805 3.10884C19.7399 3.03729 19.5845 3 19.4268 3H12.5733C12.4156 3 12.2601 3.03729 12.1196 3.10884L7.24066 5.59263C7.14434 5.64166 7.05662 5.70598 6.98089 5.78309Z" fill="#2272BA" stroke="#2272BA" stroke-width="2" stroke-linecap="round" stroke-linejoin="round"/>
<path d="M6.98089 26.2169L5 24.2V21L6.97419 22.005C7.05451 22.0459 7.14 22.0758 7.22833 22.0938L12.2346 23.1132C12.3003 23.1266 12.3671 23.1333 12.4342 23.1333H19.5659C19.6329 23.1333 19.6998 23.1266 19.7654 23.1132L24.7716 22.0938C24.8599 22.0758 24.9454 22.0459 25.0257 22.005L27 21L26.9999 24.2L25.0191 26.2169C24.9433 26.294 24.8556 26.3583 24.7593 26.4074L19.8805 28.8912C19.7399 28.9627 19.5845 29 19.4268 29H12.5733C12.4156 29 12.2601 28.9627 12.1196 28.8912L7.24066 26.4074C7.14434 26.3583 7.05662 26.294 6.98089 26.2169Z" fill="#2272BA" stroke="#2272BA" stroke-width="2" stroke-linecap="round" stroke-linejoin="round"/>
<path d="M5 18V14L7.41475 13.0341C7.47147 13.0114 7.53014 12.994 7.59003 12.982L12.4029 12.0194C12.4675 12.0065 12.5332 12 12.599 12H19.401C19.4668 12 19.5325 12.0065 19.5971 12.0194L24.41 12.982C24.4699 12.994 24.5285 13.0114 24.5852 13.0341L27 14V18L24.5852 18.9659C24.5285 18.9886 24.4699 19.006 24.41 19.018L19.5971 19.9806C19.5325 19.9935 19.4668 20 19.401 20H12.599C12.5332 20 12.4675 19.9935 12.4029 19.9806L7.59003 19.018C7.53014 19.006 7.47147 18.9886 7.41475 18.9659L5 18Z" fill="#2272BA" stroke="#2272BA" stroke-width="2" stroke-linecap="round" stroke-linejoin="round"/>
</mask>
<g mask="url(#mask0_119_15692)">
<rect x="12" y="2" width="8" height="28" fill="#2272BA"/>
<path d="M19.5 2H24.8748V30H19.5V2Z" fill="#4D96D1"/>
<path d="M24.6875 2H32.0002V30H24.6875V2Z" fill="#2272BA"/>
<path d="M6 2.00005L12.5 1.19287V31.0001L6 30.0001V2.00005Z" fill="#135899"/>
<path d="M0 2H7.32702V30H0V2Z" fill="#0D416D"/>
</g>
</svg>
