<?xml version="1.0"?><!DOCTYPE svg  PUBLIC '-//W3C//DTD SVG 1.1//EN'  'http://www.w3.org/Graphics/SVG/1.1/DTD/svg11.dtd'><svg height="512px" style="enable-background:new 0 0 512 512;" version="1.1" viewBox="0 0 512 512" width="512px" xml:space="preserve" xmlns="http://www.w3.org/2000/svg" xmlns:xlink="http://www.w3.org/1999/xlink"><g id="_x33_0-atlassian"><g><path d="M162.735,238.396c-6.918-7.366-17.699-6.918-22.281,2.516l-113.021,225.5    c-4.492,8.985,2.156,19.497,12.039,19.497h157.222c5.21,0.09,9.883-2.876,12.039-7.547    C242.783,408.466,222.299,302.003,162.735,238.396L162.735,238.396z" style="fill:#0C62DC;"/><path d="M245.568,33.29c-109.875,173.752-7.637,313.184,58.396,445.161    c2.246,4.583,6.918,7.549,12.039,7.549h156.504c10.063,0,16.53-10.602,12.039-19.497c0,0-210.679-422.792-215.98-433.303    C263.806,23.676,251.677,23.497,245.568,33.29z" style="fill:#2681FF;"/></g></g><g id="Layer_1"/></svg>