<svg xmlns="http://www.w3.org/2000/svg" class="icon icon-tabler icon-tabler-code-dots" width="24" height="24" viewBox="0 0 24 24" stroke-width="2" stroke="currentColor" fill="none" stroke-linecap="round" stroke-linejoin="round">
   <path stroke="none" d="M0 0h24v24H0z" fill="none"></path>
   <path d="M15 12h.01"></path>
   <path d="M12 12h.01"></path>
   <path d="M9 12h.01"></path>
   <path d="M6 19a2 2 0 0 1 -2 -2v-4l-1 -1l1 -1v-4a2 2 0 0 1 2 -2"></path>
   <path d="M18 19a2 2 0 0 0 2 -2v-4l1 -1l-1 -1v-4a2 2 0 0 0 -2 -2"></path>
</svg>