<svg width="32" height="32" viewBox="0 0 32 32" fill="none" xmlns="http://www.w3.org/2000/svg">
<path d="M29.2 16.3125C29.2 15.632 29.1574 14.9698 29.0764 14.3259C29.016 13.8459 28.5981 13.5 28.1144 13.5H17C16.4477 13.5 16 13.9477 16 14.5V17.825C16 18.3773 16.4477 18.825 17 18.825H23.4C23.075 20.5375 22.1 21.9875 20.6375 22.9625V26.425H25.1C27.7 24.025 29.2 20.5 29.2 16.3125Z" fill="#4285F4"/>
<path d="M16.0001 29.75C19.7126 29.75 22.8251 28.525 25.1001 26.425L20.6376 22.9625C19.4126 23.7875 17.8501 24.2875 16.0001 24.2875C12.4251 24.2875 9.3876 21.875 8.3001 18.625H3.7251V22.175C5.9876 26.6625 10.6251 29.75 16.0001 29.75Z" fill="#34A853"/>
<path d="M8.3 18.6125C8.025 17.7875 7.8625 16.9125 7.8625 16C7.8625 15.0875 8.025 14.2125 8.3 13.3875V9.83752H3.725C2.7875 11.6875 2.25 13.775 2.25 16C2.25 18.225 2.7875 20.3125 3.725 22.1625L7.2875 19.3875L8.3 18.6125Z" fill="#FBBC05"/>
<path d="M16.0001 7.725C17.6889 7.725 19.2211 8.21184 20.5172 9.15653C20.9536 9.47464 21.566 9.47163 21.9479 9.08974L24.4676 6.56996C24.8679 6.16967 24.8585 5.51402 24.4171 5.15969C22.1486 3.33899 19.3191 2.25 16.0001 2.25C10.6251 2.25 5.9876 5.3375 3.7251 9.8375L8.3001 13.3875C9.3876 10.1375 12.4251 7.725 16.0001 7.725Z" fill="#EA4335"/>
</svg>
