<svg xmlns="http://www.w3.org/2000/svg"  viewBox="0 0 48 48" width="96px" height="96px"><linearGradient id="Q7XamDf1hnh~bz~vAO7C6a" x1="28" x2="28" y1="14.966" y2="6.45" gradientUnits="userSpaceOnUse"><stop offset="0" stop-color="#42a3f2"/><stop offset="1" stop-color="#42a4eb"/></linearGradient><path fill="url(#Q7XamDf1hnh~bz~vAO7C6a)" d="M42,6H14c-1.105,0-2,0.895-2,2v7.003h32V8C44,6.895,43.105,6,42,6z"/><linearGradient id="Q7XamDf1hnh~bz~vAO7C6b" x1="28" x2="28" y1="42" y2="33.054" gradientUnits="userSpaceOnUse"><stop offset="0" stop-color="#11408a"/><stop offset="1" stop-color="#103f8f"/></linearGradient><path fill="url(#Q7XamDf1hnh~bz~vAO7C6b)" d="M12,33.054V40c0,1.105,0.895,2,2,2h28c1.105,0,2-0.895,2-2v-6.946H12z"/><linearGradient id="Q7XamDf1hnh~bz~vAO7C6c" x1="28" x2="28" y1="-15.46" y2="-15.521" gradientUnits="userSpaceOnUse"><stop offset="0" stop-color="#3079d6"/><stop offset="1" stop-color="#297cd2"/></linearGradient><path fill="url(#Q7XamDf1hnh~bz~vAO7C6c)" d="M12,15.003h32v9.002H12V15.003z"/><linearGradient id="Q7XamDf1hnh~bz~vAO7C6d" x1="12" x2="44" y1="28.53" y2="28.53" gradientUnits="userSpaceOnUse"><stop offset="0" stop-color="#1d59b3"/><stop offset="1" stop-color="#195bbc"/></linearGradient><path fill="url(#Q7XamDf1hnh~bz~vAO7C6d)" d="M12,24.005h32v9.05H12V24.005z"/><path d="M22.319,13H12v24h10.319C24.352,37,26,35.352,26,33.319V16.681C26,14.648,24.352,13,22.319,13z" opacity=".05"/><path d="M22.213,36H12V13.333h10.213c1.724,0,3.121,1.397,3.121,3.121v16.425	C25.333,34.603,23.936,36,22.213,36z" opacity=".07"/><path d="M22.106,35H12V13.667h10.106c1.414,0,2.56,1.146,2.56,2.56V32.44C24.667,33.854,23.52,35,22.106,35z" opacity=".09"/><linearGradient id="Q7XamDf1hnh~bz~vAO7C6e" x1="4.744" x2="23.494" y1="14.744" y2="33.493" gradientUnits="userSpaceOnUse"><stop offset="0" stop-color="#256ac2"/><stop offset="1" stop-color="#1247ad"/></linearGradient><path fill="url(#Q7XamDf1hnh~bz~vAO7C6e)" d="M22,34H6c-1.105,0-2-0.895-2-2V16c0-1.105,0.895-2,2-2h16c1.105,0,2,0.895,2,2v16	C24,33.105,23.105,34,22,34z"/><path fill="#fff" d="M18.403,19l-1.546,7.264L15.144,19h-2.187l-1.767,7.489L9.597,19H7.641l2.344,10h2.352l1.713-7.689	L15.764,29h2.251l2.344-10H18.403z"/></svg>