<svg xmlns="http://www.w3.org/2000/svg" class="icon icon-tabler icon-tabler-file-database" width="24" height="24" viewBox="0 0 24 24" stroke-width="2" stroke="currentColor" fill="none" stroke-linecap="round" stroke-linejoin="round">
   <path stroke="none" d="M0 0h24v24H0z" fill="none"></path>
   <path d="M12 12.75m-4 0a4 1.75 0 1 0 8 0a4 1.75 0 1 0 -8 0"></path>
   <path d="M8 12.5v3.75c0 .966 1.79 1.75 4 1.75s4 -.784 4 -1.75v-3.75"></path>
   <path d="M14 3v4a1 1 0 0 0 1 1h4"></path>
   <path d="M17 21h-10a2 2 0 0 1 -2 -2v-14a2 2 0 0 1 2 -2h7l5 5v11a2 2 0 0 1 -2 2z"></path>
</svg>